<svg xmlns="http://www.w3.org/2000/svg" width="60" height="60" viewBox="0 0 60 60">
  <g id="Group_13999" data-name="Group 13999" transform="translate(769 -22214)">
    <g id="Group_13921" data-name="Group 13921" transform="translate(-769 22218)">
      <g id="Group_12139" data-name="Group 12139" transform="translate(0 0)">
        <path id="Path_16109" data-name="Path 16109" d="M-236.359,708.546a6.3,6.3,0,0,0-7.676.811,5.722,5.722,0,0,0-4.554-5.164c-3.738-1.054-6.9,2.25-6.9,2.25s-1.032-3.614-5.863-3.029a6.677,6.677,0,0,0-5.295,4.262c-5.1-5.567-11.613,2.162-10.45,4.1A6.587,6.587,0,0,0-284.259,713a5.713,5.713,0,0,0-1.629,6.689,6.305,6.305,0,0,0-7.173,2.853c-3.251,5.218,11.67,22.98,21.736,27.29a2.679,2.679,0,0,0-.886,3.956c2.551,4.281,17.039.384,17.026.354,0,.033,14.641-3.259,14.908-8.235a2.679,2.679,0,0,0-2.626-3.088C-236,734.316-231.053,711.652-236.359,708.546Z" transform="translate(293.514 -703.351)" fill="#f6f6f6"/>
      </g>
      <g id="Group_12145" data-name="Group 12145" transform="translate(10.474 9.554)">
        <g id="Group_12140" data-name="Group 12140" transform="translate(17.509 0.008)">
          <path id="Path_16110" data-name="Path 16110" d="M-228.478,752.777c-7.646-30.981-7.438-29.5-6.986-29.614.473-.116-.032-1.437,7.6,29.464A.314.314,0,0,1-228.478,752.777Z" transform="translate(235.646 -723.125)" fill="#dad6e2" opacity="0.338"/>
        </g>
        <g id="Group_12141" data-name="Group 12141" transform="translate(0 11.064)">
          <path id="Path_16111" data-name="Path 16111" d="M-271.8,746.031a.315.315,0,0,1,.429.111,134.358,134.358,0,0,0,14.707,20.222.313.313,0,0,1-.028.443C-257.589,767.584-272.853,746.658-271.8,746.031Z" transform="translate(271.854 -745.988)" fill="#dad6e2" opacity="0.338"/>
        </g>
        <g id="Group_12142" data-name="Group 12142" transform="translate(8.869 4.587)">
          <path id="Path_16112" data-name="Path 16112" d="M-253.457,732.61a.321.321,0,0,1,.4.193c3.087,8.891,6.595,17.6,10.425,25.894a.316.316,0,0,1-.154.417C-243.531,759.447-254.381,732.934-253.457,732.61Z" transform="translate(253.513 -732.595)" fill="#dad6e2" opacity="0.338"/>
        </g>
        <g id="Group_12143" data-name="Group 12143" transform="translate(34.505 1.632)">
          <path id="Path_16113" data-name="Path 16113" d="M-200.259,751.9a.315.315,0,0,1-.231-.378,134.539,134.539,0,0,0,3.61-24.744.314.314,0,0,1,.626.032,134.933,134.933,0,0,1-3.627,24.859A.313.313,0,0,1-200.259,751.9Z" transform="translate(200.498 -726.483)" fill="#dad6e2" opacity="0.338"/>
        </g>
        <g id="Group_12144" data-name="Group 12144" transform="translate(27.303)">
          <path id="Path_16114" data-name="Path 16114" d="M-212.566,751.236c-.468-9.134-1.418-18.477-2.82-27.77a.314.314,0,0,1,.62-.094c1.406,9.313,2.358,18.676,2.827,27.833A.314.314,0,0,1-212.566,751.236Z" transform="translate(215.391 -723.109)" fill="#dad6e2" opacity="0.338"/>
        </g>
      </g>
      <g id="Group_12146" data-name="Group 12146" transform="translate(24.604 39.399)">
        <path id="Path_16115" data-name="Path 16115" d="M-242.632,790.777a.313.313,0,0,1,.294-.332,64.309,64.309,0,0,0,22.635-5.587.314.314,0,0,1,.258.572C-230.435,790.384-242.586,791.552-242.632,790.777Z" transform="translate(242.632 -784.829)" fill="#dad6e2"/>
      </g>
    </g>
    <rect id="bound" width="60" height="60" transform="translate(-769 22214)" fill="none"/>
  </g>
</svg>
