<svg xmlns="http://www.w3.org/2000/svg" width="155" height="26">
    <defs>
        <clipPath id="clip-path">
            <path id="Path_16696" data-name="Path 16696" class="cls-1" d="m22.327-49.151-2.254-8.979a2.671 2.671 0 0 0-1.459-1.828 2.238 2.238 0 0 0-1.974.041l-1.09.551a1.82 1.82 0 0 1-.811.2H8.253a1.82 1.82 0 0 1-.811-.2l-1.086-.551a2.238 2.238 0 0 0-1.974-.041 2.671 2.671 0 0 0-1.46 1.828L.664-49.151a3.762 3.762 0 0 0 .77 3.361 2.882 2.882 0 0 0 2.432 1.022 3 3 0 0 0 2.3-1.455l1.962-3.125a2.371 2.371 0 0 1 .835-.811 5.173 5.173 0 0 1 5.1 0 2.371 2.371 0 0 1 .835.811l1.962 3.125a3 3 0 0 0 2.3 1.455 2.056 2.056 0 0 0 .223 0 2.911 2.911 0 0 0 2.177-1.022 3.762 3.762 0 0 0 .767-3.361zM8.253-53.9H6.631v1.621a.405.405 0 0 1-.405.405.405.405 0 0 1-.405-.405V-53.9H4.2a.405.405 0 0 1-.405-.405.405.405 0 0 1 .405-.405h1.62v-1.62a.405.405 0 0 1 .405-.405.405.405 0 0 1 .405.405v1.621h1.623a.405.405 0 0 1 .405.405.405.405 0 0 1-.405.404zm8.107-2.838a.811.811 0 0 1 .811.811.811.811 0 0 1-.811.811.811.811 0 0 1-.811-.811.811.811 0 0 1 .811-.808zm-1.621 3.243a.811.811 0 0 1-.811-.811.811.811 0 0 1 .811-.811.811.811 0 0 1 .811.811.811.811 0 0 1-.811.814zm1.621 1.621a.811.811 0 0 1-.811-.811.811.811 0 0 1 .811-.811.811.811 0 0 1 .811.811.811.811 0 0 1-.811.814zm1.621-1.621a.811.811 0 0 1-.811-.811.811.811 0 0 1 .811-.811.811.811 0 0 1 .811.811.811.811 0 0 1-.81.814z" transform="translate(-.546 60.168)"/>
        </clipPath>
        <style>
            .cls-1{fill:#fff}
        </style>
    </defs>
    <g id="Group_14635" data-name="Group 14635" transform="translate(8925 -5399)">
        <path id="Path_17551" data-name="Path 17551" d="M0 0h155l-10.114 12.407L155 26H0l10.114-12.293z" transform="translate(-8925 5399)" style="fill:#00a4eb"/>
        <g id="Group_14634" data-name="Group 14634">
            <text id="Activity" transform="translate(-8869 5417)" style="font-size:14px;font-family:BalooThambi-Regular,Baloo Thambi;fill:#fff"><tspan x="0" y="0">Activity</tspan></text>
            <g id="Group_14618" data-name="Group 14618" transform="translate(-8901.293 5465.168)">
                <g id="Group_13527" data-name="Group 13527" transform="translate(.546 -60.168)" style="clip-path:url(#clip-path)">
                    <path id="Path_16695" data-name="Path 16695" class="cls-1" d="M-4.454-65.168h24.493v18H-4.454z" transform="translate(3.156 63.871)"/>
                </g>
            </g>
        </g>
    </g>
</svg>
