<svg xmlns="http://www.w3.org/2000/svg" width="48" height="48" viewBox="0 0 48 48"><path d="M340.311,76H323.089C309.767,76,307.7,78.51,307.7,94.682v7.847c0,19.017,2.067,21.471,17.686,21.471h12.629c15.618,0,17.686-2.454,17.686-21.471V94.682C355.7,78.51,353.633,76,340.311,76Z" transform="translate(-307.7 -76)" fill="#f2f2f2"/><g transform="matrix(0.966, 0.259, -0.259, 0.966, 14.9, 2.041)"><g transform="translate(9.768 2.435)"><path d="M11.022.619A6.206,6.206,0,0,1,9.144,3.835c-.184.181-.367.362-.551.512a7.057,7.057,0,0,1-1.907,1.2,9.6,9.6,0,0,1-1.608.407c-.247.058-.526.085-.8.142A22.446,22.446,0,0,1,1.389,6.3a5.849,5.849,0,0,0-.745-.01C.3,6.315.179,6.344.116,6.282h0C.053,6.22.052,6.129.233,5.734c.031-.03.03-.091.06-.152a7.794,7.794,0,0,1,.362-.729A11.922,11.922,0,0,1,3.068,2.133a2.663,2.663,0,0,1,.369-.27c.215-.15.523-.329.892-.538A11.379,11.379,0,0,1,7.045.291h.031A3.848,3.848,0,0,1,7.757.178c.62-.053,1.458-.072,2.73-.055a.952.952,0,0,1,.466.067c.031,0,.031.031.063.062A1.314,1.314,0,0,1,11.022.619Z" transform="translate(0.031 0)" fill="#2c858d"/><path d="M9.175,3.834c-.184.181-.367.362-.551.512a13.885,13.885,0,0,0-1.619-.327c-.839-.072-1.646-.083-2.485-.125a17.241,17.241,0,0,1-1.727.772c.25.1.531.221.781.347a15.2,15.2,0,0,1,1.5.907c-.247.058-.526.085-.8.142-.313-.188-.532-.343-.532-.343a5.584,5.584,0,0,0-1.469-.692C1.316,5.564.608,5.952.115,6.22h0c-.063-.062-.064-.154.116-.549H.263A23.081,23.081,0,0,0,3.247,3.816a5.032,5.032,0,0,1,.189-1.985c.215-.15.523-.329.892-.538a4.821,4.821,0,0,0-.422.911c-.118.457-.173.945-.259,1.4.986-.507,1.941-1.013,2.9-1.551A3.376,3.376,0,0,1,6.833.685c.06-.121.12-.3.211-.456A3.848,3.848,0,0,1,7.725.116c-.152.243-.366.454-.487.7a6.142,6.142,0,0,0-.357,1.065A23.408,23.408,0,0,1,10.922.128c.031,0,.031.031.063.062a.7.7,0,0,1,.1.4,57.854,57.854,0,0,0-5.7,2.889A7.194,7.194,0,0,1,9.175,3.834Z" transform="translate(0 0.001)" fill="#add8cf"/></g><path d="M3.231,11.943C2.761,10.1,2,8.4,1.644,6.5c-.384-2.063-.292-4.089-.5-6.149a.335.335,0,0,0-.654-.1A16.526,16.526,0,0,0,2.346,12.3C2.678,12.746,3.387,12.507,3.231,11.943Z" transform="translate(9.558 2.886)" fill="#49443a"/><path d="M2.646,5.605c3.667-3.863,5.822-2.094,7.891-2.537C12.894,2.6,14.981-.877,20.158.589c9.225,2.6,9.846,21.656,3.084,24.62-1.375.611-2.076-.094-5.178.682-3.275.8-3.808,1.9-5.475,2.193C4.394,29.448-4.234,12.864,2.646,5.605Z" transform="translate(0.721 8.293)" fill="#ee4860"/><path d="M.608.007C-.286.026-.148,1.078.786,1.647,2.871,3,1.719-.008.608.007Z" transform="translate(21.467 11.527)" fill="#e55542"/><path d="M.345.24c-.847.795.1,2.451.917,2.059C1.933,2,1.5-.8.345.24Z" transform="translate(21.361 15.091)" fill="#e55542"/><path d="M1.041.22C.142-.662-.348,1.442.334,2.166,1.326,3.173,1.784.944,1.041.22Z" transform="translate(23.509 17.506)" fill="#e55542"/><path d="M.842,1.037C1.361.7.606-.357.12.131-.275.527.445,1.31.842,1.037Z" transform="translate(24.358 15.011)" fill="#e55542"/><path d="M1.4.251C.464-.754-.421,1.684.262,2.313,1.131,3.132,2.113,1.036,1.4.251Z" transform="translate(21.799 21.675)" fill="#e55542"/><path d="M.434,1.012c.652.256,1.045-.325.328-.828C-.142-.445-.218.757.434,1.012Z" transform="translate(18.656 12.941)" fill="#e55542"/><path d="M1.366.249C.556-.755-.481,1.712.292,2.281,1.034,2.788,1.865.876,1.366.249Z" transform="translate(25.589 21.097)" fill="#e55542"/><path d="M1.006.156C.662-.313-.281.417.1,1.227.416,1.882,1.476.782,1.006.156Z" transform="translate(22.661 25.169)" fill="#e55542"/><path d="M2.36.49C1.722-1.128-.42,1.906.114,2.686.711,3.561,2.871,1.827,2.36.49Z" transform="translate(24.025 26.546)" fill="#e55542"/></g></svg>