<svg xmlns="http://www.w3.org/2000/svg" width="27.667" height="28.305" viewBox="0 0 27.667 28.305"><defs><style>.a{fill:#356fbe;stroke:#fff;stroke-width:0.5px;}</style></defs><g transform="translate(24.064 -1.523) rotate(73)"><path class="a" d="M4.814,25.766a4.823,4.823,0,0,0,4.814-4.86V6.739a3.211,3.211,0,1,0-6.418,0V19.76a.917.917,0,1,0,1.834,0V6.739a1.378,1.378,0,1,1,2.751,0V20.906a2.98,2.98,0,1,1-5.96,0V6.464a4.638,4.638,0,0,1,4.585-4.63A4.608,4.608,0,0,1,11,6.464v13.3a.917.917,0,1,0,1.834,0V6.464A6.419,6.419,0,1,0,0,6.464v14.4A4.863,4.863,0,0,0,4.814,25.766Z" transform="translate(0 6.418) rotate(-30)"/></g></svg>