<svg xmlns="http://www.w3.org/2000/svg" width="413.971" height="140.322">
    <g data-name="Group 24844">
        <g style="opacity:.4;isolation:isolate">
            <path data-name="Path 13188" d="M239.613 129.118a52.255 52.255 0 0 1-6.234 7.395c-.327.326-.663.652-.99.97-2.506.032-5.236.056-8.158.087l-6.13.048c-22.661.175-54.845.286-90.549.286-38.258 0-72.477-.127-95.274-.326a87.86 87.86 0 0 1-1.277-1.161 164.343 164.343 0 0 1-21.113-23.528c-3.632-4.93-7.04-10.162-8.764-16.03S-.489 84.353 2.64 79.089c7.8-13.119 28.089-11 40.038-20.53 8.884-7.077 11.534-19.146 14.464-30.1s7.822-22.931 18.4-27.1c9.93-3.9 21.113.644 30.244 6.154s18.191 12.269 28.831 13.127c9.116.732 17.968-3.029 26.022-7.347s15.916-9.327 24.808-11.45 19.341-.716 25.335 6.162c6.976 8.007 5.651 20.093 3.289 30.429s-5.268 21.667-.439 31.121c6.138 12.03 22.334 15.974 29.183 27.622 5.722 9.765 3.2 22.63-3.202 31.941z" transform="translate(80.993 .096)" style="fill:#ddd"/>
        </g>
        <path data-name="Path 15885" d="M209.178-10C323.5-10 413.971 16.189 413.971 16.189L207 15H0s94.855-25 209.178-25z" transform="translate(0 124.133)" style="fill:#b7b7b7"/>
    </g>
</svg>
