<svg xmlns="http://www.w3.org/2000/svg" width="59" height="57" viewBox="0 0 59 57">
  <g id="Group_13878" data-name="Group 13878" transform="translate(-1012 -596)">
    <path id="Path_16935" data-name="Path 16935" d="M345.746,76H325.654C310.112,76,307.7,78.823,307.7,97.017v8.828c0,21.394,2.412,24.154,20.633,24.154h14.734c18.221,0,20.633-2.761,20.633-24.154V97.017C363.7,78.823,361.288,76,345.746,76Z" transform="translate(705.8 521.5)" fill="#f56523" stroke="#fff" stroke-width="3"/>
    <g id="save_menu_lower" transform="translate(1026 610)">
      <g id="Group_12075" data-name="Group 12075">
        <rect id="bound" width="30" height="30" fill="none"/>
        <path id="Path_16936" data-name="Path 16936" d="M-.068,11.141v-.117h0A2.978,2.978,0,0,1,.711,9.077a28.444,28.444,0,0,1,3.506-3.9C5.659,3.7,7.3,2.025,8.5.9c3.039-2.844,2.727,1.948,3.974,2.377,1.6.545,9.194,0,11.3,0,2.065,0,1.909,1.364,1.909,2.727v5.221h0c-.039,2.416-.039,4.13-.039,5.026,0,1.364.195,2.727-1.909,2.727-2.065,0-9.7-.545-11.3,0-1.247.429-.935,5.221-3.974,2.377-1.208-1.13-2.844-2.805-4.286-4.286a28.444,28.444,0,0,1-3.506-3.9,2.978,2.978,0,0,1-.779-1.948h0C-.068,11.18-.068,11.18-.068,11.141Z" transform="translate(2.107 3.43)" fill="#fff"/>
      </g>
    </g>
  </g>
</svg>
