<svg xmlns="http://www.w3.org/2000/svg" width="48" height="48" viewBox="0 0 48 48"><path d="M340.311,76H323.089C309.767,76,307.7,78.51,307.7,94.682v7.847c0,19.017,2.067,21.471,17.686,21.471h12.629c15.618,0,17.686-2.454,17.686-21.471V94.682C355.7,78.51,353.633,76,340.311,76Z" transform="translate(-307.7 -76)" fill="#f2f2f2"/><g transform="translate(12.091 6.311)"><path d="M20.281,25.166c-3.6,7.019-11.953,11.664-17.722,9.574A5.325,5.325,0,0,1,.174,33.32a1.207,1.207,0,0,1-.219-.387,1.517,1.517,0,0,1-.1-.31c-.365-2.5,6.621-3.1,11.368-9.574,2.021-2.735,2.9-6.064,4.7-12.748a7.658,7.658,0,0,0,.341-4.258C15.9,4.7,15.121,4.005,14.926,3.231a1.3,1.3,0,0,1,0-.748c.17-.594.779-.981,2-1.781.876-.568,1.582-1.006,2-.7a.729.729,0,0,1,.268.49,7.839,7.839,0,0,1,.073.929c.049,1.677,0,2.864,0,3.2-.024,1.445.584,2.168,1.339,3.9a30.1,30.1,0,0,1,1.68,6.013C23.178,19.488,20.793,24.185,20.281,25.166Z" transform="translate(0.156 0.097)" fill="#ffcd62"/><path d="M65.99.538A4.532,4.532,0,0,1,63.263,3a4.82,4.82,0,0,1-1.534.146,1.164,1.164,0,0,1,0-.706c.17-.56.779-.925,2-1.68.876-.536,1.582-.949,2-.657A.576.576,0,0,1,65.99.538Z" transform="translate(-46.623 0.021)" fill="#49443a"/><path d="M17.708,51.477a19.745,19.745,0,0,1-3.481,6.451C10.843,61.677,5.512,63.089.619,63.649A1.124,1.124,0,0,1,.4,63.284c4.8-.974,9.737-1.85,13.267-5.55a19.238,19.238,0,0,0,3.8-6.962,20.794,20.794,0,0,0,1.388-8.082.171.171,0,0,1,.341,0A19.113,19.113,0,0,1,17.708,51.477Z" transform="translate(-0.265 -30.147)" fill="#fff7e1"/><path d="M19.07,130.555c-.511.389.511.828,1.144.657C22.015,131.115,20.847,129.167,19.07,130.555Z" transform="translate(-14.285 -96.372)" fill="#fcb932"/><path d="M30.236,125.306c-.682-.219-1.9.828-.511.876C30.5,126.183,31.039,125.55,30.236,125.306Z" transform="translate(-21.97 -92.754)" fill="#fcb932"/><path d="M40.058,126.15c-.511-.146-1.85.73-1.242,1.193C39.4,127.781,41.008,126.417,40.058,126.15Z" transform="translate(-29.212 -93.403)" fill="#fcb932"/><path d="M50.689,121.973c-.511-.1-.8.657-.56.828C50.47,123.044,51.59,122.144,50.689,121.973Z" transform="translate(-37.822 -90.249)" fill="#fcb932"/><path d="M45.924,93.461c-.755-.365-1.972,1.631-.779,1.339C46.435,94.483,46.24,93.607,45.924,93.461Z" transform="translate(-33.738 -69.224)" fill="#fcb932"/><path d="M55.1,86.179c-.146.122-.755.56-.706.852.024.17.195.365.536.219C55.828,86.812,55.633,85.741,55.1,86.179Z" transform="translate(-41.111 -63.791)" fill="#fcb932"/><path d="M44.819,101.127c-.584-.195-1.144.876-.9,1.1C44.308,102.587,45.72,101.443,44.819,101.127Z" transform="translate(-33.145 -74.934)" fill="#fcb932"/></g></svg>