<svg xmlns="http://www.w3.org/2000/svg" width="48" height="48" viewBox="0 0 48 48"><path d="M340.311,76H323.089C309.767,76,307.7,78.51,307.7,94.682v7.847c0,19.017,2.067,21.471,17.686,21.471h12.629c15.618,0,17.686-2.454,17.686-21.471V94.682C355.7,78.51,353.633,76,340.311,76Z" transform="translate(-307.7 -76)" fill="#f2f2f2"/><g transform="translate(9.127 9.111)"><path d="M-70.1,149.648c-.208-3.387-1.925-9.928-2.528-12.434a85.375,85.375,0,0,0-8.768,1.067c-.651,3.52-1.856,7.933-1.634,11.366Z" transform="translate(91.675 -117.123)" fill="#714826"/><g transform="translate(0 0)"><path d="M-25.345,71.818c1.6-.105,3.28-.828,3.024-2.677a2.425,2.425,0,0,0-3.592-1.85,3.151,3.151,0,0,0-1.3,2.715Z" transform="translate(51.783 -66.442)" fill="#c49061"/><path d="M-23.65,73.921c.271-.662.5-2.065,1.488-2.193.626-.081,1.444.3,1.183,1.287-.158.6-1.07.8-1.7.916-.35.063-.536.119-.867.189Z" transform="translate(49.211 -69.858)" fill="#714826"/><path d="M-110.586,71.93c-.3-1.574-1.216-3.157-3.021-2.681a2.425,2.425,0,0,0-1.405,3.788,3.15,3.15,0,0,0,2.852.967Z" transform="translate(115.476 -68.015)" fill="#c49061"/><path d="M-108.516,76.626c-.705-.1-2.146-.009-2.311-1a1.147,1.147,0,0,1,.974-1.253c.592-.035.939.583,1.173,1.128.14.328.239.678.348,1Z" transform="translate(112.127 -71.777)" fill="#714826"/><path d="M-104.935,90.474c-2.316-.747-7.119-2.8-7.831-8.633-1.031-8.442,1.07-12.911,6.417-15.28a20.539,20.539,0,0,1,17.113.764c4.125,2.291,5.042,7.946,5.119,11.765.071,3.591-1.262,9.741-8.443,11.46C-96.235,91.43-101.268,91.658-104.935,90.474Z" transform="translate(113.704 -65.039)" fill="#c49061"/><ellipse cx="0.631" cy="0.742" rx="0.631" ry="0.742" transform="translate(7.755 11.209)" fill="#1a1818"/><path d="M-38.05,106.048a.694.694,0,0,1-.631.742.694.694,0,0,1-.631-.742.693.693,0,0,1,.631-.742A.693.693,0,0,1-38.05,106.048Z" transform="translate(60.513 -94.097)" fill="#1a1818"/><path d="M-75.677,111.017a4.453,4.453,0,0,0-3.246,3.018c-.931,2.617-1.222,5.347.993,6.417,2.3,1.108,6.723.65,7.755-.573,1.227-1.454,1.069-3.935.267-6C-70.773,111.661-72.343,110.512-75.677,111.017Z" transform="translate(89.602 -98.134)" fill="#dbc4a9"/><path d="M-64.963,114.369a2.876,2.876,0,0,0-1.474-.3,2.875,2.875,0,0,0-1.474.3.834.834,0,0,0-.55,1,1.557,1.557,0,0,0,.634.834,2.222,2.222,0,0,0,1.39.483,2.226,2.226,0,0,0,1.391-.483,1.562,1.562,0,0,0,.633-.834A.834.834,0,0,0-64.963,114.369Z" transform="translate(81.573 -100.42)" fill="#1a1818"/><g transform="translate(14.966 16.029)"><path d="M-61.368,127.095a.14.14,0,0,1-.136-.109,14.952,14.952,0,0,1-.107-4.241.14.14,0,0,1,.156-.12.139.139,0,0,1,.119.156,14.614,14.614,0,0,0,.1,4.144.139.139,0,0,1-.106.166A.137.137,0,0,1-61.368,127.095Z" transform="translate(61.712 -122.624)" fill="#1a1818"/></g><g transform="translate(12.525 19.277)"><path d="M-67.835,136.03a4.242,4.242,0,0,1-2.6-.751.139.139,0,0,1-.014-.2.139.139,0,0,1,.2-.014,4.394,4.394,0,0,0,3.175.625,3.056,3.056,0,0,0,2.211-1.337.14.14,0,0,1,.191-.047.14.14,0,0,1,.047.191,3.325,3.325,0,0,1-2.406,1.468A5.174,5.174,0,0,1-67.835,136.03Z" transform="translate(70.479 -134.29)" fill="#1a1818"/></g><path d="M-102.273,117.329a2.274,2.274,0,0,0-.334,3.723,2.243,2.243,0,0,0,3.6-1.8A2.207,2.207,0,0,0-102.273,117.329Z" transform="translate(106.781 -102.589)" fill="#b46948"/><path d="M-30.3,117.452a2.38,2.38,0,0,0-.917,2.664,2.218,2.218,0,0,0,3.4.98,2.371,2.371,0,0,0,.443-3.072A2.186,2.186,0,0,0-30.3,117.452Z" transform="translate(54.746 -102.624)" fill="#b46948"/><path d="M-58.65,116.77c.355-.412-.7-.63-.764-.268S-58.848,117-58.65,116.77Z" transform="translate(75.023 -102.044)" fill="#bdaa94"/></g></g></svg>