<?xml version="1.0" encoding="utf-8"?>
<!-- Generator: Adobe Illustrator 24.1.1, SVG Export Plug-In . SVG Version: 6.00 Build 0)  -->
<svg version="1.1" id="Layer_1" xmlns="http://www.w3.org/2000/svg" xmlns:xlink="http://www.w3.org/1999/xlink" x="0px" y="0px"
	 viewBox="0 0 31.1 20.5" style="enable-background:new 0 0 31.1 20.5;" xml:space="preserve">
<style type="text/css">
	.st0{fill:#FBA400;}
	.st1{clip-path:url(#SVGID_2_);}
	.st2{clip-path:url(#SVGID_4_);}
	.st3{clip-path:url(#SVGID_6_);}
	.st4{clip-path:url(#SVGID_8_);}
	.st5{clip-path:url(#SVGID_10_);}
	.st6{clip-path:url(#SVGID_12_);}
	.st7{clip-path:url(#SVGID_14_);}
	.st8{clip-path:url(#SVGID_16_);}
</style>
<g id="Layer_2_1_">
	<g id="Layer_1-2">
		<g id="Group_13981">
			<g id="Gold">
				<g id="Group_13979">
					<g id="Group_9565">
						<path class="st0" d="M5.7,0.7C4.4,1.8,4.3,3.8,5.4,5.1l1.8,2l0.6-0.6c1.3-1.1,1.4-3.1,0.3-4.4l-1.8-2L5.7,0.7z"/>
						<g>
							<defs>
								<path id="SVGID_1_" d="M5.7,0.7C4.4,1.8,4.3,3.8,5.4,5.1l1.8,2l0.6-0.6c1.3-1.1,1.4-3.1,0.3-4.4l-1.8-2L5.7,0.7z"/>
							</defs>
							<clipPath id="SVGID_2_">
								<use xlink:href="#SVGID_1_"  style="overflow:visible;"/>
							</clipPath>
							<g class="st1">
								<g id="Group_9553">
									<path id="Path_13588" class="st0" d="M1.4-10.2l18.8,7.6l-8.1,20L-6.7,9.8L1.4-10.2z"/>
								</g>
							</g>
						</g>
						<path class="st0" d="M5.9,11.1l0.3-0.8c0.6-1.6-0.2-3.4-1.8-4L2,5.3L1.7,6.1c-0.6,1.6,0.2,3.4,1.8,4L5.9,11.1z"/>
						<g>
							<defs>
								<path id="SVGID_3_" d="M5.9,11.1l0.3-0.8c0.6-1.6-0.2-3.4-1.8-4L2,5.3L1.7,6.1c-0.6,1.6,0.2,3.4,1.8,4L5.9,11.1z"/>
							</defs>
							<clipPath id="SVGID_4_">
								<use xlink:href="#SVGID_3_"  style="overflow:visible;"/>
							</clipPath>
							<g class="st2">
								<g id="Group_9555">
									<path id="Path_13592" class="st0" d="M-2.3-4.8l19.7,8l-7.3,18l-19.7-8L-2.3-4.8z"/>
								</g>
							</g>
						</g>
						<path class="st0" d="M6.2,15.1l-0.1-0.8c-0.2-1.7-1.7-2.9-3.4-2.7l-2.6,0.3l0.1,0.8c0.2,1.7,1.7,2.9,3.4,2.7L6.2,15.1z"/>
						<g>
							<defs>
								<path id="SVGID_5_" d="M6.2,15.1l-0.1-0.8c-0.2-1.7-1.7-2.9-3.4-2.7l-2.6,0.3l0.1,0.8c0.2,1.7,1.7,2.9,3.4,2.7L6.2,15.1z"/>
							</defs>
							<clipPath id="SVGID_6_">
								<use xlink:href="#SVGID_5_"  style="overflow:visible;"/>
							</clipPath>
							<g class="st3">
								<g id="Group_9557">
									<path id="Path_13596" class="st0" d="M-3.6,0.3l20.8,8.4L9.9,26.8l-20.8-8.4L-3.6,0.3z"/>
								</g>
							</g>
						</g>
						<path class="st0" d="M4.3,16.8l-2.2,1.5L2.6,19c1,1.4,2.9,1.8,4.3,0.8c0,0,0,0,0,0l0,0l2.2-1.5l-0.5-0.7
							C7.7,16.2,5.7,15.8,4.3,16.8L4.3,16.8z"/>
						<g>
							<defs>
								<path id="SVGID_7_" d="M4.3,16.8l-2.2,1.5L2.6,19c1,1.4,2.9,1.8,4.3,0.8c0,0,0,0,0,0l0,0l2.2-1.5l-0.5-0.7
									C7.7,16.2,5.7,15.8,4.3,16.8L4.3,16.8z"/>
							</defs>
							<clipPath id="SVGID_8_">
								<use xlink:href="#SVGID_7_"  style="overflow:visible;"/>
							</clipPath>
							<g class="st4">
								<g id="Group_9559">
									<path id="Path_13600" class="st0" d="M-0.8,4.9l20.3,8.3L12,31.7l-20.3-8.2L-0.8,4.9z"/>
								</g>
							</g>
						</g>
					</g>
					<g id="Group_9566">
						<path class="st0" d="M25.4,0.7c1.3,1.1,1.4,3.1,0.3,4.4l-1.7,2l-0.6-0.6C22,5.4,21.9,3.4,23,2.1l1.7-2L25.4,0.7z"/>
						<g>
							<defs>
								<path id="SVGID_9_" d="M25.4,0.7c1.3,1.1,1.4,3.1,0.3,4.4l-1.7,2l-0.6-0.6C22,5.4,21.9,3.4,23,2.1l1.7-2L25.4,0.7z"/>
							</defs>
							<clipPath id="SVGID_10_">
								<use xlink:href="#SVGID_9_"  style="overflow:visible;"/>
							</clipPath>
							<g class="st5">
								<g id="Group_9553-2">
									<path id="Path_13588-2" class="st0" d="M29.7-10.2L10.9-2.6l8.1,20l18.8-7.6L29.7-10.2z"/>
								</g>
							</g>
						</g>
						<path class="st0" d="M25.1,11.1l-0.3-0.8c-0.6-1.6,0.2-3.4,1.8-4l2.5-0.9l0.3,0.8c0.6,1.6-0.2,3.4-1.8,4L25.1,11.1z"/>
						<g>
							<defs>
								<path id="SVGID_11_" d="M25.1,11.1l-0.3-0.8c-0.6-1.6,0.2-3.4,1.8-4l2.5-0.9l0.3,0.8c0.6,1.6-0.2,3.4-1.8,4L25.1,11.1z"/>
							</defs>
							<clipPath id="SVGID_12_">
								<use xlink:href="#SVGID_11_"  style="overflow:visible;"/>
							</clipPath>
							<g class="st6">
								<g id="Group_9555-2">
									<path id="Path_13592-2" class="st0" d="M33.3-4.8l-19.7,8l7.3,18l19.7-8L33.3-4.8z"/>
								</g>
							</g>
						</g>
						<path class="st0" d="M24.8,15.1l0.1-0.8c0.2-1.7,1.7-2.9,3.4-2.7c0,0,0,0,0,0l2.6,0.3l-0.1,0.8c-0.2,1.7-1.7,2.9-3.4,2.7
							c0,0,0,0,0,0L24.8,15.1z"/>
						<g>
							<defs>
								<path id="SVGID_13_" d="M24.8,15.1l0.1-0.8c0.2-1.7,1.7-2.9,3.4-2.7c0,0,0,0,0,0l2.6,0.3l-0.1,0.8c-0.2,1.7-1.7,2.9-3.4,2.7
									c0,0,0,0,0,0L24.8,15.1z"/>
							</defs>
							<clipPath id="SVGID_14_">
								<use xlink:href="#SVGID_13_"  style="overflow:visible;"/>
							</clipPath>
							<g class="st7">
								<g id="Group_9557-2">
									<path id="Path_13596-2" class="st0" d="M34.6,0.3L13.8,8.7l7.3,18.1l20.8-8.4L34.6,0.3z"/>
								</g>
							</g>
						</g>
						<path class="st0" d="M26.8,16.8l2.2,1.5L28.5,19c-1,1.4-2.9,1.8-4.3,0.8c0,0,0,0,0,0l0,0L22,18.3l0.5-0.7
							C23.4,16.2,25.4,15.8,26.8,16.8z"/>
						<g>
							<defs>
								<path id="SVGID_15_" d="M26.8,16.8l2.2,1.5L28.5,19c-1,1.4-2.9,1.8-4.3,0.8c0,0,0,0,0,0l0,0L22,18.3l0.5-0.7
									C23.4,16.2,25.4,15.8,26.8,16.8z"/>
							</defs>
							<clipPath id="SVGID_16_">
								<use xlink:href="#SVGID_15_"  style="overflow:visible;"/>
							</clipPath>
							<g class="st8">
								<g id="Group_9559-2">
									<path id="Path_13600-2" class="st0" d="M31.9,4.9l-20.3,8.3l7.6,18.6l20.3-8.2L31.9,4.9z"/>
								</g>
							</g>
						</g>
					</g>
				</g>
			</g>
		</g>
	</g>
</g>
</svg>
