<svg xmlns="http://www.w3.org/2000/svg" width="33" height="33" viewBox="0 0 33 33">
  <g id="camera_profile" transform="translate(-300 -253)">
    <circle id="Ellipse_1545" data-name="Ellipse 1545" cx="16.5" cy="16.5" r="16.5" transform="translate(300 253)" fill="#fff"/>
    <path id="Union_35" data-name="Union 35" d="M5.73,15.351c-2.464,0-3.95-.165-4.761-1.041S0,11.809,0,9.133V6.859C0,4.636.145,3.192.875,2.4s2.062-.949,4.112-.949H6.923A2.289,2.289,0,0,1,6.893,1V.707C6.893.093,6.98,0,7.546,0H12.54c.564,0,.652.093.652.707V1a2.177,2.177,0,0,1-.03.449h2.386c2.049,0,3.386.155,4.113.949s.878,2.238.878,4.461V9.133c0,2.676-.156,4.3-.974,5.177s-2.3,1.041-4.759,1.041ZM9.251,4.069a4.509,4.509,0,0,0-3.37,2.707,4.114,4.114,0,0,0-.207.711,4.67,4.67,0,0,0,1.4,3.61,4.236,4.236,0,0,0,3.019,1.356,3.925,3.925,0,0,0,.73-.072,4.737,4.737,0,0,0,.752-.222,5.3,5.3,0,0,0,2.768-2.543,4.3,4.3,0,0,0,.264-.68,3.308,3.308,0,0,0,.109-.7,2.964,2.964,0,0,0-.171-.83,6.883,6.883,0,0,0-1.655-2.341,4.017,4.017,0,0,0-2.707-1.088h-.01A4.961,4.961,0,0,0,9.251,4.069ZM2.782,2.656a.759.759,0,0,0-.567.464.866.866,0,0,0-.039.118.784.784,0,0,0,.24.614.719.719,0,0,0,.513.232.485.485,0,0,0,.123-.015.643.643,0,0,0,.126-.036A.89.89,0,0,0,3.651,3.6a.558.558,0,0,0,.042-.114.519.519,0,0,0,.022-.119.52.52,0,0,0-.031-.139c-.063-.139-.3-.588-.74-.588A.861.861,0,0,0,2.782,2.656ZM7.195,7.941a2.525,2.525,0,0,1,.141-.469A2.962,2.962,0,0,1,9.563,5.678a3.012,3.012,0,0,1,.612-.062,3.418,3.418,0,0,1,2.906,2.279,2.007,2.007,0,0,1,.111.552,1.857,1.857,0,0,1-.078.459,2.239,2.239,0,0,1-.172.449,3.481,3.481,0,0,1-1.836,1.692,3.341,3.341,0,0,1-.5.144,2.488,2.488,0,0,1-.487.049A3.139,3.139,0,0,1,7.195,7.941Z" transform="translate(306.471 262.059)" fill="#f86509"/>
  </g>
</svg>
