<svg xmlns="http://www.w3.org/2000/svg" width="48" height="48" viewBox="0 0 48 48"><path d="M340.311,76H323.089C309.767,76,307.7,78.51,307.7,94.682v7.847c0,19.017,2.067,21.471,17.686,21.471h12.629c15.618,0,17.686-2.454,17.686-21.471V94.682C355.7,78.51,353.633,76,340.311,76Z" transform="translate(-307.7 -76)" fill="#f2f2f2"/><g transform="translate(7.122 9.002)"><g transform="translate(0 0)"><path d="M-784.812,134.409c-.541-3.926-1.4-8.433-2.166-12.386-.722-.092-9,1.121-9,1.121a81.783,81.783,0,0,0-2.16,11.265Z" transform="translate(809.327 -101.039)" fill="#805c42"/><path d="M-827.06,56.224a55.529,55.529,0,0,0-7.029-1.54s1.57,4.709,3.36,6.671Z" transform="translate(835.271 -52.448)" fill="#e8ca9a"/><path d="M-821.318,62.986a17.877,17.877,0,0,0-3.607-1.15,9.122,9.122,0,0,0,2.364,3.157Z" transform="translate(828.657 -57.61)" fill="#805c42"/><path d="M-744.7,53.709c.375-.722,1.466-2.766,1.409-7.056,0,0-4.463,2.508-6.608,3.482Z" transform="translate(774.516 -46.653)" fill="#e8ca9a"/><path d="M-742.586,59.574a8.472,8.472,0,0,0,1.084-3.628,15.113,15.113,0,0,1-3.225,2.16Z" transform="translate(770.783 -53.359)" fill="#805c42"/><path d="M-816.076,51.6c-2.355.247-10.139,1.088-11.818,9.766-1.218,6.295-.528,10.574,3.048,13.218,3.2,2.364,9.331,2.736,13.685,2.364,3.395-.291,10.356-1.586,11.476-8.024s-.467-11.818-3.3-14.431S-810.447,51.009-816.076,51.6Z" transform="translate(831.201 -50.096)" fill="#e8ca9a"/><path d="M-781.11,104.907c-.872,0-1.956.166-1.919.995a2.046,2.046,0,0,0,.881,1.462,1.726,1.726,0,0,0,1.038.4,1.725,1.725,0,0,0,1.038-.4,2.045,2.045,0,0,0,.881-1.462C-779.154,105.073-780.238,104.907-781.11,104.907Z" transform="translate(798.424 -88.691)" fill="#1a1818"/><path d="M-799.865,96.3a.706.706,0,0,1-.706.706.706.706,0,0,1-.705-.706.706.706,0,0,1,.705-.705A.706.706,0,0,1-799.865,96.3Z" transform="translate(811.591 -81.969)" fill="#1a1818"/><path d="M-753.835,96.3a.705.705,0,0,1-.706.706.705.705,0,0,1-.7-.706.705.705,0,0,1,.7-.705A.705.705,0,0,1-753.835,96.3Z" transform="translate(778.374 -81.969)" fill="#1a1818"/><g transform="translate(17.149 18.782)"><path d="M-776.458,118.447a.139.139,0,0,1-.138-.127,26.618,26.618,0,0,1-.078-4.068.139.139,0,0,1,.151-.126.139.139,0,0,1,.126.151,26.37,26.37,0,0,0,.078,4.019.139.139,0,0,1-.127.15Z" transform="translate(776.725 -114.125)" fill="#1a1818"/></g><g transform="translate(14.774 22.623)"><path d="M-782.831,128.819a5.12,5.12,0,0,1-2.366-.467.139.139,0,0,1-.039-.193.14.14,0,0,1,.193-.039,5.494,5.494,0,0,0,4.585-.169.14.14,0,0,1,.194.033.139.139,0,0,1-.033.194A4.509,4.509,0,0,1-782.831,128.819Z" transform="translate(785.259 -127.926)" fill="#1a1818"/></g><path d="M-794.147,59.65a20.5,20.5,0,0,0,.164-6.725c-.43.077-.9.177-1.393.309A19.366,19.366,0,0,1-794.147,59.65Z" transform="translate(807.334 -51.179)" fill="#805c42"/><path d="M-759.5,52.452c-.291-.06-.589-.113-.892-.159a31.266,31.266,0,0,0,.228,6.066A40.876,40.876,0,0,1-759.5,52.452Z" transform="translate(782.118 -50.723)" fill="#805c42"/><path d="M-777.294,51.46a41.471,41.471,0,0,1,.81,7.966,34.982,34.982,0,0,0,.64-8Q-776.555,51.425-777.294,51.46Z" transform="translate(794.285 -50.098)" fill="#805c42"/><path d="M-812.5,108.96a2.326,2.326,0,0,0-.341,3.808,2.3,2.3,0,0,0,3.684-1.837A2.257,2.257,0,0,0-812.5,108.96Z" transform="translate(820.54 -91.428)" fill="#e79c7f"/><path d="M-752.41,108.081a2.434,2.434,0,0,0-.937,2.725,2.268,2.268,0,0,0,3.473,1,2.425,2.425,0,0,0,.452-3.142A2.236,2.236,0,0,0-752.41,108.081Z" transform="translate(777.082 -90.738)" fill="#e79c7f"/><g transform="translate(0.769 18.068)"><path d="M-828.926,112.489h-.012l-6.539-.718a.1.1,0,0,1-.092-.115.108.108,0,0,1,.115-.092l6.539.718a.1.1,0,0,1,.092.115A.1.1,0,0,1-828.926,112.489Z" transform="translate(835.569 -111.562)" fill="#1a1818"/></g><g transform="translate(0.769 20.113)"><path d="M-835.465,120.007a.1.1,0,0,1-.1-.09.1.1,0,0,1,.089-.117l6.414-.892a.1.1,0,0,1,.118.089.1.1,0,0,1-.089.118l-6.414.892Z" transform="translate(835.569 -118.906)" fill="#1a1818"/></g><g transform="translate(26.674 17.788)"><path d="M-742.4,111.223a.1.1,0,0,1-.1-.1.1.1,0,0,1,.1-.111l6.821-.458a.1.1,0,0,1,.111.1.1.1,0,0,1-.1.111l-6.821.458Z" transform="translate(742.509 -110.556)" fill="#1a1818"/></g><g transform="translate(26.798 19.657)"><path d="M-735.68,118.477h-.016l-6.277-1a.1.1,0,0,1-.087-.119.106.106,0,0,1,.119-.087l6.277,1a.1.1,0,0,1,.087.119A.1.1,0,0,1-735.68,118.477Z" transform="translate(742.061 -117.27)" fill="#1a1818"/></g><g transform="translate(0 19.408)"><path d="M-838.229,116.711a.1.1,0,0,1-.1-.1.1.1,0,0,1,.1-.106l7.349-.129h0a.1.1,0,0,1,.1.1.1.1,0,0,1-.1.106l-7.349.129Z" transform="translate(838.333 -116.374)" fill="#1a1818"/></g><g transform="translate(27.171 19.117)"><path d="M-734.993,115.609h0l-5.625-.069a.1.1,0,0,1-.1-.105.112.112,0,0,1,.106-.1l5.625.069a.1.1,0,0,1,.1.106A.1.1,0,0,1-734.993,115.609Z" transform="translate(740.723 -115.331)" fill="#1a1818"/></g></g><path d="M-774.544,107.72c.343-.423-.7-.631-.764-.268A.422.422,0,0,0-774.544,107.72Z" transform="translate(792.855 -90.393)" fill="#c8c8c4"/></g></svg>