<svg xmlns="http://www.w3.org/2000/svg" width="48" height="48" viewBox="0 0 48 48"><path d="M340.311,76H323.089C309.767,76,307.7,78.51,307.7,94.682v7.847c0,19.017,2.067,21.471,17.686,21.471h12.629c15.618,0,17.686-2.454,17.686-21.471V94.682C355.7,78.51,353.633,76,340.311,76Z" transform="translate(-307.7 -76)" fill="#f2f2f2"/><g transform="translate(13.118 7.316)"><path d="M-42.414,36.334V65.948H-62.861V41.476a4.806,4.806,0,0,0,.94-.089,5.125,5.125,0,0,0,4.112-4.113,4.748,4.748,0,0,0,.09-.941Z" transform="translate(63.701 -36.334)" fill="#7c411e"/><path d="M-56.753,37.507V45.5h-4.936V41.62a5.125,5.125,0,0,0,4.112-4.113Z" transform="translate(63.469 -36.566)" fill="#a0642f"/><rect width="4.935" height="7.991" transform="translate(8.598 0.94)" fill="#a0642f"/><rect width="4.935" height="7.991" transform="translate(15.414 0.94)" fill="#a0642f"/><rect width="4.936" height="7.991" transform="translate(1.782 10.811)" fill="#a0642f"/><rect width="4.935" height="7.991" transform="translate(8.598 10.811)" fill="#a0642f"/><rect width="4.935" height="7.991" transform="translate(15.414 10.811)" fill="#a0642f"/><rect width="4.936" height="7.991" transform="translate(1.782 20.682)" fill="#a0642f"/><rect width="4.935" height="7.991" transform="translate(8.598 20.682)" fill="#a0642f"/><rect width="4.935" height="7.991" transform="translate(15.414 20.682)" fill="#a0642f"/><path d="M-57.719,36.334a4.748,4.748,0,0,1-.09.941,5.125,5.125,0,0,1-4.112,4.113,4.806,4.806,0,0,1-.94.089V40.419a4.084,4.084,0,0,0,4.084-4.085Z" transform="translate(63.701 -36.334)" fill="#5c3026"/><g transform="translate(0 10.38)"><rect width="21.115" height="17.825" transform="translate(0.431 1.723)" fill="#a396c9"/><rect width="21.858" height="6.738" fill="#e5e5e5"/><path d="M-41.194,55.715h2.546l.157-2.821Z" transform="translate(59.409 -49.995)" fill="#f2f2f2"/><path d="M-48.179,53.669l.861.861,1.959-2.076-1.9.352Z" transform="translate(60.793 -49.908)" fill="#f2f2f2"/><path d="M-56.826,53.091v1.057l1.762.9,1.41-2.155Z" transform="translate(62.506 -49.995)" fill="#f2f2f2"/><path d="M-52.527,50.745l1.8.862.783-.588Z" transform="translate(61.654 -49.57)" fill="#f2f2f2"/><path d="M-62.767,50.33v2.879l1.968-2.116-.058-.763Z" transform="translate(63.683 -49.487)" fill="#f2f2f2"/><path d="M-59.254,54.506l.676,1.014-.338.764h-1.763Z" transform="translate(63.269 -50.315)" fill="#ccc"/><path d="M-42.159,50.484-40.6,51.6l1.263-.558.72-.823Z" transform="translate(59.6 -49.466)" fill="#ccc"/></g><g transform="translate(0.431 22.318)"><path d="M-42.257,64.167V74.442l-1.171-1.166h-.009L-44.6,74.442l-1.171-1.166h-.01l-1.17,1.166-1.166-1.166h-.009L-49.3,74.442l-1.166-1.166h-.01l-1.17,1.166-1.166-1.166h-.014l-1.165,1.166-1.166-1.166h-.014l-1.165,1.166L-57.5,73.276h-.014l-1.166,1.166-1.166-1.166h-.014l-1.165,1.166-1.166-1.166h-.014l-1.166,1.166V64.172a.307.307,0,0,1,.066,0,1.8,1.8,0,0,1,1.241.488,1.657,1.657,0,0,1,.516,1.195v1.584a1.656,1.656,0,0,0,.517,1.193,1.8,1.8,0,0,0,1.246.489,1.724,1.724,0,0,0,1.753-1.682V65.85a1.724,1.724,0,0,1,1.754-1.683,1.834,1.834,0,0,1,1.245.488,1.639,1.639,0,0,1,.517,1.195v1.584A1.634,1.634,0,0,0-54,68.627a1.8,1.8,0,0,0,1.246.489A1.724,1.724,0,0,0-51,67.434V65.85a1.724,1.724,0,0,1,1.753-1.683A1.827,1.827,0,0,1-48,64.655a1.657,1.657,0,0,1,.516,1.195v1.584a1.656,1.656,0,0,0,.517,1.193,1.785,1.785,0,0,0,1.241.489,1.721,1.721,0,0,0,1.754-1.682V65.85A1.728,1.728,0,0,1-42.257,64.167Z" transform="translate(63.372 -64.167)" fill="#8f87c9"/></g></g></svg>