<svg xmlns="http://www.w3.org/2000/svg" width="73.314" height="25.05" viewBox="0 0 73.314 25.05">
  <g id="copy" transform="translate(-271.617 -311)">
    <path id="Path_16906" data-name="Path 16906" d="M15.822,0h-6.6C1.239,0,0,1.018,0,7.577V64.606c0,7.713,1.239,8.708,10.6,8.708h3.841c9.365,0,10.6-1,10.6-8.708V7.577C25.049,1.018,23.81,0,15.822,0Z" transform="translate(271.617 336.05) rotate(-90)" fill="#f86509"/>
    <path id="Path_20453" data-name="Path 20453" d="M5.236-6.776a2.074,2.074,0,0,0-1.652.658A2.744,2.744,0,0,0,3.01-4.256,2.588,2.588,0,0,0,3.647-2.38a2.276,2.276,0,0,0,1.715.658,2.711,2.711,0,0,0,.973-.154,6.683,6.683,0,0,0,.763-.35,1.39,1.39,0,0,1,.371.469A1.438,1.438,0,0,1,7.6-1.12a1.147,1.147,0,0,1-.637.973,3.724,3.724,0,0,1-1.939.4A5.721,5.721,0,0,1,3.262-.014,3.936,3.936,0,0,1,1.82-.833a3.865,3.865,0,0,1-.973-1.4A5.193,5.193,0,0,1,.49-4.256,5.025,5.025,0,0,1,.833-6.181a4.089,4.089,0,0,1,.938-1.407,3.947,3.947,0,0,1,1.393-.868A4.9,4.9,0,0,1,4.872-8.75a3.93,3.93,0,0,1,2,.42,1.236,1.236,0,0,1,.707,1.078,1.088,1.088,0,0,1-.182.63,1.5,1.5,0,0,1-.42.42,4.546,4.546,0,0,0-.777-.406A2.532,2.532,0,0,0,5.236-6.776ZM15.582-3.4a4.216,4.216,0,0,1-.266,1.547,3.136,3.136,0,0,1-.749,1.141,3.185,3.185,0,0,1-1.155.7,4.464,4.464,0,0,1-1.5.238,4.239,4.239,0,0,1-1.5-.252A3.3,3.3,0,0,1,9.261-.749,3.217,3.217,0,0,1,8.512-1.89,4.079,4.079,0,0,1,8.246-3.4a4.039,4.039,0,0,1,.266-1.5,3.217,3.217,0,0,1,.749-1.141,3.3,3.3,0,0,1,1.155-.721,4.239,4.239,0,0,1,1.5-.252,4.136,4.136,0,0,1,1.5.259,3.381,3.381,0,0,1,1.155.728,3.217,3.217,0,0,1,.749,1.141A4,4,0,0,1,15.582-3.4Zm-4.9,0a2.213,2.213,0,0,0,.329,1.309,1.068,1.068,0,0,0,.917.455,1.027,1.027,0,0,0,.9-.462,2.294,2.294,0,0,0,.315-1.3,2.221,2.221,0,0,0-.322-1.3,1.05,1.05,0,0,0-.91-.455A1.05,1.05,0,0,0,11-4.7,2.221,2.221,0,0,0,10.682-3.4Zm9.184-3.612a5.394,5.394,0,0,1,1.561.217,3.336,3.336,0,0,1,1.239.665A3.084,3.084,0,0,1,23.478-5a4.051,4.051,0,0,1,.294,1.617A4.456,4.456,0,0,1,23.52-1.82a3.067,3.067,0,0,1-.714,1.127,2.911,2.911,0,0,1-1.113.679A4.433,4.433,0,0,1,20.244.21a3.356,3.356,0,0,1-1.12-.182V2.352a3.8,3.8,0,0,1-.448.091,4,4,0,0,1-.63.049,3.293,3.293,0,0,1-.553-.042.942.942,0,0,1-.413-.168.76.76,0,0,1-.252-.343,1.6,1.6,0,0,1-.084-.567v-6.72a1.079,1.079,0,0,1,.161-.616,1.7,1.7,0,0,1,.441-.434,3.711,3.711,0,0,1,1.078-.448A5.717,5.717,0,0,1,19.866-7.014Zm.028,5.348q1.442,0,1.442-1.722a2.067,2.067,0,0,0-.357-1.33,1.256,1.256,0,0,0-1.029-.434,1.656,1.656,0,0,0-.476.063,1.9,1.9,0,0,0-.364.147v3.08a2.105,2.105,0,0,0,.364.14A1.523,1.523,0,0,0,19.894-1.666Zm5.922-.07q-.154-.35-.329-.784t-.364-.994q-.189-.56-.392-1.281T24.3-6.454a1.735,1.735,0,0,1,.525-.343,1.747,1.747,0,0,1,.721-.147,1.5,1.5,0,0,1,.812.2,1.245,1.245,0,0,1,.476.763l1.106,3.85H28q.168-.476.329-1.036t.315-1.155q.154-.6.287-1.19t.231-1.169a2.333,2.333,0,0,1,1.106-.266,1.458,1.458,0,0,1,.812.21.8.8,0,0,1,.322.728,4.592,4.592,0,0,1-.1.875q-.1.5-.259,1.057t-.378,1.155q-.217.6-.455,1.169t-.49,1.085q-.252.511-.49.917a9.8,9.8,0,0,1-.728,1.12,3.976,3.976,0,0,1-.644.679,1.833,1.833,0,0,1-.616.336,2.261,2.261,0,0,1-.644.091,1.316,1.316,0,0,1-.952-.35,1.472,1.472,0,0,1-.434-.91q.448-.35.9-.777a9.4,9.4,0,0,0,.812-.875,1.322,1.322,0,0,1-.511-.329A3.242,3.242,0,0,1,25.816-1.736Z" transform="translate(302 328)" fill="#fff"/>
    <g id="Group_13826" data-name="Group 13826" transform="translate(-116 -117)">
      <g id="Rectangle_4061" data-name="Rectangle 4061" transform="translate(400 433)" fill="#fff" stroke="#f86509" stroke-width="1">
        <rect width="12" height="14" rx="3" stroke="none"/>
        <rect x="0.5" y="0.5" width="11" height="13" rx="2.5" fill="none"/>
      </g>
      <g id="Rectangle_4062" data-name="Rectangle 4062" transform="translate(397 436)" fill="#fff" stroke="#f86509" stroke-width="1">
        <rect width="12" height="14" rx="3" stroke="none"/>
        <rect x="0.5" y="0.5" width="11" height="13" rx="2.5" fill="none"/>
      </g>
    </g>
  </g>
</svg>
