<svg xmlns="http://www.w3.org/2000/svg" width="48" height="48" viewBox="0 0 48 48"><path d="M340.311,76H323.089C309.767,76,307.7,78.51,307.7,94.682v7.847c0,19.017,2.067,21.471,17.686,21.471h12.629c15.618,0,17.686-2.454,17.686-21.471V94.682C355.7,78.51,353.633,76,340.311,76Z" transform="translate(-307.7 -76)" fill="#f2f2f2"/><g transform="translate(13.081 9.156)"><path d="M-14.635,100.992a4.511,4.511,0,0,1-3.507,1.7,4.506,4.506,0,0,1,.852-3.807,4.445,4.445,0,0,1,3.507-1.7A4.454,4.454,0,0,1-14.635,100.992Z" transform="translate(30.89 -96.557)" fill="#acd9cf"/><g transform="translate(8.658)"><path d="M-15.377,100.577a5.266,5.266,0,0,1-.046.7.191.191,0,0,1-.01.074c-.009.054-.017.108-.029.161a.809.809,0,0,1-.772.575H-20.18a.8.8,0,0,1-.779-.61.59.59,0,0,1-.019-.087,5.164,5.164,0,0,1-.063-.809c0-2.116,1.269-3.831,2.832-3.831S-15.377,98.462-15.377,100.577Z" transform="translate(21.041 -96.746)" fill="#eb5c75"/><path d="M-18.8,98.234a.7.7,0,0,1-.7.7.7.7,0,0,1-.7-.7.7.7,0,0,1,.7-.7A.7.7,0,0,1-18.8,98.234Z" transform="translate(21.4 -96.409)" fill="#eb3d52"/><path d="M-17.188,99.1a.665.665,0,0,1-.665.665.665.665,0,0,1-.667-.665.665.665,0,0,1,.667-.665A.665.665,0,0,1-17.188,99.1Z" transform="translate(22.119 -96.026)" fill="#eb3d52"/><path d="M-18.853,99.781a.488.488,0,0,1-.49.488.488.488,0,0,1-.49-.488.489.489,0,0,1,.49-.491A.489.489,0,0,1-18.853,99.781Z" transform="translate(21.558 -95.659)" fill="#eb3d52"/></g><path d="M-5.043,106.939a2.275,2.275,0,0,0-2.274-2.273H-24.339a2.274,2.274,0,0,0-2.274,2.273h0a2.273,2.273,0,0,0,2.274,2.273H-7.317a2.274,2.274,0,0,0,2.274-2.273Z" transform="translate(27.317 -93.36)" fill="#f0ab4a"/><path d="M-6.51,104.152a2.038,2.038,0,0,0-2.037-2.036h-15.24a2.035,2.035,0,0,0-2.034,2.036h0a2.034,2.034,0,0,0,2.034,2.034h15.24a2.037,2.037,0,0,0,2.037-2.034Z" transform="translate(27.656 -94.451)" fill="#f2e3c4"/><path d="M-9.279,101.738a1.585,1.585,0,0,0-1.584-1.586H-22.744a1.586,1.586,0,0,0-1.586,1.586h0a1.586,1.586,0,0,0,1.586,1.586h11.881a1.585,1.585,0,0,0,1.584-1.586Z" transform="translate(28.293 -95.29)" fill="#f2ebd1"/><path d="M-4.128,105.859-5.7,120.213h-19.83l-1.575-14.353Z" transform="translate(27.106 -92.85)" fill="#eb4a63"/><path d="M-23.758,118.956l-.838-12.368h-.941l.951,12.368Z" transform="translate(27.778 -92.539)" fill="#f2adc4" opacity="0.86" style="mix-blend-mode:multiply;isolation:isolate"/><path d="M-22.38,118.956l-.65-12.368h-.94l.762,12.368Z" transform="translate(28.447 -92.539)" fill="#f2adc4" opacity="0.86" style="mix-blend-mode:multiply;isolation:isolate"/></g></svg>