<svg xmlns="http://www.w3.org/2000/svg" width="48" height="48" viewBox="0 0 48 48"><path d="M340.311,76H323.089C309.767,76,307.7,78.51,307.7,94.682v7.847c0,19.017,2.067,21.471,17.686,21.471h12.629c15.618,0,17.686-2.454,17.686-21.471V94.682C355.7,78.51,353.633,76,340.311,76Z" transform="translate(-307.7 -76)" fill="#f2f2f2"/><g transform="translate(7 9.002)"><path d="M-586.4,154.58c-.535-4.96-1.45-8.3-2.207-12.476-.711-.1-9.456.267-9.456.267-.424,4.326-1.764,9.788-1.848,12.209Z" transform="translate(610.532 -121.067)" fill="#5b4642"/><g transform="translate(0 0)"><g transform="translate(4.947 1.339)"><path d="M-609.288,71.387c-3.062.085-6.847-.3-9.55,2.883-2.121,2.5-4.444,8.649-4.565,11.772s0,6.847,3.544,9.129c3.275,2.11,7.748,2.508,11.833,2.043,4.745-.541,8.829-3,10.271-6.847.794-2.117.049-7.264-1.081-10.571C-600.519,74.87-602.8,71.206-609.288,71.387Z" transform="translate(623.431 -71.38)" fill="#a78f83"/><path d="M-556.916,93.185a23.71,23.71,0,0,0-1.344-3.25c-3.418.205-7.791,1.674-6.981,5.976.58,3.078,4.185,3.931,6.931,3.413a9.32,9.32,0,0,0,2.578-1.015A28.859,28.859,0,0,0-556.916,93.185Z" transform="translate(581.51 -84.77)" fill="#856e62"/></g><path d="M-633.762,70.8c-2.977-.928-4.408-.679-5.031,1.253a60.515,60.515,0,0,0-2.348,12.315c-.269,3.1.385,3.885,1.137,4.268,1.54.784,2.961-1.861,4.128-4.107.9-1.731,2.671-5.154,4.463-8.93S-631.351,71.548-633.762,70.8Z" transform="translate(641.202 -69.244)" fill="#5b4642"/><path d="M-590.448,115.818a3.919,3.919,0,0,0-3.9,2.853c-.793,2.271-1.412,5.256.63,6.847,2.063,1.608,5.461.92,6.818.3a3.71,3.71,0,0,0,2.012-3.964,12.815,12.815,0,0,0-1.561-4.475C-587.174,116.419-587.8,115.7-590.448,115.818Z" transform="translate(607.077 -102.1)" fill="#e3dad5"/><path d="M-579.538,124.632c-.044-.617-1.131-.625-1.768-.625s-1.724.008-1.767.625c-.02.271.105.551.533,1.02a1.635,1.635,0,0,0,1.234.676,1.636,1.636,0,0,0,1.234-.676C-579.643,125.183-579.519,124.9-579.538,124.632Z" transform="translate(598.394 -108.019)" fill="#1a1818"/><g transform="translate(16.878 18.246)"><path d="M-577.191,135.06a.139.139,0,0,1-.136-.111,9.536,9.536,0,0,1-.081-2.711.14.14,0,0,1,.158-.117.14.14,0,0,1,.117.158,9.367,9.367,0,0,0,.078,2.614.139.139,0,0,1-.108.164A.137.137,0,0,1-577.191,135.06Z" transform="translate(577.469 -132.119)" fill="#1a1818"/></g><g transform="translate(15.168 20.948)"><path d="M-581.629,142.642a3.172,3.172,0,0,1-1.943-.571.139.139,0,0,1-.012-.2.139.139,0,0,1,.2-.012,3.467,3.467,0,0,0,3.414.137.139.139,0,0,1,.184.07.139.139,0,0,1-.07.184A4.309,4.309,0,0,1-581.629,142.642Z" transform="translate(583.619 -141.828)" fill="#1a1818"/></g><g transform="translate(5.495 17.605)"><path d="M-611.733,130.956h-.014l-8.268-.861a.139.139,0,0,1-.124-.153.138.138,0,0,1,.153-.124l8.268.861a.139.139,0,0,1,.124.153A.139.139,0,0,1-611.733,130.956Z" transform="translate(620.141 -129.817)" fill="#1a1818"/></g><g transform="translate(5.844 19.567)"><path d="M-611.384,137.144h-7.327a.139.139,0,0,1-.139-.139.139.139,0,0,1,.139-.139h7.327a.139.139,0,0,1,.139.139A.139.139,0,0,1-611.384,137.144Z" transform="translate(618.85 -136.866)" fill="#1a1818"/></g><g transform="translate(7.445 20.608)"><path d="M-612.667,141.684a.139.139,0,0,1-.138-.121.139.139,0,0,1,.12-.156l6.046-.8a.139.139,0,0,1,.156.119.139.139,0,0,1-.12.156l-6.046.8Z" transform="translate(612.806 -140.605)" fill="#1a1818"/></g><g transform="translate(19.613 17.004)"><path d="M-565.918,129.058a.139.139,0,0,1-.138-.12.139.139,0,0,1,.119-.157l8.129-1.121a.137.137,0,0,1,.157.119.139.139,0,0,1-.119.157l-8.129,1.121Z" transform="translate(566.057 -127.658)" fill="#1a1818"/></g><g transform="translate(20.358 19.247)"><path d="M-563.472,136.053a.139.139,0,0,1-.139-.137.139.139,0,0,1,.138-.141l5.686-.06h0a.139.139,0,0,1,.139.138.139.139,0,0,1-.137.141l-5.686.06Z" transform="translate(563.611 -135.715)" fill="#1a1818"/></g><g transform="translate(19.916 20.388)"><path d="M-558.154,140.873h-.016l-6.827-.781a.139.139,0,0,1-.122-.154.137.137,0,0,1,.154-.122l6.826.781a.139.139,0,0,1,.123.154A.139.139,0,0,1-558.154,140.873Z" transform="translate(565.119 -139.813)" fill="#1a1818"/></g><path d="M-602.54,107.274a.681.681,0,0,1-.681.681.682.682,0,0,1-.682-.681.681.681,0,0,1,.682-.681A.681.681,0,0,1-602.54,107.274Z" transform="translate(613.766 -95.453)" fill="#1a1818"/><path d="M-545.37,81.972A110.935,110.935,0,0,0-549.174,70c-1.057-2.022-1.485-4.173-5.334-3.177-6.128,1.586-4.628,3.81-2.717,7.009,1.37,2.293,4.464,6.347,5.726,8.039s3.464,4.746,5.017,4.007C-545.439,85.382-544.794,84.393-545.37,81.972Z" transform="translate(580.046 -66.572)" fill="#5b4642"/><path d="M-554.8,107.274a.681.681,0,0,1-.681.681.681.681,0,0,1-.681-.681.681.681,0,0,1,.681-.681A.681.681,0,0,1-554.8,107.274Z" transform="translate(578.649 -95.453)" fill="#1a1818"/></g></g></svg>