<svg xmlns="http://www.w3.org/2000/svg" width="48" height="48" viewBox="0 0 48 48"><path d="M340.311,76H323.089C309.767,76,307.7,78.51,307.7,94.682v7.847c0,19.017,2.067,21.471,17.686,21.471h12.629c15.618,0,17.686-2.454,17.686-21.471V94.682C355.7,78.51,353.633,76,340.311,76Z" transform="translate(-307.7 -76)" fill="#f2f2f2"/><g transform="translate(7.163 8.002)"><path d="M-47.572,181.186a16.477,16.477,0,0,0-16.482,16.471,16.484,16.484,0,0,0,16.482,16.482A16.477,16.477,0,0,0-31.1,197.657,16.47,16.47,0,0,0-47.572,181.186Zm0,23.394a6.919,6.919,0,0,1-6.92-6.922,6.916,6.916,0,0,1,6.92-6.91,6.913,6.913,0,0,1,6.91,6.91A6.916,6.916,0,0,1-47.572,204.58Z" transform="translate(64.054 -181.186)" fill="#d97d36"/><path d="M-33.336,197.282A14.612,14.612,0,0,0-47.95,182.668a14.621,14.621,0,0,0-14.623,14.614,14.545,14.545,0,0,0,2.48,8.146v.947a1.8,1.8,0,0,0,1.8,1.8,1.739,1.739,0,0,0,.355-.036v2.281a1.8,1.8,0,0,0,1.8,1.8,1.8,1.8,0,0,0,1.8-1.779,14.547,14.547,0,0,0,6.4,1.472,14.568,14.568,0,0,0,11.05-5.059,1.794,1.794,0,0,0,1.767,1.5,1.8,1.8,0,0,0,1.8-1.8V198.3a1.8,1.8,0,0,0-.021-.222C-33.343,197.816-33.336,197.549-33.336,197.282Zm-14.614,6.141a6.137,6.137,0,0,1-6.138-6.141,6.134,6.134,0,0,1,6.138-6.13,6.132,6.132,0,0,1,6.131,6.13A6.136,6.136,0,0,1-47.95,203.423Z" transform="translate(64.43 -180.81)" fill="#f799ba"/><g transform="translate(3.971 3.485)"><path d="M-42.068,191.643a1.24,1.24,0,0,1-1.239,1.24h0a1.241,1.241,0,0,1-1.241-1.24h0a1.241,1.241,0,0,1,1.241-1.24h0a1.24,1.24,0,0,1,1.239,1.24Z" transform="translate(65.037 -182.33)" fill="#f2e3c4"/><path d="M-41.575,188.555a.731.731,0,0,1-.731.729h0a.729.729,0,0,1-.729-.729h0a.73.73,0,0,1,.729-.731h0a.731.731,0,0,1,.731.731Z" transform="translate(65.422 -182.985)" fill="#f2e3c4"/><path d="M-47.273,186.161a1.361,1.361,0,0,1-1.362,1.362h0A1.362,1.362,0,0,1-50,186.161h0a1.362,1.362,0,0,1,1.362-1.362h0a1.362,1.362,0,0,1,1.362,1.362Z" transform="translate(63.653 -183.753)" fill="#f2e3c4"/><path d="M-45.5,187.6a.8.8,0,0,1-.8.8h0a.8.8,0,0,1-.8-.8h0a.8.8,0,0,1,.8-.8h0a.8.8,0,0,1,.8.8Z" transform="translate(64.387 -183.246)" fill="#f2e3c4"/><path d="M-53.151,188.644a1.166,1.166,0,0,1-1.166,1.166h0a1.167,1.167,0,0,1-1.167-1.166h0a1.169,1.169,0,0,1,1.167-1.169h0a1.168,1.168,0,0,1,1.166,1.169Z" transform="translate(62.259 -183.073)" fill="#f2e3c4"/><path d="M-52.815,184.573a.61.61,0,0,1-.607.609h0a.61.61,0,0,1-.609-.609h0a.608.608,0,0,1,.609-.608h0a.608.608,0,0,1,.607.608Z" transform="translate(62.629 -183.965)" fill="#f2e3c4"/><path d="M-57.785,190.717a1.552,1.552,0,0,1-1.552,1.551h0a1.551,1.551,0,0,1-1.55-1.551h0a1.55,1.55,0,0,1,1.55-1.55h0a1.551,1.551,0,0,1,1.552,1.55Z" transform="translate(60.887 -182.644)" fill="#f2e3c4"/><path d="M-57.2,197.685a1.006,1.006,0,0,1-1.006,1.007h0a1.007,1.007,0,0,1-1.007-1.007h0a1.008,1.008,0,0,1,1.007-1.006h0a1.006,1.006,0,0,1,1.006,1.006Z" transform="translate(61.311 -180.735)" fill="#f2e3c4"/><path d="M-53.11,201.092a1.459,1.459,0,0,1-1.46,1.46h0a1.459,1.459,0,0,1-1.458-1.46h0a1.458,1.458,0,0,1,1.458-1.458h0a1.458,1.458,0,0,1,1.46,1.458Z" transform="translate(62.121 -179.985)" fill="#f2e3c4"/><path d="M-46.363,203.8a1.02,1.02,0,0,1-1.022,1.021h0a1.02,1.02,0,0,1-1.022-1.021h0a1.022,1.022,0,0,1,1.022-1.022h0a1.022,1.022,0,0,1,1.022,1.022Z" transform="translate(64.057 -179.187)" fill="#f2e3c4"/><path d="M-42.839,199.062a1.776,1.776,0,0,1-1.777,1.774h0a1.774,1.774,0,0,1-1.774-1.774h0a1.774,1.774,0,0,1,1.774-1.774h0a1.776,1.776,0,0,1,1.777,1.774Z" transform="translate(64.569 -180.581)" fill="#f2e3c4"/><path d="M-38.748,194.885a1.258,1.258,0,0,1-1.259,1.26h0a1.258,1.258,0,0,1-1.259-1.26h0a1.259,1.259,0,0,1,1.259-1.259h0a1.259,1.259,0,0,1,1.259,1.259Z" transform="translate(65.871 -181.511)" fill="#f2e3c4"/></g></g></svg>