<svg xmlns="http://www.w3.org/2000/svg" width="40" height="40" viewBox="0 0 40 40"><path d="M24.58,4.58a20,20,0,1,0,20,20A20,20,0,0,0,24.58,4.58Z" transform="translate(-4.58 -4.58)" fill="#00cf97"/><g transform="matrix(1, 0.017, -0.017, 1, 4.725, 4.158)"><path d="M0,0H31.581V31.58H0Z" transform="translate(0 0)" fill="none"/><path d="M1.981,11.323A1.25,1.25,0,0,1,.4,11.434a.884.884,0,0,1-.129-1.37L9.827.343a1.25,1.25,0,0,1,1.6-.1L15.425,3.8a.883.883,0,0,1,.093,1.372,1.251,1.251,0,0,1-1.588.081L10.8,2.359Z" transform="translate(23.776 21.174) rotate(180)" fill="#fff"/></g></svg>