<svg xmlns="http://www.w3.org/2000/svg" width="24" height="24" viewBox="0 0 24 24">
  <g id="down_grey_arrow" transform="translate(1182 4337)">
    <rect id="Rectangle_4213" data-name="Rectangle 4213" width="24" height="24" transform="translate(-1182 -4337)" fill="rgba(255,255,255,0)"/>
    <path id="Path_16637" data-name="Path 16637" d="M1612.561,38.814l4.145-3.9a1.2,1.2,0,0,0,0-1.569,1,1,0,0,0-1.411-.1c-.018.016-.035.032-.053.049l-3.2,2.748-2.722,2.771a1,1,0,0,0-.05,1.414c.016.017.032.034.05.05l3.539,3.592,2.385,2.084a1.061,1.061,0,0,0,1.464,0,1.159,1.159,0,0,0-.1-1.537l-3.148-2.861-1.717-1.879Z" transform="matrix(-0.035, -0.999, 0.999, -0.035, -1153.223, -2711.163)" fill="#464646"/>
  </g>
</svg>
