<svg xmlns="http://www.w3.org/2000/svg" xmlns:xlink="http://www.w3.org/1999/xlink" width="74" height="60" viewBox="0 0 74 60"><defs><clipPath id="a"><path d="M3.25-54a3.239,3.239,0,0,0-1.97.67L12.472-42.818a.876.876,0,0,0,1.056,0L24.72-53.33A3.239,3.239,0,0,0,22.75-54ZM.426-52.355A3.252,3.252,0,0,0,0-50.75V-39.7a3.242,3.242,0,0,0,.538,1.788l.031-.02,8.176-6.6L.427-52.355Zm25.147,0-8.318,7.82,8.176,6.6.031.02A3.242,3.242,0,0,0,26-39.7V-50.75a3.252,3.252,0,0,0-.427-1.6ZM9.7-43.641,1.462-36.988a3.242,3.242,0,0,0,1.787.538h19.5a3.242,3.242,0,0,0,1.787-.538L16.3-43.641l-1.879,1.767a2.085,2.085,0,0,1-2.844,0Z" transform="translate(0 54)" fill="#00c9e7"/></clipPath></defs><g transform="translate(-2389 -456)"><rect width="74" height="60" transform="translate(2389 456)" fill="none"/><g transform="translate(1519.5 253.775)"><g transform="translate(899 277.225)"><g transform="translate(0 -54)" clip-path="url(#a)"><path d="M-5-59H24.25v20.8H-5Z" transform="translate(3.375 57.375)" fill="#00c9e7"/></g></g><line x1="9" transform="translate(887.5 226.5)" fill="none" stroke="#003a6c" stroke-linecap="round" stroke-width="2"/><line x1="5" transform="translate(891.5 229.5)" fill="none" stroke="#003a6c" stroke-linecap="round" stroke-width="2"/><line x1="7" transform="translate(889.5 232.5)" fill="none" stroke="#003a6c" stroke-linecap="round" stroke-width="2"/></g></g></svg>