<svg xmlns="http://www.w3.org/2000/svg" width="41" height="42" viewBox="0 0 41 42">
  <g id="Group_13998" data-name="Group 13998" transform="translate(1215 -22300)">
    <g id="Group_13926" data-name="Group 13926" transform="translate(-1246 21887)">
      <path id="Rectangle_3667" data-name="Rectangle 3667" d="M0,0H41a0,0,0,0,1,0,0V32A10,10,0,0,1,31,42H10A10,10,0,0,1,0,32V0A0,0,0,0,1,0,0Z" transform="translate(31 413)" fill="#00d196"/>
      <g id="Check_Icon" data-name="Check Icon" transform="translate(35 416.806)">
        <path id="Shape" d="M0,0H32.659V32.659H0Z" transform="translate(0 0)" fill="none"/>
        <path id="Path_94" data-name="Path 94" d="M2.4,15.85A1.361,1.361,0,1,1,.324,14.087L11.891.479A1.361,1.361,0,0,1,13.832.344l6.124,5.443a1.361,1.361,0,0,1-1.808,2.034L13.063,3.3Z" transform="translate(26.536 24.494) rotate(180)" fill="#fff"/>
      </g>
    </g>
  </g>
</svg>
