<svg xmlns="http://www.w3.org/2000/svg" width="41" height="42" viewBox="0 0 41 42">
  <g id="Group_13925" data-name="Group 13925" transform="translate(-31 -413)">
    <path id="Rectangle_3667" data-name="Rectangle 3667" d="M0,0H41a0,0,0,0,1,0,0V32A10,10,0,0,1,31,42H10A10,10,0,0,1,0,32V0A0,0,0,0,1,0,0Z" transform="translate(31 413)" fill="#fc3c00"/>
    <g id="Check_Icon" data-name="Check Icon" transform="translate(33 419)">
      <path id="Shape" d="M0,0H32.659V32.659H0Z" transform="translate(0 0)" fill="none"/>
      <path id="noun_wrong_1892752" d="M27.818,25.324a.933.933,0,0,1,0,1.308l-1.186,1.186a.933.933,0,0,1-1.308,0L20,22.505l-5.324,5.324a.933.933,0,0,1-1.308,0l-1.186-1.186a.933.933,0,0,1,0-1.308L17.5,20l-5.324-5.324a.933.933,0,0,1,0-1.308l1.186-1.186a.933.933,0,0,1,1.308,0L20,17.5l5.324-5.324a.933.933,0,0,1,1.308,0l1.186,1.186a.933.933,0,0,1,0,1.308L22.505,20Z" transform="translate(-2.441 -3.826)" fill="#fff" stroke="#fc3c00" stroke-width="1"/>
    </g>
  </g>
</svg>
