<svg xmlns="http://www.w3.org/2000/svg" xmlns:xlink="http://www.w3.org/1999/xlink" width="34.05" height="21.308" viewBox="0 0 34.05 21.308"><defs><style>.a{fill:#fff;}.b{fill:#003059;}.c{clip-path:url(#a);}</style><clipPath id="a"><path class="a" d="M33.885-72.545a1.392,1.392,0,0,0-.835-.66L19.772-76.948a1.392,1.392,0,0,0-1.059.126,1.392,1.392,0,0,0-.659.838l-1.028,3.648L16-75.984a1.392,1.392,0,0,0-.659-.838,1.392,1.392,0,0,0-1.059-.126L1.014-73.211a1.392,1.392,0,0,0-.961,1.718L2.81-61.7a1.392,1.392,0,0,0,.659.838,1.392,1.392,0,0,0,1.059.126l10.025-2.827-1.713,6.1a1.393,1.393,0,0,0,.344,1.35,1.393,1.393,0,0,0,1.341.377,1.393,1.393,0,0,0,1-.973l1.509-5.361,1.509,5.361a1.393,1.393,0,0,0,1,.973,1.393,1.393,0,0,0,1.341-.377,1.393,1.393,0,0,0,.344-1.35L19.493-63.57l10.025,2.827a1.392,1.392,0,0,0,1.059-.126,1.392,1.392,0,0,0,.659-.838L33.994-71.5A1.392,1.392,0,0,0,33.885-72.545ZM4.155-67.2l3.384-.952L6.494-71.86l3.823-1.078,1.044,3.707,3.4-.952.835,2.98-.139.49-3.136.883-.958-3.4L7.538-68.153,8.5-64.748,5.113-63.8Zm24.807,3.4-3.395-.947.958-3.4L22.7-69.231l-.958,3.4-3.127-.88-.139-.49.835-2.98,3.389.95,1.044-3.707,3.823,1.078-1.044,3.707,3.383.952Z" transform="translate(0 77)"/></clipPath></defs><g transform="translate(-314 -326)"><path class="b" d="M-12308.542-8561.441l11.827-3.073,2.793,4.414,3.662-2.465,3.112-1.595,9.571,3.7-2.885,9.494-12.4-3.924-13.366,3.578Z" transform="translate(12624.062 8891.485)"/><g transform="translate(314 326)"><g class="c" transform="translate(0 0)"><path class="a" d="M-5-82H31.835v24.092H-5Z" transform="translate(3.608 80.608)"/></g></g></g></svg>