<svg xmlns="http://www.w3.org/2000/svg" xmlns:xlink="http://www.w3.org/1999/xlink" width="896" height="414" viewBox="0 0 896 414">
  <defs>
    <clipPath id="clip-_24_x_1">
      <rect width="896" height="414"/>
    </clipPath>
  </defs>
  <g id="_24_x_1" data-name="24 x – 1" clip-path="url(#clip-_24_x_1)">
    <rect width="896" height="414" fill="#2fa7e2"/>
    <g id="Group_12948" data-name="Group 12948" transform="translate(-3803 -3847)" opacity="0.188">
      <g id="Group_8975" data-name="Group 8975" transform="translate(3803.785 3958.27)">
        <path id="Path_12712" data-name="Path 12712" d="M102.515,163.049c11.92.173,16.558,9.31,27.706,9.5,10.562.173,18.737-9.505,27.328-9.505.192,0,.98,0,1.2.006,11.914.173,16.552,9.31,27.706,9.5,10.557.173,18.731-9.505,27.322-9.505.214,0,1.1,0,1.352.006,11.92.173,16.552,9.31,27.706,9.5,10.557.173,18.731-9.505,27.328-9.505.192,0,.98,0,1.194.006,11.92.173,16.552,9.31,27.706,9.5,10.557.173,18.731-9.505,27.328-9.505.339,0,.668.011,1,.022l.73,824.017-227.39-.333,1-823.69C101.984,163.049,102.252,163.043,102.515,163.049Z" transform="translate(-100.724 -163.043)" fill="#fff" stroke="rgba(0,0,0,0)" stroke-miterlimit="10" stroke-width="1"/>
        <path id="Path_12713" data-name="Path 12713" d="M102.431,163.049c11.92.173,16.558,9.31,27.706,9.5,10.562.173,18.737-9.505,27.328-9.505.192,0,.98,0,1.2.006,11.914.173,16.552,9.31,27.706,9.5,10.557.173,18.731-9.505,27.322-9.505.214,0,1.1,0,1.352.006,11.92.173,16.552,9.31,27.706,9.5,10.557.173,18.731-9.505,27.328-9.505.192,0,.98,0,1.194.006,11.92.173,16.552,9.31,27.706,9.5,10.557.173,18.731-9.505,27.328-9.505.339,0,.668.011,1,.022l1.544,823.549-227.208-.424V163.06C101.9,163.049,102.168,163.043,102.431,163.049Z" transform="translate(124.748 -163.043)" fill="#fff" stroke="rgba(0,0,0,0)" stroke-miterlimit="10" stroke-width="1"/>
      </g>
      <g id="Group_8980" data-name="Group 8980" transform="translate(4254.591 3958.27)">
        <path id="Path_12712-2" data-name="Path 12712" d="M102.515,163.049c11.92.173,16.558,9.31,27.706,9.5,10.562.173,18.737-9.505,27.328-9.505.192,0,.98,0,1.2.006,11.914.173,16.552,9.31,27.706,9.5,10.557.173,18.731-9.505,27.322-9.505.214,0,1.1,0,1.352.006,11.92.173,16.552,9.31,27.706,9.5,10.557.173,18.731-9.505,27.328-9.505.192,0,.98,0,1.194.006,11.92.173,16.552,9.31,27.706,9.5,10.557.173,18.731-9.505,27.328-9.505.339,0,.668.011,1,.022l.73,824.017-227.39-.333,1-823.69C101.984,163.049,102.252,163.043,102.515,163.049Z" transform="translate(-100.724 -163.043)" fill="#fff" stroke="rgba(0,0,0,0)" stroke-miterlimit="10" stroke-width="1"/>
        <path id="Path_12713-2" data-name="Path 12713" d="M102.431,163.049c11.92.173,16.558,9.31,27.706,9.5,10.562.173,18.737-9.505,27.328-9.505.192,0,.98,0,1.2.006,11.914.173,16.552,9.31,27.706,9.5,10.557.173,18.731-9.505,27.322-9.505.214,0,1.1,0,1.352.006,11.92.173,16.552,9.31,27.706,9.5,10.557.173,18.731-9.505,27.328-9.505.192,0,.98,0,1.194.006,11.92.173,16.552,9.31,27.706,9.5,10.557.173,18.731-9.505,27.328-9.505.339,0,.668.011,1,.022l1.544,823.549-227.208-.424V163.06C101.9,163.049,102.168,163.043,102.431,163.049Z" transform="translate(124.748 -163.043)" fill="#fff" stroke="rgba(0,0,0,0)" stroke-miterlimit="10" stroke-width="1"/>
      </g>
    </g>
    <g id="Group_12949" data-name="Group 12949" transform="translate(-3803 -3692)" opacity="0.188">
      <g id="Group_8975-2" data-name="Group 8975" transform="translate(3803.785 3958.27)">
        <path id="Path_12712-3" data-name="Path 12712" d="M102.515,163.049c11.92.173,16.558,9.31,27.706,9.5,10.562.173,18.737-9.505,27.328-9.505.192,0,.98,0,1.2.006,11.914.173,16.552,9.31,27.706,9.5,10.557.173,18.731-9.505,27.322-9.505.214,0,1.1,0,1.352.006,11.92.173,16.552,9.31,27.706,9.5,10.557.173,18.731-9.505,27.328-9.505.192,0,.98,0,1.194.006,11.92.173,16.552,9.31,27.706,9.5,10.557.173,18.731-9.505,27.328-9.505.339,0,.668.011,1,.022l.73,824.017-227.39-.333,1-823.69C101.984,163.049,102.252,163.043,102.515,163.049Z" transform="translate(-100.724 -163.043)" fill="#fff" stroke="rgba(0,0,0,0)" stroke-miterlimit="10" stroke-width="1"/>
        <path id="Path_12713-3" data-name="Path 12713" d="M102.431,163.049c11.92.173,16.558,9.31,27.706,9.5,10.562.173,18.737-9.505,27.328-9.505.192,0,.98,0,1.2.006,11.914.173,16.552,9.31,27.706,9.5,10.557.173,18.731-9.505,27.322-9.505.214,0,1.1,0,1.352.006,11.92.173,16.552,9.31,27.706,9.5,10.557.173,18.731-9.505,27.328-9.505.192,0,.98,0,1.194.006,11.92.173,16.552,9.31,27.706,9.5,10.557.173,18.731-9.505,27.328-9.505.339,0,.668.011,1,.022l1.544,823.549-227.208-.424V163.06C101.9,163.049,102.168,163.043,102.431,163.049Z" transform="translate(124.748 -163.043)" fill="#fff" stroke="rgba(0,0,0,0)" stroke-miterlimit="10" stroke-width="1"/>
      </g>
      <g id="Group_8980-2" data-name="Group 8980" transform="translate(4254.591 3958.27)">
        <path id="Path_12712-4" data-name="Path 12712" d="M102.515,163.049c11.92.173,16.558,9.31,27.706,9.5,10.562.173,18.737-9.505,27.328-9.505.192,0,.98,0,1.2.006,11.914.173,16.552,9.31,27.706,9.5,10.557.173,18.731-9.505,27.322-9.505.214,0,1.1,0,1.352.006,11.92.173,16.552,9.31,27.706,9.5,10.557.173,18.731-9.505,27.328-9.505.192,0,.98,0,1.194.006,11.92.173,16.552,9.31,27.706,9.5,10.557.173,18.731-9.505,27.328-9.505.339,0,.668.011,1,.022l.73,824.017-227.39-.333,1-823.69C101.984,163.049,102.252,163.043,102.515,163.049Z" transform="translate(-100.724 -163.043)" fill="#fff" stroke="rgba(0,0,0,0)" stroke-miterlimit="10" stroke-width="1"/>
        <path id="Path_12713-4" data-name="Path 12713" d="M102.431,163.049c11.92.173,16.558,9.31,27.706,9.5,10.562.173,18.737-9.505,27.328-9.505.192,0,.98,0,1.2.006,11.914.173,16.552,9.31,27.706,9.5,10.557.173,18.731-9.505,27.322-9.505.214,0,1.1,0,1.352.006,11.92.173,16.552,9.31,27.706,9.5,10.557.173,18.731-9.505,27.328-9.505.192,0,.98,0,1.194.006,11.92.173,16.552,9.31,27.706,9.5,10.557.173,18.731-9.505,27.328-9.505.339,0,.668.011,1,.022l1.544,823.549-227.208-.424V163.06C101.9,163.049,102.168,163.043,102.431,163.049Z" transform="translate(124.748 -163.043)" fill="#fff" stroke="rgba(0,0,0,0)" stroke-miterlimit="10" stroke-width="1"/>
      </g>
    </g>
  </g>
</svg>
