<svg xmlns="http://www.w3.org/2000/svg" xmlns:xlink="http://www.w3.org/1999/xlink" width="93.893" height="108.66" viewBox="0 0 93.893 108.66"><defs><linearGradient id="a" x1="-2.873" y1="2.233" x2="-2.008" y2="1.433" gradientUnits="objectBoundingBox"><stop offset="0" stop-color="#f55142"/><stop offset="0.327" stop-color="#f54e3f"/><stop offset="0.59" stop-color="#f44535"/><stop offset="0.83" stop-color="#f33624"/><stop offset="1" stop-color="#f22613"/></linearGradient><linearGradient id="b" x1="-2.498" y1="1.467" x2="-1.699" y2="2.325" gradientUnits="objectBoundingBox"><stop offset="0" stop-color="#f22613"/><stop offset="0.17" stop-color="#f33624"/><stop offset="0.41" stop-color="#f44535"/><stop offset="0.673" stop-color="#f54e3f"/><stop offset="1" stop-color="#f55142"/></linearGradient><linearGradient id="c" x1="-1.11" y1="2.166" x2="-0.108" y2="2.166" gradientUnits="objectBoundingBox"><stop offset="0" stop-color="#f7b855"/><stop offset="1" stop-color="#ffc569"/></linearGradient><linearGradient id="d" x1="-1.326" y1="3.271" x2="-0.321" y2="3.271" gradientUnits="objectBoundingBox"><stop offset="0" stop-color="#f39c12"/><stop offset="1" stop-color="#ff9b2c"/></linearGradient><linearGradient id="e" x1="-3.523" y1="1.673" x2="-3.523" y2="0.689" xlink:href="#b"/></defs><g transform="translate(-571.022 -356.043)"><g transform="translate(571.022 356.043)"><path d="M33.5,21.666C23.26,22.69,19.165,46.235,17.8,56.472a4.764,4.764,0,0,0,1.024,3.071,2.262,2.262,0,0,0,2.389.682h.682c9.9-3.071,32.418-11.6,31.735-21.5A18.265,18.265,0,0,0,33.5,21.666ZM31.45,36.68a6.883,6.883,0,0,1,7.507,6.142c-.682,1.706-5.8,4.436-12.285,7.166C28.378,43.164,30.085,37.7,31.45,36.68Z" transform="translate(25.59 -21.573)" fill="url(#a)"/><path d="M47.023,54.046c-3.071-9.9-11.6-32.418-21.5-31.735A18.8,18.8,0,0,0,8.464,42.785c1.024,10.237,24.569,14.332,34.806,15.7h.682a2.576,2.576,0,0,0,2.389-1.365A2.609,2.609,0,0,0,47.023,54.046Zm-23.2-9.213a6.883,6.883,0,0,1,6.142-7.507c1.706.682,4.436,5.8,7.166,12.285C30.3,47.9,24.5,45.856,23.819,44.832Z" transform="translate(2.85 -19.829)" fill="url(#b)"/><path d="M15.814,40.175a10.576,10.576,0,0,1,9.213-11.261,10.042,10.042,0,0,1,10.92,9.213Z" transform="translate(20.751 -3.91)" fill="#f22613"/><path d="M90.686,30.8,6.4,38.307,18.685,105.19a3.381,3.381,0,0,0,3.754,2.73l64.494-5.46A3.366,3.366,0,0,0,90,99.048Z" transform="translate(-1.912 0.687)" fill="#ffbb41"/><path d="M5.137,42.4,8.208,60.146,98.978,52.3V34.212A3.507,3.507,0,0,0,95.224,30.8L8.208,38.307A3.526,3.526,0,0,0,5.137,42.4Z" transform="translate(-5.085 0.687)" fill="url(#c)"/><rect width="20.474" height="70.978" transform="translate(36.596 36.259) rotate(-5)" fill="#f55142"/><path d="M87.45,48.12V37.2L7.6,44.366,9.647,54.944Z" transform="translate(0.983 16.127)" fill="url(#d)"/><path d="M36.274,31.7,15.8,33.406l6.142,70.3L42.417,102Z" transform="translate(20.765 2.858)" fill="url(#e)"/></g></g></svg>