<?xml version="1.0" encoding="utf-8"?>
<!-- Generator: Adobe Illustrator 24.1.1, SVG Export Plug-In . SVG Version: 6.00 Build 0)  -->
<svg version="1.1" id="Layer_1" xmlns="http://www.w3.org/2000/svg" xmlns:xlink="http://www.w3.org/1999/xlink" x="0px" y="0px"
	 viewBox="0 0 31.3 20.4" style="enable-background:new 0 0 31.3 20.4;" xml:space="preserve">
<style type="text/css">
	.st0{clip-path:url(#SVGID_2_);}
	.st1{fill:#F8DE00;}
	.st2{clip-path:url(#SVGID_4_);}
	.st3{clip-path:url(#SVGID_6_);}
	.st4{clip-path:url(#SVGID_8_);}
	.st5{clip-path:url(#SVGID_10_);}
	.st6{clip-path:url(#SVGID_12_);}
	.st7{clip-path:url(#SVGID_14_);}
	.st8{clip-path:url(#SVGID_16_);}
</style>
<g id="Layer_2_1_">
	<g id="Layer_1-2">
		<g id="Group_13981">
			<g id="Gold">
				<g id="Group_13979">
					<g id="Group_9565">
						<g>
							<defs>
								<path id="SVGID_1_" d="M5.8,0.7C4.5,1.8,4.4,3.7,5.5,5l1.8,2l0.6-0.6c1.3-1.1,1.4-3.1,0.3-4.4l-1.8-2L5.8,0.7z"/>
							</defs>
							<clipPath id="SVGID_2_">
								<use xlink:href="#SVGID_1_"  style="overflow:visible;"/>
							</clipPath>
							<g class="st0">
								<g id="Group_9553">
									<path id="Path_13588" class="st1" d="M1.5-10.2l18.8,7.6l-8.1,20L-6.6,9.8L1.5-10.2z"/>
								</g>
							</g>
						</g>
						<g>
							<defs>
								<path id="SVGID_3_" d="M6,11l0.3-0.8c0.6-1.6-0.2-3.4-1.8-4L2.1,5.3L1.8,6.1c-0.6,1.6,0.2,3.4,1.8,4L6,11z"/>
							</defs>
							<clipPath id="SVGID_4_">
								<use xlink:href="#SVGID_3_"  style="overflow:visible;"/>
							</clipPath>
							<g class="st2">
								<g id="Group_9555">
									<path id="Path_13592" class="st1" d="M-2.2-4.8l19.7,8l-7.3,18l-19.7-8L-2.2-4.8z"/>
								</g>
							</g>
						</g>
						<g>
							<defs>
								<path id="SVGID_5_" d="M6.4,15.1l-0.1-0.8c-0.2-1.7-1.7-2.9-3.4-2.7l-2.6,0.3l0.1,0.8c0.2,1.7,1.7,2.9,3.4,2.7L6.4,15.1z"/>
							</defs>
							<clipPath id="SVGID_6_">
								<use xlink:href="#SVGID_5_"  style="overflow:visible;"/>
							</clipPath>
							<g class="st3">
								<g id="Group_9557">
									<path id="Path_13596" class="st1" d="M-3.5,0.3l20.8,8.4L10,26.7l-20.8-8.4L-3.5,0.3z"/>
								</g>
							</g>
						</g>
						<g>
							<defs>
								<path id="SVGID_7_" d="M4.4,16.8l-2.2,1.5l0.5,0.7c1,1.4,2.9,1.8,4.3,0.8c0,0,0,0,0,0l0,0l2.2-1.5l-0.5-0.7
									C7.8,16.2,5.8,15.8,4.4,16.8L4.4,16.8z"/>
							</defs>
							<clipPath id="SVGID_8_">
								<use xlink:href="#SVGID_7_"  style="overflow:visible;"/>
							</clipPath>
							<g class="st4">
								<g id="Group_9559">
									<path id="Path_13600" class="st1" d="M-0.7,4.9l20.3,8.3l-7.5,18.6l-20.3-8.2L-0.7,4.9z"/>
								</g>
							</g>
						</g>
					</g>
					<g id="Group_9566">
						<g>
							<defs>
								<path id="SVGID_9_" d="M25.5,0.7c1.3,1.1,1.4,3.1,0.3,4.4L24,7l-0.6-0.6c-1.3-1.1-1.4-3.1-0.3-4.4l1.7-2L25.5,0.7z"/>
							</defs>
							<clipPath id="SVGID_10_">
								<use xlink:href="#SVGID_9_"  style="overflow:visible;"/>
							</clipPath>
							<g class="st5">
								<g id="Group_9553-2">
									<path id="Path_13588-2" class="st1" d="M29.8-10.2L11-2.7l8.1,20l18.8-7.6L29.8-10.2z"/>
								</g>
							</g>
						</g>
						<g>
							<defs>
								<path id="SVGID_11_" d="M25.3,11L25,10.2c-0.6-1.6,0.2-3.4,1.8-4l2.5-0.9l0.3,0.8c0.6,1.6-0.2,3.4-1.8,4L25.3,11z"/>
							</defs>
							<clipPath id="SVGID_12_">
								<use xlink:href="#SVGID_11_"  style="overflow:visible;"/>
							</clipPath>
							<g class="st6">
								<g id="Group_9555-2">
									<path id="Path_13592-2" class="st1" d="M33.5-4.8l-19.7,8l7.3,18l19.7-8L33.5-4.8z"/>
								</g>
							</g>
						</g>
						<g>
							<defs>
								<path id="SVGID_13_" d="M24.9,15.1l0.1-0.8c0.2-1.7,1.7-2.9,3.4-2.7c0,0,0,0,0,0l2.6,0.3L31,12.7c-0.2,1.7-1.7,2.9-3.4,2.7
									c0,0,0,0,0,0L24.9,15.1z"/>
							</defs>
							<clipPath id="SVGID_14_">
								<use xlink:href="#SVGID_13_"  style="overflow:visible;"/>
							</clipPath>
							<g class="st7">
								<g id="Group_9557-2">
									<path id="Path_13596-2" class="st1" d="M34.7,0.3L14,8.7l7.3,18.1L42,18.3L34.7,0.3z"/>
								</g>
							</g>
						</g>
						<g>
							<defs>
								<path id="SVGID_15_" d="M26.9,16.8l2.2,1.5l-0.5,0.7c-1,1.4-2.9,1.8-4.3,0.8c0,0,0,0,0,0l0,0l-2.2-1.5l0.5-0.7
									C23.6,16.2,25.5,15.8,26.9,16.8z"/>
							</defs>
							<clipPath id="SVGID_16_">
								<use xlink:href="#SVGID_15_"  style="overflow:visible;"/>
							</clipPath>
							<g class="st8">
								<g id="Group_9559-2">
									<path id="Path_13600-2" class="st1" d="M32,4.9l-20.3,8.3l7.6,18.6l20.3-8.2L32,4.9z"/>
								</g>
							</g>
						</g>
					</g>
				</g>
			</g>
		</g>
	</g>
</g>
</svg>
