<svg id="btn_wrong_grey" xmlns="http://www.w3.org/2000/svg" width="24" height="24" viewBox="0 0 24 24">
  <path id="noun_wrong_1892752" d="M21.891,20.2a.634.634,0,0,1,0,.889l-.806.806a.634.634,0,0,1-.889,0l-3.617-3.61L12.963,21.9a.634.634,0,0,1-.889,0l-.806-.806a.634.634,0,0,1,0-.889l3.61-3.623-3.617-3.617a.634.634,0,0,1,0-.889l.806-.806a.634.634,0,0,1,.889,0l3.623,3.61L20.2,11.262a.634.634,0,0,1,.889,0l.806.806a.634.634,0,0,1,0,.889l-3.61,3.623ZM16.58,4.58a12,12,0,1,0,12,12A12,12,0,0,0,16.58,4.58Z" transform="translate(-4.58 -4.58)" fill="#9d9d9d"/>
</svg>
