<svg xmlns="http://www.w3.org/2000/svg" width="75" height="125" viewBox="0 0 75 125"><g transform="translate(0 123.536)" fill="#fff" stroke="#505050" stroke-width="1" opacity="0.521"><ellipse cx="37.337" cy="0.732" rx="37.337" ry="0.732" stroke="none"/><ellipse cx="37.337" cy="0.732" rx="36.837" ry="0.232" fill="none"/></g><g transform="translate(0.362)"><g transform="translate(0 0)"><g transform="translate(0 20.482)"><g transform="translate(16.865 53.992)"><path d="M191.879,846.323c-.11,2.956-.256,5.619-.421,7.862s-.348,4.054-.549,5.317-.421,1.968-.7,1.986-.586-.65-.952-1.876-.769-3-1.226-5.208-.943-4.823-1.428-7.743-.97-6.132-1.382-9.509c-.146-1.172-.275-2.334-.384-3.46-.211-2.124-.366-4.164-.458-6.077a65.16,65.16,0,0,1,.027-7.844,21.724,21.724,0,0,1,.934-5.345c.448-1.272,1.034-2,1.693-2.05s1.327.6,1.94,1.812a21.517,21.517,0,0,1,1.611,5.18,66.851,66.851,0,0,1,1.034,7.77c.238,2.938.357,6.169.384,9.573v.595C192.043,840.493,191.979,843.541,191.879,846.323Z" transform="translate(-184.271 -812.375)" fill="#fcb888"/></g><g transform="translate(5.467 53.983)"><path d="M67.388,827.516c-.073,1.474-.183,3.02-.32,4.622s-.32,3.24-.522,4.915c-.412,3.377-.9,6.59-1.382,9.509s-.979,5.546-1.428,7.743-.86,3.981-1.226,5.208-.677,1.894-.952,1.876-.5-.723-.7-1.986-.384-3.075-.549-5.318-.311-4.906-.421-7.862-.174-6.205-.146-9.61c.018-2.105.073-4.146.165-6.1.055-1.2.128-2.361.22-3.478a66.846,66.846,0,0,1,1.034-7.77,21.8,21.8,0,0,1,1.611-5.18c.613-1.208,1.281-1.858,1.94-1.812s1.245.769,1.693,2.05a20.967,20.967,0,0,1,.934,5.345A59.527,59.527,0,0,1,67.388,827.516Z" transform="translate(-59.731 -812.275)" fill="#fcb888"/></g><path d="M69.241,819.863a65.144,65.144,0,0,1,.027,7.844c-.073,1.474-.183,3.02-.32,4.622-2.361-.631-4.759-1.135-7.148-1.611.055-1.2.128-2.361.22-3.478a66.855,66.855,0,0,1,1.034-7.77,21.8,21.8,0,0,1,1.611-5.18c.613-1.208,1.281-1.858,1.94-1.812s1.245.769,1.693,2.05A21.079,21.079,0,0,1,69.241,819.863Z" transform="translate(-56.144 -758.474)" fill="#e7a77d"/><path d="M192.216,837.217a33.5,33.5,0,0,0-6.992-3.551c-.064-.028-.128-.046-.192-.073-.211-2.123-.366-4.164-.458-6.077a65.153,65.153,0,0,1,.027-7.844,21.722,21.722,0,0,1,.934-5.345c.448-1.272,1.034-2,1.693-2.05s1.327.6,1.94,1.812a21.517,21.517,0,0,1,1.611,5.18,66.861,66.861,0,0,1,1.034,7.77c.238,2.938.357,6.169.384,9.573C192.207,836.824,192.216,837.016,192.216,837.217Z" transform="translate(-167.587 -758.292)" fill="#e7a77d"/><path d="M58.663,492.115a6.824,6.824,0,0,1-.76,3.624,4.989,4.989,0,0,1-2.92,1.959,14.785,14.785,0,0,1-3.6.384c-1.519.037-3.029.082-4.549.119h-.293c-1.519-.037-3.029-.082-4.549-.119a14.785,14.785,0,0,1-3.6-.384,4.961,4.961,0,0,1-2.92-1.959,6.912,6.912,0,0,1-.76-3.624,129.779,129.779,0,0,1,.979-18.277,5.317,5.317,0,0,1,1-2.938,4.82,4.82,0,0,1,3.725-1.245,14.562,14.562,0,0,0,4.045-.156,16.688,16.688,0,0,0,2.215.394A16.688,16.688,0,0,0,48.9,469.5a14.562,14.562,0,0,0,4.045.156,4.855,4.855,0,0,1,3.725,1.245,5.247,5.247,0,0,1,1,2.938A125.8,125.8,0,0,1,58.663,492.115Z" transform="translate(-31.527 -446.889)" fill="#006cbb"/><path d="M70,238.62a12.969,12.969,0,0,1-4.878,6.5,15.983,15.983,0,0,1-1.922,1.19,8.1,8.1,0,0,0-1.675-.329c-1.812-.174-3.707.1-5.519-.11a7.636,7.636,0,0,1-5.72-3.972,8.4,8.4,0,0,1-.265-7.194c.668-1.5,1.794-2.828,2-4.475.092-.787-.037-1.592.037-2.389a4.509,4.509,0,0,1,1.83-3.24,4.665,4.665,0,0,1,3.78-.65,3.382,3.382,0,0,1,4.668-.943c1.263.9,1.794,2.553,2.846,3.707a30.532,30.532,0,0,0,2.517,2.068C70.31,231.088,71.07,235.216,70,238.62Z" transform="translate(-44.821 -222.443)" fill="#202a54"/><path d="M172.345,360.1a15.977,15.977,0,0,1-1.922,1.19,8.1,8.1,0,0,0-1.675-.329,4.226,4.226,0,0,1-1.345-2.48,5.275,5.275,0,0,1,.494-2.865,15.942,15.942,0,0,1,1.51-2.517c.9-1.309,1.538-2.791,2.444-4.1a3.928,3.928,0,0,1,1.693,2.846A12.77,12.77,0,0,1,172.345,360.1Z" transform="translate(-152.045 -337.417)" fill="#131936"/><path d="M4.426,515.627a51.152,51.152,0,0,1,1.684-6.956,34.421,34.421,0,0,1,2.709-6.6c.924-1.611,1.821-2.489,2.407-2.279s.732,1.455.439,3.286a34.069,34.069,0,0,1-2.032,6.837,51.012,51.012,0,0,1-3.066,6.471c-.924,1.6-1.666,2.544-2.05,2.407S4.142,517.458,4.426,515.627Z" transform="translate(-3.831 -474.382)" fill="#fcb888"/><path d="M29.318,488a21.848,21.848,0,0,0-5.418,8.9,12.858,12.858,0,0,0,4.951,2.645C29,495.605,29.163,491.945,29.318,488Z" transform="translate(-21.712 -463.695)" fill="#ffdf5e"/><path d="M250.586,515.627a51.153,51.153,0,0,0-1.684-6.956,34.417,34.417,0,0,0-2.709-6.6c-.924-1.611-1.821-2.489-2.407-2.279s-.732,1.455-.439,3.286a34.073,34.073,0,0,0,2.032,6.837,51.012,51.012,0,0,0,3.066,6.471c.924,1.6,1.666,2.544,2.05,2.407S250.869,517.458,250.586,515.627Z" transform="translate(-220.942 -474.382)" fill="#fcb888"/><path d="M247.3,488a21.849,21.849,0,0,1,5.418,8.9,12.858,12.858,0,0,1-4.951,2.645C247.62,495.605,247.456,491.945,247.3,488Z" transform="translate(-224.666 -463.695)" fill="#ffdf5e"/><path d="M64.3,504.028a33.816,33.816,0,0,1-22.6.21c.65-7.633,2.773-32.179,3.148-39.831l.3-6.251c.412-.146,1.162-.439,2.05-.787.146-.055.293-.11.439-.174,1.895-.75,4.228-1.693,5.372-2.1,1.135.4,3.478,1.345,5.372,2.1.174.073.348.137.513.2.851.339,1.565.613,1.977.76l.3,6.251C61.533,472,63.656,496.468,64.3,504.028Z" transform="translate(-37.883 -433.807)" fill="#ffdd68"/><path d="M64.3,981.433a33.815,33.815,0,0,1-22.6.211c.018-.256.046-.54.073-.833a34.4,34.4,0,0,0,10.974,1.812A33.829,33.829,0,0,0,64.233,980.6C64.251,980.9,64.269,981.177,64.3,981.433Z" transform="translate(-37.883 -911.212)" fill="#fff"/><path d="M113.4,457.4a6.362,6.362,0,0,1-11.7-.027c.146-.055.293-.11.439-.174,1.895-.75,4.228-1.693,5.372-2.1,1.135.4,3.478,1.345,5.372,2.1C113.058,457.269,113.232,457.333,113.4,457.4Z" transform="translate(-92.392 -433.807)" fill="#fff"/><path d="M117.245,457.2a6,6,0,0,1-10.745,0c1.895-.75,4.228-1.693,5.372-2.1C113.016,455.512,115.35,456.445,117.245,457.2Z" transform="translate(-96.753 -433.807)" fill="#fcb888"/><path d="M141.181,405.044a3.738,3.738,0,0,1-2.764,1.382A3.673,3.673,0,0,1,135.8,405.1c.037-1.016.073-2.041.1-3.057.009-.119.009-.247.009-.366,0-.082.009-.174.009-.256.037-1,.064-2,.1-3,1.583.1,3.45-.156,5.034-.055-.073,1.629-.064,3.267.018,4.887.009.247.027.5.037.75.009.192.027.384.037.577C141.163,404.724,141.172,404.879,141.181,405.044Z" transform="translate(-123.371 -382.24)" fill="#fcb888"/><path d="M142.344,403.15a8.863,8.863,0,0,1-2.462-.247,5.182,5.182,0,0,1-2.682-1.583c.037-1,.064-2,.1-3,1.583.1,3.45-.156,5.034-.055C142.252,399.892,142.27,401.521,142.344,403.15Z" transform="translate(-124.643 -382.15)" fill="#e7a77d"/><path d="M124.408,297.582c-.2,4.036-2.224,8.173-4.7,8.173-2.608,0-4.713-4.594-4.713-8.814v-.366a15.726,15.726,0,0,0,2.947-4.375c1.821,1.428,3.45,2.984,5.272,4.411C123.621,296.923,124.024,297.243,124.408,297.582Z" transform="translate(-104.475 -285.816)" fill="#fcb888"/><path d="M151.318,395.5a2.871,2.871,0,0,0,1.776-.037.268.268,0,0,1,.348.3,1.388,1.388,0,0,1-.513.787,1.322,1.322,0,0,1-1.336.1,1.487,1.487,0,0,1-.613-.815A.272.272,0,0,1,151.318,395.5Z" transform="translate(-137.15 -379.618)" fill="#f4e4eb"/><g transform="translate(20.317 22.794)"><path d="M223.377,471.5c.293,0,.586.247.833.668a3.247,3.247,0,0,1,.183.357,3.631,3.631,0,0,1,.183.421c.119.3.22.641.339,1.016.055.183.11.384.156.586s.11.412.156.631c.1.439.21.906.3,1.391.046.247.1.494.156.75.027.128.046.256.073.393s.055.265.082.394c.055.266.092.54.156.815s.11.558.156.842.11.558.165.842.11.549.156.815c.027.137.046.265.073.4s.055.265.082.393c.046.256.1.513.146.76.1.5.192.979.284,1.419.046.229.082.439.128.65s.082.412.119.6c.064.394.137.741.174,1.062.018.156.037.311.055.448s.028.265.037.394c.027.476-.037.8-.211.9s-.439-.028-.8-.348a4.919,4.919,0,0,1-.567-.622c-.2-.256-.43-.549-.659-.9-.11-.174-.229-.357-.348-.54s-.229-.394-.348-.6c-.238-.421-.467-.888-.7-1.382-.119-.247-.22-.512-.329-.778-.055-.137-.11-.266-.165-.4s-.1-.275-.156-.421c-.1-.284-.211-.567-.3-.869s-.183-.595-.275-.906-.156-.613-.229-.915-.128-.6-.183-.906l-.082-.439c-.018-.146-.046-.293-.064-.439-.037-.293-.073-.567-.1-.851-.046-.558-.082-1.08-.073-1.583,0-.247,0-.485.018-.714s.037-.448.055-.659a7.189,7.189,0,0,1,.21-1.135q.069-.247.137-.467a4.032,4.032,0,0,1,.165-.384C222.8,471.747,223.075,471.5,223.377,471.5Z" transform="translate(-221.984 -471.5)" fill="#0386e9"/></g><g transform="translate(5.263 22.72)"><path d="M60.658,470.69c-.293.018-.567.284-.8.723-.055.11-.11.238-.165.366s-.11.275-.156.43c-.1.311-.183.659-.275,1.034-.046.192-.082.394-.119.595s-.082.421-.119.641c-.064.439-.146.915-.211,1.409-.037.247-.073.5-.1.76-.018.128-.027.256-.046.394s-.037.265-.055.4c-.037.265-.064.549-.1.824s-.073.558-.1.851l-.11.851c-.027.284-.073.558-.11.824-.018.137-.037.275-.046.4s-.037.265-.055.394c-.037.265-.064.522-.1.769-.064.5-.128.988-.192,1.437q-.041.343-.082.659c-.027.21-.055.412-.073.613-.037.393-.082.75-.11,1.071-.009.165-.018.311-.027.458s-.009.275-.009.394c.009.476.092.787.265.879s.439-.055.769-.394a2.778,2.778,0,0,0,.256-.293,4.221,4.221,0,0,0,.275-.366,9.8,9.8,0,0,0,.595-.934c.1-.174.211-.366.311-.567s.2-.412.311-.632c.211-.439.412-.915.613-1.428.1-.256.192-.522.284-.8l.137-.412c.046-.137.082-.284.128-.43.082-.284.174-.577.247-.879s.146-.6.21-.924.119-.622.174-.934.092-.613.128-.915c.018-.146.037-.3.055-.448s.027-.293.037-.439c.018-.293.037-.577.046-.851.009-.558.009-1.089-.027-1.583-.018-.247-.037-.485-.064-.714s-.064-.449-.1-.659a7.325,7.325,0,0,0-.284-1.117,4.186,4.186,0,0,0-.174-.448c-.064-.137-.128-.265-.192-.375C61.243,470.9,60.95,470.672,60.658,470.69Z" transform="translate(-57.5 -470.689)" fill="#0386e9"/></g><g transform="translate(21.878 29.022)"><path d="M239.575,539.549c.5-.082,1.364.842,2.444,2.389a44.066,44.066,0,0,1,3.514,6.178,20.51,20.51,0,0,1,2,6.434c.146,1.711-.293,2.856-1.217,3.011s-2.114-.714-3.185-2.27a21.93,21.93,0,0,1-2.773-6.306,35.687,35.687,0,0,1-1.254-6.562C238.97,540.721,239.071,539.632,239.575,539.549Z" transform="translate(-239.048 -539.544)" fill="#fcb888"/></g><g transform="translate(0 29.022)"><path d="M7.979,539.549c-.5-.082-1.364.842-2.444,2.389a44.068,44.068,0,0,0-3.514,6.178,20.313,20.313,0,0,0-2,6.443c-.146,1.711.293,2.856,1.217,3.011s2.114-.714,3.185-2.27A21.929,21.929,0,0,0,7.2,548.995a35.688,35.688,0,0,0,1.254-6.562C8.592,540.721,8.482,539.632,7.979,539.549Z" transform="translate(0.002 -539.544)" fill="#fcb888"/></g><path d="M66.869,515.623a1.845,1.845,0,0,1,1.959.064,2.541,2.541,0,0,1,.915,1.73,3.611,3.611,0,0,1-.906,2.938,2.869,2.869,0,0,1-1.19.741c-.869.284-2.471.128-2.9-.97-.348-.9.329-2.251.732-2.984A3.678,3.678,0,0,1,66.869,515.623Z" transform="translate(-58.732 -488.563)" fill="#fcb888"/><path d="M215.646,515.623a1.845,1.845,0,0,0-1.959.064,2.541,2.541,0,0,0-.915,1.73,3.611,3.611,0,0,0,.906,2.938,2.869,2.869,0,0,0,1.19.741c.869.284,2.471.128,2.9-.97.348-.9-.329-2.251-.732-2.984A3.679,3.679,0,0,0,215.646,515.623Z" transform="translate(-193.269 -488.563)" fill="#fcb888"/><path d="M228.579,1302.774c.357.485.421.778,1.025.742a1.863,1.863,0,0,0,1.474-.915,5.748,5.748,0,0,1,4.109,4.814,34.919,34.919,0,0,1-6.91-.256A10.74,10.74,0,0,1,228.579,1302.774Z" transform="translate(-207.3 -1203.741)" fill="#311649"/><path d="M31.008,1302.774c-.357.485-.421.778-1.025.742a1.863,1.863,0,0,1-1.474-.915,5.748,5.748,0,0,0-4.109,4.814,34.919,34.919,0,0,0,6.91-.256A10.432,10.432,0,0,0,31.008,1302.774Z" transform="translate(-22.167 -1203.741)" fill="#311649"/></g><g transform="translate(31.541)"><g transform="translate(21.819 1.091)"><path d="M852.62,16.76q0,.769-.027,1.647c-.027.577-.055,1.2-.1,1.84q-.041.48-.083.988c-.027.339-.055.686-.1,1.034-.082.7-.156,1.428-.275,2.178-.055.375-.11.76-.165,1.144s-.128.778-.2,1.181c-.036.2-.073.4-.1.6s-.073.4-.119.6c-.082.4-.165.824-.247,1.236-.357,1.666-.76,3.4-1.254,5.2s-1.043,3.624-1.684,5.482c-.2.567-.394,1.135-.6,1.693-.458,1.263-.934,2.489-1.437,3.67h0c-.174.43-.366.851-.54,1.263s-.366.833-.549,1.236-.375.805-.558,1.2-.384.778-.568,1.162c-.091.192-.192.384-.284.567s-.192.375-.293.558c-.192.366-.385.732-.577,1.089s-.394.7-.586,1.043c-.1.174-.192.339-.293.5s-.2.329-.293.494c-.2.329-.393.641-.586.961s-.393.613-.586.915c-.348.54-.7,1.043-1.043,1.528-.037.055-.073.1-.11.156-.183.265-.375.522-.568.769s-.375.485-.549.714c-.366.458-.723.879-1.071,1.272a18.176,18.176,0,0,1-1.913,1.885,6.136,6.136,0,0,1-1.474.979.924.924,0,0,1-.9.046c-.193-.146-.266-.439-.22-.869a7.859,7.859,0,0,1,.421-1.666c.238-.677.549-1.474.943-2.389.192-.458.412-.934.631-1.446.11-.256.229-.513.348-.787.092-.21.192-.421.293-.641.027-.064.055-.119.082-.183.513-1.117,1.08-2.343,1.675-3.661.073-.165.156-.329.229-.494s.156-.339.229-.513c.156-.339.311-.686.476-1.034s.32-.7.476-1.071c.082-.183.165-.366.247-.54s.165-.366.247-.558c.146-.329.293-.659.448-1,.018-.046.036-.092.055-.128.165-.384.339-.769.5-1.162s.348-.787.513-1.181c.119-.293.256-.577.375-.869.046-.11.1-.229.146-.339.7-1.629,1.4-3.331,2.105-5.07s1.364-3.46,1.986-5.125,1.19-3.286,1.721-4.832c.128-.384.256-.769.384-1.144.064-.192.128-.375.192-.558s.119-.375.174-.558c.119-.366.238-.732.348-1.089s.22-.714.33-1.062c.22-.7.412-1.373.6-2.023.1-.32.183-.641.275-.952s.174-.622.256-.915c.165-.6.311-1.171.458-1.711s.265-1.053.394-1.538.229-.924.339-1.336.192-.8.293-1.135a13.858,13.858,0,0,1,.494-1.574c.156-.366.293-.549.439-.549s.265.2.384.586a8.864,8.864,0,0,1,.293,1.666c.037.357.082.769.092,1.208C852.6,15.762,852.62,16.238,852.62,16.76Z" transform="translate(-832.655 -11.9)" fill="#fab78c"/></g><path d="M847.86,336.2c-.458,1.263-.934,2.489-1.437,3.67h0c-.174.43-.366.851-.54,1.263s-.366.833-.549,1.236-.375.805-.558,1.2-.384.778-.567,1.162c-.091.192-.192.384-.284.567s-.192.375-.293.558c-.192.366-.384.732-.577,1.089s-.393.7-.586,1.043c-.1.174-.192.339-.293.5s-.2.329-.293.494c-.2.33-.393.641-.586.961s-.393.613-.586.915c-.348.54-.7,1.043-1.043,1.529-.037.055-.073.1-.11.155-.183.265-.375.522-.567.769s-.375.485-.549.714c-.366.458-.723.879-1.071,1.272a18.183,18.183,0,0,1-1.913,1.885,6.137,6.137,0,0,1-1.474.979.924.924,0,0,1-.9.046c-.192-.146-.265-.439-.22-.87a7.857,7.857,0,0,1,.421-1.666c.238-.677.549-1.474.943-2.389.192-.458.412-.934.631-1.446.11-.256.229-.512.348-.787.092-.21.192-.421.293-.641.028-.064.055-.119.082-.183.513-1.117,1.08-2.343,1.675-3.661.073-.165.156-.329.229-.494s.155-.339.229-.512c.156-.339.311-.686.476-1.034s.32-.7.476-1.071c.082-.183.165-.366.247-.54s.165-.366.247-.558c.146-.329.293-.659.448-1,.018-.046.036-.091.055-.128.165-.384.339-.769.5-1.162s.348-.787.512-1.181c.119-.293.256-.577.375-.87a10.511,10.511,0,0,0,5.555-1.089A11.12,11.12,0,0,0,847.86,336.2Z" transform="translate(-811.018 -305.392)" opacity="0.085"/><g transform="translate(1.304 1.045)"><path d="M628.223,63.125c-.192.146-.494.128-.9-.046a5.551,5.551,0,0,1-.86-.494c-.192-.137-.4-.293-.613-.476a18.171,18.171,0,0,1-1.913-1.885c-.339-.394-.7-.815-1.071-1.272q-.275-.343-.549-.714c-.192-.247-.375-.5-.567-.769-.037-.055-.073-.1-.11-.156-.339-.485-.7-.988-1.043-1.528-.192-.293-.384-.595-.586-.915s-.385-.632-.586-.961c-.1-.165-.192-.329-.293-.494s-.192-.339-.293-.5c-.192-.339-.384-.686-.586-1.043s-.384-.714-.577-1.089c-.1-.183-.192-.366-.293-.558s-.192-.375-.283-.567c-.192-.384-.375-.769-.568-1.162s-.375-.8-.558-1.2-.366-.815-.549-1.236c-.119-.284-.247-.567-.366-.851-.064-.137-.119-.275-.174-.412h0c-.714-1.711-1.391-3.505-2.032-5.363s-1.19-3.7-1.684-5.482-.9-3.533-1.254-5.2q-.124-.632-.247-1.236c-.036-.2-.082-.4-.119-.6s-.073-.4-.1-.6c-.064-.394-.128-.787-.2-1.181s-.11-.769-.165-1.144c-.11-.75-.192-1.483-.275-2.178-.046-.348-.073-.7-.1-1.034s-.055-.668-.082-.988c-.046-.641-.073-1.263-.1-1.84s-.027-1.135-.027-1.647.018-1,.036-1.437.064-.842.092-1.208a9.018,9.018,0,0,1,.293-1.666c.119-.375.238-.577.384-.586s.284.183.439.549a15.293,15.293,0,0,1,.494,1.574c.091.339.183.723.293,1.135s.22.86.339,1.336.256.988.393,1.538.3,1.117.458,1.711c.082.3.174.6.256.915s.174.632.274.952c.192.65.384,1.327.6,2.023.11.348.211.7.33,1.062s.229.723.348,1.089c.055.183.119.366.174.558s.128.375.192.558c.128.375.256.76.384,1.144.531,1.547,1.1,3.167,1.721,4.832s1.281,3.377,1.986,5.125c.238.595.485,1.19.723,1.776.467,1.126.924,2.224,1.382,3.295.174.412.348.805.522,1.208s.339.8.512,1.181.339.778.5,1.162l.055.128c.146.339.3.668.449,1,.082.183.165.366.247.558s.165.366.247.54c.165.366.32.714.476,1.071s.32.7.476,1.034c.073.174.156.339.229.513s.156.329.229.494c.6,1.318,1.162,2.544,1.675,3.661.028.064.055.128.082.183.1.22.192.43.293.641.119.265.238.531.348.787.229.513.448.988.631,1.446.394.906.7,1.711.943,2.389.092.275.174.54.238.769a6.14,6.14,0,0,1,.183.888C628.488,62.677,628.415,62.979,628.223,63.125Z" transform="translate(-608.5 -11.396)" fill="#fab78c"/></g><path d="M693.5,338.266a10.526,10.526,0,0,1-1.794,1.226c-.192-.137-.4-.293-.613-.476a18.16,18.16,0,0,1-1.913-1.885c-.339-.394-.7-.815-1.071-1.272q-.275-.343-.549-.714c-.192-.247-.375-.5-.567-.769-.037-.055-.073-.1-.11-.156-.339-.485-.7-.988-1.044-1.528-.192-.293-.384-.595-.586-.915s-.385-.632-.586-.961c-.1-.165-.192-.329-.293-.494s-.192-.339-.293-.5c-.192-.339-.384-.686-.586-1.043s-.384-.714-.577-1.089c-.1-.183-.192-.366-.293-.558s-.192-.375-.284-.568c-.192-.384-.375-.769-.567-1.162s-.375-.8-.558-1.2-.366-.815-.549-1.236c-.119-.284-.247-.567-.366-.851a6.7,6.7,0,0,0,3.185-3.414,6.477,6.477,0,0,0,.467-2.5c.467,1.126.924,2.224,1.382,3.295.174.412.348.805.522,1.208s.339.8.513,1.181.339.778.5,1.162l.055.128c.146.339.3.668.449,1,.082.183.164.366.247.558s.165.366.247.54c.165.366.32.714.476,1.071s.32.7.476,1.034c.073.174.156.339.229.513s.156.329.229.494c.6,1.318,1.162,2.544,1.675,3.661.028.064.055.128.082.183.1.22.192.43.293.641.119.265.238.531.348.787.229.513.449.988.632,1.446.394.906.7,1.711.943,2.389C693.351,337.772,693.433,338.028,693.5,338.266Z" transform="translate(-672.425 -287.224)" opacity="0.085"/><g transform="translate(10.367 74.474)"><path d="M715.748,832.891c-.091,1.016-.192,2.059-.32,3.112a133.029,133.029,0,0,1-2.837,16.419c-1.053,4.183-2.068,6.745-2.938,6.681s-1.455-2.727-1.812-7a130.228,130.228,0,0,1-.11-16.621c.073-1.345.156-2.663.265-3.945a81.712,81.712,0,0,1,1.876-12.52c1.043-4.183,2.37-6.718,3.633-6.635s2.16,2.773,2.508,7.056A83.456,83.456,0,0,1,715.748,832.891Z" transform="translate(-707.522 -812.379)" fill="#fab78c"/></g><path d="M675.312,1297.092c-.394.54-.467.86-1.135.815a2.037,2.037,0,0,1-1.629-1.007,6.358,6.358,0,0,0-4.548,5.336,38.1,38.1,0,0,0,7.642-.284A11.6,11.6,0,0,0,675.312,1297.092Z" transform="translate(-661.251 -1178.081)" fill="#1d2457"/><g transform="translate(24.119 74.474)"><path d="M866.125,852.1c-.348,4.274-.943,6.947-1.812,7s-1.885-2.5-2.938-6.681A131.272,131.272,0,0,1,858.538,836c-.064-.54-.119-1.08-.174-1.611a86.8,86.8,0,0,1-.412-14.955c.339-4.274,1.245-6.965,2.5-7.056s2.59,2.453,3.634,6.635a90.229,90.229,0,0,1,2.142,16.465c.037.687.064,1.364.091,2.032A122.744,122.744,0,0,1,866.125,852.1Z" transform="translate(-857.786 -812.379)" fill="#fab78c"/></g><path d="M907.694,1297.092c.394.54.467.86,1.135.815a2.038,2.038,0,0,0,1.629-1.007,6.358,6.358,0,0,1,4.549,5.336,38.106,38.106,0,0,1-7.642-.284A11.918,11.918,0,0,1,907.694,1297.092Z" transform="translate(-878.613 -1178.081)" fill="#1d2457"/><path d="M720.717,819.337a82.4,82.4,0,0,1-.265,13.454c-2.572-.522-5.162-.952-7.752-1.354a81.71,81.71,0,0,1,1.876-12.52c1.043-4.183,2.37-6.718,3.633-6.635S720.369,815.063,720.717,819.337Z" transform="translate(-701.859 -737.848)" opacity="0.085"/><path d="M866.426,837.512a45.8,45.8,0,0,0-7.962-3.121,86.747,86.747,0,0,1-.412-14.955c.339-4.274,1.245-6.965,2.5-7.056s2.59,2.453,3.634,6.635a90.232,90.232,0,0,1,2.141,16.465C866.362,836.167,866.4,836.844,866.426,837.512Z" transform="translate(-833.758 -737.935)" opacity="0.085"/><path d="M725.718,737.583a44.361,44.361,0,0,1-7.862,1.327c-.7.055-1.409.1-2.123.119L714.1,722.161l-1.629,16.859a44.974,44.974,0,0,1-9.875-1.483c.448-8.493.943-16.831,1.272-21.819.1-1.519.192-2.737.256-3.551.1-1.181.156-1.867.156-1.867h19.622s.238,2.791.577,6.956c.028.375.064.769.091,1.2C724.931,722.912,725.343,730.105,725.718,737.583Z" transform="translate(-692.684 -645.207)" fill="#0064a1"/><path d="M832.052,850.3c-.7.055-1.409.1-2.123.119L828.3,833.55l2.6-.65Z" transform="translate(-806.879 -756.582)" opacity="0.142"/><path d="M994.4,7.294a7.222,7.222,0,0,0-2.618-2.709,1.509,1.509,0,0,1-.467-.357.47.47,0,0,1-.036-.549c.146-.183.439-.156.668-.1a7.4,7.4,0,0,1,1.638.632c-.009-.577-.009-1.153-.018-1.73a4.353,4.353,0,0,1,.137-1.419,1.536,1.536,0,0,1,.915-1.025,1.5,1.5,0,0,1,1.2.183,4.2,4.2,0,0,1,.952.805,4.531,4.531,0,0,1,.97,1.245,3.837,3.837,0,0,1-.174,2.974,15.071,15.071,0,0,0-1.08,2.865C995.787,7.853,995.1,7.541,994.4,7.294Z" transform="translate(-954.872 0.02)" fill="#fab78c"/><path d="M597.827,7.294a7.22,7.22,0,0,1,2.618-2.709,1.506,1.506,0,0,0,.467-.357.469.469,0,0,0,.037-.549c-.146-.183-.439-.156-.668-.1a7.407,7.407,0,0,0-1.638.632c.009-.577.009-1.153.018-1.73a4.349,4.349,0,0,0-.137-1.419,1.515,1.515,0,0,0-.915-1.025,1.5,1.5,0,0,0-1.2.183,4.193,4.193,0,0,0-.952.805,4.531,4.531,0,0,0-.97,1.245,3.838,3.838,0,0,0,.174,2.974,15.062,15.062,0,0,1,1.08,2.865C596.436,7.853,597.122,7.541,597.827,7.294Z" transform="translate(-594.253 0.02)" fill="#fab78c"/><path d="M737.311,718.464q-5.958.069-11.9-.439c-3.057-.265-6.242-.7-8.814-2.306.1-1.519.192-2.737.256-3.551.1-1.18.156-1.867.156-1.867h19.622s.238,2.791.577,6.956C737.247,717.64,737.284,718.043,737.311,718.464Z" transform="translate(-705.402 -645.222)" opacity="0.142"/><path d="M721.093,486.075c-.952,1.83-3.057,2.59-4.961,3.194a.169.169,0,0,1-.064.018,21.641,21.641,0,0,1-13.106,0,.171.171,0,0,0-.064-.018c-1.913-.6-4.009-1.364-4.961-3.194-.86-1.656-.522-3.679-.156-5.528q1.071-5.478,2.151-10.946a41.545,41.545,0,0,0,9.592-.2,42.574,42.574,0,0,0,9.591.2q1.071,5.478,2.151,10.946C721.624,482.387,721.962,484.419,721.093,486.075Z" transform="translate(-687.957 -426.387)" fill="#ff5f00"/><path d="M699.111,378.663l1.254,21.627a29.4,29.4,0,0,1-21.2,0l1.254-21.645A22.149,22.149,0,0,0,675.8,366.82a15.807,15.807,0,0,1,6.425-3.02v.009c.028.156.531,2.434,3.78,4.8.21.156.43.311.668.467h0c1.236-.412,2.37-.787,3.084-1,.714.21,1.849.586,3.093,1,.229-.146.449-.3.659-.458,3.267-2.37,3.762-4.659,3.789-4.814V363.8a15.809,15.809,0,0,1,6.425,3.02A22.227,22.227,0,0,0,699.111,378.663Z" transform="translate(-668.337 -330.455)" fill="#2795f8"/><path d="M794.8,411.14c-.11,3.231-1.748,5.793-3.752,5.793s-3.643-2.572-3.753-5.8c.21.156.43.311.668.467h0c1.236-.412,2.37-.787,3.084-1,.714.21,1.849.586,3.093,1C794.375,411.442,794.594,411.3,794.8,411.14Z" transform="translate(-769.632 -372.98)" fill="#fcb888"/><path d="M800.687,360.476a4.352,4.352,0,0,1-6.187.037c.037-.97.073-1.94.11-2.92.009-.119.009-.229.009-.348.037-1.034.082-2.078.119-3.112,1.821.1,3.972-.137,5.793-.046a42.268,42.268,0,0,0,.082,5.381c.009.183.027.366.046.549C800.659,360.174,800.677,360.329,800.687,360.476Z" transform="translate(-776.173 -321.625)" fill="#fcb888"/><path d="M801.831,360.118a6.009,6.009,0,0,1-2.553-.146,6.1,6.1,0,0,1-3.478-2.627c.037-1.034.082-2.078.119-3.112,1.821.1,3.972-.137,5.793-.046a42.224,42.224,0,0,0,.082,5.382C801.8,359.752,801.813,359.935,801.831,360.118Z" transform="translate(-777.354 -321.717)" opacity="0.085"/><path d="M877.068,305.112a.559.559,0,0,1,.686-.384.87.87,0,0,1,.558.622,2.18,2.18,0,0,1,.018.879,3.41,3.41,0,0,1-.512,1.547,1.437,1.437,0,0,1-1.419.622A26.78,26.78,0,0,0,877.068,305.112Z" transform="translate(-850.577 -276.793)" fill="#fab78c"/><path d="M763.41,305.112a.559.559,0,0,0-.686-.384.871.871,0,0,0-.558.622,2.183,2.183,0,0,0-.018.879,3.41,3.41,0,0,0,.513,1.547,1.437,1.437,0,0,0,1.419.622A25.181,25.181,0,0,1,763.41,305.112Z" transform="translate(-746.749 -276.793)" fill="#fab78c"/><path d="M785.112,235.027c0,4.384-2.242,9.143-5.006,9.143s-5.006-4.759-5.006-9.143,2.242-6.727,5.006-6.727S785.112,230.643,785.112,235.027Z" transform="translate(-758.549 -207.38)" fill="#fab78c"/><path d="M815.4,357.9a2.729,2.729,0,0,0,1.73-.037.259.259,0,0,1,.339.293,1.331,1.331,0,0,1-.5.769,1.256,1.256,0,0,1-1.3.092,1.407,1.407,0,0,1-.595-.8A.258.258,0,0,1,815.4,357.9Z" transform="translate(-794.854 -325.061)" fill="#f4e4eb"/><path d="M865.221,237.2a9.716,9.716,0,0,0-1.62-5.1l-.2-2.517a1.937,1.937,0,0,1,2.059.54,3.588,3.588,0,0,1,.7,1.913A12.863,12.863,0,0,1,865.221,237.2Z" transform="translate(-838.767 -208.452)" fill="#202a54"/><path d="M762.885,202.641a9.364,9.364,0,0,1,1.474-5.61,3.847,3.847,0,0,0,2.956,1.226c1.089.073,2.773-.082,3.862.064a3.087,3.087,0,0,1,2.572,1.647,11.588,11.588,0,0,0-.238-4.128,7.323,7.323,0,0,0-2.92-3.386,4.855,4.855,0,0,0-4.164-.7,3.259,3.259,0,0,0-2.334,3.139,1.934,1.934,0,0,0-2,.7,3.609,3.609,0,0,0-.549,1.968A12.6,12.6,0,0,0,762.885,202.641Z" transform="translate(-746.224 -174.02)" fill="#202a54"/><g transform="translate(24.63 37.497)"><path d="M870.313,422.384c-.174.037-.384-.128-.622-.448-.064-.082-.119-.174-.183-.275s-.137-.211-.2-.32c-.137-.229-.284-.494-.449-.787s-.329-.6-.512-.943-.375-.7-.577-1.071c-.1-.192-.21-.375-.311-.577-.055-.1-.1-.192-.155-.293l-.165-.3c-.22-.4-.458-.815-.686-1.236-.119-.211-.247-.412-.357-.622s-.238-.4-.348-.6c-.055-.1-.11-.2-.165-.293a2.964,2.964,0,0,0-.174-.284c-.11-.192-.22-.375-.32-.558-.211-.366-.4-.714-.586-1.043-.091-.165-.174-.329-.256-.485s-.165-.311-.238-.458c-.137-.3-.274-.568-.366-.824-.046-.128-.092-.247-.128-.366s-.064-.22-.092-.329a.932.932,0,0,1,.128-.9c.183-.174.494-.174.906-.028q.151.055.329.137c.11.055.229.128.357.2a5.675,5.675,0,0,1,.778.577c.137.119.274.238.421.375s.274.284.421.43a11,11,0,0,1,.851,1.025c.146.183.274.384.412.586.064.1.137.2.211.311s.128.22.2.32c.128.22.265.439.384.677s.247.476.366.714.22.494.329.732.192.485.284.723c.046.119.092.238.128.357l.11.357c.073.238.146.458.21.686.119.458.229.888.293,1.3.037.2.073.4.1.595s.046.375.064.549a7.108,7.108,0,0,1,.037.961c0,.146-.009.275-.018.394s-.028.238-.046.339C870.605,422.109,870.487,422.347,870.313,422.384Z" transform="translate(-863.373 -409.235)" fill="#ffdd68"/></g><g transform="translate(10.737 37.497)"><path d="M712,422.384c.174.037.385-.128.622-.448.064-.082.119-.174.183-.275s.137-.211.2-.32c.137-.229.284-.494.449-.787s.329-.6.513-.943.375-.7.577-1.071c.1-.192.21-.375.311-.577.055-.1.1-.192.156-.293l.165-.3c.22-.4.458-.815.686-1.236.119-.211.247-.412.357-.622s.238-.4.348-.6c.055-.1.11-.2.165-.293a2.893,2.893,0,0,1,.174-.284c.11-.192.22-.375.32-.558.21-.366.4-.714.586-1.043.091-.165.174-.329.256-.485s.165-.311.238-.458c.137-.3.274-.568.366-.824.046-.128.091-.247.128-.366s.064-.22.092-.329a.932.932,0,0,0-.128-.9c-.183-.174-.494-.174-.906-.028q-.151.055-.33.137c-.11.055-.229.128-.357.2a5.667,5.667,0,0,0-.778.577c-.137.119-.275.238-.421.375s-.275.284-.421.43a10.978,10.978,0,0,0-.851,1.025c-.146.183-.274.384-.412.586-.064.1-.137.2-.21.311s-.128.22-.2.32c-.128.22-.266.439-.384.677s-.247.476-.366.714-.219.494-.329.732-.192.485-.284.723c-.046.119-.091.238-.128.357l-.11.357c-.073.238-.147.458-.211.686-.119.458-.229.888-.293,1.3-.037.2-.073.4-.1.595s-.046.375-.064.549a7.108,7.108,0,0,0-.037.961c0,.146.009.275.018.394a3.393,3.393,0,0,0,.046.339C711.7,422.109,711.823,422.347,712,422.384Z" transform="translate(-711.564 -409.235)" fill="#ffdd68"/></g></g></g></g></svg>