<svg xmlns="http://www.w3.org/2000/svg" width="230" height="115" viewBox="0 0 230 115">
  <g id="Group_13858" data-name="Group 13858" transform="translate(2987 16769)">
    <g id="bg" transform="translate(-2973 -16763)" opacity="0.047">
      <path id="Path_16908" data-name="Path 16908" d="M1086.916,200.749h-30.25c-3.559,0-6.445-3.684-6.445-7.778s2.885-7.778,6.445-7.778h50.913c3.559,0,6.445-3.425,6.445-7.518s-2.885-7.518-6.445-7.518h-31.036c-3.56,0-6.445-3.166-6.445-7.259s2.885-7.259,6.445-7.259h14.322c3.559,0,6.445-3.166,6.445-7.259s-2.885-7.259-6.445-7.259H976.4c-3.56,0-6.445,3.166-6.445,7.259s2.885,7.259,6.445,7.259h6.444c3.56,0,6.445,3.166,6.445,7.259s-2.885,7.259-6.445,7.259H933.85c-3.56,0-6.445,3.425-6.445,7.518s2.885,7.518,6.445,7.518h12.173c3.559,0,6.445,3.684,6.445,7.778s-2.885,7.778-6.445,7.778h-7.161c-3.56,0-6.445,3.166-6.445,7.259s2.885,7.259,6.445,7.259H972.1c3.559,0,6.445,3.426,6.445,7.518s-2.886,7.518-6.445,7.518h-5.013c-3.56,0-6.445,3.166-6.445,7.259s2.885,7.259,6.445,7.259h106.94c3.56,0,6.445-3.166,6.445-7.259s-2.885-7.259-6.445-7.259H1068.3c-3.56,0-6.445-3.425-6.445-7.518s2.885-7.518,6.445-7.518h18.618c3.56,0,6.445-3.166,6.445-7.259S1090.476,200.749,1086.916,200.749Z" transform="translate(-926.711 -141.121)" fill="#252527"/>
      <path id="Path_16909" data-name="Path 16909" d="M1656.222,380.151h-10.929c-3.579,0-6.481,3.223-6.481,7.3s2.9,7.3,6.481,7.3h10.929c3.58,0,6.481-3.224,6.481-7.3S1659.8,380.151,1656.222,380.151Z" transform="translate(-1462.53 -320.579)" fill="#252527"/>
      <path id="Path_16910" data-name="Path 16910" d="M944.779,498.626H931.12c-3.579,0-6.481,3.224-6.481,7.3s2.9,7.3,6.481,7.3h13.659c3.579,0,6.481-3.224,6.481-7.3S948.359,498.626,944.779,498.626Z" transform="translate(-924.639 -409.528)" fill="#252527"/>
      <path id="Path_16911" data-name="Path 16911" d="M1022.557,155.722h3.107c3.579,0,6.481-3.224,6.481-7.3s-2.9-7.3-6.481-7.3h-3.107c-3.58,0-6.482,3.224-6.482,7.3S1018.977,155.722,1022.557,155.722Z" transform="translate(-993.135 -141.121)" fill="#252527"/>
    </g>
    <g id="illustration" transform="translate(-2987 -16769)">
      <g id="shapes2" transform="translate(12.259 0)">
        <path id="Path_16912" data-name="Path 16912" d="M131.889,244.115a3.377,3.377,0,1,1,3.377-3.377A3.381,3.381,0,0,1,131.889,244.115Zm0-5.567a2.19,2.19,0,1,0,2.19,2.19A2.193,2.193,0,0,0,131.889,238.548Z" transform="translate(-128.512 -206.691)" fill="#ffcf00"/>
        <path id="Path_16913" data-name="Path 16913" d="M609.918,419.517a3.377,3.377,0,1,1,3.377-3.377A3.381,3.381,0,0,1,609.918,419.517Zm0-5.566a2.19,2.19,0,1,0,2.19,2.19A2.192,2.192,0,0,0,609.918,413.951Z" transform="translate(-466.75 -330.455)" fill="#ffcf00"/>
        <path id="Path_16914" data-name="Path 16914" d="M627.889,140.115a3.377,3.377,0,1,1,3.377-3.377A3.381,3.381,0,0,1,627.889,140.115Zm0-5.567a2.19,2.19,0,1,0,2.19,2.19A2.193,2.193,0,0,0,627.889,134.548Z" transform="translate(-479.466 -133.361)" fill="#ffcf00"/>
        <path id="Path_16915" data-name="Path 16915" d="M333.949,189.682a5.883,5.883,0,1,1,5.883-5.883A5.89,5.89,0,0,1,333.949,189.682Zm0-10.579a4.7,4.7,0,1,0,4.7,4.7A4.7,4.7,0,0,0,333.949,179.1Z" transform="translate(-269.732 -164.696)" fill="#ffcf00"/>
        <path id="Path_16916" data-name="Path 16916" d="M258.53,359.028a3.377,3.377,0,1,1,3.377-3.377A3.381,3.381,0,0,1,258.53,359.028Zm0-5.566a2.19,2.19,0,1,0,2.19,2.19A2.192,2.192,0,0,0,258.53,353.462Z" transform="translate(-218.119 -287.717)" fill="#ffcf00"/>
        <path id="Path_16917" data-name="Path 16917" d="M321.761,459.874l3.022-3.022a.593.593,0,0,0-.839-.839l-3.022,3.022-3.022-3.022a.593.593,0,1,0-.839.839l3.022,3.022-3.022,3.021a.593.593,0,1,0,.839.839l3.022-3.022,3.022,3.022a.593.593,0,0,0,.839-.839Z" transform="translate(-261.806 -360.749)" fill="#ffcf00"/>
        <path id="Path_16918" data-name="Path 16918" d="M813.1,393.105l1.469-1.469a.593.593,0,0,0-.839-.839l-1.469,1.469L810.8,390.8a.593.593,0,0,0-.839.839l1.468,1.469-1.468,1.468a.593.593,0,1,0,.839.839l1.468-1.469,1.469,1.469a.593.593,0,0,0,.839-.839Z" transform="translate(-610.531 -314.749)" fill="#ffcf00"/>
        <path id="Path_16919" data-name="Path 16919" d="M617.1,231.105l1.469-1.469a.593.593,0,1,0-.839-.839l-1.469,1.469L614.8,228.8a.593.593,0,1,0-.839.839l1.468,1.469-1.468,1.468a.593.593,0,1,0,.839.839l1.468-1.468,1.469,1.468a.593.593,0,1,0,.839-.839Z" transform="translate(-471.855 -200.528)" fill="#ffcf00"/>
      </g>
      <g id="shapes1" transform="translate(0 5.839)">
        <path id="Path_16921" data-name="Path 16921" d="M848.734,357.337a1.755,1.755,0,1,1,1.755-1.755A1.757,1.757,0,0,1,848.734,357.337Zm0-2.916a1.161,1.161,0,1,0,1.161,1.161A1.163,1.163,0,0,0,848.734,354.421Z" transform="translate(-624.431 -294.584)" fill="#252527"/>
        <path id="Path_16922" data-name="Path 16922" d="M509.005,515.728a1.458,1.458,0,1,1,1.458-1.458A1.46,1.46,0,0,1,509.005,515.728Zm0-2.322a.865.865,0,1,0,.864.864A.865.865,0,0,0,509.005,513.405Z" transform="translate(-384.391 -406.655)" fill="#252527"/>
        <path id="Path_16923" data-name="Path 16923" d="M287.437,159.744a1.458,1.458,0,1,1,1.458-1.458A1.46,1.46,0,0,1,287.437,159.744Zm0-2.322a.865.865,0,1,0,.864.864A.865.865,0,0,0,287.437,157.421Z" transform="translate(-227.739 -155.704)" fill="#252527"/>
        <path id="Path_16924" data-name="Path 16924" d="M226.437,404.744a1.458,1.458,0,1,1,1.458-1.458A1.46,1.46,0,0,1,226.437,404.744Zm0-2.322a.865.865,0,1,0,.864.864A.865.865,0,0,0,226.437,402.421Z" transform="translate(-184.096 -328.418)" fill="#252527"/>
        <path id="Path_16925" data-name="Path 16925" d="M412.134,153.458l-.42-.42-1.049,1.049-1.049-1.049-.42.42,1.049,1.049-1.049,1.049.42.42,1.049-1.049,1.049,1.049.42-.42-1.049-1.049Z" transform="translate(-314.856 -153.039)" fill="#252527"/>
        <path id="Path_16926" data-name="Path 16926" d="M865.134,513.458l-.42-.42-1.049,1.049-1.049-1.049-.42.42,1.049,1.049-1.049,1.049.42.42,1.049-1.049,1.049,1.049.42-.42-1.049-1.049Z" transform="translate(-635.134 -406.815)" fill="#252527"/>
        <path id="Path_16927" data-name="Path 16927" d="M90.134,404.458l-.42-.42-1.049,1.049-1.049-1.049-.42.42,1.049,1.049L87.2,406.556l.42.42,1.049-1.049,1.049,1.049.42-.42-1.049-1.049Z" transform="translate(-87.197 -329.977)" fill="#252527"/>
        <path id="Path_16928" data-name="Path 16928" d="M168.134,262.458l-.42-.42-1.049,1.049-1.049-1.049-.42.42,1.049,1.049-1.049,1.049.42.42,1.049-1.049,1.049,1.049.42-.42-1.049-1.049Z" transform="translate(-142.052 -229.876)" fill="#252527"/>
        <path id="Path_16929" data-name="Path 16929" d="M348.734,381.337a1.755,1.755,0,1,1,1.755-1.755A1.757,1.757,0,0,1,348.734,381.337Zm0-2.916a1.161,1.161,0,1,0,1.161,1.161A1.163,1.163,0,0,0,348.734,378.421Z" transform="translate(-270.869 -311.502)" fill="#252527"/>
      </g>
    </g>
  </g>
</svg>
