<svg id="higher_level" xmlns="http://www.w3.org/2000/svg" width="120.68" height="127.701" viewBox="0 0 120.68 127.701">
  <g id="Group_10936" data-name="Group 10936" transform="translate(-17045.381 13700.145)">
    <path id="Path_14401" data-name="Path 14401" d="M24.046,89.624c.712,2.015,2.625,3.768,4.75,3.581a4.685,4.685,0,0,0,3.825-3.62A9.175,9.175,0,0,0,32,84.091a8.3,8.3,0,0,0-2.131-3.344C24.09,75.7,22.832,86.209,24.046,89.624Z" transform="translate(17032.057 -13689.863)" fill="#fff"/>
    <path id="Path_14402" data-name="Path 14402" d="M96.838,21.88a3.742,3.742,0,0,0,2.868-3.93c-.274-1.677-1.873-2.8-3.438-3.461-2.382-1.012-8.716-3.03-7.877,1.5C89.022,19.369,93.483,22.741,96.838,21.88Z" transform="translate(17041.018 -13709.113)" fill="#fff"/>
    <path id="Path_14403" data-name="Path 14403" d="M112.644,67.052a3.3,3.3,0,0,0,2.412.147,2.706,2.706,0,0,0,1.611-2.4,3.875,3.875,0,0,0-1.112-2.764,7.254,7.254,0,0,0-2.543-1.66c-1.594-.662-7.458-.687-5.732,2.625.4.769,1.595,1.014,2.249,1.529C110.624,65.4,111.27,66.5,112.644,67.052Z" transform="translate(17044.668 -13664.013)" fill="#fff"/>
    <path id="Path_14404" data-name="Path 14404" d="M40.632,35.368a2.994,2.994,0,0,0-1.84-4.849,4.523,4.523,0,0,0-4.342,2.151C31.67,36.954,38.244,38.581,40.632,35.368Z" transform="translate(17028.947 -13726.427)" fill="#fff"/>
    <path id="Path_14405" data-name="Path 14405" d="M16.365,37.689a2.541,2.541,0,0,0,2.8.785,7.341,7.341,0,0,0,2.6-1.668l1.922-1.652a4.774,4.774,0,0,0,.932-.973,1.521,1.521,0,0,0,.2-1.292c-.27-.744-1.194-.989-1.987-1.022-1.578-.074-3.811.131-5.078,1.21C16.627,34.034,15.433,36.307,16.365,37.689Z" transform="translate(17041.873 -13714.57)" fill="#fff"/>
    <path id="Path_14406" data-name="Path 14406" d="M71.5,11.406a1.784,1.784,0,0,0-.155-2.33c-.989-.989-4.08-.826-3.95,1.006C67.505,11.668,70.482,12.568,71.5,11.406Z" transform="translate(17051.875 -13695.779)" fill="#fff"/>
    <path id="Path_14407" data-name="Path 14407" d="M52.334,126.83a2.3,2.3,0,0,0,1.856-1.913,2.533,2.533,0,0,0-.76-1.905,7.529,7.529,0,0,0-1.709-1.235,4.978,4.978,0,0,0-2.314-.867,2.292,2.292,0,0,0-1.873,3.59C48.425,125.865,50.715,127.165,52.334,126.83Z" transform="translate(17026.508 -13699.327)" fill="#fff"/>
  </g>
  <g id="Group_10937" data-name="Group 10937" transform="translate(5.025 5.031)">
    <g id="Group_10852" data-name="Group 10852" transform="translate(-5.025 -5.031)">
      <circle id="Ellipse_2195" data-name="Ellipse 2195" cx="44.073" cy="44.073" r="44.073" transform="translate(0 75.955) rotate(-59.509)" fill="#003361" opacity="0.65"/>
      <g id="Group_10850" data-name="Group 10850" transform="translate(11.425 11.438)" opacity="0.33">
        <path id="Path_14671" data-name="Path 14671" d="M10.36,9.582a49.718,49.718,0,0,1,13-6.725c.9-.308,1.83-.6,2.776-.843A48.05,48.05,0,0,1,32.057.78" transform="translate(9.856 -0.266)" fill="none" stroke="#a22d73" stroke-linecap="round" stroke-miterlimit="10" stroke-width="1.066"/>
        <path id="Path_14672" data-name="Path 14672" d="M1.35,28.97A50.217,50.217,0,0,1,3.18,23.5,48.421,48.421,0,0,1,13.2,7.89" transform="translate(0.336 7.247)" fill="none" stroke="#a22d73" stroke-linecap="round" stroke-miterlimit="10" stroke-width="1.066"/>
        <path id="Path_14673" data-name="Path 14673" d="M.85,22.922q.4-2.406,1.049-4.812" transform="translate(-0.192 18.045)" fill="none" stroke="#a22d73" stroke-linecap="round" stroke-miterlimit="10" stroke-width="1.066"/>
        <path id="Path_14674" data-name="Path 14674" d="M9.044,51.847A49.2,49.2,0,0,1,.53,24.33" transform="translate(-0.53 24.617)" fill="none" stroke="#a22d73" stroke-linecap="round" stroke-miterlimit="10" stroke-width="1.066"/>
        <path id="Path_14675" data-name="Path 14675" d="M39.778,58.865a49.265,49.265,0,0,1-12.792-3.208A48.62,48.62,0,0,1,4.61,37.62" transform="translate(3.781 38.659)" fill="none" stroke="#a22d73" stroke-linecap="round" stroke-miterlimit="10" stroke-width="1.066"/>
        <path id="Path_14676" data-name="Path 14676" d="M39.29,46.94A49.043,49.043,0,0,1,24.4,49.326" transform="translate(24.691 48.506)" fill="none" stroke="#a22d73" stroke-linecap="round" stroke-miterlimit="10" stroke-width="1.066"/>
        <path id="Path_14677" data-name="Path 14677" d="M55.338,39.2A48.775,48.775,0,0,1,31.05,55.468" transform="translate(31.717 40.328)" fill="none" stroke="#a22d73" stroke-linecap="round" stroke-miterlimit="10" stroke-width="1.066"/>
        <path id="Path_14678" data-name="Path 14678" d="M44.71,12.09a48.787,48.787,0,0,1,3.455,43.291A51.682,51.682,0,0,1,45.8,60.44" transform="translate(46.15 11.684)" fill="none" stroke="#a22d73" stroke-linecap="round" stroke-miterlimit="10" stroke-width="1.066"/>
        <path id="Path_14679" data-name="Path 14679" d="M39.87,6.32a48.289,48.289,0,0,1,9.563,11.229" transform="translate(41.036 5.588)" fill="none" stroke="#a22d73" stroke-linecap="round" stroke-miterlimit="10" stroke-width="1.066"/>
        <path id="Path_14680" data-name="Path 14680" d="M24.64.53a49.184,49.184,0,0,1,31.055,11.7" transform="translate(24.944 -0.53)" fill="none" stroke="#a22d73" stroke-linecap="round" stroke-miterlimit="10" stroke-width="1.066"/>
      </g>
      <circle id="Ellipse_2196" data-name="Ellipse 2196" cx="32.926" cy="32.926" r="32.926" transform="translate(14.273 53.596) rotate(-36.674)" fill="#f6f6f6"/>
      <g id="Group_10851" data-name="Group 10851" transform="translate(22.695 22.505)">
        <path id="Path_14681" data-name="Path 14681" d="M6.01,38.464a36.734,36.734,0,0,1,1.81-8.37A37.579,37.579,0,0,1,28.653,7.43" transform="translate(-6.01 -4.307)" fill="none" stroke="#4eb2e6" stroke-linecap="round" stroke-miterlimit="10" stroke-width="1.089"/>
        <path id="Path_14682" data-name="Path 14682" d="M22.236,53.363a37.889,37.889,0,0,1-16.206-27" transform="translate(-5.989 15.694)" fill="none" stroke="#4eb2e6" stroke-linecap="round" stroke-miterlimit="10" stroke-width="1.089"/>
        <path id="Path_14683" data-name="Path 14683" d="M51.175,40.23a37.792,37.792,0,0,1-31.013,3.126q-1.7-.586-3.332-1.3" transform="translate(5.422 30.349)" fill="none" stroke="#4eb2e6" stroke-linecap="round" stroke-miterlimit="10" stroke-width="1.089"/>
        <path id="Path_14684" data-name="Path 14684" d="M39.069,37.06c-.925.946-1.871,1.851-2.879,2.694" transform="translate(25.878 27)" fill="none" stroke="#4eb2e6" stroke-linecap="round" stroke-miterlimit="10" stroke-width="1.089"/>
        <path id="Path_14685" data-name="Path 14685" d="M20.03,6.957A37.849,37.849,0,0,1,64.7,55.822a37.2,37.2,0,0,1-4.031,8.391" transform="translate(8.803 -5.911)" fill="none" stroke="#4eb2e6" stroke-linecap="round" stroke-miterlimit="10" stroke-width="1.089"/>
      </g>
    </g>
    <g id="Group_10853" data-name="Group 10853" transform="translate(10.06 14.196)">
      <path id="Path_14688" data-name="Path 14688" d="M25.29,10.11A38.316,38.316,0,0,1,44.684,28.866" transform="translate(21.97 1.802)" fill="none" stroke="#ffb533" stroke-linecap="round" stroke-miterlimit="10" stroke-width="1.089"/>
      <path id="Path_14689" data-name="Path 14689" d="M2.31,25.153A38.346,38.346,0,0,1,23.061,9.42" transform="translate(-2.31 1.073)" fill="none" stroke="#ffb533" stroke-linecap="round" stroke-miterlimit="10" stroke-width="1.089"/>
      <path id="Path_14691" data-name="Path 14691" d="M16.48,4.4a47.6,47.6,0,0,1,8.535.247A46.754,46.754,0,0,1,45.5,12.2" transform="translate(12.662 -4.318)" fill="none" stroke="#ffb533" stroke-linecap="round" stroke-miterlimit="10" stroke-width="1.089"/>
      <path id="Path_14693" data-name="Path 14693" d="M12.4,10.3A38.233,38.233,0,0,1,28.277,8.86a37.606,37.606,0,0,1,10.612,2.859" transform="translate(8.351 0.194)" fill="none" stroke="#ffb533" stroke-linecap="round" stroke-miterlimit="10" stroke-width="1.089"/>
    </g>
    <g id="Group_10854" data-name="Group 10854" transform="translate(32.642 59.61)">
      <path id="Path_14694" data-name="Path 14694" d="M29.71,38.069A33.912,33.912,0,0,1,26.07,37" transform="translate(0.213 -15.2)" fill="none" stroke="#ffb533" stroke-linecap="round" stroke-miterlimit="10" stroke-width="1.089"/>
      <path id="Path_14695" data-name="Path 14695" d="M42.647,36.05a33.777,33.777,0,0,1-6.437,2.612" transform="translate(10.927 -16.204)" fill="none" stroke="#ffb533" stroke-linecap="round" stroke-miterlimit="10" stroke-width="1.089"/>
      <path id="Path_14696" data-name="Path 14696" d="M31.561,49.413A38.345,38.345,0,0,1,13.71,26.4" transform="translate(-12.846 -26.4)" fill="none" stroke="#ffb533" stroke-linecap="round" stroke-miterlimit="10" stroke-width="1.089"/>
      <path id="Path_14699" data-name="Path 14699" d="M44.86,49.953a46.528,46.528,0,0,1-8.453-1.213A46.616,46.616,0,0,1,16.89,38.93" transform="translate(-9.486 -13.161)" fill="none" stroke="#ffb533" stroke-linecap="round" stroke-miterlimit="10" stroke-width="1.089"/>
      <path id="Path_14700" data-name="Path 14700" d="M45.074,37.32a33.877,33.877,0,0,1-17.234.432" transform="translate(2.083 -14.862)" fill="none" stroke="#ffb533" stroke-linecap="round" stroke-miterlimit="10" stroke-width="1.089"/>
    </g>
    <path id="Path_14702" data-name="Path 14702" d="M21.507,68.192c.021.021.062.041.082.062a1.075,1.075,0,0,0,1.44-1.584,34.746,34.746,0,0,1-9.378-24.823v-.082a6.237,6.237,0,0,1,12.463.1A21.442,21.442,0,0,0,41.066,61.323c7.856,2.509,17.913-.329,24.083-6.149a25.974,25.974,0,0,0,8.1-23.034A33.226,33.226,0,0,0,60.727,10.093c-.021-.021-.062-.041-.082-.062a1.075,1.075,0,0,0-1.44,1.584,34.746,34.746,0,0,1,9.378,24.823v.082a6.237,6.237,0,0,1-12.463-.1A21.441,21.441,0,0,0,41.168,16.962c-7.856-2.509-17.913.329-24.083,6.149a25.974,25.974,0,0,0-8.1,23.034A33.273,33.273,0,0,0,21.507,68.192Z" transform="translate(14.487 15.666)" fill="#01355f"/>
    <path id="Path_14708" data-name="Path 14708" d="M32.528,18.163l-.292-.08c-4.164-1.326-10.025-.318-14.746,2.254a20.528,20.528,0,0,1,11.484,17.61c.212,6.047,4.774,12.041,10.4,13.685l.292.08c4.164,1.326,10.025.318,14.746-2.254a20.528,20.528,0,0,1-11.484-17.61C42.712,25.8,38.15,19.808,32.528,18.163Z" transform="translate(19.644 19.899)" fill="#022846"/>
    <g id="Group_10856" data-name="Group 10856" transform="translate(14.733 72.197)">
      <path id="Path_14710" data-name="Path 14710" d="M8.082,32.52a5.414,5.414,0,0,1,2.55,1.255A5.638,5.638,0,0,1,7.65,43.626" transform="translate(-1.341 -32.52)" fill="none" stroke="#ffb533" stroke-linecap="round" stroke-miterlimit="10" stroke-width="1.089"/>
      <path id="Path_14711" data-name="Path 14711" d="M5.24,33.906a5.083,5.083,0,0,1,1.049-.946" transform="translate(-3.887 -32.055)" fill="none" stroke="#ffb533" stroke-linecap="round" stroke-miterlimit="10" stroke-width="1.089"/>
      <path id="Path_14712" data-name="Path 14712" d="M6.532,39.784A5.56,5.56,0,0,1,4.619,34.91" transform="translate(-4.582 -29.995)" fill="none" stroke="#ffb533" stroke-linecap="round" stroke-miterlimit="10" stroke-width="1.089"/>
    </g>
  </g>
</svg>
