<svg xmlns="http://www.w3.org/2000/svg" width="50" height="50" viewBox="0 0 50 50">
  <g id="_5-tall" data-name="5-tall" transform="translate(1 1)">
    <path id="Path_9753" data-name="Path 9753" d="M340.311,76H323.089C309.767,76,307.7,78.51,307.7,94.682v7.847c0,19.017,2.067,21.471,17.686,21.471h12.629c15.618,0,17.685-2.454,17.685-21.471V94.682C355.7,78.51,353.633,76,340.311,76Z" transform="translate(-307.7 -76)" fill="#fd6520" stroke="#fff" stroke-width="2"/>
    <g id="Group_3489" data-name="Group 3489" transform="translate(11.493 11.5)">
      <g id="Group_3481" data-name="Group 3481" transform="translate(0.007)">
        <path id="Path_3607" data-name="Path 3607" d="M158.892,28.509H139.247a3.683,3.683,0,0,0-3.684,3.683v14.73a3.683,3.683,0,0,0,3.684,3.683h4.408l4.543,4.554a1.228,1.228,0,0,0,1.737.007l.007-.007,4.543-4.554h4.408a3.683,3.683,0,0,0,3.684-3.683V32.192A3.683,3.683,0,0,0,158.892,28.509Z" transform="translate(-136.563 -28.509)" fill="#fff"/>
      </g>
      <path id="Union_57" data-name="Union 57" d="M8309.08,5510.725a1.724,1.724,0,1,1,1.723,1.726A1.724,1.724,0,0,1,8309.08,5510.725Zm-5.537,0a1.725,1.725,0,1,1,1.726,1.726A1.725,1.725,0,0,1,8303.543,5510.725Zm-5.536,0a1.724,1.724,0,1,1,1.725,1.726A1.724,1.724,0,0,1,8298.007,5510.725Z" transform="translate(-8292.999 -5498.902)" fill="#f56523"/>
    </g>
  </g>
</svg>
