<svg xmlns="http://www.w3.org/2000/svg" width="59" height="57" viewBox="0 0 59 57">
  <g id="Group_13879" data-name="Group 13879" transform="translate(-1012 -596)">
    <path id="Path_16935" data-name="Path 16935" d="M345.746,76H325.654C310.112,76,307.7,78.823,307.7,97.017v8.828c0,21.394,2.412,24.154,20.633,24.154h14.734c18.221,0,20.633-2.761,20.633-24.154V97.017C363.7,78.823,361.288,76,345.746,76Z" transform="translate(705.8 521.5)" fill="#f56523" stroke="#fff" stroke-width="3"/>
    <path id="Subtraction_82" data-name="Subtraction 82" d="M6.817,31a3.37,3.37,0,0,1-1.953-.416,2.706,2.706,0,0,1-.835-2.34,25.173,25.173,0,0,1,.417-3.568c.458-2.861.933-5.819-.417-6.56A4.471,4.471,0,0,0,2.9,17.864C1.843,17.7.4,17.485.07,16.6c-.245-.66.164-1.618,1.217-2.848.59-.683,1.222-1.471,1.892-2.306C4.2,10.177,5.347,8.74,6.533,7.465c2.482-2.619,3.481-3.756,4.539-4.96.228-.26.459-.522.707-.8A4.542,4.542,0,0,1,14.521,0a4.542,4.542,0,0,1,2.742,1.7c.283.319.542.615.8.91,1,1.137,2.03,2.312,4.405,4.852,1.3,1.366,2.553,2.941,3.661,4.331.562.705,1.094,1.372,1.585,1.955C28.783,15,29.181,15.93,28.931,16.6c-.331.888-1.788,1.107-2.851,1.267a4.678,4.678,0,0,0-1.146.251c-1.349.741-.875,3.7-.417,6.56a25.176,25.176,0,0,1,.417,3.568c0,2.545-1.419,2.756-3,2.756l-.405,0-.411,0H17.2V25.6a2,2,0,0,0-2-2H13.826a2,2,0,0,0-2,2v5.395H7.606l-.4,0Z" transform="translate(1026.999 609)" fill="#fff"/>
  </g>
</svg>
