<svg xmlns="http://www.w3.org/2000/svg" xmlns:xlink="http://www.w3.org/1999/xlink" width="124.173" height="26.879" viewBox="0 0 124.173 26.879">
  <defs>
    <clipPath id="clip-path">
      <path id="Path_16696" data-name="Path 16696" d="M22.327-49.151,20.073-58.13a2.671,2.671,0,0,0-1.459-1.828,2.238,2.238,0,0,0-1.974.041l-1.09.551a1.82,1.82,0,0,1-.811.2H8.253a1.82,1.82,0,0,1-.811-.2l-1.086-.551a2.238,2.238,0,0,0-1.974-.041A2.671,2.671,0,0,0,2.922-58.13L.664-49.151a3.762,3.762,0,0,0,.77,3.361,2.882,2.882,0,0,0,2.432,1.022,3,3,0,0,0,2.3-1.455l1.962-3.125a2.371,2.371,0,0,1,.835-.811,5.173,5.173,0,0,1,5.1,0,2.371,2.371,0,0,1,.835.811l1.962,3.125a3,3,0,0,0,2.3,1.455,2.056,2.056,0,0,0,.223,0,2.911,2.911,0,0,0,2.177-1.022A3.762,3.762,0,0,0,22.327-49.151ZM8.253-53.9H6.631v1.621a.405.405,0,0,1-.405.405.405.405,0,0,1-.405-.405V-53.9H4.2a.405.405,0,0,1-.405-.405.405.405,0,0,1,.405-.405H5.82V-56.33a.405.405,0,0,1,.405-.405.405.405,0,0,1,.405.405v1.621H8.253a.405.405,0,0,1,.405.405A.405.405,0,0,1,8.253-53.9Zm8.107-2.838a.811.811,0,0,1,.811.811.811.811,0,0,1-.811.811.811.811,0,0,1-.811-.811A.811.811,0,0,1,16.36-56.735Zm-1.621,3.243a.811.811,0,0,1-.811-.811.811.811,0,0,1,.811-.811.811.811,0,0,1,.811.811A.811.811,0,0,1,14.739-53.492Zm1.621,1.621a.811.811,0,0,1-.811-.811.811.811,0,0,1,.811-.811.811.811,0,0,1,.811.811A.811.811,0,0,1,16.36-51.871Zm1.621-1.621a.811.811,0,0,1-.811-.811.811.811,0,0,1,.811-.811.811.811,0,0,1,.811.811A.811.811,0,0,1,17.982-53.492Z" transform="translate(-0.546 60.168)" fill="#fff"/>
    </clipPath>
  </defs>
  <g id="Group_13924" data-name="Group 13924" transform="translate(8470 -6499)">
    <g id="Group_13902" data-name="Group 13902" transform="translate(3017 -1544)">
      <path id="Path_16829" data-name="Path 16829" d="M0,0H124.173L114.047,12.826l10.126,14.053H0L10.126,14.171Z" transform="translate(-11487 8043)" fill="#00a4eb"/>
      <text id="Activity" transform="translate(-11434 8061)" fill="#fff" font-size="14" font-family="BalooThambi-Regular, Baloo Thambi"><tspan x="0" y="0">Activity</tspan></text>
      <g id="Group_13585" data-name="Group 13585" transform="translate(-11465.293 8109.159)">
        <g id="Group_13527" data-name="Group 13527" transform="translate(0.546 -60.168)" clip-path="url(#clip-path)">
          <path id="Path_16695" data-name="Path 16695" d="M-4.454-65.168H20.039v18H-4.454Z" transform="translate(3.156 63.871)" fill="#fff"/>
        </g>
      </g>
    </g>
  </g>
</svg>
