<svg xmlns="http://www.w3.org/2000/svg" width="48" height="48" viewBox="0 0 48 48"><g transform="translate(0.359 0.017)"><path d="M340.311,76H323.089C309.767,76,307.7,78.51,307.7,94.682v7.847c0,19.017,2.067,21.471,17.686,21.471h12.629c15.618,0,17.686-2.454,17.686-21.471V94.682C355.7,78.51,353.633,76,340.311,76Z" transform="translate(-308.059 -76.017)" fill="#f2f2f2"/><g transform="translate(15.742 5.983)"><path d="M-70.51,144.647l-.317,1.077-.977,3.3-.566,1.915-.582,1.976-.267.9,0,.019-.446,1.5-.134.453-.264.9-.576,1.949-.446,1.5-.411,1.4-.266.9-.3,1.013-.551,1.86-.582,1.973-.264.9-.379,1.281v.006l-.109.366a.95.95,0,0,1-.806.408.942.942,0,0,1-.81-.421l-.1-.34-.433-1.469-.267-.9-.554-1.881-.446-1.5-.432-1.461-.264-.9-.28-.944-.57-1.928-.581-1.971-.265-.9,0,0-.442-1.5-.138-.464-.267-.9-.573-1.939-.445-1.5-.974-3.3-.4-1.36Z" transform="translate(87.005 -133.833)" fill="#edc46e"/><path d="M-72.37,146.538l-.84-.686-1.451,2.847-1.45-1.556,2.329-2.5H-75.1l-1.669,1.79-1.45-1.553.221-.237h-1.762l.221.237-1.45,1.553-1.668-1.79h-1.32l2.328,2.5L-83.1,148.7l-1.068-2.5-1.043-.1-1.394.261,2.841,3.047-1.448,1.556-.419-.45.445,1.892,1.422,1.528-.85.911.267,1.132,1.246-1.335,1.447,1.556-1.447,1.551-1.108-1.188.442,1.893,0,0,.265,1.137.4-.427,1.448,1.551-1.264,1.356.57,2.426.695.745-.415.444.264,1.132.81-.867,1.45,1.556-1.45,1.555-.377-.4.446,1.892,1.382,1.478-.828.889.267,1.131,1.22-1.308,1.419,1.521.264-1.134-1.023-1.1,1.45-1.553.156.167.551-2.341-.707.758-1.45-1.555,1.45-1.557,1.007,1.079.266-1.128-.614-.658,1.024-1.1.446-1.892-.02.02-1.45-1.556,1.45-1.551.6.634.264-1.132-.2-.212.333-.358.446-1.889-1.439,1.539-1.45-1.551,1.45-1.557,1.442,1.545.267-1.128L-74,153.933l1.45-1.555.18.192.566-2.41-.746.8L-74,149.406l1.451-2.682Zm-2.951,2.868-1.45,1.556-1.45-1.556,1.45-1.551Zm-5.011,6.791,1.45-1.558,1.451,1.558-1.45,1.551Zm2.9,4.521-1.45,1.557-1.45-1.557,1.45-1.551Zm-2.9-9.048,1.45-1.555,1.45,1.555-1.45,1.555Zm1.45-6.079,1.45,1.553-1.45,1.556-1.45-1.556Zm-2.11,2.264,1.45,1.553-1.45,1.555-1.448-1.557Zm-3.557,3.815,1.45-1.556,1.448,1.556-1.448,1.556Zm2.11,2.263,1.448-1.555,1.45,1.556-1.45,1.555Zm0,4.524,1.448-1.554,1.45,1.554-1.45,1.556Zm0,4.526,1.448-1.556,1.45,1.556-1.45,1.556Zm5.008,6.789-1.45,1.554-1.45-1.553,1.45-1.556Zm-1.45-2.97-1.451-1.556,1.45-1.556,1.45,1.556Zm3.559-3.818-1.45,1.556-1.45-1.556,1.45-1.556Zm0-4.526-1.45,1.556-1.45-1.556,1.45-1.554Zm-1.45-2.968-1.45-1.556,1.45-1.555,1.45,1.556Zm3.561-3.818-1.451,1.556-1.45-1.556,1.45-1.556Z" transform="translate(87.005 -140.273)" fill="#e8d1b5" style="mix-blend-mode:multiply;isolation:isolate"/><path d="M-70.611,141.7a8.143,8.143,0,0,1-8.144,8.143A8.144,8.144,0,0,1-86.9,141.7a8.144,8.144,0,0,1,8.143-8.143A8.143,8.143,0,0,1-70.611,141.7Z" transform="translate(87.002 -133.561)" fill="#f79496"/><rect width="16.495" height="6.953" transform="translate(0 9.477)" fill="#ffd46e"/><path d="M-79.8,145.788a2.594,2.594,0,0,1-2.594,2.594,2.594,2.594,0,0,1-2.593-2.594,2.594,2.594,0,0,1,2.593-2.594A2.594,2.594,0,0,1-79.8,145.788Z" transform="translate(86.955 -134.967)" fill="#f79496"/><path d="M-77.109,144.436a1.769,1.769,0,0,1-1.769,1.77,1.77,1.77,0,0,1-1.77-1.77,1.77,1.77,0,0,1,1.77-1.77A1.769,1.769,0,0,1-77.109,144.436Z" transform="translate(86.849 -134.841)" fill="#f79496"/><rect width="2.369" height="3.489" transform="translate(1.973 7.491)" fill="#f79496"/></g></g></svg>