<svg xmlns="http://www.w3.org/2000/svg" width="111.085" height="103.394" viewBox="0 0 111.085 103.394">
  <g id="Group_11849" data-name="Group 11849" transform="translate(0 -4.849)">
    <path id="Path_15880" data-name="Path 15880" d="M22.452,56.841A1.682,1.682,0,0,1,20.8,55.19V45.153a1.937,1.937,0,0,1,.889-1.525l11.942-6.479a1.678,1.678,0,0,1,1.652,2.922L24.23,46.042v9.02A1.909,1.909,0,0,1,22.452,56.841Z" transform="translate(5.626 9.985)" fill="#c8d3d7"/>
    <path id="Path_15881" data-name="Path 15881" d="M41.362,39.931A8.131,8.131,0,1,1,33.231,31.8,8.106,8.106,0,0,1,41.362,39.931Z" transform="translate(6.789 8.601)" fill="#259bc9"/>
    <path id="Path_15891" data-name="Path 15891" d="M31.5,57.25a7.406,7.406,0,0,1-3.049,6.1A7.548,7.548,0,0,1,23.75,65a7.75,7.75,0,1,1,7.75-7.75Z" transform="translate(4.327 13.388)" fill="#259bc9"/>
    <rect id="Rectangle_3661" data-name="Rectangle 3661" width="15.5" height="36.97" transform="translate(20.327 70.638)" fill="#32b7e0"/>
    <path id="Path_15892" data-name="Path 15892" d="M46.636,75.778V90.515H5.6V75.9a6.976,6.976,0,0,1,3.176-5.971L18.813,63.2h15.5l9.4,6.733A7,7,0,0,1,46.636,75.778Z" transform="translate(1.515 17.093)" fill="#259bc9"/>
    <path id="Path_15893" data-name="Path 15893" d="M46.636,77.442V88.749H5.6V77.442A7.238,7.238,0,0,1,12.842,70.2h26.68A7.131,7.131,0,0,1,46.636,77.442Z" transform="translate(1.515 18.986)" fill="#32b7e0"/>
    <path id="Path_15894" data-name="Path 15894" d="M46.744,81.616H5.708a.508.508,0,1,1,0-1.016H46.744a.546.546,0,0,1,.508.508C47.379,81.362,47.125,81.616,46.744,81.616Z" transform="translate(1.406 21.799)" fill="#bf0202"/>
    <path id="Path_15895" data-name="Path 15895" d="M46.744,79.816H5.708a.508.508,0,0,1,0-1.016H46.744a.546.546,0,0,1,.508.508C47.379,79.562,47.125,79.816,46.744,79.816Z" transform="translate(1.406 21.312)" fill="#bf0202"/>
    <circle id="Ellipse_2305" data-name="Ellipse 2305" cx="0.762" cy="0.762" r="0.762" transform="translate(23.122 73.051)" fill="#be1e2d"/>
    <circle id="Ellipse_2306" data-name="Ellipse 2306" cx="0.762" cy="0.762" r="0.762" transform="translate(23.122 76.355)" fill="#00141b"/>
    <g id="Group_15195" data-name="Group 15195" transform="matrix(0.559, 0.829, -0.829, 0.559, 62.932, -22.49)">
      <g id="Group_11842" data-name="Group 11842" transform="translate(32.806)">
        <path id="Path_15882" data-name="Path 15882" d="M75.6,67.788a14.483,14.483,0,0,1-2.414,1.27c-13.467,6.225-29.729.762-39-11.434a35.147,35.147,0,0,1-4.193-6.988C21.6,31.834,26.048,8.585,41.8,1.216A21.182,21.182,0,0,1,44.343.2c-4.065,7.75-2.414,23.122,4.828,38.749A76.412,76.412,0,0,0,62.383,59.022h0C66.957,63.723,71.531,66.772,75.6,67.788Z" transform="translate(-25.822 0.054)" fill="#f4f4f4"/>
        <path id="Path_15883" data-name="Path 15883" d="M40.527,0c0,.127-.127.127-.127.254a.764.764,0,0,1,.508-.127A.467.467,0,0,0,40.527,0Z" transform="translate(-21.88)" fill="#fff"/>
        <path id="Path_15884" data-name="Path 15884" d="M65.508,53.1c-.127.127-.127.254-.254.381H65A1.754,1.754,0,0,0,65.508,53.1Z" transform="translate(-15.226 14.361)" fill="#fff"/>
      </g>
      <path id="Path_15885" data-name="Path 15885" d="M72.49,67.843c-6.988-1.4-15.5-9.147-22.36-20.454h0A85.694,85.694,0,0,1,45.683,39c-7.242-15.754-8.893-31.38-4.7-39,9.274,1.4,20.581,12.069,27.95,27.569.127.254.127.381.254.635s.127.381.254.635l.381.762a74.847,74.847,0,0,1,5.336,17.913C76.3,55.773,75.412,63.142,72.49,67.843Z" transform="translate(10.471)" fill="#c8d3d7"/>
      <path id="Path_15886" data-name="Path 15886" d="M49.018,31.4c-.254,0-.508-.127-.508-.381a.566.566,0,0,1,.381-.762L68.837,23.01a.6.6,0,1,1,.381,1.143L49.272,31.4Z" transform="translate(13.107 6.21)" fill="#259bc9"/>
      <path id="Path_15887" data-name="Path 15887" d="M69.015,22.7a4.006,4.006,0,1,1-5.336-1.906A3.9,3.9,0,0,1,69.015,22.7Z" transform="translate(16.614 5.509)" fill="#be1e2d"/>
      <path id="Path_15890" data-name="Path 15890" d="M70.464,69.277c-2.922,0-7.5-2.8-12.2-7.5-3.938-3.811-9.655-10.672-15.118-21.217a63.494,63.494,0,0,1-7.242-27.442c-.254-6.988.889-11.18,1.016-11.434s.381-.508.635-.381.508.381.381.635h0a41.881,41.881,0,0,0-.889,11.18,61.278,61.278,0,0,0,7.242,26.934A80.688,80.688,0,0,0,59.157,61.019c4.447,4.447,8.893,7.115,11.434,7.115a.546.546,0,0,1,.508.508A.6.6,0,0,1,70.464,69.277Z" transform="translate(9.702 0.344)" fill="#bf0202"/>
      <path id="Path_15896" data-name="Path 15896" d="M73.817,55.564a14.483,14.483,0,0,1-2.414,1.27c-13.467,6.225-29.729.762-39-11.434,2.922,1.906,11.434,5.717,28.2,1.525h0C65.178,51.5,69.752,54.547,73.817,55.564Z" transform="translate(8.763 12.279)" fill="#bdd9e5"/>
    </g>
    <path id="Path_15897" data-name="Path 15897" d="M65.508,53.1c-.127.127-.127.254-.254.381H65A1.754,1.754,0,0,0,65.508,53.1Z" transform="translate(17.58 14.361)" fill="#bdd9e5"/>
    <path id="Path_15898" data-name="Path 15898" d="M42.2,79.483V94.22H34.959V75.8c0-1.525-2.8-4.32-5.209-6.352-1.652-1.4-3.049-2.541-3.049-2.541V57.25C26.7,52.8,22,49.5,22,49.5a7.7,7.7,0,0,1,7.75,7.75v9.655l9.4,6.733A6.8,6.8,0,0,1,42.2,79.483Z" transform="translate(5.95 13.388)" fill="#bdd9e5"/>
    <path id="Path_15899" data-name="Path 15899" d="M103.67,85.443H.508A.581.581,0,0,1,0,84.808.547.547,0,0,1,.508,84.3H103.542a.546.546,0,0,1,.508.508A.444.444,0,0,1,103.67,85.443Z" transform="translate(0 22.8)" fill="#bdd9e5"/>
  </g>
</svg>
