<svg xmlns="http://www.w3.org/2000/svg" width="30" height="30" viewBox="0 0 30 30">
  <g id="Group_12527" data-name="Group 12527" transform="translate(-73 -435)">
    <rect id="bound" width="30" height="30" transform="translate(73 435)" fill="none"/>
    <g id="Group_14409" data-name="Group 14409" transform="translate(23179.33 -10318.005)">
      <path id="Subtraction_100" data-name="Subtraction 100" d="M-15107.333,19970.01h-26a1,1,0,0,1-1-1.008v-5.994a1,1,0,0,1,1-1h7v-7a1,1,0,0,1,1-1.008h10a1,1,0,0,1,1,1.008v7h7a1,1,0,0,1,1,1V19969A1,1,0,0,1-15107.333,19970.01Zm-3.062-3.152v0l.5.264a.476.476,0,0,0,.23.061.5.5,0,0,0,.375-.18.5.5,0,0,0,.111-.406l-.1-.553.4-.4a.5.5,0,0,0,.12-.514.484.484,0,0,0-.4-.328l-.552-.086-.25-.5a.483.483,0,0,0-.437-.275.485.485,0,0,0-.445.291l-.25.5-.552.086a.475.475,0,0,0-.4.322.5.5,0,0,0,.124.52l.4.385-.1.553a.482.482,0,0,0,.109.4.5.5,0,0,0,.381.182.478.478,0,0,0,.227-.059l.5-.264Zm-19.8,0v0l.5.264a.476.476,0,0,0,.23.061.494.494,0,0,0,.376-.18.5.5,0,0,0,.115-.406l-.1-.553.4-.4a.5.5,0,0,0,.12-.514.484.484,0,0,0-.4-.328l-.552-.086-.25-.5a.481.481,0,0,0-.436-.275.489.489,0,0,0-.446.291l-.251.5-.552.086a.475.475,0,0,0-.4.322.5.5,0,0,0,.124.52l.4.385-.1.553a.49.49,0,0,0,.108.4.506.506,0,0,0,.381.18.481.481,0,0,0,.228-.059l.5-.264Zm9.9-7.7v0l.5.266a.484.484,0,0,0,.226.055.5.5,0,0,0,.383-.18.488.488,0,0,0,.108-.4l-.1-.551.4-.4a.491.491,0,0,0,.121-.51.494.494,0,0,0-.4-.338l-.552-.08-.25-.5a.486.486,0,0,0-.438-.277.489.489,0,0,0-.444.291l-.25.5-.552.084a.471.471,0,0,0-.4.316.506.506,0,0,0,.123.525l.4.387-.095.551a.482.482,0,0,0,.108.4.513.513,0,0,0,.385.182.453.453,0,0,0,.223-.055l.5-.266Z" transform="translate(-7970.998 -9193.002)" fill="#ffe232"/>
    </g>
  </g>
</svg>
