<svg xmlns="http://www.w3.org/2000/svg" width="50" height="50">
    <g data-name="Group 18591">
        <path data-name="Path 9753" d="M340.311 76h-17.222c-13.322 0-15.389 2.51-15.389 18.682v7.847c0 19.017 2.067 21.471 17.686 21.471h12.629c15.618 0 17.685-2.454 17.685-21.471v-7.847C355.7 78.51 353.633 76 340.311 76z" transform="translate(-306.7 -75)" style="fill:#f86509;stroke:#fff;stroke-width:2px"/>
        <g data-name="Group 18585">
            <path style="fill:none" d="M0 0h34v34H0z" transform="translate(8 8)"/>
            <g data-name="Group 14409">
                <path data-name="Subtraction 100" d="M31 18H1a1 1 0 0 1-1-1v-7a1 1 0 0 1 1-1h8.143V1a1 1 0 0 1 1-1h11.714a1 1 0 0 1 1 1v8H31a1 1 0 0 1 1 1v7a1 1 0 0 1-1 1zm-3.64-6.821a.562.562 0 0 0-.51.328l-.284.56-.632.093a.545.545 0 0 0-.458.37.557.557 0 0 0 .143.578l.457.436-.111.621a.542.542 0 0 0 .122.448.584.584 0 0 0 .441.208.549.549 0 0 0 .259-.065l.568-.3.568.3a.546.546 0 0 0 .259.065.583.583 0 0 0 .441-.209.54.54 0 0 0 .121-.448l-.11-.621.457-.451a.545.545 0 0 0 .139-.571.554.554 0 0 0-.454-.376l-.632-.094-.284-.559a.553.553 0 0 0-.5-.313zm-22.623 0a.562.562 0 0 0-.511.328l-.284.56-.631.093a.545.545 0 0 0-.458.37.558.558 0 0 0 .147.578l.458.436-.111.621a.541.541 0 0 0 .121.448.583.583 0 0 0 .44.208.549.549 0 0 0 .259-.065l.568-.3.569.3a.546.546 0 0 0 .259.065.583.583 0 0 0 .437-.209.54.54 0 0 0 .121-.448l-.111-.621.458-.451a.556.556 0 0 0-.316-.948l-.632-.094-.284-.559a.553.553 0 0 0-.499-.312zm11.31-8.662a.562.562 0 0 0-.511.328l-.283.56-.632.093a.545.545 0 0 0-.458.37.558.558 0 0 0 .142.578l.458.436-.111.622a.54.54 0 0 0 .121.447.584.584 0 0 0 .441.209.549.549 0 0 0 .259-.065l.568-.3.569.3a.546.546 0 0 0 .259.065.584.584 0 0 0 .441-.209.539.539 0 0 0 .121-.447l-.111-.622.458-.451a.556.556 0 0 0-.316-.948l-.632-.094-.284-.559a.553.553 0 0 0-.499-.312z" transform="translate(9 17)" style="fill:#fff"/>
            </g>
        </g>
    </g>
</svg>
