<svg xmlns="http://www.w3.org/2000/svg" width="77.511" height="112.5">
    <defs>
        <style>
            .cls-1{fill:#ae383e}.cls-2{fill:#fff}
        </style>
    </defs>
    <g id="Group_13907" data-name="Group 13907" transform="rotate(19 12.083 72.205)">
        <g id="Group_8096" data-name="Group 8096">
            <path id="Path_10688" data-name="Path 10688" class="cls-1" d="M72.16 52.726a24.119 24.119 0 0 0-11.942-5.2C58 37.077 55.162 13.29 71.1 0c40.881 22.776 18.394 62.886 18.394 62.886L77.12 58.408a23.793 23.793 0 0 0-4.96-5.682z" transform="translate(-58.485)"/>
            <path id="Path_10689" data-name="Path 10689" class="cls-2" d="M78.046 55.233c-.289-.337-.578-.626-.867-.915l-1.252-22.1L62.3 24.224a5.305 5.305 0 0 0 .1-.867l13.434 7.9L74.049.437c.144-.1.241-.241.385-.337.144.1.289.144.433.241l2.5 43.625L96.921 24.9l.289.867-19.694 19.258z" transform="translate(-61.867 -.052)"/>
        </g>
        <g id="Group_8097" data-name="Group 8097" transform="translate(12.712 6.693)">
            <path id="Path_10690" data-name="Path 10690" d="m14.757 59.981-1.011-8.138S26.988 17.271 52.8 13.9c18.683 25.087-6.163 50.222-6.163 50.222l-23.4 9.823a26.335 26.335 0 0 0-8.48-13.964z" transform="translate(-13.746 -13.9)" style="fill:#f90"/>
            <path id="Path_10691" data-name="Path 10691" class="cls-2" d="m15.1 68.119 13.771-23.98-7.511-14.831c.193-.241.385-.433.578-.674l7.415 14.638L46.158 14c.193-.048.385-.048.626-.1a1.007 1.007 0 0 1 .193.289l-9 15.7L52.9 26.853c.048.144.048.289.1.433l.1.385L37.443 30.8 22.467 56.947l26.387-4.526c-.144.289-.337.626-.482.915l-26.434 4.526-6.4 11.171c-.149-.288-.294-.625-.438-.914z" transform="translate(-7.733 -13.9)"/>
        </g>
        <g id="Group_8099" data-name="Group 8099" transform="translate(7.8 50.519)">
            <path id="Path_10692" data-name="Path 10692" class="cls-1" d="M11.6 142.034c4.334-4.815 5.826-11.556 5.586-17.816a21.023 21.023 0 0 0-1.886-7.608l.819-2.263s25.713-17.142 42.663-5.2C56.33 151.423 2.4 151.279 2.4 151.279l1.011-2.793a29.975 29.975 0 0 0 8.189-6.452z" transform="translate(-2.4 -104.918)"/>
            <g id="Group_8098" data-name="Group 8098" transform="translate(13.771 .232)">
                <path id="Path_10693" data-name="Path 10693" class="cls-2" d="m2.689 132.7 18.876-10.593 4.767-16.607c.289-.048.578-.048.867-.1l-4.623 16.179 22.054-12.423c.144.1.241.144.385.241a1.638 1.638 0 0 1-.048.482l-36.5 20.464 21.139 8.571c-.241.193-.53.385-.77.578L7.6 130.872l-5.2 2.937c.1-.385.193-.77.289-1.109z" transform="translate(-2.4 -105.4)"/>
            </g>
        </g>
    </g>
</svg>
