<svg xmlns="http://www.w3.org/2000/svg" width="48" height="48" viewBox="0 0 48 48"><path d="M340.311,76H323.089C309.767,76,307.7,78.51,307.7,94.682v7.847c0,19.017,2.067,21.471,17.686,21.471h12.629c15.618,0,17.686-2.454,17.686-21.471V94.682C355.7,78.51,353.633,76,340.311,76Z" transform="translate(-307.7 -76)" fill="#f2f2f2"/><g transform="translate(6.238 4)"><g transform="translate(9.488 31.472)"><path d="M-230.783,166.053a41.323,41.323,0,0,0-2.3-8.905H-243.8a41.329,41.329,0,0,0-2.3,8.905Z" transform="translate(246.096 -157.148)" fill="#cc7340"/><path d="M-243.338,170.606h13.778c-.15-.627-.3-1.2-.446-1.721h-12.887C-243.038,169.4-243.189,169.979-243.338,170.606Z" transform="translate(244.106 -165.618)" fill="#1a1818"/><path d="M-246.1,184.689h15.313c-.093-.6-.192-1.174-.3-1.722H-245.8C-245.9,183.514-246,184.09-246.1,184.689Z" transform="translate(246.096 -175.78)" fill="#1a1818"/></g><path d="M-246.146,55.618l-3.971,1.148,3.282-2.564a16.261,16.261,0,0,0-4.975-5.36,20.238,20.238,0,0,0-5.309-2.545l-2.648,4.048.515-4.624a20.16,20.16,0,0,0-8.419-.117l-.053,4.5-2.018-3.935a17.287,17.287,0,0,0-1.76.709l2.458,6.027L-273,47.666c-2.4,1.424-7.183,5.188-7.183,13.746,0,.049,0,.1,0,.148l3.79.3-3.735,1.342a19.986,19.986,0,0,0,3.763,10.887l4.036-1.776-3.085,2.931a17.753,17.753,0,0,0,4.777,3.731c4.958,2.686,13.374,1.3,15.473.239a18.924,18.924,0,0,0,4.274-3.048l-1.9-3.1,3.037,1.952A18.23,18.23,0,0,0-245,64.282,17.794,17.794,0,0,0-246.146,55.618Z" transform="translate(280.182 -45.213)" fill="#e78437"/><g transform="translate(4.263 8.947)"><path d="M-248.854,79.827c-2.2.134-4.45.165-6.371,2.088s-2.692,5.877-2.527,8.569a7.894,7.894,0,0,0,5.109,7.305,15.393,15.393,0,0,0,10.436,0c1.922-.715,4.614-2.307,5.218-5.6.618-3.37.33-7.58-1.7-9.5C-241.242,80.272-246.149,79.662-248.854,79.827Z" transform="translate(259.749 -78.984)" fill="#efba56"/><path d="M-191.569,85.062c.568-.128,2.032-.659,1.958-1.776a2.37,2.37,0,0,0-1.464-2.215,1.937,1.937,0,0,0-2.582,1.868Z" transform="translate(213.479 -79.807)" fill="#efba56"/><path d="M-252.674,78.815c-.131-.567-.478-1.949-1.786-1.95a2.244,2.244,0,0,0-2.207,1.476,1.936,1.936,0,0,0,1.881,2.572Z" transform="translate(259.041 -76.865)" fill="#efba56"/><path d="M-231.122,79.828c-.692.043-1.39.075-2.08.158l1.982,10.031a2.905,2.905,0,0,0,3.24-.11l1.439-9.735A18.894,18.894,0,0,0-231.122,79.828Z" transform="translate(242.017 -78.985)" fill="#cc7340"/><path d="M-222.993,115.585c-.217-.563-1.088-.548-1.87-.548s-1.652-.014-1.871.548c-.129.334.123.631.436.909a2.174,2.174,0,0,0,1.434.595,2.17,2.17,0,0,0,1.434-.595C-223.115,116.216-222.864,115.92-222.993,115.585Z" transform="translate(237.374 -104.411)" fill="#1a1818"/><path d="M-244.752,103.518a.535.535,0,0,1-.448.592.535.535,0,0,1-.448-.592.536.536,0,0,1,.448-.592A.536.536,0,0,1-244.752,103.518Z" transform="translate(250.997 -95.672)" fill="#1a1818"/><path d="M-195.52,103.518a.535.535,0,0,1-.447.592.535.535,0,0,1-.448-.592.535.535,0,0,1,.448-.592A.535.535,0,0,1-195.52,103.518Z" transform="translate(215.47 -95.672)" fill="#1a1818"/><g transform="translate(12.219 12.55)"><path d="M-220.729,126.219a.139.139,0,0,1-.138-.121,23.212,23.212,0,0,1-.038-4.021.139.139,0,0,1,.15-.127.139.139,0,0,1,.127.15,23.247,23.247,0,0,0,.036,3.962.14.14,0,0,1-.12.156Z" transform="translate(220.972 -121.95)" fill="#1a1818"/></g><g transform="translate(10.73 16.267)"><path d="M-224.738,135.928a4.7,4.7,0,0,1-1.5-.211.139.139,0,0,1-.078-.181.139.139,0,0,1,.181-.077,4.732,4.732,0,0,0,3.072-.142.14.14,0,0,1,.187.062.139.139,0,0,1-.062.187A4.128,4.128,0,0,1-224.738,135.928Z" transform="translate(226.321 -135.302)" fill="#1a1818"/></g><g transform="translate(20.359 12.035)"><path d="M-191.625,120.62a.1.1,0,0,1-.1-.1.1.1,0,0,1,.1-.111l5.163-.311a.106.106,0,0,1,.111.1.1.1,0,0,1-.1.111l-5.163.311Z" transform="translate(191.73 -120.1)" fill="#1a1818"/></g><g transform="translate(20.176 13.005)"><path d="M-192.283,124.014a.1.1,0,0,1-.1-.1.1.1,0,0,1,.1-.108l5.9-.22a.1.1,0,0,1,.108.1.1.1,0,0,1-.1.108l-5.9.22Z" transform="translate(192.387 -123.586)" fill="#1a1818"/></g><g transform="translate(21.22 14.068)"><path d="M-184.945,128.013h-.012l-3.588-.4a.1.1,0,0,1-.092-.116.106.106,0,0,1,.116-.092l3.588.4a.1.1,0,0,1,.092.115A.1.1,0,0,1-184.945,128.013Z" transform="translate(188.637 -127.402)" fill="#1a1818"/></g><g transform="translate(0 12.291)"><path d="M-259.528,121.6h-.007l-5.236-.366a.1.1,0,0,1-.1-.111.1.1,0,0,1,.112-.1l5.235.366a.1.1,0,0,1,.1.111A.1.1,0,0,1-259.528,121.6Z" transform="translate(264.868 -121.021)" fill="#1a1818"/></g><g transform="translate(0.677 13.518)"><path d="M-262.332,125.8a.1.1,0,0,1-.1-.1.1.1,0,0,1,.1-.108l5.035-.164a.1.1,0,0,1,.108.1.1.1,0,0,1-.1.108l-5.035.164Z" transform="translate(262.436 -125.429)" fill="#1a1818"/></g><g transform="translate(0.494 14.452)"><path d="M-262.99,129.8a.1.1,0,0,1-.1-.087.1.1,0,0,1,.085-.121l4.706-.805a.1.1,0,0,1,.12.085.1.1,0,0,1-.085.121l-4.706.805Z" transform="translate(263.094 -128.783)" fill="#1a1818"/></g><path d="M-200.615,124.591c.137-.2-.141-.413-.263-.168A.156.156,0,0,0-200.615,124.591Z" transform="translate(218.707 -111.105)" fill="#1a1818"/><path d="M-204.52,129.837c.165-.079.052-.41-.148-.3A.167.167,0,0,0-204.52,129.837Z" transform="translate(221.489 -114.859)" fill="#1a1818"/><path d="M-196.951,127.695a.172.172,0,0,0-.129-.314C-197.342,127.423-197.176,127.834-196.951,127.695Z" transform="translate(216.046 -113.317)" fill="#1a1818"/><path d="M-208.765,124.228a.168.168,0,0,0-.268-.2A.168.168,0,1,0-208.765,124.228Z" transform="translate(224.604 -110.85)" fill="#1a1818"/><path d="M-233.419,125.917c.018-.087.013-.2-.107-.24-.194-.061-.287.15-.206.3A.177.177,0,0,0-233.419,125.917Z" transform="translate(242.421 -112.082)" fill="#1a1818"/><path d="M-240.518,129.56a.182.182,0,0,0,.047-.249.18.18,0,0,0-.334.022C-240.868,129.5-240.692,129.7-240.518,129.56Z" transform="translate(247.513 -114.638)" fill="#1a1818"/><path d="M-227.09,128.445c.143-.2-.118-.433-.262-.225S-227.221,128.627-227.09,128.445Z" transform="translate(237.825 -113.866)" fill="#1a1818"/><path d="M-239.257,121.662a.079.079,0,0,0,0-.017.187.187,0,1,0-.361-.1C-239.672,121.8-239.319,121.915-239.257,121.662Z" transform="translate(246.649 -109.005)" fill="#1a1818"/><path d="M-197.559,121.079a.165.165,0,1,0-.244-.22A.166.166,0,1,0-197.559,121.079Z" transform="translate(216.514 -108.566)" fill="#1a1818"/></g></g></svg>