<svg xmlns="http://www.w3.org/2000/svg" xmlns:xlink="http://www.w3.org/1999/xlink" width="30" height="30" viewBox="0 0 30 30">
  <defs>
    <clipPath id="clip-path">
      <path id="Path_9526" data-name="Path 9526" d="M16.732-85.763v-2.447A6.784,6.784,0,0,0,9.987-95a6.784,6.784,0,0,0-6.745,6.789v2.447A3.554,3.554,0,0,0,0-82.184v8.579A3.582,3.582,0,0,0,3.582-70H16.418A3.582,3.582,0,0,0,20-73.605v-8.579A3.577,3.577,0,0,0,16.732-85.763Zm-5.176,11a.406.406,0,0,1-.392.5H8.784a.406.406,0,0,1-.392-.5l.784-3.105a1.892,1.892,0,0,1-1.124-1.737,1.926,1.926,0,0,1,1.908-1.921,1.926,1.926,0,0,1,1.908,1.921,1.95,1.95,0,0,1-1.124,1.737Zm1.752-11.026H6.667v-2.395a3.336,3.336,0,0,1,3.32-3.342,3.336,3.336,0,0,1,3.32,3.342Z" transform="translate(0 95)" fill="#38a8df"/>
    </clipPath>
  </defs>
  <g id="Chat_Icon" data-name="Chat Icon" transform="translate(-0.243)">
    <rect id="bound" width="30" height="30" transform="translate(0.243)" fill="none"/>
    <g id="Group_7289" data-name="Group 7289" transform="translate(5.244 2.6)">
      <g id="Group_7287" data-name="Group 7287" transform="translate(0)" clip-path="url(#clip-path)">
        <path id="Path_9525" data-name="Path 9525" d="M-5-100H17.614v27.632H-5Z" transform="translate(3.693 98.684)" fill="#38a8df"/>
      </g>
    </g>
  </g>
</svg>
