<svg xmlns="http://www.w3.org/2000/svg" width="48" height="48" viewBox="0 0 48 48"><path d="M340.311,76H323.089C309.767,76,307.7,78.51,307.7,94.682v7.847c0,19.017,2.067,21.471,17.686,21.471h12.629c15.618,0,17.686-2.454,17.686-21.471V94.682C355.7,78.51,353.633,76,340.311,76Z" transform="translate(-307.7 -76)" fill="#f2f2f2"/><g transform="translate(12.135 8.002)"><path d="M-32.243,172.686a1.24,1.24,0,0,1-1.239,1.24h0a1.24,1.24,0,0,1-1.239-1.24v-23.2a1.24,1.24,0,0,1,1.239-1.239h0a1.24,1.24,0,0,1,1.239,1.239Z" transform="translate(45.153 -141.574)" fill="#f2ac3e"/><path d="M-20.428,147.7c0,5.979-5.224,10.828-11.671,10.828S-43.77,153.68-43.77,147.7s5.226-10.829,11.671-10.829S-20.428,141.721-20.428,147.7Z" transform="translate(43.77 -136.872)" fill="#f0524d"/><path d="M-22.767,148.269a9.605,9.605,0,0,1-9.606,9.6,9.6,9.6,0,0,1-9.605-9.6,9.6,9.6,0,0,1,9.605-9.605A9.605,9.605,0,0,1-22.767,148.269Z" transform="translate(44.044 -136.598)" fill="#f2ebcc"/><path d="M-25.108,148a7.539,7.539,0,0,1-7.539,7.539A7.539,7.539,0,0,1-40.186,148a7.538,7.538,0,0,1,7.539-7.539A7.538,7.538,0,0,1-25.108,148Z" transform="translate(44.318 -136.324)" fill="#f0524d"/><path d="M-27.39,147.728a5.523,5.523,0,0,1-5.524,5.524,5.523,5.523,0,0,1-5.524-5.524,5.524,5.524,0,0,1,5.524-5.525A5.524,5.524,0,0,1-27.39,147.728Z" transform="translate(44.585 -137.111)" fill="#f2ebcc"/><path d="M-29.723,147.455a3.464,3.464,0,0,1-3.464,3.464,3.463,3.463,0,0,1-3.463-3.464,3.463,3.463,0,0,1,3.463-3.464A3.464,3.464,0,0,1-29.723,147.455Z" transform="translate(44.858 -137.443)" fill="#f0524d"/><circle cx="2.427" cy="2.427" r="2.427" transform="translate(14.712 11.92)" fill="#fff"/></g></svg>