<svg xmlns="http://www.w3.org/2000/svg" width="48" height="48" viewBox="0 0 48 48"><path d="M340.311,76H323.089C309.767,76,307.7,78.51,307.7,94.682v7.847c0,19.017,2.067,21.471,17.686,21.471h12.629c15.618,0,17.686-2.454,17.686-21.471V94.682C355.7,78.51,353.633,76,340.311,76Z" transform="translate(-307.7 -76)" fill="#f2f2f2"/><g transform="matrix(-0.545, -0.839, 0.839, -0.545, 20.586, 43.834)"><path d="M8.436,19C21.011,28.1,30.6,17.938,23.849,9.607,19.39,4.092,13.753,7.351,8.01,2.365,7.225,1.7,5.352-.094,3.132.1-2.866.679.664,13.371,8.436,19Z" transform="translate(2.313 1.502)" fill="#f59628"/><path d="M3.159,2.215a3.233,3.233,0,0,1-1.931,2.4.211.211,0,0,1-.173-.286c.212-.389,1.035-.621,1.415-2.019A4.676,4.676,0,0,1,.043.33C-.1.1.2-.089.4.057,2.149,1.6,3.2,1.483,3.159,2.215Z" transform="translate(25.601 17.844)" fill="#49443a"/><g transform="translate(7.752 20.829)"><path d="M21.091,1.742l-.15-.268c0-.026-.059-.081-.147-.188a2.238,2.238,0,0,0-.7-.6A3.013,3.013,0,0,0,17.874.634c-.564.171-1.1.317-1.608.489-.141.049-.31.1-.451.148-1.354.443-2.424.84-3.3,1.083-.141.049-.283.072-.395.123h-.028a12.61,12.61,0,0,1-3.177.346L8.43,2.81a21.19,21.19,0,0,1-3.482-.4c-.228-.032-.429-.09-.629-.121A20.277,20.277,0,0,1,.446,1.112a.973.973,0,0,0-.2-.058.221.221,0,0,0-.168.1.185.185,0,0,0-.023.211.143.143,0,0,0,.06.107A15.151,15.151,0,0,0,4.175,4.319c.173.083.317.166.49.25A17.842,17.842,0,0,0,7.511,5.614c.258.085.545.145.8.2a17.226,17.226,0,0,0,3.2.447,12.728,12.728,0,0,0,1.508-.016c.256-.02.539-.04.823-.059A15.191,15.191,0,0,0,17.3,5.533c.2-.074.395-.123.592-.2A7.95,7.95,0,0,0,20.659,3.66a1.739,1.739,0,0,0,.569-1.043A1.26,1.26,0,0,0,21.091,1.742Z" transform="translate(0 0)" fill="#2c858d"/><path d="M21.043,1.021l-.15-.268c0-.026-.059-.081-.147-.188a23.686,23.686,0,0,1-2.07,1.3.063.063,0,0,0-.058-.054A13.019,13.019,0,0,1,16.48.62c-.088-.081-.2-.163-.291-.245-.141.049-.31.1-.451.148.174.136.349.273.494.382a7.918,7.918,0,0,0,2.136,1.135,11.054,11.054,0,0,1-1.743.777,13.559,13.559,0,0,1-1.5.439c0-.026-.03-.054-.059-.081a29.517,29.517,0,0,1-2.6-1.542c-.141.049-.283.072-.395.123h-.028c.2.137.406.274.579.384A9.631,9.631,0,0,0,14.79,3.327a16.857,16.857,0,0,1-3.832.33,3.362,3.362,0,0,1-.513-.039V3.591a13.152,13.152,0,0,1-1.4-1.328c-.058-.054-.089-.134-.147-.188l-.484-.012a4.367,4.367,0,0,0,.323.351,5.956,5.956,0,0,0,1.311,1.141,22.563,22.563,0,0,1-3.939-.465V3.038c-.326-.483-.792-.891-1.175-1.349h0C4.7,1.657,4.5,1.6,4.3,1.568a.4.4,0,0,0,.088.108,9.623,9.623,0,0,0,1.259,1.3A13.111,13.111,0,0,1,.058.435.185.185,0,0,0,.036.646,13.2,13.2,0,0,0,5.541,3.262c-.367.123-.734.22-1.1.317a1.052,1.052,0,0,1-.283.046c.173.083.317.166.49.25A8.493,8.493,0,0,0,6,3.379a28.354,28.354,0,0,0,3.856.569,5.781,5.781,0,0,1-1.911.878,2.489,2.489,0,0,1-.481.094c.258.085.545.145.8.2a5.686,5.686,0,0,0,1.989-1.141c.171,0,.342.035.513.039a14.557,14.557,0,0,0,3.721-.227,10.273,10.273,0,0,1-.765,1.17,2.857,2.857,0,0,1-.724.59c.256-.02.539-.04.823-.059a5.185,5.185,0,0,0,1.089-1.8,19.085,19.085,0,0,0,2.034-.532A14.049,14.049,0,0,0,18.3,2.645a6.122,6.122,0,0,1-.885,1.986c-.055.078-.082.13-.137.208.2-.074.395-.123.592-.2.081-.157.163-.287.244-.443a4.219,4.219,0,0,0,.55-1.73A10.925,10.925,0,0,0,21.043,1.021Z" transform="translate(0.047 0.721)" fill="#add8cf"/></g><path d="M1.41,2.2C.712,2.184-.243.844.078.292.829-.92,3.169,2.22,1.41,2.2Z" transform="translate(23.958 11.982)" fill="#ea6911"/><path d="M.1.166C.4-.213,1.962.13,2.41,1.08,3.037,2.448-.607,1.086.1.166Z" transform="translate(19.798 8.23)" fill="#ea6911"/><path d="M1.538,1.7C.564,2.008-.346.454.15.077.7-.326,3.069,1.209,1.538,1.7Z" transform="translate(16.771 8.773)" fill="#ea6911"/><path d="M.011.436C-.039-.419,1.669.175,1.884.842,2.128,1.537.058,1.154.011.436Z" transform="translate(12.837 6.276)" fill="#ea6911"/><path d="M.333.945C-.906-.483,1.818-.134,1.512,1.059a.535.535,0,0,1-.437.407C.824,1.516.593,1.258.333.945Z" transform="translate(20.507 12.042)" fill="#ea6911"/><path d="M.012.5c-.024-.948,1.533-.35,1.5.4C1.449,1.846.026,1.029.012.5Z" transform="translate(10.106 7.455)" fill="#ea6911"/><path d="M1.843,1.177C1.753,2.063-.532.645.128.107.541-.244,2.048.433,1.843,1.177Z" transform="translate(7.603 5.257)" fill="#ea6911"/></g></svg>