<svg xmlns="http://www.w3.org/2000/svg" xmlns:xlink="http://www.w3.org/1999/xlink" width="260" height="260" viewBox="0 0 260 260">
  <defs>
    <linearGradient id="linear-gradient" x1="0.27" y1="0.991" x2="0.696" y2="0.279" gradientUnits="objectBoundingBox">
      <stop offset="0" stop-color="#edf2f7"/>
      <stop offset="1" stop-color="#6ea0c6"/>
    </linearGradient>
    <linearGradient id="linear-gradient-8" x1="0.5" x2="0.5" y2="1" gradientUnits="objectBoundingBox">
      <stop offset="0" stop-color="#edf2f7"/>
      <stop offset="1" stop-color="#d3e0ea"/>
    </linearGradient>
    <clipPath id="clip-path">
      <rect id="Rectangle_4762" data-name="Rectangle 4762" width="16" height="13" transform="translate(19.223 82.122) rotate(-63.045)" stroke="rgba(0,0,0,0)" stroke-linecap="round" stroke-width="1" fill="url(#linear-gradient)"/>
    </clipPath>
    <clipPath id="clip-path-2">
      <path id="Path_86414" data-name="Path 86414" d="M28.183,80.189,25.655,76.25a.873.873,0,0,1,.255-1.209l.011-.008a.9.9,0,0,1,1.227.279l2.529,3.939a.875.875,0,0,1-.256,1.209l-.012.008A.9.9,0,0,1,28.183,80.189Z" stroke="rgba(0,0,0,0)" stroke-linecap="round" stroke-width="1" fill="url(#linear-gradient)"/>
    </clipPath>
    <clipPath id="clip-path-3">
      <rect id="Rectangle_4759" data-name="Rectangle 4759" width="15.771" height="12.787" transform="translate(19.413 82.22) rotate(-63.045)" stroke="rgba(0,0,0,0)" stroke-linecap="round" stroke-width="1" fill="url(#linear-gradient)"/>
    </clipPath>
    <clipPath id="clip-path-4">
      <path id="Path_86415" data-name="Path 86415" d="M33.981,77.882l-.71-4.624a.873.873,0,0,1,.723-1l.013,0a.9.9,0,0,1,1.008.753l.709,4.624a.875.875,0,0,1-.723,1l-.013,0A.9.9,0,0,1,33.981,77.882Z" stroke="rgba(0,0,0,0)" stroke-linecap="round" stroke-width="1" fill="url(#linear-gradient)"/>
    </clipPath>
    <clipPath id="clip-path-5">
      <rect id="Rectangle_4760" data-name="Rectangle 4760" width="15.771" height="12.787" transform="translate(19.413 82.219) rotate(-63.045)" stroke="rgba(0,0,0,0)" stroke-linecap="round" stroke-width="1" fill="url(#linear-gradient)"/>
    </clipPath>
    <clipPath id="clip-path-6">
      <path id="Path_86416" data-name="Path 86416" d="M24.724,84.531l-4.159-2.148a.874.874,0,0,1-.383-1.175l.006-.013a.9.9,0,0,1,1.2-.374l4.159,2.148a.874.874,0,0,1,.384,1.175l-.007.013A.9.9,0,0,1,24.724,84.531Z" stroke="rgba(0,0,0,0)" stroke-linecap="round" stroke-width="1" fill="url(#linear-gradient)"/>
    </clipPath>
  </defs>
  <g id="_7" data-name="7" transform="translate(-184 -986)">
    <g id="Group_24628" data-name="Group 24628">
      <g id="Group_24585" data-name="Group 24585" transform="translate(-904 -595.66)">
        <g id="Group_22392" data-name="Group 22392" transform="translate(507 1014)">
          <g id="Group_24618" data-name="Group 24618" transform="translate(612.66 602.66)">
            <path id="Path_47026" data-name="Path 47026" d="M101.34,202.68A101.34,101.34,0,1,0,0,101.34,101.34,101.34,0,0,0,101.34,202.68Z" fill="rgba(255,255,255,0.27)" stroke="rgba(255,255,255,0.58)" stroke-width="2" stroke-dasharray="2 7"/>
          </g>
          <ellipse id="Ellipse_2760" data-name="Ellipse 2760" cx="105" cy="13" rx="105" ry="13" transform="translate(609 784)" opacity="0.3"/>
          <g id="Group_24586" data-name="Group 24586" transform="translate(604.5 594.66)">
            <g id="Group_22742" data-name="Group 22742">
              <g id="Group_22739" data-name="Group 22739">
                <g id="Mask_Group_11735" data-name="Mask Group 11735">
                  <g id="Group_24356" data-name="Group 24356">
                    <g id="Group_23663" data-name="Group 23663">
                      <g id="Group_23417" data-name="Group 23417">
                        <g id="Group_19887" data-name="Group 19887">
                          <g id="Group_19844" data-name="Group 19844">
                            <g id="Group_19842" data-name="Group 19842">
                              <g id="Group_19822" data-name="Group 19822">
                                <g id="Group_19819" data-name="Group 19819">
                                  <g id="Group_19281" data-name="Group 19281">
                                    <g id="Group_19277" data-name="Group 19277">
                                      <g id="Group_19279" data-name="Group 19279">
                                        <g id="Group_19276" data-name="Group 19276">
                                          <g id="Group_19265" data-name="Group 19265">
                                            <g id="Group_19261" data-name="Group 19261">
                                              <g id="Group_19259" data-name="Group 19259">
                                                <path id="Path_50162" data-name="Path 50162" d="M56.186,178.16c.8,1.352-1.963,10.284-2.634,13.3a35.333,35.333,0,0,0-1.154,4.281c-.259,1.072.077-.14-.283,1.358a4.917,4.917,0,0,1-2.172.47,3.06,3.06,0,0,1-1.619-.938c1.318-7.256-.855-15.42.852-23.4C51.607,172.491,55.261,176.6,56.186,178.16Z" fill="#fd434a"/>
                                                <g id="Group_19258" data-name="Group 19258">
                                                  <path id="Path_50190" data-name="Path 50190" d="M53.418,150.234l-1.4,6.389s1.5-.256,7.654,1.812c2.549.856,4.361,1.888,5.374,2.266a3.205,3.205,0,0,0,.807,0c6.041-5,9.523-2.266,9.523-2.266s1.362-6.3.557-10.09c-5.309,1.293-8.19,3.777-11.539,3.916C57.363,152.554,53.418,150.234,53.418,150.234Z" fill="#fd434a"/>
                                                  <path id="Path_50164" data-name="Path 50164" d="M52.317,155.717c-.757,1.564-2.4,12-3.2,17.7s-.56,4.576,0,5.116c1.621,1.565,7.275,3,7.269,0,.662-3.671,3.029-6.886,4.7-11.307a43.285,43.285,0,0,0,1.833-5.74c.074-.389.82-2.47.941-2.986.158-.674-.89,1.5-.851.743C63.1,157.482,52.317,155.717,52.317,155.717Z" fill="#fd434a"/>
                                                  <path id="Path_50181" data-name="Path 50181" d="M76.078,150.979a11.692,11.692,0,0,1,.423,3.633c-.048.487-.032-.483,0,.541.128,4.108-1.078,11.74-1.213,15.967-.1,3.121.582,8.38,0,8.86-1.689,1.388-6.182-.786-7.147-2.829-1.661-3.513-5.507-11.726-5.484-20.867C62.661,154.508,76.078,150.979,76.078,150.979Z" fill="#fd434a"/>
                                                  <path id="Path_50183" data-name="Path 50183" d="M67.521,170.968c-.4,3.437.284,7.936,1.338,12.687s2.126,6.566,3.686,13.173c.737.265,3.624.293,3.5-.668a30.9,30.9,0,0,1,0-5.136c.195-3.555.045-4.574,0-9.233-.118-1.8-.22-7.994-1.113-9.783C72.515,171.061,67.922,167.53,67.521,170.968Z" fill="#fd434a"/>
                                                </g>
                                              </g>
                                            </g>
                                          </g>
                                        </g>
                                      </g>
                                    </g>
                                  </g>
                                </g>
                              </g>
                            </g>
                          </g>
                          <path id="Path_52606" data-name="Path 52606" d="M53.88,148.657a33.571,33.571,0,0,0,11.931,1.231,41.027,41.027,0,0,0,10.669-2.057c.013.124.071.772.067,1.372,0,.463,0,1.28,0,1.28a38.68,38.68,0,0,1-10.736,1.706A61.955,61.955,0,0,1,53.525,150.9,14.427,14.427,0,0,0,53.88,148.657Z" fill="#1c1c1c"/>
                        </g>
                      </g>
                    </g>
                    <g id="Path_53456" data-name="Path 53456">
                      <path id="Path_86439" data-name="Path 86439" d="M64.535,149.852l-4.281-.088-.312,2.96,4.417.116Z" fill="none"/>
                      <path id="Path_86440" data-name="Path 86440" d="M63.907,150.433l-3.12-.064-.188,1.779,3.2.084.106-1.8m.628-.581-.176,2.988-4.417-.116.312-2.96Z" fill="#ece2e3"/>
                    </g>
                    <rect id="Rectangle_5371" data-name="Rectangle 5371" width="3.756" height="1.384" rx="0.395" transform="translate(54.475 152.832) rotate(-83)" fill="#fd434a"/>
                    <rect id="Rectangle_5440" data-name="Rectangle 5440" width="1.384" height="3.756" rx="0.395" transform="translate(67.722 149.667) rotate(-7)" fill="#fd434a"/>
                    <rect id="Rectangle_5441" data-name="Rectangle 5441" width="1.384" height="3.756" rx="0.395" transform="translate(73.455 148.481) rotate(-7)" fill="#fd434a"/>
                  </g>
                  <g id="Group_24357" data-name="Group 24357">
                    <g id="Group_23674" data-name="Group 23674">
                      <path id="Path_52267" data-name="Path 52267" d="M52.2,196.719a3.7,3.7,0,0,1-1.811.216,2.9,2.9,0,0,1-1.743-.487c-.606.019-.8.567-2.128.661a.45.45,0,0,0-.051.007c-4.4.887-5.181,2.3-5.391,2.715a3.378,3.378,0,0,0-.2.522v.849a.381.381,0,0,0,.381.382h0l10.467-.073a.382.382,0,0,0,.379-.384v-.016s.233-3.613.259-4.076S52.2,196.719,52.2,196.719Z" fill="#5095a4"/>
                      <path id="Path_52268" data-name="Path 52268" d="M52.1,200.205l-7.378.033s-1.581-1.54-2.5-1.54c-.124,0-.385.193-.771.578a1.748,1.748,0,0,0-.576.962c0,.381,0,.574-.006,1.045a.3.3,0,0,0,.292.3h.006l10.518-.07a.421.421,0,0,0,.419-.424v-.885Z" fill="#f0f0f0"/>
                      <path id="Path_52269" data-name="Path 52269" d="M52.129,200.127a4.443,4.443,0,0,1-.411.655,1.315,1.315,0,0,1-.613.486l-7.54-.024a3.713,3.713,0,0,1-1.874-.49,2.681,2.681,0,0,0-.831-.433l.015,1.061a.286.286,0,0,0,.291.282h0l10.754-.155a.312.312,0,0,0,.306-.312Z" fill="#a3a3a3"/>
                    </g>
                    <g id="Group_23675" data-name="Group 23675">
                      <path id="Path_52263" data-name="Path 52263" d="M81.266,201.777c-.843-1.483-3.51-5.689-6.665-5.7l-.051,0c-2.34.035-2.058.915-2.058.915l-.133,4.441-.023.748a.353.353,0,0,0,.343.364h.02l8.268-.239a.353.353,0,0,0,.344-.362.341.341,0,0,0-.046-.165" fill="#5095a4"/>
                      <path id="Path_52265" data-name="Path 52265" d="M80.6,200.463a5.033,5.033,0,0,0-4.865.736.36.36,0,0,1-.188.059c-.586.019-1.951,0-2.429-.026a4.929,4.929,0,0,0-.749,0l-.067,1.079a.315.315,0,0,0,.319.317h.028l8.953-.216a.32.32,0,0,0,.33-.309.269.269,0,0,0-.047-.146c-.372-.552-1-1.434-1.285-1.495" fill="#f0f0f0"/>
                      <path id="Path_52266" data-name="Path 52266" d="M81.507,201.9a.3.3,0,0,1-.048.423.3.3,0,0,1-.18.065l-5.474.149-3.192.087a.3.3,0,0,1-.308-.292v-.026l.054-.88s-.065-.047.238.109a.561.561,0,0,1,.279.309.3.3,0,0,0,.281.186h2.6a.291.291,0,0,0,.092-.015,13.7,13.7,0,0,1,3.706-.73,2.586,2.586,0,0,1,1.952.615" fill="#a3a3a3"/>
                    </g>
                  </g>
                  <g id="Group_23821" data-name="Group 23821">
                    <g id="Group_23820" data-name="Group 23820">
                      <g id="Group_23819" data-name="Group 23819">
                        <g id="Group_23817" data-name="Group 23817">
                          <g id="Group_23813" data-name="Group 23813">
                            <g id="Group_23809" data-name="Group 23809">
                              <path id="Path_54079" data-name="Path 54079" d="M58.489,129.859a.517.517,0,0,1-.385.6c-.237.017-.447-.224-.472-.54a.516.516,0,0,1,.386-.6c.237-.018.447.223.471.539" fill="#fff"/>
                            </g>
                            <g id="Group_23810" data-name="Group 23810">
                              <path id="Path_54080" data-name="Path 54080" d="M60.413,135.473a.518.518,0,0,1-.385.6c-.237.017-.447-.224-.472-.54a.516.516,0,0,1,.386-.6c.237-.018.447.223.471.539" fill="#fff"/>
                            </g>
                            <g id="Group_23811" data-name="Group 23811">
                              <path id="Path_54081" data-name="Path 54081" d="M61.9,141.013a.518.518,0,0,1-.386.6c-.236.018-.447-.224-.472-.539a.517.517,0,0,1,.386-.6c.237-.018.448.224.472.539" fill="#fff"/>
                            </g>
                            <g id="Group_23812" data-name="Group 23812">
                              <path id="Path_54082" data-name="Path 54082" d="M63.332,146.365a.516.516,0,0,1-.385.6c-.237.018-.447-.223-.472-.539a.516.516,0,0,1,.386-.6c.236-.018.447.223.471.539" fill="#fff"/>
                            </g>
                          </g>
                          <g id="Group_23815" data-name="Group 23815">
                            <g id="Group_23814" data-name="Group 23814">
                              <path id="Path_53047" data-name="Path 53047" d="M52.886,118.939s-5.558-2.915-9.167,4.219c-1.929,3.815-3.849,14.14-4.81,17.646-.445,1.621,2.7,3.666,3.838,2.484.82-.854,10.139-24.349,10.139-24.349" fill="#ece2e3"/>
                              <path id="Path_53059" data-name="Path 53059" d="M62.344,112.724c.353-.019,3.49.084,3.874.161,4.483.886,7.416,9.135,8.91,14.483,3.476,12.4-1.786,15.205-6.691,1.6C67.705,126.692,62.344,112.724,62.344,112.724Z" fill="#ece2e3"/>
                              <path id="Path_53139" data-name="Path 53139" d="M45.049,121.512c.42-2.406-.349-3.3,3.816-5.7.695-.388-.03.825,1,.88.763.644,1.978.482,3.621.008a5.892,5.892,0,0,0,2.92-1.927c.063-.623-1.792-.892-1.451-1.164,4.162-1.056,9.2-1.336,11.055-.763a3.785,3.785,0,0,0-.838,3.73,34.225,34.225,0,0,0,.911,5.627c.358,1.173,1.56,3,1.5,3.943.358,6.169,5.3,15.157,5.814,19.454-.078.653-1.111,1.031-1.578,1.31a47.773,47.773,0,0,1-15.92,5.94c-2.337.2-3.274.643-3.26-.072-.86-5.975-3.233-12.479-4.66-17.484C45.953,128.182,44.627,123.915,45.049,121.512Z" fill="#fff"/>
                            </g>
                          </g>
                          <g id="Group_23816" data-name="Group 23816">
                            <path id="Path_54083" data-name="Path 54083" d="M61.324,110.669s-7.667-1.427-12.019,3.846,10.675-1.739,10.675-1.739Z" fill="#171338"/>
                            <path id="Path_54084" data-name="Path 54084" d="M59.295,136.942c.153.443.315.9.485,1.367.09.254.184.51.279.769q.171.467.351.943c.394,1.052.811,2.132,1.233,3.206q.265.678.535,1.35c.1.255.2.509.3.761l.378.934c.174.428.346.85.515,1.261,1.333,3.251,2.468,5.889,2.788,6.629.059.136.091.208.091.208l3.258-1.357,5.928-2.47,1.408-.586.009,0s-.1-.323-.277-.908c-.2-.647-.5-1.613-.893-2.816-.321-.991-1.692-1.969-2.121-3.235-.1-.31-.213-.627-.324-.95-.086-.253-.175-.511-.265-.771l-.255-.731q-.111-.317-.225-.637c-.35-.992-.72-2.022-1.109-3.073-.114-.312-.232-.628-.35-.944q-.144-.381-.288-.765c-.172-.45-2.134-8.438-2.265-8.737a20.557,20.557,0,0,1-2.891-7.079c-.268-1.415.075-2.688.075-4.4a4.332,4.332,0,0,1,.456-1.918c.133-.191.269.049.094-.233-.2-.4-4.4-.993-4.4-.974-1.367-.817-3.225,1.276-3.566,1.325l-.013,0h0c-.225,0-.483,0-.767.01-.013,1.376-.026,3.261-.024,5.329,0,.488,0,.986,0,1.49q0,.417,0,.837,0,.513.008,1.031c.008.912.021,1.825.036,2.716q.015.754.033,1.482c.007.282.014.56.023.833q.017.525.036,1.023c.032.841.071,1.62.119,2.306.037.553.081,1.044.13,1.463.011.1.024.205.037.3.021.155.051.325.088.509.058.292.135.62.229.978C58.448,134.392,58.832,135.6,59.295,136.942Z" fill="#383453"/>
                            <path id="Path_54085" data-name="Path 54085" d="M51.254,157.92l3.146-.543,1.311-.226s-.533-2.984-1.241-6.894q-.126-.7-.259-1.432-.088-.49-.181-.992l-.145-.807q-.13-.71-.262-1.432c-.213-1.164-.429-2.34-.64-3.486-.062-.333-.123-.664-.184-.99-.05-.271-.1-.539-.149-.8-.09-.487-.18-.965-.266-1.43-.264-1.4-.508-2.689-.715-3.756q-.1-.533-.195-.987c-.059-.293-.112-.561-.162-.8s-.1-.461-.137-.641c-.05-.231-.1-.491-.157-.778-.126-.669-.257-1.483-.392-2.385-.048-.322-.1-.655-.145-1-.038-.266-.075-.537-.113-.812-.064-.47-.129-.953-.193-1.442-.114-.873-.226-1.765-.333-2.646-.041-.336-.082-.671-.121-1q-.048-.411-.1-.814c-.058-.5-.115-.983-.168-1.449-.316-2.757-.532-4.836-.532-4.836l-1.4.853s-3.235,2.354-3.984,5.676a72.11,72.11,0,0,1,2.976,7.688c1.643,5.368,3.081,12.673,3.152,13,.24,1.154.889,4.033,1.123,5.214.1.478.189.955.282,1.426q.078.405.156.8c.065.333.128.663.191.989C52.241,155.491,51.254,157.92,51.254,157.92Z" fill="#383453"/>
                            <path id="Path_54086" data-name="Path 54086" d="M50.373,127.727s-2.166-8.936-2.431-9.974a5.082,5.082,0,0,1,.374-2.574l0-.009a3.5,3.5,0,0,0-1.306,1.577,3.065,3.065,0,0,0,.142.922C47.805,120.365,50.373,127.727,50.373,127.727Z" fill="#171338"/>
                            <path id="Path_54087" data-name="Path 54087" d="M51.079,156.929l4.486-.7.167,1.109-4.534.666Z" fill="#ece2e3"/>
                            <path id="Path_54088" data-name="Path 54088" d="M57.555,126.827s1.542-8.95,1.877-9.8,1.816-1.644,2.3-3.226.416-2.695-.354-3.107-4.923,1.507-4.923,1.507-.353.5.6,1.83a1.693,1.693,0,0,1,.279,1.338,11.576,11.576,0,0,0-.4,4.205c.007.2.013.388.022.624A48.806,48.806,0,0,0,57.555,126.827Z" fill="#171338"/>
                            <path id="Path_54089" data-name="Path 54089" d="M50.372,127.726s-2.31-8.783-2.558-9.749a3,3,0,0,1,.5-2.8l0-.009h0A23.564,23.564,0,0,1,50.4,113.4c.68-.5.13.419.13.419v0c.078-.05.159-.1.244-.147l.021.066a16.526,16.526,0,0,1-.089,2.776C50.393,117.429,50.372,127.726,50.372,127.726Z" fill="#171338"/>
                            <path id="Path_54090" data-name="Path 54090" d="M65.609,152.909l10.523-5.169.673,2.2-10.58,4.384Z" fill="#ece2e3"/>
                          </g>
                        </g>
                        <path id="Path_53128" data-name="Path 53128" d="M71.312,137.147s-4.021-13.376,2.061-8.939a12.2,12.2,0,0,1,2.586,3.378c.308,1.006,2.937,13.239,1.138,13.759-2.875,1.983-2.656-.3-3.861-3.368S71.312,137.147,71.312,137.147Z" fill="#ece2e3"/>
                        <path id="Path_53308" data-name="Path 53308" d="M74.492,145.508a4.664,4.664,0,0,0-.384,2.6,8.035,8.035,0,0,1-.059,2.353c-.061.231.346.561.828.262s.517-3.13.8-.238c.077.776.264,2.334.331,2.993a.333.333,0,0,0,.566.179,1.312,1.312,0,0,0,.273-.445c.126-.31-.044-.016.7-.487.376-.238.376-.238.566-.728a14.3,14.3,0,0,0,.771-3.743,5.536,5.536,0,0,0-1.487-3.52c-.576-.3-2.586.333-2.586.333" fill="#feb59b"/>
                      </g>
                      <path id="Path_54094" data-name="Path 54094" d="M68.172,119.526a9.6,9.6,0,0,0,3.122-2c.091.15.679,1.271.679,1.271s-1.729,1.685-3.116,1.791A11.664,11.664,0,0,1,68.172,119.526Z" fill="#383453"/>
                    </g>
                  </g>
                  <g id="Group_24325" data-name="Group 24325">
                    <path id="Path_53256" data-name="Path 53256" d="M54.557,100.478" fill="none" stroke="#707070" stroke-width="0.198"/>
                    <g id="Group_24311" data-name="Group 24311">
                      <path id="Path_53079" data-name="Path 53079" d="M54.074,113.176a3.856,3.856,0,0,1,2.645-.407c.949.239,1.447,1.055,1.342,1.48-.217.737-.859,1.492-4.313,2.6-1.98.567-2.956.046-3.043-.337C50.193,115.536,51.572,114.409,54.074,113.176Z" fill="#e69578"/>
                      <path id="Path_53080" data-name="Path 53080" d="M52.475,109.169l2.654-.813s.144,3.549,1.057,4.588c.208.785-2.174,1.824-2.174,1.824ZM51.9,114.56a15.868,15.868,0,0,0-2.058-4.521l2.635-.871,2.978,4.5-.431.717-2.539.4Z" fill="#e69578"/>
                    </g>
                  </g>
                </g>
              </g>
              <g id="Group_22741" data-name="Group 22741">
                <g id="Group_24310" data-name="Group 24310">
                  <g id="Group_23917" data-name="Group 23917">
                    <g id="Group_23907" data-name="Group 23907">
                      <path id="Path_54363" data-name="Path 54363" d="M36.254,102.434c-.528-.7-.977-1.552-2.4-1.106s-1.842,3-.528,4.1,3.805,2.281,3.728,1.055-.277-3.346-.8-4.048" fill="#feb59b"/>
                    </g>
                    <path id="Path_54367" data-name="Path 54367" d="M35.261,104A12.552,12.552,0,0,0,51.4,111.4l-.027.01a12.551,12.551,0,0,0,7.392-16.138l-1.616-4.347c-2.415-6.5-9.3-8.886-15.795-6.471l.027-.01c-6.5,2.415-10.149,8.72-7.734,15.217Z" fill="#feb59b"/>
                    <g id="Group_23915" data-name="Group 23915">
                      <path id="Path_54383" data-name="Path 54383" d="M56.692,94.579c-.078-.875-.314-1.807,1.037-2.425s3.377.992,3.138,2.69-1.3,4.242-2.062,3.28-2.035-2.67-2.113-3.546" fill="#feb59b"/>
                    </g>
                  </g>
                  <path id="Path_54390" data-name="Path 54390" d="M47.345,100.738" fill="none" stroke="#707070" stroke-width="0.198"/>
                </g>
                <g id="Component_5_21" data-name="Component 5 21">
                  <g id="Group_22740" data-name="Group 22740">
                    <path id="Path_52604" data-name="Path 52604" d="M35.063,92.465a8.361,8.361,0,0,1,.612,2.671,4.059,4.059,0,0,1-.248,2.378l-.38-.267a1.366,1.366,0,0,0-.5-.563l.6.471c.125.3-.1.77-.093,1.685a7.143,7.143,0,0,0,.317,1.888c.061.257.995,2.741.995,2.741A12.786,12.786,0,0,1,31.634,98.1a20.349,20.349,0,0,1-2.178-8.079l.613-.077S45.72,76.083,35.063,92.465Z" fill="#5b2c12"/>
                    <path id="Path_52600" data-name="Path 52600" d="M29.807,88.345c2.648,1.8,9.351,6.088,14.722,3.395s6.049-5.195,6.049-5.195a8.362,8.362,0,0,0,1.59,2.232A27,27,0,0,0,54.2,90.763l-.24-1.008c-.166-.339-.093-.385-.093-.385l.093.385a10.578,10.578,0,0,0,1.179,1.709c1.53,1.931.717.828,1.006,1.08s1.589,2.133,1.589,2.133-.486-4.491-1.092-7.339S56,83.477,54.755,82.011a2.5,2.5,0,0,0-2.747-.876s-4.479-3.833-9.377-3.363c-4.447.426-9.034,1.417-9.706,1.534a20.582,20.582,0,0,1,2.211.522s-2.867.82-4.633,1.473a5.66,5.66,0,0,1-3.046.339,9.038,9.038,0,0,0,2.434,1.572q.69.174,1.363.416l-4.208.207A6.208,6.208,0,0,0,29.807,88.345Z" fill="#5b2c12"/>
                    <path id="Path_52601" data-name="Path 52601" d="M29.807,88.345a31.55,31.55,0,0,0,4.972,2.835c2.763.559,4.631.3,4.416.135-.267-.2-3.1-1.589-3.1-1.589a17.87,17.87,0,0,0,4.017-.2A35.342,35.342,0,0,0,44.2,88.2s-1.065-.209-2.995-.673a7.4,7.4,0,0,1-2.854-1.239,14.2,14.2,0,0,0,5.738-1.477,7.3,7.3,0,0,1,4.26-1.133,17.419,17.419,0,0,0-3.008-.9,8.549,8.549,0,0,0-3.294-.354,9.219,9.219,0,0,1,3.268-1.376,3.328,3.328,0,0,1,1.536.208c-.244-.139-3.055-1.723-4.171-2.142a7.212,7.212,0,0,0-2.77-.27l3.688-.831-.64-.267c-.108.007-.217.014-.326.024-4.45.427-9.042,1.42-9.707,1.535a20.422,20.422,0,0,1,2.212.522s-2.867.82-4.632,1.472a5.656,5.656,0,0,1-3.046.34,9.063,9.063,0,0,0,2.434,1.572,13.982,13.982,0,0,1,1.363.416l-4.207.207A6.208,6.208,0,0,0,29.807,88.345Z" fill="#5b2c12"/>
                    <path id="Path_52602" data-name="Path 52602" d="M35.614,86.03a39.882,39.882,0,0,0,4.351-2.5s-7.505,2.82-10.415,2.109a4.968,4.968,0,0,1-2.492-1.657,6.268,6.268,0,0,0,2.748,4.367,31.708,31.708,0,0,0,4.972,2.835c2.763.559,4.632.3,4.416.135-.267-.2-3.1-1.589-3.1-1.589a17.862,17.862,0,0,0,4.016-.2A35.342,35.342,0,0,0,44.2,88.2s-.28-.055-.812-.171c-3.453,1.222-10.295-1.053-10.575-1.166S33.851,86.822,35.614,86.03Z" fill="#5b2c12"/>
                  </g>
                </g>
              </g>
              <path id="Path_86441" data-name="Path 86441" d="M41.9,122s1.908,2.646,3.63,3.3L43.2,143.118S28.937,153.291,41.9,122Z" fill="#eae0e1"/>
              <path id="Path_86442" data-name="Path 86442" d="M43.523,117.1c.241-.428,1.583-6.686,2.252-6.317s-.176,5.191-.176,5.191,3.841-.5,4.453.885c.4.9-1.956,6.794-2.361,7.127a11.956,11.956,0,0,1-3.825,1.938c-1.151.14-2.986-1.141-2.56-2.693A28.988,28.988,0,0,1,43.523,117.1Z" fill="#fcb399"/>
            </g>
            <path id="Path_86444" data-name="Path 86444" d="M49.659,118.691s.858-.4,1.3.117-1.814,2.507-2.225,2.974S49.659,118.691,49.659,118.691Z" fill="#fcb399"/>
          </g>
          <g id="Chat_Icon" data-name="Chat Icon" transform="translate(643.756 655.66)">
            <rect id="bound" width="149" height="149" transform="translate(0.244 0.34)" fill="none"/>
            <g id="Group_10016" data-name="Group 10016" transform="translate(20.069 18.932)">
              <path id="Path_13800" data-name="Path 13800" d="M89.489,23.836H23.112m66.377,17.82H23.112M59.781,59.479H23.112M67.727,85.1h34.351A10.554,10.554,0,0,0,112.6,74.581V10.523A10.554,10.554,0,0,0,102.078,0H10.519A10.551,10.551,0,0,0,0,10.523V74.581A10.55,10.55,0,0,0,10.519,85.1H25.144V116.15L53.029,85.1Z" transform="translate(0 0)" fill="url(#linear-gradient-8)"/>
              <line id="Line_170" data-name="Line 170" x2="53.711" transform="translate(29.096 21.948)" fill="none" stroke="#fff" stroke-linecap="round" stroke-width="7"/>
              <line id="Line_171" data-name="Line 171" x2="53.711" transform="translate(29.096 40.871)" fill="none" stroke="#fff" stroke-linecap="round" stroke-width="7"/>
              <line id="Line_172" data-name="Line 172" x2="37.88" transform="translate(29.096 59.794)" fill="none" stroke="#fff" stroke-linecap="round" stroke-width="7"/>
            </g>
          </g>
        </g>
      </g>
      <g id="Group_22371" data-name="Group 22371" transform="matrix(0.819, 0.574, -0.574, 0.819, 276.383, 1001.666)">
        <g id="Group_22715" data-name="Group 22715">
          <g id="Group_22714" data-name="Group 22714" clip-path="url(#clip-path)">
            <g id="Group_21911" data-name="Group 21911">
              <g id="Group_22705" data-name="Group 22705">
                <g id="Group_22704" data-name="Group 22704" clip-path="url(#clip-path-2)">
                  <g id="Group_21900" data-name="Group 21900">
                    <g id="Group_22703" data-name="Group 22703">
                      <g id="Group_22702" data-name="Group 22702" clip-path="url(#clip-path-3)">
                        <g id="Group_21899" data-name="Group 21899">
                          <g id="Group_21897" data-name="Group 21897" opacity="0">
                            <g id="Group_21896" data-name="Group 21896">
                              <path id="Path_47014" data-name="Path 47014" d="M26.551,68.163l11.409,5.8L30.813,88.024l-11.4-5.794Z" stroke="rgba(0,0,0,0)" stroke-linecap="round" stroke-width="1" fill="url(#linear-gradient)"/>
                            </g>
                          </g>
                          <g id="Group_21898" data-name="Group 21898">
                            <path id="Path_47015" data-name="Path 47015" d="M26.551,68.162l11.409,5.8L30.814,88.024l-11.4-5.8Z" stroke="rgba(0,0,0,0)" stroke-linecap="round" stroke-width="1" fill="url(#linear-gradient)"/>
                          </g>
                        </g>
                      </g>
                    </g>
                  </g>
                </g>
              </g>
              <g id="Group_22709" data-name="Group 22709">
                <g id="Group_22708" data-name="Group 22708" clip-path="url(#clip-path-4)">
                  <g id="Group_21905" data-name="Group 21905">
                    <g id="Group_22707" data-name="Group 22707">
                      <g id="Group_22706" data-name="Group 22706" clip-path="url(#clip-path-5)">
                        <g id="Group_21904" data-name="Group 21904">
                          <g id="Group_21902" data-name="Group 21902" opacity="0">
                            <g id="Group_21901" data-name="Group 21901">
                              <path id="Path_47018" data-name="Path 47018" d="M26.562,68.161l11.4,5.8L30.811,88.014l-11.4-5.8Z" stroke="rgba(0,0,0,0)" stroke-linecap="round" stroke-width="1" fill="url(#linear-gradient)"/>
                            </g>
                          </g>
                          <g id="Group_21903" data-name="Group 21903">
                            <path id="Path_47019" data-name="Path 47019" d="M26.563,68.162l11.4,5.8L30.811,88.016l-11.4-5.8Z" stroke="rgba(0,0,0,0)" stroke-linecap="round" stroke-width="1" fill="url(#linear-gradient)"/>
                          </g>
                        </g>
                      </g>
                    </g>
                  </g>
                </g>
              </g>
              <g id="Group_22713" data-name="Group 22713">
                <g id="Group_22712" data-name="Group 22712" clip-path="url(#clip-path-6)">
                  <g id="Group_21910" data-name="Group 21910">
                    <g id="Group_22711" data-name="Group 22711">
                      <g id="Group_22710" data-name="Group 22710" clip-path="url(#clip-path-5)">
                        <g id="Group_21909" data-name="Group 21909">
                          <g id="Group_21907" data-name="Group 21907" opacity="0">
                            <g id="Group_21906" data-name="Group 21906">
                              <path id="Path_47022" data-name="Path 47022" d="M26.561,68.161l11.4,5.8L30.811,88.014l-11.4-5.8Z" stroke="rgba(0,0,0,0)" stroke-linecap="round" stroke-width="1" fill="url(#linear-gradient)"/>
                            </g>
                          </g>
                          <g id="Group_21908" data-name="Group 21908">
                            <path id="Path_47023" data-name="Path 47023" d="M26.562,68.161l11.4,5.8L30.812,88.015l-11.4-5.8Z" stroke="rgba(0,0,0,0)" stroke-linecap="round" stroke-width="1" fill="url(#linear-gradient)"/>
                          </g>
                        </g>
                      </g>
                    </g>
                  </g>
                </g>
              </g>
            </g>
          </g>
        </g>
      </g>
    </g>
    <rect id="Rectangle_4941" data-name="Rectangle 4941" width="260" height="260" transform="translate(184 986)" fill="none"/>
  </g>
</svg>
