<svg xmlns="http://www.w3.org/2000/svg" width="30" height="30" viewBox="0 0 30 30"><defs><style>.a{fill:none;}.b{fill:#fff;}</style></defs><rect class="a" width="30" height="30"/><path class="b" d="M44.106,39.8l-2.324-3.145a5.494,5.494,0,0,1,0-7.772h0l2.324-3.143a3.045,3.045,0,0,0-4.3-4.307l-3.144,2.325a5.5,5.5,0,0,1-7.77,0l-3.144-2.325a3.045,3.045,0,0,0-4.3,4.307l3.144,3.143a5.5,5.5,0,0,1,0,7.772L21.438,39.8A3.046,3.046,0,0,0,23.591,45a3.067,3.067,0,0,0,2.153-.893l3.144-3.143a5.49,5.49,0,0,1,7.772,0l3.144,3.143a3.043,3.043,0,1,0,4.3-4.306Z" transform="translate(-17.774 -17.774)"/></svg>