<svg xmlns="http://www.w3.org/2000/svg" width="48" height="48" viewBox="0 0 48 48"><path d="M340.311,76H323.089C309.767,76,307.7,78.51,307.7,94.682v7.847c0,19.017,2.067,21.471,17.686,21.471h12.629c15.618,0,17.686-2.454,17.686-21.471V94.682C355.7,78.51,353.633,76,340.311,76Z" transform="translate(-307.7 -76)" fill="#f2f2f2"/><g transform="translate(10.097 9.165)"><g transform="translate(0 0)"><path d="M74.673,334.025a28.356,28.356,0,0,0-1.355-7.941,94.917,94.917,0,0,0-9.82,1.163,32.247,32.247,0,0,0-.954,6.777Z" transform="translate(-53.929 -303.44)" fill="#1a1818"/><path d="M35.838,247.653c-.222-.944-.781-2.783-2.331-2.887a2.652,2.652,0,0,0-2.831,3.22c.5,1.832,2.609,1.832,3.775,1.832Z" transform="translate(-30.585 -244.04)" fill="#282628"/><path d="M116.763,247.721a3.631,3.631,0,0,0,3.034-2.137c.674-2.077-1.166-3.415-3.027-3.037s-2,2.482-2.076,3.646Z" transform="translate(-92.022 -242.376)" fill="#282628"/><path d="M45.171,242.092a12.533,12.533,0,0,0-9.6,3.831c-2.554,2.609-3.664,7.439-3.886,10.215-.2,2.555.888,7.939,5.385,9.493s13.99,2,18.432-.777,4.518-6.729,3.886-10.881C58.606,248.865,56.773,242.369,45.171,242.092Z" transform="translate(-31.368 -242.087)" fill="#fff"/><path d="M80.255,292.1c-.091-.74-1.271-.777-1.951-.777s-1.861.037-1.951.777c-.084.68.422,1.1.93,1.416a2.017,2.017,0,0,0,2.042,0C79.832,293.2,80.337,292.784,80.255,292.1Z" transform="translate(-64.009 -278.054)" fill="#1a1818"/><path d="M52.349,272.724a2.589,2.589,0,0,0-1.626-.332,20.462,20.462,0,0,0-2.535,1.323,5.372,5.372,0,0,0-2.335,1.6,2.938,2.938,0,0,0-.2,2.974,2.527,2.527,0,0,0,3.3,1c1.531-.652,2.09-1.785,2.992-2.642.523-.5,1.3-1.142,1.293-2.033A1.961,1.961,0,0,0,52.349,272.724Z" transform="translate(-41.364 -264.211)" fill="#282628"/><path d="M96.382,272.934a2.3,2.3,0,0,0-1.032,1.552c-.074,1.433.9,1.8,1.5,3.238.271.648.754,2.08,2.275,2.3A2.5,2.5,0,0,0,101.886,278a3.283,3.283,0,0,0-1.2-2.681c-.509-.537-1.346-1.467-1.72-1.924A2.141,2.141,0,0,0,96.382,272.934Z" transform="translate(-77.889 -264.438)" fill="#282628"/><g transform="translate(14.075 15.433)"><path d="M83.158,303.275a.135.135,0,0,1-.13-.1,10.689,10.689,0,0,1-.219-2.735c0-.322,0-.646-.009-.963a.135.135,0,0,1,.132-.138.139.139,0,0,1,.138.132c.008.319.008.645.009.969a10.523,10.523,0,0,0,.208,2.661.135.135,0,0,1-.092.167A.127.127,0,0,1,83.158,303.275Z" transform="translate(-82.801 -299.341)" fill="#1a1818"/></g><g transform="translate(12.039 18.672)"><path d="M77.928,312.328A4.471,4.471,0,0,1,75.3,311.6a.135.135,0,1,1,.167-.212,4.763,4.763,0,0,0,4.767.085.135.135,0,1,1,.145.228A4.621,4.621,0,0,1,77.928,312.328Z" transform="translate(-75.249 -311.355)" fill="#1a1818"/></g><path d="M64.484,280.168a.787.787,0,1,1-.786-.787A.787.787,0,0,1,64.484,280.168Z" transform="translate(-54.197 -269.328)" fill="#d1d2d4"/><path d="M102.447,280.168a.787.787,0,1,1-.786-.787A.786.786,0,0,1,102.447,280.168Z" transform="translate(-81.926 -269.328)" fill="#d1d2d4"/><path d="M65.534,281c0,.323-.2.585-.44.585s-.441-.262-.441-.585.2-.584.441-.584S65.534,280.677,65.534,281Z" transform="translate(-55.47 -270.083)" fill="#1a1818"/><path d="M102.692,281c0,.323-.2.585-.441.585s-.44-.262-.44-.585.2-.584.44-.584S102.692,280.677,102.692,281Z" transform="translate(-82.612 -270.083)" fill="#1a1818"/></g><path d="M85.848,294.343c.331-.389-.529-.478-.58-.2S85.645,294.581,85.848,294.343Z" transform="translate(-70.525 -279.992)" fill="#d4d3d2"/></g></svg>