<svg xmlns="http://www.w3.org/2000/svg" width="74" height="60.002" viewBox="0 0 74 60.002"><g transform="translate(-2154 -665.998)"><rect width="74" height="60" transform="translate(2154 666)" fill="none"/><g transform="translate(0 -12.003)"><g transform="translate(1878.649 41.813)"><g transform="translate(275.352 636.895)"><path d="M470,5.4s1.9-5.716,7.2-5.43a8.079,8.079,0,0,1,7.352,8.989c-.7,4.157-7.093,10.418-6.209,14.575.909,4.157,8.5,8.5,7.092,14.055-1.377,5.56-7.638,11.379-7.638,11.379S467.865,43.461,470,36.836s-3.2-8.21-3.2-14.081S470,5.4,470,5.4Z" transform="translate(-445.869 0.04)" fill="#202a54"/><path d="M4404.56,3811l-7.7.006s.072-8.248,1.637-11.224,7.417,2.305,7.417,2.305Z" transform="translate(-4396.864 -3751.84)" fill="#f9b68b"/><path d="M344.361,122.9a25.6,25.6,0,0,0-8.134,3.689c-3.582,2.622-6.49,14.744-6.49,14.744l8.047,2.4,5.585-4.726Z" transform="translate(-328.855 -92.604)" fill="#00669d"/><path d="M416.352,127.374c0-3.353-1.2-6.343-2.988-7.356a17.261,17.261,0,0,0-4.695-1.171l-2.21-.047-2.21.047a16.784,16.784,0,0,0-4.695,1.171c-1.8,1.012-2.987,3.986-2.987,7.356,0,1.993-1.067,18.9-1.067,18.9h21.9C417.419,146.277,416.352,129.367,416.352,127.374Z" transform="translate(-385.557 -89.129)" fill="#00669d"/><path d="M460.292,101.081V94.3l-7.326,1.091v5.69s-.416,1.507,3.663,1.507S460.292,101.081,460.292,101.081Z" transform="translate(-435.62 -70.237)" fill="#f39f85"/><path d="M437.673,32.13s-.6,15.094,7.638,15.094,8.236-15.8,8.236-15.8L451.1,27.168l-9.041-.468Z" transform="translate(-424.302 -19.753)" fill="#f7b58e"/><path d="M437.455,15.49s-9.3,7.2-14.237,1.845c-4.936-5.326,2.936-12.522,10.5-7.872,4.78-3.222,7.508-1.871,8.469.909,1.065,3.066-.208,7.82-.208,7.82S440,19.309,437.455,15.49Z" transform="translate(-412.471 -5.608)" fill="#212b53"/><path d="M494.568,60.636c-.364,1.273-1.351,2.156-2.234,2.026-.857-.156-1.273-1.3-.909-2.572s1.351-2.156,2.234-2.026C494.516,58.22,494.931,59.363,494.568,60.636Z" transform="translate(-463.998 -43.216)" fill="#f7b58e"/><path d="M430.224,60.636c.364,1.273,1.351,2.156,2.234,2.026.857-.156,1.273-1.3.909-2.572s-1.351-2.156-2.234-2.026C430.276,58.22,429.86,59.363,430.224,60.636Z" transform="translate(-418.698 -43.216)" fill="#f7b58e"/><path d="M393.9,292.5l-.3,2.012h22.468l-.259-2.012Z" transform="translate(-383.947 -235.352)" fill="#ffde00"/><path d="M4398.146,3811l7.261.006s-.068-8.248-1.544-11.224-7,2.305-7,2.305Z" transform="translate(-4364.353 -3751.84)" fill="#f9b68b"/><path d="M329.737,122.9a25.6,25.6,0,0,1,8.134,3.689c3.582,2.622,6.489,14.744,6.489,14.744l-8.047,2.4-5.585-4.726Z" transform="translate(-303.855 -92.604)" fill="#00669d"/></g><g transform="translate(305.372 636.188)"><g transform="translate(16.699 27.917)"><path d="M1316.269,183.963v12.2h-.994v1.876h-8.709v-1.876h-1V183.923l.66-.388.338-.2v-4.311h8.709v4.311l.327.207S1316.265,183.959,1316.269,183.963Z" transform="translate(-1305.567 -179.024)" fill="#f59f82"/><path d="M1316.335,179.928l0,3.875-8.711-1.089v-2.787Z" transform="translate(-1306.63 -179.491)" fill="#f6ccb8" style="mix-blend-mode:multiply;isolation:isolate"/></g><path d="M1315.183,206.164c-2.944,5.376-7.914,3.941-7.947,3.9v6.395H1279.81v-6.395a7.274,7.274,0,0,1-7.94-3.9,45.057,45.057,0,0,1,3.469-10.219c1.6-3.476,5.759-4.34,12.135-6.554.229-.08.461-.16.7-.243,0,.007,0,.015,0,.022.454,2.547,1.009,5.922,5.353,5.922s4.9-3.36,5.345-5.908c0-.011,0-.025.007-.036.232.084.464.164.693.243,6.372,2.214,10.542,3.073,12.135,6.554A45.415,45.415,0,0,1,1315.183,206.164Z" transform="translate(-1271.475 -156.635)" fill="#ff5f00"/><path d="M1316.218,188.978a15.829,15.829,0,0,1-.7,2.848,5.791,5.791,0,0,1-10.7,0,16.124,16.124,0,0,1-.7-2.852c.228-.08.461-.16.7-.243,0,.007,0,.015,0,.022v-.022l.66-.388.065.356c.544,3.073,1.2,5.251,4.623,5.251s4.083-2.181,4.624-5.258l.061-.341.664.417c0-.011,0-.025.007-.036C1315.758,188.819,1315.99,188.9,1316.218,188.978Z" transform="translate(-1288.121 -155.856)" fill="#af4000"/><path d="M1315.6,238.813h-27.426v-6.426H1315.6S1315.548,233.653,1315.6,238.813Z" transform="translate(-1279.838 -178.953)" fill="#af4000"/><g transform="translate(0 50.426)"><path d="M1271.131,235.743a83.324,83.324,0,0,1,1.049-9.574,8.86,8.86,0,0,0,7.283,3.008c-1.549,5.7-.91,6.446-.91,6.446Z" transform="translate(-1271.131 -226.169)" fill="#f6ccb8"/><path d="M1347.125,235.6H1341.2s-1.449-4.35-2.011-6.417a8.861,8.861,0,0,0,7.283-3A57.735,57.735,0,0,1,1347.125,235.6Z" transform="translate(-1303.42 -226.173)" fill="#f6ccb8"/></g><path d="M1314.774,141.623l.3-3.832c0-5.011-4.79-9.072-9.8-9.072s-9.8,4.061-9.8,9.072l.294,3.829a1.773,1.773,0,0,0-.744.377,1.807,1.807,0,0,0-.639,1.382v1.887a1.812,1.812,0,0,0,1.8,1.813c0,4.732,5.686,9.218,9.083,9.218s9.083-4.485,9.083-9.218a1.813,1.813,0,0,0,1.8-1.813V143.38A1.811,1.811,0,0,0,1314.774,141.623Z" transform="translate(-1283.096 -124.498)" fill="#f9b68b"/><path d="M1311.8,174.827h4.745a.165.165,0,0,1,.114.286,4.482,4.482,0,0,1-4.974,0A.165.165,0,0,1,1311.8,174.827Z" transform="translate(-1292.001 -148.716)" fill="#f4af76"/><path d="M1313.119,121.773c3.338,2.282,4.165,3.588,5.608,2.52a.724.724,0,0,1,1.17.427c.989,7.858-8.627,10.971-17.75,4.465C1297.867,126.133,1304.555,115.918,1313.119,121.773Z" transform="translate(-1286.416 -119.994)" fill="#202a54"/><path d="M1304.206,124.768c-14.635-1.955-11.627,14.681-10.65,17.8a5.7,5.7,0,0,0,.945,1.452c.3.557-.788,11.225,9.705,11.225s9.407-10.668,9.7-11.225a5.7,5.7,0,0,0,.945-1.452C1315.832,139.449,1317.96,126.606,1304.206,124.768Zm8.522,18.944a5.319,5.319,0,0,1-1.771,3.733,1.567,1.567,0,0,1-1.556.172,19.573,19.573,0,0,0-10.39,0,1.567,1.567,0,0,1-1.556-.172,5.319,5.319,0,0,1-1.771-3.733s-1.445-5.213-.358-9.042a4.037,4.037,0,0,1,4.774-2.485,18.326,18.326,0,0,0,8.212,0,4.038,4.038,0,0,1,4.774,2.485C1314.173,138.5,1312.728,143.712,1312.728,143.712Z" transform="translate(-1282.188 -122.376)" fill="#202a54"/><g transform="translate(18.729 25.956)"><path d="M1316.294,174.512c0,1-1.462,1.814-3.266,1.814s-3.266-.812-3.266-1.814Z" transform="translate(-1309.762 -174.512)" fill="#fbb787"/></g></g></g><path d="M333.307,186.184a3.485,3.485,0,0,0,2.162-.04.321.321,0,0,1,.418.369,1.694,1.694,0,0,1-.628.956,1.565,1.565,0,0,1-1.624.12,1.76,1.76,0,0,1-.747-1A.335.335,0,0,1,333.307,186.184Z" transform="translate(1840.123 515.414)" fill="#f4e4eb"/></g></g></svg>