<svg xmlns="http://www.w3.org/2000/svg" xmlns:xlink="http://www.w3.org/1999/xlink" width="50" height="50" viewBox="0 0 50 50"><defs><clipPath id="a"><path d="M30.237-48.968c-.284-.35-6.661-8.332-14.775-8.332S.971-49.318.687-48.968a1.06,1.06,0,0,0,0,1.336c.284.35,6.661,8.332,14.775,8.332s14.491-8.014,14.775-8.332A1.153,1.153,0,0,0,30.237-48.968ZM15.462-42.321A5.95,5.95,0,0,1,9.527-48.3a5.95,5.95,0,0,1,5.935-5.979A5.95,5.95,0,0,1,21.4-48.3,5.95,5.95,0,0,1,15.462-42.321Z" transform="translate(-0.45 57.3)" fill="#8e8e8e"/></clipPath><clipPath id="b"><path d="M40.237-33.127a3.637,3.637,0,0,0,3.637-3.637A3.637,3.637,0,0,0,40.237-40.4,3.637,3.637,0,0,0,36.6-36.763,3.637,3.637,0,0,0,40.237-33.127Z" transform="translate(-36.6 40.4)" fill="#8e8e8e"/></clipPath></defs><g transform="translate(-700 -530)"><g transform="translate(699.757 530)"><rect width="50" height="50" transform="translate(0.243)" fill="none"/></g><g transform="translate(710.356 546)"><g clip-path="url(#a)"><path d="M-4.55-62.3H28.607v21.18H-4.55Z" transform="translate(2.971 60.71)" fill="#8e8e8e"/></g><g transform="translate(11.375 5.363)" clip-path="url(#b)"><path d="M31.6-45.4H42.063v10.463H31.6Z" transform="translate(-33.195 43.805)" fill="#8e8e8e"/></g></g></g></svg>