<svg xmlns="http://www.w3.org/2000/svg" width="48" height="48" viewBox="0 0 48 48"><path d="M340.311,76H323.089C309.767,76,307.7,78.51,307.7,94.682v7.847c0,19.017,2.067,21.471,17.686,21.471h12.629c15.618,0,17.686-2.454,17.686-21.471V94.682C355.7,78.51,353.633,76,340.311,76Z" transform="translate(-307.7 -76)" fill="#f2f2f2"/><g transform="translate(16.275 2.985) rotate(11)"><path d="M4.007,11.1a7.059,7.059,0,0,1,1.139-.2A32.026,32.026,0,0,0,2.123,2.447C1.65,1.575.723-.148.271.014-.279.2.2,3.033.278,3.539a23.99,23.99,0,0,0,2.845,7.844,1.325,1.325,0,0,0,.157-.061A5.83,5.83,0,0,1,4.007,11.1Z" transform="translate(6.413 2.27)" fill="#2c858d"/><path d="M8.846,7.332c.08,0,.161-.02.241-.02A12.215,12.215,0,0,0,3.723,1.125C2.233.343.22-.26.019.12-.161.44,1.088,1.342,2.64,2.744A40.211,40.211,0,0,1,7.257,7.65a2.949,2.949,0,0,1,.4-.1A5.906,5.906,0,0,1,8.846,7.332Z" transform="translate(2.797 3.859)" fill="#add8cf"/><path d="M1.262,11.1a7.172,7.172,0,0,1,1.149-.2,26.221,26.221,0,0,1,.707-6.756C3.659,1.931,4.4.288,4.026.064,3.6-.2,1.886,1.564.974,3.531a11.463,11.463,0,0,0-.452,7.812c.019,0,.039-.02.058-.02A3.843,3.843,0,0,1,1.262,11.1Z" transform="translate(9.257 2.287)" fill="#1c7377"/><path d="M1.953,9.864a8.9,8.9,0,0,1,1.036-.039h.12A44.641,44.641,0,0,1,5.35,4.362C6.62,1.7,7.574.371,7.275.109c-.379-.323-2.608,1.308-4.2,3.3A14.992,14.992,0,0,0,.1,10.265c.219-.08.458-.141.677-.2A7.529,7.529,0,0,1,1.953,9.864Z" transform="translate(9.782 3.276)" fill="#add8cf"/><path d="M9.984,5.135a2.386,2.386,0,0,1,.364-.079A10.915,10.915,0,0,0,6.966,1.7C3.91-.184.19-.228.009.307c-.121.376,1.68.953,4.473,2.919A29.384,29.384,0,0,1,7.823,5.965a7.3,7.3,0,0,1,1.454-.632A7.32,7.32,0,0,1,9.984,5.135Z" transform="translate(0.484 6.029)" fill="#1c7377"/><path d="M16.916,9.955c.2,1.049.322,1.957.4,2.643.041.444.061.787.082.968v.081c.021.383.041.767.062,1.17,0,.141.021.3.021.444a14.055,14.055,0,0,1-.311,3.833,6.859,6.859,0,0,1-.2.686,7.421,7.421,0,0,1-1.906,3.1,8,8,0,0,1-1.69,1.249,10.555,10.555,0,0,1-.955.463,8.076,8.076,0,0,1-2.846.6,9.061,9.061,0,0,1-1.036-.041,6.854,6.854,0,0,1-1.414-.324,6.521,6.521,0,0,1-2.412-1.475,6.187,6.187,0,0,1-.5-.525,11.307,11.307,0,0,1-1.838-3.089c-.28-.646-.52-1.292-.74-1.9-.04-.1-.08-.2-.12-.323a27.9,27.9,0,0,1-1.1-4.379c-.04-.222-.081-.444-.1-.686-.02-.2-.041-.4-.081-.605-.04-.282-.061-.565-.081-.847A15.148,15.148,0,0,1,.52,6a8.142,8.142,0,0,1,.317-.988A7.549,7.549,0,0,1,2.862,2.031a4.361,4.361,0,0,1,.358-.282c.06-.04.1-.081.159-.121A8.042,8.042,0,0,1,5.527.521a7.437,7.437,0,0,1,.716-.2,7.517,7.517,0,0,1,1.175-.2A8.882,8.882,0,0,1,8.454.08a7.539,7.539,0,0,1,1.773.264A3.875,3.875,0,0,1,10.9.587a2.2,2.2,0,0,1,.379.182,7.384,7.384,0,0,1,2.034,1.455,10.563,10.563,0,0,1,.958,1.131c.12.162.22.323.32.485.06.1.14.2.2.323a15.763,15.763,0,0,1,1.54,3.593c.08.242.14.484.2.727.08.3.16.605.221.908A3.009,3.009,0,0,1,16.916,9.955Z" transform="translate(4.114 11.703)" fill="#ffcd62"/><path d="M16.811,9.961c-.04-.182-.08-.363-.121-.565-.6.847-1.211,1.693-1.827,2.52-1.355-.405-2.71-.871-4.045-1.417-.2-.081-.418-.182-.618-.263.834-1.028,1.629-2.076,2.423-3.145,1.275.486,2.57.951,3.865,1.376-.06-.242-.14-.484-.2-.727-1.076-.4-2.152-.83-3.208-1.254.576-.766,1.132-1.552,1.668-2.339a2.843,2.843,0,0,0-.2-.323L12.643,6.3c-.638-.263-1.255-.526-1.873-.789Q9.693,5.06,8.677,4.545c.675-.907,1.33-1.855,1.946-2.782,1.2.566,2.392,1.112,3.607,1.6a7.359,7.359,0,0,0-.958-1.131c-.777-.324-1.554-.647-2.332-.991.1-.161.2-.323.3-.464-.12-.061-.259-.121-.379-.182-.1.161-.218.3-.318.464C9.824.733,9.127.409,8.409.086A5.926,5.926,0,0,0,7.374.125c.917.485,1.854.97,2.81,1.436-.675.927-1.35,1.835-2.065,2.722C6.863,3.655,5.627,2.968,4.411,2.26,5.027,1.615,5.624.99,6.22.325c-.239.06-.478.121-.716.2-.5.5-1.014.988-1.51,1.491a5.169,5.169,0,0,1-.658-.384,1.1,1.1,0,0,0-.159.121,4.362,4.362,0,0,1-.358.282c.219.162.439.3.658.445L.793,5.02a5.7,5.7,0,0,0-.317.988c.06-.06.119-.1.179-.161,1.3.869,2.612,1.7,3.967,2.446-1.133,1.189-2.305,2.3-3.5,3.386-.339-.222-.678-.445-1.017-.687.02.282.041.565.081.847.14.1.259.2.4.3-.119.1-.219.2-.338.3.04.242.081.464.1.686.239-.2.5-.4.736-.6,1.236.889,2.512,1.7,3.828,2.466-1.093.987-2.206,1.935-3.359,2.841.22.606.46,1.251.74,1.9,1.077.687,2.193,1.314,3.309,1.88-.477.4-.974.806-1.471,1.209a6.186,6.186,0,0,0,.5.525c.577-.443,1.133-.887,1.69-1.37.159.081.339.162.5.243,1.036.506,2.112.971,3.189,1.436-.5.5-1.033.988-1.55,1.471a5.931,5.931,0,0,0,1.035.041c.417-.4.835-.806,1.252-1.229.518.222,1.056.425,1.594.627a10.334,10.334,0,0,0,.955-.463c-.658-.243-1.335-.506-1.993-.749a45.137,45.137,0,0,0,3.377-4.173c.737.223,1.474.405,2.211.567.079-.222.138-.464.2-.686-.638-.2-1.255-.4-1.873-.607.755-1.069,1.469-2.137,2.184-3.206,0-.141-.02-.3-.021-.444-.854,1.189-1.728,2.359-2.621,3.488-1.116-.4-2.232-.81-3.328-1.255a52.916,52.916,0,0,0,3.416-4.253c.817.263,1.634.526,2.451.749-.02-.2-.041-.525-.082-.969C16.6,12.382,16,12.22,15.4,12.038,15.878,11.372,16.355,10.667,16.811,9.961ZM12.126,6.929c-.814,1.048-1.668,2.076-2.523,3.084C8.268,9.427,6.953,8.82,5.657,8.133,6.512,7.186,7.346,6.2,8.121,5.19,9.436,5.817,10.771,6.383,12.126,6.929ZM1.033,5.5c.974-.887,1.908-1.794,2.822-2.721A39.453,39.453,0,0,0,7.563,4.907c-.814.988-1.629,1.976-2.5,2.9C3.7,7.082,2.368,6.313,1.033,5.5Zm.63,6.558A47.312,47.312,0,0,0,5.2,8.637c1.276.687,2.591,1.334,3.926,1.941-.656.766-1.311,1.512-1.987,2.237-.5.544-1.013,1.048-1.53,1.532C4.274,13.66,2.959,12.892,1.663,12.063ZM6.2,21.147A39.989,39.989,0,0,1,2.034,18.58,35.4,35.4,0,0,0,5.572,15.4a45.339,45.339,0,0,0,4.444,2.164c-.179.181-.338.363-.517.544C8.427,19.172,7.333,20.18,6.2,21.147Zm7.96-2.069q-1.7,2.117-3.576,4.052c-.937-.364-1.853-.749-2.75-1.173-.3-.142-.6-.283-.9-.445a50.273,50.273,0,0,0,3.8-3.668C11.83,18.309,13.005,18.713,14.161,19.078Zm-3.429-2.284c-1.534-.647-3.029-1.335-4.5-2.1.517-.544,1.013-1.088,1.49-1.612.676-.746,1.311-1.492,1.947-2.258.2.081.4.182.6.263,1.3.546,2.63,1.072,3.985,1.538A49.634,49.634,0,0,1,10.732,16.794Z" transform="translate(4.22 11.696)" fill="#fff7e1"/><path d="M.841.138C.642-.408-.621.865.409,1.756.765,2.06,1.2,1.11.841.138Z" transform="translate(18.056 20.499)" fill="#fcb932"/><path d="M.88.4C.54-.59-.353.5.166,1.287.445,1.691,1.18,1.248.88.4Z" transform="translate(16.138 19.155)" fill="#fcb932"/><path d="M.753.138C.1-.509-.276,1.39.28,1.694.935,2.038,1.349.826.753.138Z" transform="translate(19.149 24.91)" fill="#fcb932"/><path d="M.794.17C.456-.457-.294.876.143,1.4.659,2.029,1.172.857.794.17Z" transform="translate(17.756 27.306)" fill="#fcb932"/><path d="M.22.061A.456.456,0,0,0,.1.725C.642,1.209,1-.3.22.061Z" transform="translate(20.489 28.732)" fill="#fcb932"/><path d="M.318.245A1.584,1.584,0,0,0,.143,1.8C1.034,2.308,1.5-.866.318.245Z" transform="translate(18.638 32.387)" fill="#fcb932"/><path d="M.629.016C.37-.085-.148.539.052.882.433,1.527,1.169.218.629.016Z" transform="translate(15.285 31.248)" fill="#fcb932"/><path d="M.6.015A.578.578,0,0,0,.248,1.063C1.147,1.708,1.064.137.6.015Z" transform="translate(15.204 24.675)" fill="#fcb932"/><path d="M.451.054C.014-.209-.123.6.135,1.024.474,1.59,1.027.4.451.054Z" transform="translate(18.598 16.645)" fill="#fcb932"/><path d="M4.732,3.449A8.294,8.294,0,0,1,6.916,2.367a2.912,2.912,0,0,1,.445-.138A8.838,8.838,0,0,0,5.436,1C3.045-.144.171-.187.01.326-.071.6.638.958,2.118,1.986c.871.613,1.621,1.186,2.27,1.72a1.143,1.143,0,0,0,.162-.138Z" transform="translate(2.879 9.108)" fill="#add8cf"/><path d="M1.5,4.716a7.142,7.142,0,0,1,1.593.221,7.4,7.4,0,0,1,.6-1.415C4.961,1.172,7,.357,6.855.118,6.693-.162,3.71.592,1.456,2.9A8.469,8.469,0,0,0,.048,4.794l.4-.059A9.116,9.116,0,0,1,1.5,4.716Z" transform="translate(10.669 6.242)" fill="#2c858d"/></g></svg>