<svg xmlns="http://www.w3.org/2000/svg" width="48" height="48" viewBox="0 0 48 48"><path d="M340.311,76H323.089C309.767,76,307.7,78.51,307.7,94.682v7.847c0,19.017,2.067,21.471,17.686,21.471h12.629c15.618,0,17.686-2.454,17.686-21.471V94.682C355.7,78.51,353.633,76,340.311,76Z" transform="translate(-307.7 -76)" fill="#f2f2f2"/><g transform="translate(8.369 12.705)"><g transform="translate(0)"><path d="M30.976,14.042v4.25A28.734,28.734,0,0,1,23,21.674h-.26a32.081,32.081,0,0,1-7.2.867,31.358,31.358,0,0,1-7.112-.781H8.339c-.087,0-.26-.087-.347-.087A24.971,24.971,0,0,1,.1,18.292h0v-4.25a1.691,1.691,0,0,1,1.648-1.561,2.041,2.041,0,0,1,.694.173.3.3,0,0,1,.173.087c.087.087.173.087.26.173L15.538,1.9,28.2,12.915c.087,0,.173-.087.26-.087.087-.087.173-.087.347-.173h0a1.476,1.476,0,0,1,.607-.087A1.53,1.53,0,0,1,30.976,14.042Z" transform="translate(-0.013 -0.252)" fill="#f09c4a"/><path d="M30.962,13.976V15.1c-.694.347-1.3.694-1.995,1.041a27.9,27.9,0,0,1-5.551,1.908h-.26a31.692,31.692,0,0,1-7.632.867,35.262,35.262,0,0,1-7.545-.867H7.892c-.173,0-.26-.087-.434-.087a26.285,26.285,0,0,1-5.377-1.908L0,15.017V13.889a1.691,1.691,0,0,1,1.648-1.561,2.041,2.041,0,0,1,.694.173.3.3,0,0,1,.173.087c.087.087.173.087.26.173L15.525,1.4,28.187,12.848c.087,0,.173-.087.26-.087.087-.087.173-.087.347-.173h0A1.476,1.476,0,0,1,29.4,12.5,1.53,1.53,0,0,1,30.962,13.976Z" transform="translate(0 -0.186)" fill="#f0ab4a"/><path d="M15.976,0,28.638,12.663c-.607.26-1.127.52-1.735.781a26.77,26.77,0,0,1-3.729,1.214h-.26a30.186,30.186,0,0,1-6.852.781,30.186,30.186,0,0,1-6.852-.781l-.26-.087H8.864a26.771,26.771,0,0,1-3.729-1.214c-.607-.26-1.214-.52-1.735-.781Z" transform="translate(-0.451)" fill="#fce3bd"/><path d="M19.322,2.961A1.561,1.561,0,1,1,17.761,1.4,1.555,1.555,0,0,1,19.322,2.961Z" transform="translate(-2.15 -0.186)" fill="#eb3b33"/><path d="M26.7,9.348A1.647,1.647,0,0,1,25.048,11,1.706,1.706,0,0,1,23.4,9.348,1.647,1.647,0,0,1,25.048,7.7,1.706,1.706,0,0,1,26.7,9.348Z" transform="translate(-3.105 -1.022)" fill="#d9405e"/><path d="M22.357,12.928A2.428,2.428,0,1,1,19.928,10.5,2.482,2.482,0,0,1,22.357,12.928Z" transform="translate(-2.322 -1.393)" fill="#eb3b52"/><path d="M18.3,7.4A1.3,1.3,0,1,1,17,6.1,1.334,1.334,0,0,1,18.3,7.4Z" transform="translate(-2.083 -0.81)" fill="#d9405e"/><path d="M13.382,6.441A1.041,1.041,0,1,1,12.341,5.4,1.055,1.055,0,0,1,13.382,6.441Z" transform="translate(-1.5 -0.717)" fill="#d9405e"/><path d="M13.6,10.948a1.648,1.648,0,0,1-3.3,0A1.6,1.6,0,0,1,11.948,9.3,1.647,1.647,0,0,1,13.6,10.948Z" transform="translate(-1.367 -1.234)" fill="#70669c"/><path d="M22.382,8.341A1.041,1.041,0,1,1,21.341,7.3,1.055,1.055,0,0,1,22.382,8.341Z" transform="translate(-2.694 -0.969)" fill="#70669c"/><path d="M26.582,14.139a1,1,0,0,1-1.041,1.041A1.055,1.055,0,0,1,24.5,14.139a1.041,1.041,0,0,1,2.082,0Z" transform="translate(-3.251 -1.737)" fill="#d9405e"/><path d="M29.835,12.867A.867.867,0,1,1,28.967,12,.929.929,0,0,1,29.835,12.867Z" transform="translate(-3.729 -1.592)" fill="#70669c"/><path d="M16.182,15.341A1.041,1.041,0,1,1,15.141,14.3,1,1,0,0,1,16.182,15.341Z" transform="translate(-1.871 -1.898)" fill="#f5405e"/><path d="M9,13.4a1.3,1.3,0,1,1-1.3-1.3A1.334,1.334,0,0,1,9,13.4Z" transform="translate(-0.849 -1.606)" fill="#eb3b33"/></g></g></svg>