<svg xmlns="http://www.w3.org/2000/svg" width="340" height="500" viewBox="0 0 340 500"><defs><style>.a{fill:#fff;}.b,.c{stroke:none;}.c{fill:#dee2eb;}</style></defs><g class="a" transform="translate(-10 110)"><path class="b" d="M 180.0243225097656 387 C 137.6334381103516 387 94.8253173828125 381.1417541503906 49.14905548095703 369.0892639160156 C 44.32329940795898 367.7566833496094 39.6142463684082 365.4137878417969 35.15185165405273 362.1252136230469 C 30.84258460998535 358.9495239257813 26.95338439941406 355.039794921875 23.59211730957031 350.5047302246094 C 20.26458549499512 346.0150146484375 17.64771842956543 341.1758117675781 15.81425094604492 336.1214599609375 C 13.94685173034668 330.9735412597656 12.99998474121094 325.8877868652344 12.99998474121094 321.0055236816406 L 12.99998474121094 -41.01053237915039 C 12.99998474121094 -45.89279937744141 13.94685173034668 -50.97853469848633 15.81425094604492 -56.12646484375 C 17.64771842956543 -61.18080139160156 20.26458549499512 -66.02006530761719 23.59218406677246 -70.50973510742188 C 26.95338439941406 -75.04486846923828 30.84258460998535 -78.95453643798828 35.15185165405273 -82.13026428222656 C 39.61642837524414 -85.42038726806641 44.32785415649414 -87.76395416259766 49.15608215332031 -89.09612274169922 C 94.83673858642578 -101.1438064575195 137.6353607177734 -107 179.9999847412109 -107 C 222.3646087646484 -107 265.1632385253906 -101.1438064575195 310.8438720703125 -89.09612274169922 C 315.672119140625 -87.76395416259766 320.383544921875 -85.42038726806641 324.8481140136719 -82.13026428222656 C 329.1573791503906 -78.95453643798828 333.0465698242188 -75.04486846923828 336.4077758789063 -70.50973510742188 C 339.7353820800781 -66.02006530761719 342.3522644042969 -61.18080139160156 344.1857299804688 -56.12646484375 C 346.0531311035156 -50.97853469848633 347 -45.89279937744141 347 -41.01053237915039 L 347 321.0459899902344 C 347 325.9276123046875 346.0531921386719 331.0111999511719 344.1859130859375 336.1557312011719 C 342.3529052734375 341.2057189941406 339.7361755371094 346.041748046875 336.4082641601563 350.5293884277344 C 333.0477294921875 355.0611877441406 329.1581115722656 358.9706115722656 324.8475036621094 362.1491394042969 C 320.3848571777344 365.439697265625 315.673828125 367.7888488769531 310.8453369140625 369.1312561035156 C 265.1567687988281 381.1553649902344 222.3656768798828 387 180.0243225097656 387 Z"/><path class="c" d="M 180.0243377685547 384.0000305175781 C 222.1095581054688 384.0000305175781 264.6576232910156 378.1858825683594 310.0232849121094 366.2460327148438 C 328.1229858398438 361.2248229980469 344 340.1033325195313 344 321.0460510253906 L 344 -41.01053237915039 C 344 -60.10224914550781 328.1277770996094 -81.22245788574219 310.096923828125 -86.19060516357422 C 264.6632080078125 -98.17446136474609 222.1081237792969 -103.9999618530273 179.9999847412109 -103.9999618530273 C 137.8919067382813 -103.9999618530273 95.33684539794922 -98.17446136474609 49.96648406982422 -86.20767211914063 C 31.8721981048584 -81.22238922119141 15.99998474121094 -60.10224914550781 15.99998474121094 -41.01053237915039 L 15.99998474121094 321.0054626464844 C 15.99998474121094 340.09716796875 31.8721981048584 361.2173156738281 49.90362930297852 366.1856689453125 C 95.32998657226563 378.1728820800781 137.8928375244141 384.0000305175781 180.0243377685547 384.0000305175781 M 180.0243225097656 390 C 136.947021484375 390 93.88948822021484 383.9981994628906 48.37277221679688 371.9871215820313 C 27.0276985168457 366.1061706542969 9.999984741210938 342.339111328125 9.999984741210938 321.0054626464844 C 9.999984741210938 237.4961853027344 9.999984741210938 42.49875259399414 9.999984741210938 -41.01053237915039 C 9.999984741210938 -62.3441047668457 27.0276985168457 -86.11124420166016 48.37277221679688 -91.99217224121094 C 93.887451171875 -103.9973907470703 136.9437103271484 -110 179.9999847412109 -110 C 223.0562591552734 -110 266.1125183105469 -103.9973907470703 311.627197265625 -91.99217224121094 C 332.9723510742188 -86.11124420166016 350 -62.3441047668457 350 -41.01053237915039 C 350 42.49875259399414 350 237.5367584228516 350 321.0460510253906 C 350 342.3796691894531 332.9722595214844 366.1061706542969 311.627197265625 372.0276794433594 C 266.1145629882813 384.0067443847656 223.0595855712891 390 180.0243225097656 390 Z"/></g></svg>