<svg xmlns="http://www.w3.org/2000/svg" xmlns:xlink="http://www.w3.org/1999/xlink" width="60" height="60" viewBox="0 0 60 60">
  <defs>
    <linearGradient id="linear-gradient" x1="0.595" y1="0.736" x2="0.018" y2="-0.935" gradientUnits="objectBoundingBox">
      <stop offset="0" stop-color="#ff825b"/>
      <stop offset="1" stop-color="#e56e4b"/>
    </linearGradient>
    <linearGradient id="linear-gradient-2" y1="0.5" x2="1" y2="0.5" gradientUnits="objectBoundingBox">
      <stop offset="0" stop-color="#ffc76f"/>
      <stop offset="1" stop-color="#f8b666"/>
    </linearGradient>
    <linearGradient id="linear-gradient-3" x1="0" y1="0.5" x2="1" y2="0.5" xlink:href="#linear-gradient-2"/>
    <linearGradient id="linear-gradient-4" x1="0" y1="0.499" x2="1" y2="0.499" xlink:href="#linear-gradient-2"/>
    <linearGradient id="linear-gradient-5" x1="0.1" y1="0.119" x2="1.011" y2="0.835" xlink:href="#linear-gradient-2"/>
    <linearGradient id="linear-gradient-6" x1="0" y1="0.5" x2="1" y2="0.5" xlink:href="#linear-gradient-2"/>
    <linearGradient id="linear-gradient-7" x1="0.676" y1="0.452" x2="0.275" y2="0.714" xlink:href="#linear-gradient-2"/>
    <linearGradient id="linear-gradient-8" x1="0.306" y1="0.5" x2="1.306" y2="0.5" xlink:href="#linear-gradient-2"/>
    <linearGradient id="linear-gradient-9" x1="0.5" y1="0.547" x2="0.46" y2="2.811" xlink:href="#linear-gradient-2"/>
  </defs>
  <g id="Group_14000" data-name="Group 14000" transform="translate(849 -22217)">
    <g id="attempt" transform="translate(-844.063 22221.549)">
      <path id="Path_14038" data-name="Path 14038" d="M1.985,38.627c-.448-1.406,2.6-1.674,3.841-1.79a9.463,9.463,0,0,1,5.533,1.244c.492.322.985.645,1.468.967a8.715,8.715,0,0,1,1.289,1.28,13.456,13.456,0,0,0,3.044,2.614A13.805,13.805,0,0,0,21.25,44.1c.636.107,1.325.161,1.978.224.734.072,1.513.233,2.256.233a37.816,37.816,0,0,1,4.27.143,19.859,19.859,0,0,1,3.921.519,6.3,6.3,0,0,1,2.91,2.158,9.473,9.473,0,0,1,1.092,1.764,4.7,4.7,0,0,1,.8,2.032,25.432,25.432,0,0,1-23.858.994C14.617,52.172,4.93,47.892,1.985,38.627Z" transform="translate(-0.203 -3.852)" fill="url(#linear-gradient)"/>
      <g id="Group_10132" data-name="Group 10132" transform="translate(0.003 0.452)">
        <path id="Path_14040" data-name="Path 14040" d="M47.861,41.4c-.886-.582-1.844-1-2.757-1.522a11.655,11.655,0,0,0-1.235-.806,2.736,2.736,0,0,0-1.37-.1c-1.361.125-2.73.152-4.082.34a3.352,3.352,0,0,0-1.423.5c-.349.278-.34.645-.824.788a9.109,9.109,0,0,1-1.567.152,11.49,11.49,0,0,1-2.22-.054,6.5,6.5,0,0,1-2.2-.564c-.3-.134-1.871-.859-2.041-.43-.1.251.591.85.752,1.012a8.171,8.171,0,0,0,1.647,1.218,8.074,8.074,0,0,0,2.918.779c1.737.206,3.474.376,5.228.582a14.609,14.609,0,0,1,4.109.85c.627.278,1.3.394,1.925.716a10.809,10.809,0,0,1,2.113,2.05,25.2,25.2,0,0,0,3.187-4.154c-.376-.26-.815-.564-1.038-.716C48.622,41.786,48.228,41.634,47.861,41.4Z" transform="translate(-2.949 -4.527)" opacity="0.3" fill="url(#linear-gradient-2)"/>
        <path id="Path_14041" data-name="Path 14041" d="M49.278,31.773a31.162,31.162,0,0,1-3.321,1.155,26.356,26.356,0,0,1-6.052-.349,10.572,10.572,0,0,1-2.31-.331c-.77-.224-2.2-1.065-2.945-.833.278.152.555.34.815.5a7.676,7.676,0,0,0,4.226,1.522,8.146,8.146,0,0,1,4.038,1.012c.68.385.931.913,1.5,1.441a7.562,7.562,0,0,0,1.889,1.03c.77.376,1.594.68,2.372,1.11.51.286,1.576,1.45,2.337,1.889a25.051,25.051,0,0,0,2.444-8.308A14.41,14.41,0,0,0,49.278,31.773Z" transform="translate(-3.632 -3.735)" opacity="0.3" fill="url(#linear-gradient-3)"/>
        <path id="Path_14042" data-name="Path 14042" d="M.466,32.838c.868.045,1.961-.313,2.775-.278.967.036,1.934.027,2.9.152A12.153,12.153,0,0,1,10.689,34.7c2.256,1.432,4.163,3.626,6.813,4.387a7.856,7.856,0,0,0,2.417.251c.457-.018,1.343.116,1.594-.412.376-.8-.483-2.247-.913-2.811a9.555,9.555,0,0,0-1.28-1.576,11,11,0,0,0-1.558-1.083,5.454,5.454,0,0,0-3.017-.922,2.047,2.047,0,0,1-.224-.018c.555.573,1.468.743,1.808,1.549.242.582.1.877-.618.922A6.907,6.907,0,0,1,13.2,34.3,9.478,9.478,0,0,1,11.245,33.2c-.68-.5-1.432-.9-2.131-1.352-.913-.591-1.8-1.253-2.766-1.773a19.576,19.576,0,0,1-4.727-3.948c-.322-.34-.654-.68-.967-1.021a6.548,6.548,0,0,1-.412-.582,25.4,25.4,0,0,0-.134,5.783C.188,31.155.3,32.005.466,32.838Z" transform="translate(-0.003 -3.017)" opacity="0.3" fill="url(#linear-gradient-4)"/>
        <path id="Path_14043" data-name="Path 14043" d="M9.092,25.917a14.475,14.475,0,0,0,3.232,1.155c2.354.564,5.389-.018,7.466,1.414.877.6,1.486,1.522,2.417,2.068a10.45,10.45,0,0,0,2.927,1.3c.116.027.582.17.662.036.063-.107-.116-.421-.152-.51a7.888,7.888,0,0,0-.439-.868A19.941,19.941,0,0,1,24.1,28.45c-.286-.716-.3-1.549-.591-2.247a4.856,4.856,0,0,0-2.695-1.978c-1.253-.3-2.73.278-3.894.6a6.32,6.32,0,0,1-2.48.215A11.606,11.606,0,0,1,12,23.893a14.091,14.091,0,0,1-2.113-1.137c-.671-.474-1.155-1.155-1.782-1.674-.725-.591-1.728-.367-1.54.671a8.171,8.171,0,0,0,.806,2.131A3.819,3.819,0,0,0,9.092,25.917Z" transform="translate(-0.688 -2.623)" opacity="0.3" fill="url(#linear-gradient-5)"/>
        <path id="Path_14044" data-name="Path 14044" d="M5.887,15.164a11.238,11.238,0,0,1,4.306.116,17.686,17.686,0,0,1,4.422,1.862c1.325.8,2.462,1.826,3.823,2.605a16.81,16.81,0,0,0,4.906,2.22,24.7,24.7,0,0,0,5.685.743c3.5-.143,7.126-1.155,10.582-.528,3.9.7,8.55,1.826,11.459,4.673a24.083,24.083,0,0,0-.107-2.534,25.432,25.432,0,0,0-1.567-6.75c-1.191-.483-3.823,2.041-5.363,2.39A5.463,5.463,0,0,1,41,19.954c-.206-.107-.582-.385-.582-.654,0-.555.43-.278.716-.645.68-.877-1.925-2.784-2.7-3.106a22.245,22.245,0,0,0-5.488-1.835,11.715,11.715,0,0,0-4.306.546,14.764,14.764,0,0,1-5.192.466,5.939,5.939,0,0,1-2.99-.9,9.122,9.122,0,0,0-1.952-.94,10.434,10.434,0,0,0-5.166-.519,8.169,8.169,0,0,1-5-.125,6.372,6.372,0,0,0-3.286-.421A25.425,25.425,0,0,0,2.53,16.158C3.112,16.283,4.965,15.245,5.887,15.164Z" transform="translate(-0.268 -1.682)" opacity="0.3" fill="url(#linear-gradient-6)"/>
        <path id="Path_14045" data-name="Path 14045" d="M14.633,7.17c1.7.949,3.554,1.083,5.416,1.629a8.634,8.634,0,0,0,5.318-.054,4.525,4.525,0,0,1,1.379-.564,10.69,10.69,0,0,1,2.39.054,19.412,19.412,0,0,1,2.766.654c1.083.269,2.166.412,3.223.734a4.7,4.7,0,0,0,2.516.143c.51-.188.331-.752.1-1.164a9.26,9.26,0,0,0-1.513-1.925c-.645-.6-1.907-.779-2.22-1.71-.233-.68.018-1.092.707-1.038a12.021,12.021,0,0,1,2.346.412c.949.26,1.9.519,2.829.806.591.188,1.674.251,2.56.466A25.361,25.361,0,0,0,31.338.5c-.457.26-.967.77-1.262.922-.555.286-1.155.5-1.28,1.164a1.651,1.651,0,0,0,.573,1.656c.278.233,1.164.725,1.083,1.182-.161.922-3.5.125-4.1.027a17.856,17.856,0,0,1-5.067-1.5,6.608,6.608,0,0,1-1.746-1.164A11.246,11.246,0,0,1,18.4,1.413,25.357,25.357,0,0,0,11.41,5.1C11.813,5.836,13.836,6.731,14.633,7.17Z" transform="translate(-1.198 -0.5)" opacity="0.3" fill="url(#linear-gradient-7)"/>
        <path id="Path_14046" data-name="Path 14046" d="M37.845,55.119h0c-.188.063-.367.116-.555.179C37.639,55.182,37.845,55.119,37.845,55.119Z" transform="translate(-3.909 -6.221)" fill="#ffc76f"/>
        <path id="Path_14047" data-name="Path 14047" d="M31.933,51.069c-.045.4.278.976-.107,1.28-.34.278-.815-.161-1.155-.331-.313-.152-1.092-.457-1.379-.1a3.016,3.016,0,0,0,.045,1.406c.242.886.349,2.739,1.253,2.7a25.22,25.22,0,0,0,5.819-1.173c.188-.063.412-.152.591-.224A25.275,25.275,0,0,0,34.135,51.7C33.732,51.346,32.076,49.726,31.933,51.069Z" transform="translate(-3.064 -5.743)" opacity="0.3" fill="url(#linear-gradient-8)"/>
        <path id="Path_14048" data-name="Path 14048" d="M17.743,45.545c-.027.43.242.77.224,1.191a2.133,2.133,0,0,1-1.361-.081,23.725,23.725,0,0,1-2.193-1.083,33.2,33.2,0,0,1-3.178-2.328,2.384,2.384,0,0,0-1.692-.474c-.555.027-1,.286-1.558.322-.734.045-.716-.5-1.3-.707-.662-.224-.466.43-.242.788.555.9,1.4.922,2.31,1.253a2.659,2.659,0,0,1,.77.483,6.4,6.4,0,0,0,.654.439,9.942,9.942,0,0,0,1.083.618c.269.134.51.286.77.43.322.188.636.394.949.6a10.107,10.107,0,0,0,2.453,1.056,21.134,21.134,0,0,0,3.142.6c.636.1,1.88.448,2.39-.107.09-.743-1.021-1.5-1.486-1.978A3.034,3.034,0,0,0,17.743,45.545Z" transform="translate(-0.656 -4.883)" opacity="0.3" fill="url(#linear-gradient-9)"/>
      </g>
      <path id="Path_14049" data-name="Path 14049" d="M48.148,15.412c.152.815-.582-2.3-.5-1.459A25.4,25.4,0,0,1,24.666,41.571C13.977,42.547,5.1,40.712.53,31.7A25.4,25.4,0,1,0,48.148,15.412Z" transform="translate(-0.055 -1.442)" fill="#230753" opacity="0.15"/>
      <g id="Group_12148" data-name="Group 12148" transform="translate(-1370.24 -509.181)">
        <g id="Group_12148-2" data-name="Group 12148" transform="translate(1366.304 510.223)">
          <path id="Path_16116" data-name="Path 16116" d="M1386.115,511.307c-2.983,1.227-10.352,4.742-12.188,6.17-5.507,4.9-7.394,8.516-7.6,15.859-.612,14.278,9.791,22.437,22.438,25.5,11.219,2.855,26.109-1.224,32.024-11.831,5.711-10.607,4.08-21.622-3.06-30.6-4.284-5.1-11.627-5.1-17.746-5.916C1395.5,509.879,1388.359,510.384,1386.115,511.307Z" transform="translate(-1366.304 -510.223)" fill="#013b68"/>
        </g>
        <g id="Group_12156" data-name="Group 12156" transform="translate(1366.304 510.223)" opacity="0.3">
          <g id="Group_12149" data-name="Group 12149" transform="translate(29.524 1.514)">
            <path id="Path_16117" data-name="Path 16117" d="M1451.949,530.16a112.364,112.364,0,0,1,22.159-8.108q.748-.177,1.5-.344-.815-1.233-1.758-2.423c-2.248-2.676-5.339-3.947-8.654-4.669C1459.168,518.355,1454.208,523.628,1451.949,530.16Z" transform="translate(-1451.949 -514.615)" fill="#2fa7e2"/>
          </g>
          <g id="Group_12150" data-name="Group 12150" transform="translate(13.938 11.007)">
            <path id="Path_16118" data-name="Path 16118" d="M1479.734,542.152c-1.015.205-2.026.446-3.036.71a119.887,119.887,0,0,0-20.647,7.618,1.436,1.436,0,0,1,.044.158,29.551,29.551,0,0,1,10.494,2.648,51.719,51.719,0,0,1,11.089,6.068,50.1,50.1,0,0,1,4.108,3.449A25.972,25.972,0,0,0,1479.734,542.152Z" transform="translate(-1441.051 -542.152)" fill="#2fa7e2"/>
          </g>
          <g id="Group_12151" data-name="Group 12151" transform="translate(5.007 1.38)">
            <path id="Path_16119" data-name="Path 16119" d="M1395.134,519.1a24.891,24.891,0,0,1-.2-4.877c-3.3,1.421-9.781,4.548-11.487,5.874-.986.876-1.851,1.711-2.616,2.534a36.645,36.645,0,0,0,18.737,8.251C1396.9,527.7,1395.667,522.9,1395.134,519.1Z" transform="translate(-1380.83 -514.226)" fill="#2fa7e2"/>
          </g>
          <g id="Group_12152" data-name="Group 12152" transform="translate(21.712 0)">
            <path id="Path_16120" data-name="Path 16120" d="M1441.257,510.491a44.609,44.609,0,0,0-11.859.293,21.307,21.307,0,0,0-.036,3.947,25.269,25.269,0,0,0,2.05,8.14,13,13,0,0,0,2.815,4.665c1.976-6.746,6.544-12.3,12.312-16.428C1444.746,510.881,1442.954,510.717,1441.257,510.491Z" transform="translate(-1429.288 -510.223)" fill="#2fa7e2"/>
          </g>
          <g id="Group_12153" data-name="Group 12153" transform="translate(0 11.793)">
            <path id="Path_16121" data-name="Path 16121" d="M1369.647,544.433c-2.268,3.1-3.179,6.362-3.317,11.32a25.136,25.136,0,0,0,.4,5.8c9.229,1.1,19.655-.94,25.368-7.944A39.67,39.67,0,0,1,1369.647,544.433Z" transform="translate(-1366.306 -544.433)" fill="#2fa7e2"/>
          </g>
          <g id="Group_12154" data-name="Group 12154" transform="translate(1.136 23.647)">
            <path id="Path_16122" data-name="Path 16122" d="M1369.6,586.854c2.979,9.062,11.47,14.545,21.326,16.929.585.149,1.183.274,1.787.386a31.573,31.573,0,0,0,2.711-25.349C1389.177,585.455,1378.966,587.725,1369.6,586.854Z" transform="translate(-1369.602 -578.819)" fill="#2fa7e2"/>
          </g>
          <g id="Group_12155" data-name="Group 12155" transform="translate(27.057 22.079)">
            <path id="Path_16123" data-name="Path 16123" d="M1469.471,583.081a47.458,47.458,0,0,0-9.806-5.691c-4.029-1.72-8.256-3.428-12.694-3.072,3.324,8.878,2.217,18.948-2.178,27.249,10.391.9,22.294-3.385,27.43-12.6q.671-1.246,1.207-2.5A41.483,41.483,0,0,0,1469.471,583.081Z" transform="translate(-1444.793 -574.27)" fill="#2fa7e2"/>
          </g>
        </g>
        <g id="Group_12157" data-name="Group 12157" transform="translate(1366.304 516.867)" opacity="0.4">
          <path id="Path_16124" data-name="Path 16124" d="M1422.391,537a26.41,26.41,0,0,1-3,11.359c-4.135,8.183-13.75,14.177-22.928,14.1-5.648-.045-12.473-2.216-16.178-6.779-4.025-4.957-7.692-11.527-6.9-18.258a41.416,41.416,0,0,1,1.449-7.928,10.621,10.621,0,0,0-.9.61c-5.507,4.9-7.394,8.516-7.6,15.859-.612,14.278,9.791,22.437,22.438,25.5,11.219,2.855,26.109-1.224,32.024-11.831A26.218,26.218,0,0,0,1422.391,537Z" transform="translate(-1366.304 -529.497)" fill="#2fa7e2"/>
        </g>
        <g id="Group_12158" data-name="Group 12158" transform="translate(1366.304 517.134)" opacity="0.5">
          <path id="Path_16125" data-name="Path 16125" d="M1423.683,541.806a38.412,38.412,0,0,1-.759,6.525c-1.038,5.209-3.773,9.383-7.017,13.428-6.7,8.359-17.8,10.762-27.87,8.848-11.125-2.115-21.065-13.048-19.585-24.833.555-4.416,1.086-7.8,3.412-11.749a32.716,32.716,0,0,1,2.55-3.754c-.188.124-.354.24-.487.343-5.507,4.9-7.394,8.516-7.6,15.859-.612,14.278,9.791,22.438,22.438,25.5,11.219,2.855,26.109-1.224,32.024-11.831A26.5,26.5,0,0,0,1423.683,541.806Z" transform="translate(-1366.304 -530.271)" fill="#003a69"/>
        </g>
      </g>
    </g>
    <rect id="bound" width="60" height="60" transform="translate(-849 22217)" fill="none"/>
  </g>
</svg>
