<svg xmlns="http://www.w3.org/2000/svg" width="48" height="48" viewBox="0 0 48 48"><path d="M340.311,76H323.089C309.767,76,307.7,78.51,307.7,94.682v7.847c0,19.017,2.067,21.471,17.686,21.471h12.629c15.618,0,17.686-2.454,17.686-21.471V94.682C355.7,78.51,353.633,76,340.311,76Z" transform="translate(-307.7 -76)" fill="#f2f2f2"/><g transform="translate(7.163 3)"><path d="M-387.377,171.876a36.946,36.946,0,0,0-2.055-7.965h-9.586a36.924,36.924,0,0,0-2.055,7.965Z" transform="translate(410.915 -131.467)" fill="#d8dadb"/><path d="M-398.6,175.947h12.322c-.134-.561-.268-1.076-.4-1.54h-11.526C-398.336,174.871-398.47,175.386-398.6,175.947Z" transform="translate(409.134 -139.041)" fill="#636568"/><path d="M-401.073,188.543h13.7c-.084-.535-.173-1.05-.265-1.539h-13.166C-400.9,187.493-400.989,188.008-401.073,188.543Z" transform="translate(410.915 -148.132)" fill="#636568"/><g transform="translate(0 1.568)"><path d="M-450.673,44.328c-1.739-1.618-4.581-5-6.18-6.8s-3.572-3.152-4.267-2.049.714,3.131,3.341,5.2c2.888,2.279,6.186,4.92,6.652,5.258Z" transform="translate(461.296 -35.085)" fill="#f0b9b7"/><path d="M-435.633,57.983c-.985-.958-2.888-3.03-3.675-3.837-1.165-1.2-3.044-3.823-3.631-2.791-.43.755.913,1.7,3.151,3.62.988.847,3.066,2.7,3.953,3.5C-435.779,58.246-435.682,58.156-435.633,57.983Z" transform="translate(446.1 -48.12)" fill="#fff"/></g><g transform="translate(19.729 0)"><path d="M-364.051,26.741c.343-.812,2.2-4.345,2.622-5.043,2.084-3.476,4.029-6.081,2.755-7.118-.894-.728-2.056-.018-2.787,1.291a55.461,55.461,0,0,0-2.354,5.735c-.606,1.606-1.609,4.044-1.742,4.321Z" transform="translate(365.557 -14.289)" fill="#f0b9b7"/><path d="M-360.756,43.93c.189-.427.91-2.05,1.2-2.635.591-1.178,1.37-2.581,1.979-3.664.25-.446,1.154-1.651.581-2.035-.493-.33-.935.338-1.1.644-.149.267-1.119,2.43-1.348,3.045-.245.658-1.41,3.369-1.839,4.4Z" transform="translate(362.051 -32.159)" fill="#fff"/></g><path d="M-417.166,78.568a11.812,11.812,0,0,0-6.072,4.49c-1.795,2.993-3.361,8.751-1.923,12.87,1.283,3.677,3.967,6.077,8.381,6.97,4.019.813,10.647.684,14.452-2.053,2.64-1.9,4.917-4.789,3.677-11.288-1.179-6.18-4.116-9.894-8.595-10.9A22.432,22.432,0,0,0-417.166,78.568Z" transform="translate(428.704 -69.652)" fill="#f0b9b7"/><g transform="translate(16.531 24.249)"><path d="M-376.65,139.188a.139.139,0,0,1-.139-.138,39.581,39.581,0,0,0-.256-4.052.139.139,0,0,1,.121-.155.142.142,0,0,1,.155.121,40.041,40.041,0,0,1,.257,4.084.139.139,0,0,1-.138.14Z" transform="translate(377.046 -134.841)" fill="#2a292a"/></g><g transform="translate(15.441 28.826)"><path d="M-379.719,151.949a3.728,3.728,0,0,1-1.147-.177.14.14,0,0,1-.089-.176.14.14,0,0,1,.175-.089,3.378,3.378,0,0,0,2.706-.266.139.139,0,0,1,.192.046.14.14,0,0,1-.046.191A3.468,3.468,0,0,1-379.719,151.949Z" transform="translate(380.962 -151.221)" fill="#2a292a"/></g><path d="M-381.053,128.418c-1.727,0-2.229.926-1.326,1.832a1.571,1.571,0,0,0,1.326.625,1.666,1.666,0,0,0,1.326-.625C-378.824,129.344-379.325,128.418-381.053,128.418Z" transform="translate(397.744 -105.982)" fill="#2a292a"/><path d="M-391.87,115.68a.7.7,0,0,1-.588.77.7.7,0,0,1-.587-.77.7.7,0,0,1,.587-.77A.7.7,0,0,1-391.87,115.68Z" transform="translate(405.123 -96.269)" fill="#2a292a"/><path d="M-362.685,116.09a.7.7,0,0,1-.588.769.7.7,0,0,1-.588-.769.7.7,0,0,1,.588-.77A.7.7,0,0,1-362.685,116.09Z" transform="translate(384.061 -96.564)" fill="#2a292a"/><g transform="translate(6.713 21.966)"><path d="M-412.092,128.407a2.647,2.647,0,0,0,.259,2.563,2.676,2.676,0,0,0,2.384,1.187,2.647,2.647,0,0,0,2.489-2.576,2.554,2.554,0,0,0-1.421-2.405,2.96,2.96,0,0,0-1.768-.342A2.6,2.6,0,0,0-412.092,128.407Z" transform="translate(412.314 -126.777)" fill="#e99696"/><path d="M-359.622,128.072a3.176,3.176,0,0,0-.181,2.16,2.688,2.688,0,0,0,2.265,1.87,2.861,2.861,0,0,0,2.747-1.663,2.546,2.546,0,0,0-1.71-3.635A2.69,2.69,0,0,0-359.622,128.072Z" transform="translate(374.502 -126.69)" fill="#e99696"/></g><g transform="translate(0.275 22.299)"><path d="M-427.871,129.129h-.013l-7.468-.969a.1.1,0,0,1-.09-.117.1.1,0,0,1,.117-.09l7.468.969a.1.1,0,0,1,.09.117A.1.1,0,0,1-427.871,129.129Z" transform="translate(435.444 -127.952)" fill="#3b3c3e"/></g><g transform="translate(0.845 24.823)"><path d="M-433.291,137.285a.1.1,0,0,1-.1-.1.1.1,0,0,1,.1-.106l6.5-.114h0a.1.1,0,0,1,.1.1.1.1,0,0,1-.1.106l-6.5.114Z" transform="translate(433.395 -136.963)" fill="#3b3c3e"/></g><g transform="translate(0.788 25.989)"><path d="M-433.5,142a.1.1,0,0,1-.1-.092.1.1,0,0,1,.091-.116l5.643-.684a.1.1,0,0,1,.116.091.1.1,0,0,1-.091.116l-5.643.684Z" transform="translate(433.6 -141.109)" fill="#3b3c3e"/></g><g transform="translate(25.352 21.325)"><path d="M-345.249,126.276a.1.1,0,0,1-.1-.082.1.1,0,0,1,.08-.124l7.361-1.6a.106.106,0,0,1,.124.08.1.1,0,0,1-.08.124l-7.361,1.6Z" transform="translate(345.354 -124.472)" fill="#3b3c3e"/></g><g transform="translate(25.987 23.791)"><path d="M-342.97,134.056a.1.1,0,0,1-.1-.095.1.1,0,0,1,.094-.114l6.214-.57a.1.1,0,0,1,.113.095.1.1,0,0,1-.094.113l-6.214.57Z" transform="translate(343.075 -133.277)" fill="#3b3c3e"/></g><g transform="translate(25.523 25.538)"><path d="M-338.3,140.6h-.014l-6.335-.89a.1.1,0,0,1-.089-.118.1.1,0,0,1,.118-.089l6.335.89a.1.1,0,0,1,.089.118A.1.1,0,0,1-338.3,140.6Z" transform="translate(344.741 -139.497)" fill="#3b3c3e"/></g><path d="M-375.262,130.639c.441,0,.445-.4.06-.47C-375.657,130.088-375.658,130.639-375.262,130.639Z" transform="translate(392.498 -107.245)" fill="#c7c9cb"/></g></svg>