<svg id="reward_menu_lower" xmlns="http://www.w3.org/2000/svg" width="30" height="30" viewBox="0 0 30 30">
  <rect id="bound" width="30" height="30" fill="none"/>
  <g id="Group_11499" data-name="Group 11499" transform="translate(-0.705 2)">
    <path id="Subtraction_59" data-name="Subtraction 59" d="M-6163.911-6879h-10.725a1.3,1.3,0,0,1-1.142-.683,1.208,1.208,0,0,1,.035-1.248,6.181,6.181,0,0,1,1.222-1.477,1.35,1.35,0,0,0,.441-.961,1.214,1.214,0,0,0-.365-.893c-2-2.029-3.4-5.432-4.184-10.114a55.566,55.566,0,0,1-.663-9.376,1.276,1.276,0,0,1,1.3-1.25h16.831a1.293,1.293,0,0,1,1.3,1.211,53.04,53.04,0,0,1-.162,9.168c-.527,4.632-1.757,8.042-3.654,10.133a1.882,1.882,0,0,0,.114,2.649,6.39,6.39,0,0,1,.687.8,1.228,1.228,0,0,1,.137,1.318A1.288,1.288,0,0,1-6163.911-6879Zm-5.611-14.194h0l1.027.544a.978.978,0,0,0,.47.121,1.051,1.051,0,0,0,.79-.375,1.008,1.008,0,0,0,.227-.832l-.2-1.144.829-.828a1.026,1.026,0,0,0,.248-1.059,1.007,1.007,0,0,0-.82-.685l-1.144-.172-.513-1.027a1,1,0,0,0-.906-.575,1.016,1.016,0,0,0-.924.6l-.515,1.029-1.142.171a.991.991,0,0,0-.827.673,1.035,1.035,0,0,0,.255,1.07l.828.8-.2,1.144a1,1,0,0,0,.226.831,1.05,1.05,0,0,0,.791.376.973.973,0,0,0,.469-.121l1.029-.544Z" transform="translate(6185.226 6905)" fill="#ffe000"/>
    <path id="Path_9263" data-name="Path 9263" d="M9.164,17.552C5.492,19.762-1.854,9.458,6.648,8.2" transform="translate(0 -5.411)" fill="none" stroke="#ffe200" stroke-miterlimit="10" stroke-width="2"/>
    <path id="Path_9264" data-name="Path 9264" d="M53.9,17.552c3.673,2.21,11.018-8.094,2.516-9.352" transform="translate(-31.655 -5.411)" fill="none" stroke="#ffe200" stroke-miterlimit="10" stroke-width="2"/>
  </g>
</svg>
