<svg xmlns="http://www.w3.org/2000/svg" xmlns:xlink="http://www.w3.org/1999/xlink" width="260" height="260" viewBox="0 0 260 260">
  <defs>
    <linearGradient id="linear-gradient" x1="0.27" y1="0.991" x2="0.696" y2="0.279" gradientUnits="objectBoundingBox">
      <stop offset="0" stop-color="#edf2f7"/>
      <stop offset="1" stop-color="#6ea0c6"/>
    </linearGradient>
    <clipPath id="clip-path">
      <rect id="Rectangle_4579" data-name="Rectangle 4579" width="14.221" height="17.634" transform="translate(0 0)" stroke="rgba(0,0,0,0)" stroke-linecap="round" stroke-width="1" fill="url(#linear-gradient)"/>
    </clipPath>
    <clipPath id="clip-path-2">
      <path id="Path_47017" data-name="Path 47017" d="M11.606-20.553l-4.448-2.6a.963.963,0,0,1-.345-1.328.987.987,0,0,1,1.344-.339l4.448,2.6a.963.963,0,0,1,.345,1.328A.987.987,0,0,1,11.606-20.553Z" transform="translate(-6.676 24.96)" fill="url(#linear-gradient)"/>
    </clipPath>
    <clipPath id="clip-path-3">
      <path id="Path_47016" data-name="Path 47016" d="M1-21.63H15.083V-39H1Z" transform="translate(-1 39)" fill="url(#linear-gradient)"/>
    </clipPath>
    <clipPath id="clip-path-4">
      <path id="Path_47021" data-name="Path 47021" d="M23.247-33.023l-3-4.189a.963.963,0,0,1,.225-1.353.987.987,0,0,1,1.366.237l3,4.189a.963.963,0,0,1-.225,1.353A.987.987,0,0,1,23.247-33.023Z" transform="translate(-20.059 38.742)" fill="url(#linear-gradient)"/>
    </clipPath>
    <clipPath id="clip-path-6">
      <path id="Path_47025" data-name="Path 47025" d="M7.651-5.046,2.5-5.078a.963.963,0,0,1-.963-.977.987.987,0,0,1,.994-.965l5.155.032a.963.963,0,0,1,.963.977A.987.987,0,0,1,7.651-5.046Z" transform="translate(-1.533 7.021)" fill="url(#linear-gradient)"/>
    </clipPath>
    <clipPath id="clip-path-8">
      <rect id="Rectangle_4579-2" data-name="Rectangle 4579" width="15.092" height="18.714" transform="translate(0 0)" stroke="rgba(0,0,0,0)" stroke-linecap="round" stroke-width="1" fill="url(#linear-gradient)"/>
    </clipPath>
    <clipPath id="clip-path-9">
      <path id="Path_47017-2" data-name="Path 47017" d="M11.909-20.283,7.188-23.047a1.022,1.022,0,0,1-.366-1.409,1.048,1.048,0,0,1,1.426-.36l4.721,2.765a1.022,1.022,0,0,1,.366,1.409A1.048,1.048,0,0,1,11.909-20.283Z" transform="translate(-6.676 24.96)" fill="url(#linear-gradient)"/>
    </clipPath>
    <clipPath id="clip-path-10">
      <path id="Path_47016-2" data-name="Path 47016" d="M1-20.566H15.946V-39H1Z" transform="translate(-1 39)" fill="url(#linear-gradient)"/>
    </clipPath>
    <clipPath id="clip-path-11">
      <path id="Path_47021-2" data-name="Path 47021" d="M23.442-32.673l-3.188-4.446a1.022,1.022,0,0,1,.239-1.436,1.048,1.048,0,0,1,1.449.252l3.188,4.446a1.022,1.022,0,0,1-.239,1.436A1.048,1.048,0,0,1,23.442-32.673Z" transform="translate(-20.059 38.742)" fill="url(#linear-gradient)"/>
    </clipPath>
    <clipPath id="clip-path-13">
      <path id="Path_47025-2" data-name="Path 47025" d="M8.025-4.925,2.555-4.959A1.022,1.022,0,0,1,1.533-6,1.048,1.048,0,0,1,2.589-7.021l5.471.034A1.022,1.022,0,0,1,9.081-5.95,1.048,1.048,0,0,1,8.025-4.925Z" transform="translate(-1.533 7.021)" fill="url(#linear-gradient)"/>
    </clipPath>
    <linearGradient id="linear-gradient-27" x1="0.5" x2="0.5" y2="1" gradientUnits="objectBoundingBox">
      <stop offset="0" stop-color="#edf2f7"/>
      <stop offset="1" stop-color="#d3e0ea"/>
    </linearGradient>
    <linearGradient id="linear-gradient-32" x1="0.185" y1="0.591" x2="0.185" y2="0.271" gradientUnits="objectBoundingBox">
      <stop offset="0" stop-color="#8fa1b0"/>
      <stop offset="0.1" stop-color="#8a9cac"/>
      <stop offset="0.2" stop-color="#8597a7"/>
      <stop offset="0.3" stop-color="#8192a3"/>
      <stop offset="0.4" stop-color="#7c8d9e"/>
      <stop offset="0.5" stop-color="#77899a"/>
      <stop offset="0.6" stop-color="#728495"/>
      <stop offset="0.7" stop-color="#6d7f91"/>
      <stop offset="0.8" stop-color="#687a8c"/>
      <stop offset="0.9" stop-color="#647588"/>
      <stop offset="1" stop-color="#5f7083"/>
    </linearGradient>
  </defs>
  <g id="_10" data-name="10" transform="translate(-173 -1392)">
    <path id="Path_86822" data-name="Path 86822" d="M101.34,202.68A101.34,101.34,0,1,0,0,101.34,101.34,101.34,0,0,0,101.34,202.68Z" transform="translate(209.661 1418)" fill="rgba(255,255,255,0.27)" stroke="rgba(255,255,255,0.58)" stroke-width="2" stroke-dasharray="2 7"/>
    <g id="_07" data-name="07" transform="translate(-794 798)">
      <rect id="Rectangle_4790" data-name="Rectangle 4790" width="260" height="260" transform="translate(967 594)" fill="none"/>
      <g id="Group_22408" data-name="Group 22408" transform="translate(0 1.34)">
        <ellipse id="Ellipse_2760" data-name="Ellipse 2760" cx="105" cy="13" rx="105" ry="13" transform="translate(1000.001 800)" opacity="0.3"/>
        <g id="Group_21971" data-name="Group 21971" transform="translate(1162.691 707.442) rotate(111)">
          <g id="Group_21911" data-name="Group 21911" transform="translate(1.287 -35.731)" clip-path="url(#clip-path)">
            <g id="Group_21900" data-name="Group 21900" transform="translate(2.899 6.855)" clip-path="url(#clip-path-2)">
              <g id="Group_21899" data-name="Group 21899" transform="translate(-2.665 -6.591)" clip-path="url(#clip-path-3)">
                <g id="Group_21897" data-name="Group 21897" transform="translate(-0.908 -0.736)" opacity="0">
                  <g id="Group_21896" data-name="Group 21896" transform="matrix(-0.052, 0.999, -0.999, -0.052, 15.899, 0.784)">
                    <path id="Path_47014" data-name="Path 47014" d="M.737,14.973,0,.909,17.346,0l.737,14.064Z" transform="translate(0)" stroke="rgba(0,0,0,0)" stroke-linecap="round" stroke-width="1" fill="url(#linear-gradient)"/>
                  </g>
                </g>
                <g id="Group_21898" data-name="Group 21898" transform="matrix(-0.052, 0.999, -0.999, -0.052, 14.991, 0.048)">
                  <path id="Path_47015" data-name="Path 47015" d="M.737,14.973,0,.909,17.346,0l.737,14.064Z" transform="translate(0)" stroke="rgba(0,0,0,0)" stroke-linecap="round" stroke-width="1" fill="url(#linear-gradient)"/>
                </g>
              </g>
            </g>
            <g id="Group_21905" data-name="Group 21905" transform="translate(9.182 0.385)" clip-path="url(#clip-path-4)">
              <g id="Group_21904" data-name="Group 21904" transform="translate(-8.947 -0.121)" clip-path="url(#clip-path-3)">
                <g id="Group_21902" data-name="Group 21902" transform="translate(-7.026 -5.697)" opacity="0">
                  <g id="Group_21901" data-name="Group 21901" transform="matrix(-0.454, 0.891, -0.891, -0.454, 28.136, 9.277)">
                    <path id="Path_47018" data-name="Path 47018" d="M6.394,20.434,0,7.886,15.476,0,21.87,12.548Z" transform="translate(0 0)" stroke="rgba(0,0,0,0)" stroke-linecap="round" stroke-width="1" fill="url(#linear-gradient)"/>
                  </g>
                </g>
                <g id="Group_21903" data-name="Group 21903" transform="matrix(-0.454, 0.891, -0.891, -0.454, 21.11, 3.58)">
                  <path id="Path_47019" data-name="Path 47019" d="M6.394,20.434,0,7.886,15.476,0,21.87,12.548Z" transform="translate(0 0)" stroke="rgba(0,0,0,0)" stroke-linecap="round" stroke-width="1" fill="url(#linear-gradient)"/>
                </g>
              </g>
            </g>
            <g id="Group_21910" data-name="Group 21910" transform="translate(0.485 15.277)" clip-path="url(#clip-path-6)">
              <g id="Group_21909" data-name="Group 21909" transform="translate(-0.25 -15.013)" clip-path="url(#clip-path-3)">
                <g id="Group_21907" data-name="Group 21907" transform="translate(-7.026 -5.697)" opacity="0">
                  <g id="Group_21906" data-name="Group 21906" transform="matrix(0.454, 0.891, -0.891, 0.454, 18.207, 0)">
                    <path id="Path_47022" data-name="Path 47022" d="M0,12.548,6.394,0,21.87,7.886,15.476,20.434Z" stroke="rgba(0,0,0,0)" stroke-linecap="round" stroke-width="1" fill="url(#linear-gradient)"/>
                  </g>
                </g>
                <g id="Group_21908" data-name="Group 21908" transform="matrix(0.454, 0.891, -0.891, 0.454, 11.181, -5.697)">
                  <path id="Path_47023" data-name="Path 47023" d="M0,12.548,6.394,0,21.87,7.886,15.476,20.434Z" stroke="rgba(0,0,0,0)" stroke-linecap="round" stroke-width="1" fill="url(#linear-gradient)"/>
                </g>
              </g>
            </g>
          </g>
        </g>
        <g id="Group_24596" data-name="Group 24596" transform="translate(1024.965 779.008) rotate(23)">
          <g id="Group_21911-2" data-name="Group 21911" transform="translate(0.787 -39.824)" clip-path="url(#clip-path-8)">
            <g id="Group_21900-2" data-name="Group 21900" transform="translate(3.077 7.275)" clip-path="url(#clip-path-9)">
              <g id="Group_21899-2" data-name="Group 21899" transform="translate(-2.828 -6.995)" clip-path="url(#clip-path-10)">
                <g id="Group_21897-2" data-name="Group 21897" transform="translate(-0.963 -0.781)" opacity="0">
                  <g id="Group_21896-2" data-name="Group 21896" transform="matrix(-0.052, 0.999, -0.999, -0.052, 16.873, 0.832)">
                    <path id="Path_47014-2" data-name="Path 47014" d="M.782,15.89,0,.965,18.408,0l.782,14.926Z" transform="translate(0)" stroke="rgba(0,0,0,0)" stroke-linecap="round" stroke-width="1" fill="url(#linear-gradient)"/>
                  </g>
                </g>
                <g id="Group_21898-2" data-name="Group 21898" transform="matrix(-0.052, 0.999, -0.999, -0.052, 15.91, 0.05)">
                  <path id="Path_47015-2" data-name="Path 47015" d="M.782,15.89,0,.965,18.408,0l.782,14.926Z" transform="translate(0)" stroke="rgba(0,0,0,0)" stroke-linecap="round" stroke-width="1" fill="url(#linear-gradient)"/>
                </g>
              </g>
            </g>
            <g id="Group_21905-2" data-name="Group 21905" transform="translate(9.744 0.409)" clip-path="url(#clip-path-11)">
              <g id="Group_21904-2" data-name="Group 21904" transform="translate(-9.495 -0.128)" clip-path="url(#clip-path-10)">
                <g id="Group_21902-2" data-name="Group 21902" transform="translate(-7.457 -6.046)" opacity="0">
                  <g id="Group_21901-2" data-name="Group 21901" transform="matrix(-0.454, 0.891, -0.891, -0.454, 29.859, 9.845)">
                    <path id="Path_47018-2" data-name="Path 47018" d="M6.785,21.686,0,8.369,16.424,0,23.21,13.317Z" transform="translate(0)" stroke="rgba(0,0,0,0)" stroke-linecap="round" stroke-width="1" fill="url(#linear-gradient)"/>
                  </g>
                </g>
                <g id="Group_21903-2" data-name="Group 21903" transform="matrix(-0.454, 0.891, -0.891, -0.454, 22.403, 3.799)">
                  <path id="Path_47019-2" data-name="Path 47019" d="M6.785,21.686,0,8.369,16.424,0,23.21,13.317Z" transform="translate(0)" stroke="rgba(0,0,0,0)" stroke-linecap="round" stroke-width="1" fill="url(#linear-gradient)"/>
                </g>
              </g>
            </g>
            <g id="Group_21910-2" data-name="Group 21910" transform="translate(0.514 16.213)" clip-path="url(#clip-path-13)">
              <g id="Group_21909-2" data-name="Group 21909" transform="translate(-0.266 -15.932)" clip-path="url(#clip-path-10)">
                <g id="Group_21907-2" data-name="Group 21907" transform="translate(-7.457 -6.046)" opacity="0">
                  <g id="Group_21906-2" data-name="Group 21906" transform="matrix(0.454, 0.891, -0.891, 0.454, 19.322, 0)">
                    <path id="Path_47022-2" data-name="Path 47022" d="M0,13.317,6.785,0,23.21,8.369,16.424,21.686Z" stroke="rgba(0,0,0,0)" stroke-linecap="round" stroke-width="1" fill="url(#linear-gradient)"/>
                  </g>
                </g>
                <g id="Group_21908-2" data-name="Group 21908" transform="matrix(0.454, 0.891, -0.891, 0.454, 11.866, -6.046)">
                  <path id="Path_47023-2" data-name="Path 47023" d="M0,13.317,6.785,0,23.21,8.369,16.424,21.686Z" stroke="rgba(0,0,0,0)" stroke-linecap="round" stroke-width="1" fill="url(#linear-gradient)"/>
                </g>
              </g>
            </g>
          </g>
        </g>
        <g id="Group_24594" data-name="Group 24594" transform="translate(531 -768.22)">
          <path id="Path_86797" data-name="Path 86797" d="M0-3.453,80.818-7.832l.049,165.456L0,149.968Z" transform="translate(532.97 1424)" fill="#c6d1d9"/>
          <path id="Path_86798" data-name="Path 86798" d="M-1832,3073.51l25.75,2.894v150.583l-25.75,11.543Z" transform="translate(2445.399 -1657.103)" fill="url(#linear-gradient-27)"/>
          <path id="Path_86802" data-name="Path 86802" d="M-1917.906,3086.965v135.9l-28.325,10.543v-152.44Z" transform="translate(2479.739 -1659.345)" fill="url(#linear-gradient-27)"/>
          <path id="Path_86799" data-name="Path 86799" d="M-1947,3130.608l80.131-2.28v5.071l-80.131,1.144Z" transform="translate(2479.97 -1673.582)" fill="url(#linear-gradient-27)"/>
          <path id="Path_86800" data-name="Path 86800" d="M-1947.1,3126.884l80.2,1.01v5.072l-80.2-2.146Z" transform="translate(2480 -1627.688)" fill="url(#linear-gradient-27)"/>
          <path id="Path_86801" data-name="Path 86801" d="M-1947.066,3121.257l80.177,4.946v5.072l-80.177-6.082Z" transform="translate(2479.99 -1574.243)" fill="url(#linear-gradient-27)"/>
        </g>
        <g id="Group_24595" data-name="Group 24595" transform="translate(752 545.66)">
          <g id="Group_22183" data-name="Group 22183" transform="translate(47.562 216.246)">
            <g id="Group_22182" data-name="Group 22182">
              <path id="Path_47388" data-name="Path 47388" d="M212.1,15.193s-5.931,4.659-6.3,10.59,5.56,17.011,5.56,17.011-6.193-4.274-17.821-3.082a15.341,15.341,0,0,1-1.64,4.581s25.021,9.313,28.728,4.7,1.893-19.256,1.893-19.256Z" transform="translate(0 0)" fill="#fd434a"/>
              <path id="Path_86804" data-name="Path 86804" d="M245.756,22.395v9.051l1.2,13.982-3.6.582-2.585-11.888v-11.1Z" fill="#ece2e3"/>
              <path id="Path_47379" data-name="Path 47379" d="M243.582,18.326l3.075,8.341-4.458,3.8-1.9-12.138Z" transform="translate(21.207 -82.94) rotate(19)" fill="#ece2e3"/>
              <path id="Path_47383" data-name="Path 47383" d="M222.072,30.5s3.188-.128,9.49-4.02c-4.263,7.59-2.806,18.973-2.806,18.973h4.066L241.2,21.1l-21.315-1.107V30.743Z" fill="#fd434a"/>
              <path id="Path_47384" data-name="Path 47384" d="M244.654,10.823s-20.731-8.329-34.287,6.319c3.3,3.937,14,15.244,14,15.244l8.994-8.574s-.218-.614,1.373-1.1a15.84,15.84,0,0,1,2.737,0,10.426,10.426,0,0,1,4.49,1.348l1.658-4.314a11.181,11.181,0,0,0,1.367-4.049A17.27,17.27,0,0,0,244.654,10.823Z" transform="translate(-0.289)" fill="#383453"/>
              <g id="Group_22181" data-name="Group 22181">
                <path id="Path_47385" data-name="Path 47385" d="M233.045,22.589s.556,9.637,2.409,14.271,11.295,3.814,13.786,3.076,2.227-2.565.686-3.782-8.541-3-8.541-3l.686-9.636s-2.17-.493-4.255-.93A15.6,15.6,0,0,0,233.045,22.589Z" fill="#ece2e3"/>
              </g>
              <g id="Group_24567" data-name="Group 24567" transform="translate(459.194 -238.192) rotate(93)">
                <g id="Group_24567-2" data-name="Group 24567" transform="translate(245.274 173.7)">
                  <g id="Group_22734" data-name="Group 22734" transform="translate(0 0)">
                    <g id="Group_24310" data-name="Group 24310" transform="translate(2.61 6.086)">
                      <g id="Group_23917" data-name="Group 23917">
                        <path id="Path_54367" data-name="Path 54367" d="M30.214,105.027a9.535,9.535,0,0,0,11.4,7.2l-.021.005a9.536,9.536,0,0,0,7.2-11.4l-.776-3.436c-1.16-5.138-6.1-7.633-11.238-6.472l.021-.005c-5.137,1.161-8.525,5.538-7.364,10.675Z" transform="translate(-29.209 -90.64)" fill="#feb59b"/>
                        <g id="Group_23915" data-name="Group 23915" transform="translate(8.466 11.744)">
                          <path id="Path_54383" data-name="Path 54383" d="M40.352,107.867c.03-.666-.053-1.392,1.027-1.721s2.442,1.089,2.09,2.343-1.407,3.063-1.884,2.261a7.945,7.945,0,0,1-1.232-2.883" transform="translate(-40.352 -106.098)" fill="#feb59b"/>
                        </g>
                      </g>
                      <path id="Path_54390" data-name="Path 54390" d="M42.943,107.95" transform="translate(-32.508 -94.798)" fill="none" stroke="#707070" stroke-width="0.198"/>
                    </g>
                    <g id="Component_5_21" data-name="Component 5 21">
                      <g id="Group_22733" data-name="Group 22733">
                        <path id="Path_52600" data-name="Path 52600" d="M43.7,85.82c-.748,2.316-2.775,8.01-7.252,8.9s-6.051-.3-6.051-.3a6.356,6.356,0,0,1,.086,2.08,20.819,20.819,0,0,1-.293,2.139l-.326-.717c-.059-.28-.125-.274-.125-.274l.125.274a8.061,8.061,0,0,1,.088,1.575c-.017,1.872-.044.831-.1,1.117s.041,2.021.041,2.021-1.8-2.922-2.765-4.913-1.415-2.615-1.35-4.075a1.9,1.9,0,0,1,1.24-1.806s.9-4.388,4.059-6.388c2.867-1.817,6.081-3.36,6.539-3.6a15.6,15.6,0,0,0-1.083,1.343s2.1-.844,3.466-1.276A4.293,4.293,0,0,0,41.987,80.7a6.876,6.876,0,0,1-.728,2.077,10.8,10.8,0,0,0-.625.886l2.622-1.838A4.718,4.718,0,0,1,43.7,85.82Z" transform="translate(-25.774 -80.7)" fill="#5b2c12"/>
                        <path id="Path_52601" data-name="Path 52601" d="M45.093,85.819a24.11,24.11,0,0,1-1.662,4.018c-1.4,1.623-2.641,2.337-2.587,2.139.066-.245,1.118-2.4,1.118-2.4a13.578,13.578,0,0,1-2.5,1.752,26.706,26.706,0,0,1-3.069,1.105s.542-.622,1.484-1.8a5.629,5.629,0,0,0,1.135-2.074,10.784,10.784,0,0,1-4.132,1.788,5.543,5.543,0,0,0-3.084,1.3,13.152,13.152,0,0,1,1.387-1.939,6.5,6.5,0,0,1,1.811-1.748,7,7,0,0,0-2.6.7,2.546,2.546,0,0,0-.825.84c.082-.2,1.03-2.457,1.5-3.229a5.486,5.486,0,0,1,1.537-1.453L32,86.046l.26-.459c.068-.046.137-.093.207-.137,2.87-1.818,6.087-3.362,6.54-3.6a15.485,15.485,0,0,0-1.084,1.344s2.1-.844,3.466-1.276A4.293,4.293,0,0,0,43.379,80.7a6.876,6.876,0,0,1-.728,2.077,10.8,10.8,0,0,0-.625.886l2.621-1.837A4.718,4.718,0,0,1,45.093,85.819Z" transform="translate(-27.165 -80.7)" fill="#5b2c12"/>
                        <path id="Path_52602" data-name="Path 52602" d="M42.055,87.522a30.3,30.3,0,0,1-3.777.524s5.817-1.805,7.231-3.588a3.773,3.773,0,0,0,.723-2.155,4.76,4.76,0,0,1,.386,3.9,23.956,23.956,0,0,1-1.662,4.018c-1.4,1.623-2.64,2.337-2.587,2.139.067-.245,1.118-2.4,1.118-2.4a13.618,13.618,0,0,1-2.5,1.753,26.853,26.853,0,0,1-3.069,1.1s.142-.163.408-.481c2.641-.875,5.687-5.429,5.8-5.628S43.483,87.175,42.055,87.522Z" transform="translate(-28.691 -81.085)" fill="#5b2c12"/>
                      </g>
                    </g>
                    <path id="Path_86433" data-name="Path 86433" d="M42,92.734a3.9,3.9,0,0,1,3.066,3.541c.329,4.77,1.962,14.142-4.154,16.432-8.088,3.029-14.477-9.146-14.63-14.132C26.174,95,29.1,97.321,29.947,97.254a4.028,4.028,0,0,0,1.422-.37l8.114-3.86A3.915,3.915,0,0,1,42,92.734Z" transform="translate(-25.896 -85.036)" fill="#5b2c12"/>
                  </g>
                  <path id="Path_86434" data-name="Path 86434" d="M49.008,98.161s-.029-3.219,1.254-2.967-.672-3.707-3.367-4.5-4.79,1.646-5.055,1.889S49.008,98.161,49.008,98.161Z" transform="translate(-29.632 -83.563)" fill="#5b2c12"/>
                </g>
                <g id="Group_23907" data-name="Group 23907" transform="translate(263.51 187.908)">
                  <path id="Path_54363" data-name="Path 54363" d="M49.873,101.862a7.955,7.955,0,0,0,.221,3.128c.189.914,1.779-.45,2.521-1.52s-.08-2.855-1.208-2.9-1.287.67-1.534,1.29" transform="translate(-49.776 -100.571)" fill="#feb59b"/>
                </g>
              </g>
              <g id="Group_23674" data-name="Group 23674" transform="matrix(-0.259, 0.966, -0.966, -0.259, 407.902, 40.244)">
                <path id="Path_52267" data-name="Path 52267" d="M54.663,207.484c.029.5.277,4.359.277,4.359v.017a.407.407,0,0,0,.4.41l11.193.078h0a.408.408,0,0,0,.407-.407v-.908a3.728,3.728,0,0,0-.218-.558c-.223-.444-1.059-1.955-5.763-2.9a.319.319,0,0,0-.055-.007c-1.415-.1-1.628-.686-2.275-.707-.035.009-.34.065-1.822.176a7.73,7.73,0,0,1-1.978.113S54.634,206.989,54.663,207.484Z" transform="translate(0)" fill="#5095a4"/>
                <path id="Path_52268" data-name="Path 52268" d="M54.935,211.67v.017a.451.451,0,0,0,.448.454l11.246.075h.005a.318.318,0,0,0,.313-.322c-.006-.5-.006-.71-.006-1.117a1.875,1.875,0,0,0-.617-1.03c-.413-.412-.88-.738-.824-.617.708,1.528.281,2.194.281,2.194l-8.07-.382a1.984,1.984,0,0,1-1.117-.6l-1.849-1.574.052,2.063Z" transform="translate(0.006 0.132)" fill="#f0f0f0"/>
                <path id="Path_52269" data-name="Path 52269" d="M54.8,211.691a.353.353,0,0,0,.342.334l11.484.166h0a.308.308,0,0,0,.311-.3l.016-1.133a5.107,5.107,0,0,1-.337.854c-.264.38-.685.247-1.148.231l-9.351-.33c-.148,0-.692-.1-.775-.262a7.827,7.827,0,0,1-.595-.867Z" transform="translate(0.006 0.244)" fill="#a3a3a3"/>
              </g>
              <g id="Group_23674-2" data-name="Group 23674" transform="matrix(1, -0.017, 0.017, 1, 170.203, -160.832)">
                <path id="Path_52267-2" data-name="Path 52267" d="M54.663,207.484c.029.5.277,4.359.277,4.359v.017a.407.407,0,0,0,.4.41l11.193.078h0a.408.408,0,0,0,.407-.407v-.908a3.728,3.728,0,0,0-.218-.558c-.223-.444-1.059-1.955-5.763-2.9a.319.319,0,0,0-.055-.007c-1.415-.1-1.628-.686-2.275-.707-.035.009-.34.065-1.822.176a7.73,7.73,0,0,1-1.978.113S54.634,206.989,54.663,207.484Z" transform="translate(0)" fill="#5095a4"/>
                <path id="Path_52268-2" data-name="Path 52268" d="M54.935,211.67v.017a.451.451,0,0,0,.448.454l11.246.075h.005a.318.318,0,0,0,.313-.322c-.006-.5-.006-.71-.006-1.117a1.875,1.875,0,0,0-.617-1.03c-.413-.412-.88-.738-.824-.617.708,1.528.281,2.194.281,2.194l-8.07-.382a1.984,1.984,0,0,1-1.117-.6l-1.849-1.574.052,2.063Z" transform="translate(0.006 0.132)" fill="#f0f0f0"/>
                <path id="Path_52269-2" data-name="Path 52269" d="M54.8,211.691a.353.353,0,0,0,.342.334l11.484.166h0a.308.308,0,0,0,.311-.3l.016-1.133a5.107,5.107,0,0,1-.337.854c-.264.38-.685.247-1.148.231l-9.351-.33c-.148,0-.692-.1-.775-.262a7.827,7.827,0,0,1-.595-.867Z" transform="translate(0.006 0.244)" fill="#a3a3a3"/>
              </g>
            </g>
          </g>
          <path id="Path_86790" data-name="Path 86790" d="M-2208.349,1905.649l-15.526-13.9,1.355-1.548,14.808,14.853Z" transform="translate(2480 -1657)" fill="#ece2e3"/>
        </g>
        <path id="Path_86805" data-name="Path 86805" d="M1043.5,807.96s-.619.933,1.164,1.4a17.636,17.636,0,0,0,1.853.139,31.547,31.547,0,0,0,4.1,0c1.153-.17,2.538.135,1.209-.671a28.2,28.2,0,0,0-5.312-1.731Z" fill="#feb59b"/>
      </g>
      <g id="Group_24597" data-name="Group 24597" transform="translate(991.5 637.916)">
        <path id="Path_86452" data-name="Path 86452" d="M171.617,124.314a8.972,8.972,0,0,1-3.034,2.464l1.052,14.268S180.518,149.773,171.617,124.314Z" transform="translate(-5.603 -8.223)" fill="#eae0e1"/>
        <g id="Group_22773" data-name="Group 22773" transform="translate(150.985 96.804)">
          <path id="Path_86453" data-name="Path 86453" d="M180.047,115.973s-.4-.13-8.952-2.667c-5.183-1.538-9.907-5.121-12.8-6.036-.3-.1-.51,1-.86,1.157-2.27,1.032,10.075,16.768,11.511,17.664.9.559,6.255-2.644,10.284-2.552C181.661,123.595,180.047,115.973,180.047,115.973Z" transform="translate(-150.201 -95.536)" fill="#ece2e3"/>
          <path id="Path_86454" data-name="Path 86454" d="M159.958,106.92s-2.784-5.079-5.547-6.549,1.767,3.321,1.767,3.321-1.866-.279-2.193.577c-.132.347,1.221.58,1.432,1.168a7.94,7.94,0,0,0,1.32,2.647,4.8,4.8,0,0,0,1.319.915A4.3,4.3,0,0,1,159.958,106.92Z" transform="translate(-114.63 -134.244) rotate(16)" fill="#feb59b"/>
          <path id="Path_86806" data-name="Path 86806" d="M-7.176,2.618l10.242-.93s1.635-.128,2.224.9S8.147,9.95,8.43,10.855a.868.868,0,0,1-.642,1.134s-9.149,2.473-10.935,2.942-1.959-.726-1.97-.881S-7.773,6.643-8.261,4.806A1.607,1.607,0,0,1-7.176,2.618Z" fill="url(#linear-gradient-32)"/>
          <path id="Path_86808" data-name="Path 86808" d="M-7.366,2.437l8.592-.75s1.372-.1,1.866.725,2.4,5.935,2.635,6.665a.7.7,0,0,1-.539.914s-7.675,1.994-9.174,2.372-1.643-.585-1.653-.71S-7.867,5.682-8.276,4.2A1.3,1.3,0,0,1-7.366,2.437Z" transform="translate(1.798 0.861)" fill="url(#linear-gradient-27)"/>
        </g>
        <g id="Group_22777" data-name="Group 22777" transform="translate(152.884 88.019)">
          <g id="Group_22774" data-name="Group 22774" transform="translate(0 15.614)">
            <g id="Group_24577" data-name="Group 24577" transform="matrix(0.978, 0.208, -0.208, 0.978, 16.341, -17.717)">
              <g id="Group_24325" data-name="Group 24325" transform="translate(4.748 16.805)">
                <path id="Path_53256" data-name="Path 53256" d="M0,0" fill="none" stroke="#707070" stroke-width="0.198"/>
                <g id="Group_24311" data-name="Group 24311" transform="translate(1.084 4.907)">
                  <path id="Path_53079" data-name="Path 53079" d="M5.293,1.293c.039.264-.452.834-1.847.96C.984,2.4.391,2.079.073,1.665A1.079,1.079,0,0,1,.561.4,2.619,2.619,0,0,1,2.338.006C4.227.173,5.379.55,5.293,1.293Z" transform="translate(0 3.023)" fill="#e69578"/>
                  <path id="Path_53080" data-name="Path 53080" d="M2.283,4.023S.517,3.948.456,3.4C.78,2.517,0,.23,0,.23L1.883.095Zm.975-.361-1.71.367L1.1,3.68,1.883.095,3.768,0a10.791,10.791,0,0,0-.2,3.372Z" transform="translate(0.486)" fill="#e69578"/>
                </g>
              </g>
              <g id="Group_24310-2" data-name="Group 24310" transform="translate(0.638 3.536)">
                <g id="Group_23917-2" data-name="Group 23917">
                  <path id="Path_54367-2" data-name="Path 54367" d="M17.539,9.8c1.039-4.6-1.993-8.516-6.591-9.555l.018,0C6.368-.788,1.946,1.446.907,6.044L.212,9.12A8.536,8.536,0,0,0,6.656,19.327l-.019,0a8.536,8.536,0,0,0,10.206-6.445Z" fill="#feb59b"/>
                  <g id="Group_23915-2" data-name="Group 23915" transform="translate(7.324 10.512)">
                    <path id="Path_54383-2" data-name="Path 54383" d="M2.841,1.583a7.119,7.119,0,0,1-1.1,2.581C1.31,4.882.365,3.263.05,2.14s.9-2.391,1.871-2.1.892.944.919,1.54" fill="#feb59b"/>
                  </g>
                </g>
                <path id="Path_54390-2" data-name="Path 54390" d="M0,0" transform="translate(8.403 11.772)" fill="none" stroke="#707070" stroke-width="0.198"/>
              </g>
              <path id="Path_86479" data-name="Path 86479" d="M3.153.081A3.491,3.491,0,0,0,.409,3.251C.115,7.52-1.392,16.034,4.127,17.959c6.7,2.337,12.958-8.187,13.094-12.65.1-3.2-2.519-1.123-3.279-1.183A3.6,3.6,0,0,1,12.669,3.8L5.406.34A3.5,3.5,0,0,0,3.153.081Z" transform="translate(3.149 4.899)" fill="#4e2e1f"/>
              <path id="Path_86480" data-name="Path 86480" d="M1.484,6.82S1.509,3.938.361,4.164.962.846,3.374.14,7.661,1.614,7.9,1.831,1.484,6.82,1.484,6.82Z" transform="translate(1.89 3.47)" fill="#5b2c12"/>
              <path id="Path_51198" data-name="Path 51198" d="M2.362,10.538C4.386,6.894,3.171,2.86,0,.4L2.911,0a7.479,7.479,0,0,1,.2,10.254,4.57,4.57,0,0,1-1.211,1.1Z" transform="translate(15.092 3.049)" fill="#682e2e"/>
              <path id="Path_51199" data-name="Path 51199" d="M1.7,13.81C.584,12.544-.85,6.737.638,4.858A17.488,17.488,0,0,1,5.306,0s5.926,1.077,8.231,2.5c.414.254,1.377.987,1.418,1.621h.013c.262.957-1.44,3.844-7.334,4.5-.189.015-.379.03-.581.044A5.581,5.581,0,0,0,8.441,6.285,5.619,5.619,0,0,1,5.313,8.518,4.265,4.265,0,0,0,3.7,9.356,44.4,44.4,0,0,0,1.7,13.81Z" transform="translate(0 2.005)" fill="#4e2e1f"/>
              <path id="Path_51200" data-name="Path 51200" d="M15.99,13.252c2.269-4.105.459-8.694-3.647-10.979h0C8.23,0,3.363.9,1.094,5.01L.443,6.182A1.069,1.069,0,0,0,0,6.038c.1-.223.21-.451.324-.679A9.269,9.269,0,0,1,12.367.761a5.191,5.191,0,0,1,.58.283A8.231,8.231,0,0,1,17.28,7.989l.012.469a9.7,9.7,0,0,1-.778,3.735c-.143.335-.305.675-.479,1.007l-.106.186c-.1.175-.21.343-.309.518Z" transform="translate(1.464 0.335)" fill="#4e2e1f"/>
              <path id="Path_50912" data-name="Path 50912" d="M16.829,9.088c.664-2.12-1.563-6.328-3.371-7.385A13.7,13.7,0,0,0,5.717.081,7.576,7.576,0,0,0,.3,4.019C-.082,4.695-.2,5.2.556,5.581c2.324,1.181,6.031,1.344,6.5,1.087A6.482,6.482,0,0,1,5.682,7.783c2.482,1.147,5,1.528,6.577.651a3.114,3.114,0,0,0,.479-.328c-.1,1.021.839,2.141.909,3.891a6.673,6.673,0,0,1-.593,3.193A13.439,13.439,0,0,0,16.829,9.088Z" transform="translate(3.437 0.008)" fill="#4e2e1f"/>
              <path id="Path_50913" data-name="Path 50913" d="M5.057,1.505C4.068,3.3,0,1.9,0,1.9S3.74.588,3.651.229,6.046-.292,5.057,1.505Z" transform="translate(11.863 7.803)" fill="#4e2e1f"/>
              <path id="Path_86481" data-name="Path 86481" d="M4.11,15.563s-1.482-3.549-1.833-3.621A10.481,10.481,0,0,1,0,8.1a8.938,8.938,0,0,1,1.67-4.759c1.3-1.716-.345-.873,1.3-1.716S6.264.835,7.191.272s7.925-.094,8.952,0S20,3.9,19.732,7.38a16.747,16.747,0,0,1-3.472,8.66c-1.321,1.438-3.556,4.306-8.446,4.324S4.11,15.563,4.11,15.563Z" transform="translate(0.638 2.828)" fill="#4e2e1f"/>
              <path id="Path_51197" data-name="Path 51197" d="M0,1.027A1.717,1.717,0,0,1,.869.151,1.955,1.955,0,0,1,3.4,1.246a1.944,1.944,0,0,1-.865,2.609,1.718,1.718,0,0,1-.928.139,2.12,2.12,0,0,0-.035-1.965C1.222,1.416.678,1.3,0,1.027Z" transform="translate(15.211 0)" fill="#a7db56"/>
              <path id="Path_50321" data-name="Path 50321" d="M.663.1a8.045,8.045,0,0,0,4.19,10.576l.836-.119C9.78,4.922,4.918-.819.663.1Z" transform="translate(17.065 5.014)" fill="#4e2e1f"/>
              <path id="Path_51201" data-name="Path 51201" d="M11.993,8.705C13.771,5.908,11.9,1.989,8.8.633L7.348,0A7.569,7.569,0,0,1,8.876,8.711L8.307,9.925h0a1.3,1.3,0,0,1,.726.965h0c.014.035.014.065.028.1h0c0,.03.014.066.016.1L9.07,11.1a.285.285,0,0,0,.016.1l-.005.012,0,.09a.013.013,0,0,0,.007.018h0l0,.09c-.005.012-.005.012,0,.03a.2.2,0,0,1-.009.084c-.005.012-.005.012,0,.03s-.01.054,0,.072a.049.049,0,0,0,0,.042c-.012.024,0,.042-.016.067a.049.049,0,0,0,0,.042c-.011.024,0,.042-.016.067a.049.049,0,0,0,0,.042c-.012.024,0,.042-.016.067l-.178.39a.08.08,0,0,1-.035.043.048.048,0,0,1-.029.031c-.012.024-.029.031-.04.055s-3.608-.875-3.623-.87c-.011.025,3.565.932,3.553.956s-.023.019-.029.031c-.024.018-.029.031-.052.05-.005.012-.023.019-.029.031a.322.322,0,0,1-.088.063c-.045.027-4.662-.3-4.7-.263-.005.009,4.561.367,4.551.371-.041.025-.088.063-.129.088h0a.821.821,0,0,1-.141.083c-.018.007-.023.019-.035.013-.041.026-.1.058-.141.083h0c-.041.026-2.715-1.531-2.756-1.506L7.7,13.2c-.1.057-.207.1-.3.142L6.172,12.48c-1.19-.875-.946-.923-1.053-.883h0c-2.281-2.194-1.248.848-1.348.868h0c-.086.026,1.437-.88,1.348-.868-.006,0-4.559-4.454-1.941-1.629l3.27,3.676c-.076.01-2.6-1.179-2.677-1.18h0c-.03,0-3.566,2.127-3.6,2.128-.978,1.036,2.523-.211,1.213.352a11.692,11.692,0,0,0,5.951,4.572C7.541,15.13,11.993,8.705,11.993,8.705Z" transform="translate(10.762 6.862)" fill="#4e2e1f"/>
              <path id="Path_51202" data-name="Path 51202" d="M5.007.417C4.55.253,3.78.549,3.4.389,3.1.267,2.8.134,2.511,0,2.3.7,1.982,1.644,1.646,2.64A1.838,1.838,0,0,1,1.24,4.886c-.135.1-.281.2-.428.291A10.465,10.465,0,0,0,.027,8.707,2.414,2.414,0,0,0,2.19,10.4C1.107,8.346,2.793,4.135,5.007.417Z" transform="translate(17.99 14.716)" fill="#4e2e1f"/>
              <path id="Path_86482" data-name="Path 86482" d="M4.768,14.145a8.789,8.789,0,0,0,3.489-4.054c.834-2.481,2.408-6.543,1.429-7.9S6.168-.625,4.96.284-.316,6.208.02,8.581,4.768,14.145,4.768,14.145Z" transform="translate(12.13 8.742)" fill="#4e2e1f"/>
              <path id="Path_54363-2" data-name="Path 54363" d="M2.708,1.156C2.488.6,2.346-.036,1.335,0A1.74,1.74,0,0,0,.254,2.6c.664.958,2.087,2.178,2.256,1.361a7.124,7.124,0,0,0,.2-2.8" transform="translate(1.267 13.574)" fill="#feb59b"/>
            </g>
            <g id="Mask_Group_11735" data-name="Mask Group 11735">
              <g id="Group_24325-2" data-name="Group 24325" transform="translate(13.663)">
                <path id="Path_53256-2" data-name="Path 53256" d="M173.063,108.668" transform="translate(-173.063 -108.668)" fill="none" stroke="#707070" stroke-width="0.198"/>
              </g>
              <g id="Group_24356" data-name="Group 24356" transform="translate(6.156 38.648)">
                <g id="Group_23663" data-name="Group 23663">
                  <g id="Group_23417" data-name="Group 23417">
                    <g id="Group_19887" data-name="Group 19887">
                      <g id="Group_19844" data-name="Group 19844" transform="translate(0 0.41)">
                        <g id="Group_19842" data-name="Group 19842">
                          <g id="Group_19822" data-name="Group 19822">
                            <g id="Group_19819" data-name="Group 19819">
                              <g id="Group_19281" data-name="Group 19281">
                                <g id="Group_19277" data-name="Group 19277">
                                  <g id="Group_19279" data-name="Group 19279">
                                    <g id="Group_19276" data-name="Group 19276">
                                      <g id="Group_19265" data-name="Group 19265">
                                        <g id="Group_19261" data-name="Group 19261">
                                          <g id="Group_19259" data-name="Group 19259">
                                            <path id="Path_50162" data-name="Path 50162" d="M169.9,186.513c.637,1.076-1.563,8.188-2.1,10.587a28.161,28.161,0,0,0-.92,3.409c-.206.854.061-.111-.225,1.081a3.9,3.9,0,0,1-1.729.374,2.427,2.427,0,0,1-1.288-.747c1.049-5.778-.682-12.278.678-18.628C166.248,182,169.158,185.267,169.9,186.513Z" transform="translate(-163.635 -162.773)" fill="#fd434a"/>
                                            <g id="Group_19258" data-name="Group 19258" transform="translate(0.219)">
                                              <path id="Path_50190" data-name="Path 50190" d="M168.442,159.223l-1.118,5.087s1.194-.2,6.095,1.443c2.03.682,3.473,1.5,4.279,1.8a2.559,2.559,0,0,0,.643,0c4.81-3.98,7.582-1.8,7.582-1.8s1.085-5.02.444-8.033c-4.227,1.029-6.521,3.007-9.187,3.117C171.583,161.071,168.442,159.223,168.442,159.223Z" transform="translate(-164.606 -157.72)" fill="#fd434a"/>
                                              <path id="Path_50164" data-name="Path 50164" d="M166.871,165.091c-.6,1.246-1.913,9.552-2.55,14.094s-.445,3.644,0,4.074c1.291,1.246,5.793,2.393,5.788,0,.528-2.922,2.412-5.482,3.744-9a34.515,34.515,0,0,0,1.46-4.571c.058-.31.652-1.967.748-2.377.126-.537-.709,1.191-.677.591C175.455,166.5,166.871,165.091,166.871,165.091Z" transform="translate(-163.911 -159.222)" fill="#fd434a"/>
                                              <path id="Path_50181" data-name="Path 50181" d="M188.655,160.354a9.311,9.311,0,0,1,.336,2.892c-.038.389-.025-.385,0,.431.1,3.272-.858,9.348-.966,12.715-.079,2.485.463,6.672,0,7.055-1.346,1.105-4.922-.627-5.692-2.253-1.323-2.8-4.384-9.337-4.366-16.615C177.97,163.163,188.655,160.354,188.655,160.354Z" transform="translate(-166.775 -158.257)" fill="#fd434a"/>
                                              <path id="Path_50183" data-name="Path 50183" d="M182.807,180.042c-.319,2.737.227,6.319,1.065,10.1s1.694,5.228,2.936,10.489c.586.211,2.885.233,2.787-.532a24.515,24.515,0,0,1,0-4.09c.154-2.831.035-3.642,0-7.351-.095-1.434-.176-6.365-.887-7.79C186.785,180.117,183.127,177.3,182.807,180.042Z" transform="translate(-167.742 -162.029)" fill="#fd434a"/>
                                            </g>
                                          </g>
                                        </g>
                                      </g>
                                    </g>
                                  </g>
                                </g>
                              </g>
                            </g>
                          </g>
                        </g>
                      </g>
                      <path id="Path_52606" data-name="Path 52606" d="M169.118,157.863a26.732,26.732,0,0,0,9.5.98,32.628,32.628,0,0,0,8.5-1.638c.01.1.057.615.054,1.092,0,.369,0,1.019,0,1.019a30.8,30.8,0,0,1-8.549,1.358,49.273,49.273,0,0,1-9.784-1.026A11.489,11.489,0,0,0,169.118,157.863Z" transform="translate(-164.694 -157.205)" fill="#1c1c1c"/>
                    </g>
                  </g>
                </g>
                <g id="Path_53456" data-name="Path 53456" transform="translate(9.25 1.539)">
                  <path id="Path_86455" data-name="Path 86455" d="M178.91,159.209l-3.41-.071-.248,2.357,3.517.092Z" transform="translate(-175.252 -159.138)" fill="none"/>
                  <path id="Path_86456" data-name="Path 86456" d="M178.409,159.671l-2.484-.051-.149,1.417,2.549.067.084-1.432m.5-.462-.14,2.378-3.518-.092.248-2.357Z" transform="translate(-175.252 -159.138)" fill="#ece2e3"/>
                </g>
                <rect id="Rectangle_5371" data-name="Rectangle 5371" width="2.991" height="1.102" rx="0.395" transform="translate(4.897 3.982) rotate(-83)" fill="#fd434a"/>
                <rect id="Rectangle_5440" data-name="Rectangle 5440" width="1.102" height="2.991" rx="0.395" transform="translate(15.445 1.462) rotate(-7)" fill="#fd434a"/>
                <rect id="Rectangle_5441" data-name="Rectangle 5441" width="1.102" height="2.991" rx="0.395" transform="translate(20.01 0.518) rotate(-7)" fill="#fd434a"/>
              </g>
              <g id="Group_24357" data-name="Group 24357" transform="translate(0.203 76.893)">
                <g id="Group_23674-3" data-name="Group 23674" transform="translate(0 0.109)">
                  <path id="Path_52267-3" data-name="Path 52267" d="M165.187,205.589a5.675,5.675,0,0,1-1.472-.084c-1.1-.083-1.331-.125-1.358-.131-.482.015-.641.451-1.694.526a.353.353,0,0,0-.041.006c-3.5.706-4.125,1.831-4.292,2.162a2.774,2.774,0,0,0-.162.416v.676a.3.3,0,0,0,.3.3h0l8.335-.058a.3.3,0,0,0,.3-.306v-.013s.185-2.877.206-3.246S165.187,205.589,165.187,205.589Z" transform="translate(-156.161 -205.373)" fill="#5095a4"/>
                  <path id="Path_52268-3" data-name="Path 52268" d="M165.21,208.819l.039-1.535-1.377,1.172a1.481,1.481,0,0,1-.832.447l-6.009.284s-.318-.5.209-1.634c.041-.09-.307.154-.614.46a1.4,1.4,0,0,0-.459.766c0,.3,0,.457,0,.832a.235.235,0,0,0,.233.24h0l8.375-.056a.335.335,0,0,0,.334-.338v-.014Z" transform="translate(-156.16 -205.762)" fill="#f0f0f0"/>
                  <path id="Path_52269-3" data-name="Path 52269" d="M165.248,208.9a5.827,5.827,0,0,1-.443.646c-.062.121-.467.2-.577.2l-6.963.246c-.345.012-.659.111-.855-.172a3.8,3.8,0,0,1-.251-.636l.013.845a.228.228,0,0,0,.231.225h0l8.551-.123a.263.263,0,0,0,.255-.248Z" transform="translate(-156.159 -206.091)" fill="#a3a3a3"/>
                </g>
                <path id="Path_86457" data-name="Path 86457" d="M190.6,205.236a36.887,36.887,0,0,1,1,3.84c-.042.4-.075.639-2.31.758-2.785.147-2.261-.858-2.261-.858l.36-3.631h1.684A13.412,13.412,0,0,0,190.6,205.236Z" transform="translate(-162.441 -205.236)" fill="#5095a4"/>
                <path id="Path_86458" data-name="Path 86458" d="M187.082,209.133h0c-.011.115.455.088.561-.143s.694-.338,2.147-.359,1.748.709,1.752.717a1.92,1.92,0,0,1,.059.419c-.042.4-.075.639-2.31.758-2.785.147-2.261-.858-2.261-.858Z" transform="translate(-162.441 -205.928)" fill="#f0f0f0"/>
                <path id="Path_86459" data-name="Path 86459" d="M191.6,210.033h-2.737c-.7,0-1.834-.1-1.834-.1l-.039.626s-.1.19.463.246a24.182,24.182,0,0,0,3.22.064c.382-.046.647-.08.819-.112.35-.067.242-.186.242-.186Z" transform="translate(-162.439 -206.193)" fill="#a3a3a3"/>
              </g>
              <g id="Group_23821" data-name="Group 23821" transform="translate(0 7.121)">
                <g id="Group_23820" data-name="Group 23820" transform="translate(0 1.034)">
                  <g id="Group_23819" data-name="Group 23819">
                    <g id="Group_23817" data-name="Group 23817">
                      <g id="Group_23813" data-name="Group 23813" transform="translate(18.085 13.655)">
                        <g id="Group_23809" data-name="Group 23809" transform="translate(0.234)">
                          <path id="Path_54079" data-name="Path 54079" d="M178.923,136.581a.412.412,0,0,1,.241-.517c.186-.038.378.131.428.377a.412.412,0,0,1-.242.516c-.185.039-.377-.13-.428-.377" transform="translate(-178.91 -136.059)" fill="#fff"/>
                        </g>
                        <g id="Group_23810" data-name="Group 23810" transform="translate(0 4.72)">
                          <path id="Path_54080" data-name="Path 54080" d="M178.629,142.509a.411.411,0,0,1,.242-.516c.185-.039.377.13.428.377a.414.414,0,0,1-.242.517c-.185.038-.377-.131-.428-.377" transform="translate(-178.616 -141.987)" fill="#fff"/>
                        </g>
                        <g id="Group_23811" data-name="Group 23811" transform="translate(0.084 9.287)">
                          <path id="Path_54081" data-name="Path 54081" d="M178.735,148.245a.411.411,0,0,1,.241-.516c.186-.039.377.13.428.377a.413.413,0,0,1-.242.517c-.185.038-.377-.131-.428-.377" transform="translate(-178.722 -147.723)" fill="#fff"/>
                        </g>
                        <g id="Group_23812" data-name="Group 23812" transform="translate(0.17 13.697)">
                          <path id="Path_54082" data-name="Path 54082" d="M178.843,153.783a.411.411,0,0,1,.241-.516c.186-.038.378.13.428.377a.412.412,0,0,1-.242.517c-.185.038-.376-.131-.428-.377" transform="translate(-178.83 -153.261)" fill="#fff"/>
                        </g>
                      </g>
                      <g id="Group_23815" data-name="Group 23815" transform="translate(0 0.968)">
                        <g id="Group_23814" data-name="Group 23814">
                          <path id="Path_53059" data-name="Path 53059" d="M165.228,133.392c-7.9,10.291-11.844,7.554-7.282-1.63,1.964-3.961,5.484-9.979,9.123-10.006.311,0,3.528,2.3,3.8,2.368C170.871,124.125,167.2,131.154,165.228,133.392Z" transform="translate(-26.116 -199.228) rotate(43)" fill="#ece2e3"/>
                          <path id="Path_53139" data-name="Path 53139" d="M185.738,135.176c.013,4.145-.368,9.644.292,14.405.169.545-.647.412-2.478.775a38.026,38.026,0,0,1-13.491-1.033c-.419-.11-1.292-.171-1.5-.654-.556-3.4,1.244-11.368.156-16.167-.257-.705.259-2.37.274-3.346a27.239,27.239,0,0,0-.545-4.506,3.012,3.012,0,0,0-1.464-2.669c1.3-.848,5.209-1.745,8.627-1.855.321.133-1.038.748-.853,1.211a4.689,4.689,0,0,0,2.659.83c1.362,0,2.327-.144,2.769-.806.776-.269-.046-1.037.571-.893,3.715.915,3.324,1.767,4.176,3.515S185.714,129.286,185.738,135.176Z" transform="translate(-158.162 -120.126)" fill="#fff"/>
                        </g>
                      </g>
                      <g id="Group_23816" data-name="Group 23816" transform="translate(8.611)">
                        <path id="Path_54084" data-name="Path 54084" d="M177.45,135.92c-.007-.294-.021-.562-.041-.8-.012-.149-.027-.285-.045-.409-.011-.075-.023-.154-.037-.237-.055-.331-.13-.717-.223-1.148-.115-.535-.257-1.139-.418-1.79q-.1-.386-.2-.791c-.054-.211-.109-.425-.166-.643q-.146-.56-.3-1.141c-.185-.685-.377-1.386-.572-2.086q-.11-.4-.221-.791c-.061-.214-.121-.428-.182-.641q-.164-.579-.326-1.14c-.455-1.583-.88-3.023-1.194-4.072-.22.056-.417.111-.589.162h0l-.009.007c-.272.037-2.155-1.155-3.021-.228,0-.014-3.085,1.366-3.152,1.717-.072.254-.021.041.123.158.178.134,2.846,2.773,1.425,5.938-.627,1.4-1.358,2.514-1.368,2.586a14.083,14.083,0,0,1,.963,4.715c-.026,6.074-1.057,16.266-1.064,16.655-.01.487-.013.755-.013.755l.008,0,1.206.138,5.081.582,2.792.319s4.113.084,4.129-.033c.081-.637.1-3.113.4-5.894.038-.352-3.761-.652-3.722-1.018q.042-.4.084-.8c.021-.215.044-.432.064-.649.038-.381.076-.766.112-1.151.086-.914.166-1.833.236-2.724.021-.27.041-.536.061-.8.015-.219.03-.436.044-.65.026-.395.049-.78.069-1.153C177.443,137.743,177.47,136.732,177.45,135.92Z" transform="translate(-166.719 -119.096)" fill="#383453"/>
                        <path id="Path_54085" data-name="Path 54085" d="M188.19,147.848q-.036-.394-.072-.8-.027-.321-.057-.649c-.033-.381-.067-.766-.1-1.153-.081-.956-.22-3.3-.291-4.237-.019-.269.77-5.712.842-10.181s-.605-6.794-.72-7a8.951,8.951,0,0,0-4.3-3.464l-2.617-1.453s-6.246,0-6.14.7c.059.389,2.2,27.6,2.24,27.979.321,3.148.564,5.969.564,5.969l9.733-.315,2.526-.279A10.238,10.238,0,0,1,188.19,147.848Z" transform="translate(-168.352 -118.91)" fill="#383453"/>
                        <path id="Path_54086" data-name="Path 54086" d="M186.07,121.439a2.448,2.448,0,0,0-.1-.737,2.776,2.776,0,0,0-1.347-.918l0,.006a4.05,4.05,0,0,1,.854,1.886c.025.853.341,8.167.341,8.167S186.167,123.645,186.07,121.439Z" transform="translate(-170.367 -119.088)" fill="#383453"/>
                        <path id="Path_54087" data-name="Path 54087" d="M190.622,161.4s-5.036.531-6.694.6c-1.422.062-5.326-.057-5.326-.057l-.131-1.268,11.4-.605Z" transform="translate(-169.113 -127.297)" fill="#ece2e3"/>
                        <path id="Path_54090" data-name="Path 54090" d="M181.109,161.722s-3.6.088-5.177-.034c-1.417-.11-9.088-1.041-9.088-1.041l.037-1.814s5.982,1,8.28,1.268c1.139.131,5.5.277,5.5.277Z" transform="translate(-166.744 -127.044)" fill="#ece2e3"/>
                      </g>
                    </g>
                  </g>
                </g>
                <path id="Path_54083" data-name="Path 54083" d="M172.378,120.082s13.044,2.05,8.551-1.024-10.044-.292-10.044-.292Z" transform="translate(-158.956 -117.611)" fill="#383453"/>
                <path id="Path_54088" data-name="Path 54088" d="M176.244,125.352c-.045-.183-.083-.328-.121-.483a9.244,9.244,0,0,0-1.232-3.129,1.348,1.348,0,0,1-.082-1.085c.436-1.229.057-1.533.057-1.533s-3.6-.551-4.1-.066-.307,1.351.414,2.455,2.031,1.388,2.474,1.96,3.6,7.08,3.6,7.08A38.946,38.946,0,0,0,176.244,125.352Z" transform="translate(-158.875 -117.864)" fill="#383453"/>
                <path id="Path_54089" data-name="Path 54089" d="M182.518,121.091a13.217,13.217,0,0,1-.68-2.1v-.055c.076.018.149.037.22.058l0,0,0,0s-.624-.583.007-.349a18.624,18.624,0,0,1,1.982.9h0l0,.006a2.389,2.389,0,0,1,1,2.03c.023.795.193,8.024.193,8.024S182.96,121.726,182.518,121.091Z" transform="translate(-161.177 -117.81)" fill="#383453"/>
              </g>
            </g>
          </g>
        </g>
        <g id="Group_24578" data-name="Group 24578" transform="translate(319.71 14.918) rotate(108)">
          <path id="Path_86465" data-name="Path 86465" d="M154.923,137.446s-6.317,3.84-8.713,6.987c-.272.358-1.065.884-1.206,1.194-.348.766.533,1.632,1.381,1.78,3.488.605,11.107-5.44,11.107-5.44Z" transform="translate(-0.782 -10.898)" fill="#ece2e3"/>
          <path id="Path_86464" data-name="Path 86464" d="M142.94,147.6l1.954-.348a4.137,4.137,0,0,1-.79,1.21,1.255,1.255,0,0,1-1.386.157C142.308,148.387,141.452,147.607,142.94,147.6Z" transform="translate(-0.207 -12.874)" fill="#feb59b"/>
          <path id="Path_86807" data-name="Path 86807" d="M142.94,147.6l1.693-.115s.128.236-.277.568-1.23.8-1.639.567S141.452,147.607,142.94,147.6Z" transform="matrix(0.719, -0.695, 0.695, 0.719, -68.244, 117.489)" fill="#feb59b"/>
          <path id="Path_86466" data-name="Path 86466" d="M144.712,147.14s-3.521,4.407-4.236,5.417,3.141-.886,4.235-1.376,1.871-1.41,1.736-1.786A2.912,2.912,0,0,1,144.712,147.14Z" transform="translate(0 -12.874)" fill="#feb59b"/>
        </g>
      </g>
      <path id="Path_86827" data-name="Path 86827" d="M-2223.866,3254.66s3.019-1.236,4.606-.846,1.906,3,1.906,3a2.283,2.283,0,0,1-1.906,2.075c-1.766.234-5.158-1.14-5.158-1.14Z" transform="translate(3274 -2455)" fill="#feb59b"/>
    </g>
  </g>
</svg>
