<svg id="Group_13868" data-name="Group 13868" xmlns="http://www.w3.org/2000/svg" width="20" height="20" viewBox="0 0 20 20">
  <circle id="Ellipse_1544" data-name="Ellipse 1544" cx="10" cy="10" r="10" fill="#022a4b"/>
  <path id="Union_33" data-name="Union 33" d="M6.27,7.843c-.476-.429-1.209-1.142-2-1.932-.792.789-1.525,1.5-2,1.932S1.1,8.668.436,8A1.285,1.285,0,0,1,.594,6.169s.852-.886,1.945-2C1.3,2.906.266,1.839.266,1.839-.186,1.387-.017.788.436.335a1.212,1.212,0,0,1,1.673,0c.554.5,1.342,1.273,2.159,2.089C5.086,1.609,5.873.839,6.428.335A1.212,1.212,0,0,1,8.1.335c.452.452.622,1.052.17,1.5,0,0-1.03,1.067-2.274,2.331,1.093,1.114,1.946,2,1.946,2A1.284,1.284,0,0,1,8.1,8a1.058,1.058,0,0,1-.76.354A1.759,1.759,0,0,1,6.27,7.843Z" transform="translate(5.861 6.102)" fill="#fff"/>
</svg>
