<svg id="save_menu_lower" xmlns="http://www.w3.org/2000/svg" width="30" height="30" viewBox="0 0 30 30">
  <rect id="bound" width="30" height="30" fill="none"/>
  <path id="Subtraction_58" data-name="Subtraction 58" d="M18.671,26a3.694,3.694,0,0,1-1.8-.472L13,23.431l-3.874,2.1A3.667,3.667,0,0,1,7.342,26a3.823,3.823,0,0,1-2.9-1.381,3.988,3.988,0,0,1-.893-3.281l.747-4.451L1.164,13.72A4.08,4.08,0,0,1,.217,9.549,3.817,3.817,0,0,1,3.3,6.916l4.336-.662L9.552,2.207a3.8,3.8,0,0,1,6.9,0l1.92,4.046,4.336.662a3.816,3.816,0,0,1,3.08,2.634,4.079,4.079,0,0,1-.948,4.171l-3.128,3.163.746,4.451a4.009,4.009,0,0,1-.892,3.3A3.806,3.806,0,0,1,18.671,26ZM9.706,12.252a.944.944,0,1,0,0,1.888h2.217v2.217a.944.944,0,0,0,1.888,0V14.14h2.217a.934.934,0,0,0,.944-.944.957.957,0,0,0-.944-.944H13.81V10.035a.944.944,0,0,0-1.888,0v2.217Z" transform="translate(2 2)" fill="#ffe000"/>
</svg>
