<svg xmlns="http://www.w3.org/2000/svg" width="20" height="20" viewBox="0 0 20 20">
  <g id="search_white" transform="translate(7358 -9080)">
    <g id="Group_16408" data-name="Group 16408" transform="translate(-7598.008 9130.842)">
      <g id="Group_4554" data-name="Group 4554" transform="translate(242.008 -48.842)">
        <g id="Group_4553" data-name="Group 4553">
          <path id="Path_5581" data-name="Path 5581" d="M252.408-45.553a6.343,6.343,0,0,1,.509.578l-.142-.183a6.1,6.1,0,0,1,.765,1.31c-.031-.073-.062-.145-.091-.216a6.013,6.013,0,0,1,.414,1.526c-.011-.08-.022-.162-.033-.242a6.125,6.125,0,0,1,0,1.57c.011-.08.022-.162.033-.242a6.013,6.013,0,0,1-.414,1.526c.031-.073.062-.145.091-.216a5.948,5.948,0,0,1-.765,1.31l.142-.183a6.089,6.089,0,0,1-1.086,1.086l.183-.142a6.1,6.1,0,0,1-1.31.765l.216-.091a6.017,6.017,0,0,1-1.526.414l.242-.033a6.14,6.14,0,0,1-1.57,0l.242.033a6.017,6.017,0,0,1-1.526-.414l.216.091a5.949,5.949,0,0,1-1.31-.765l.183.142a6.1,6.1,0,0,1-1.086-1.086l.142.183a6.1,6.1,0,0,1-.765-1.31c.031.073.062.145.091.216a6.008,6.008,0,0,1-.414-1.526l.033.242a6.139,6.139,0,0,1,0-1.57l-.033.242a6.008,6.008,0,0,1,.414-1.526c-.031.073-.062.145-.091.216a5.95,5.95,0,0,1,.765-1.31l-.142.183a6.1,6.1,0,0,1,1.086-1.086l-.183.142a6.1,6.1,0,0,1,1.31-.765l-.216.091a6.008,6.008,0,0,1,1.526-.414l-.242.033a6.14,6.14,0,0,1,1.57,0l-.242-.033a6.008,6.008,0,0,1,1.526.414l-.216-.091a5.948,5.948,0,0,1,1.31.765l-.183-.142a6.4,6.4,0,0,1,.578.509.934.934,0,0,0,.643.265.926.926,0,0,0,.643-.265.915.915,0,0,0,.265-.643.957.957,0,0,0-.265-.643,6.806,6.806,0,0,0-3.619-1.889,7.611,7.611,0,0,0-1.112-.113,6.573,6.573,0,0,0-1.017.067,6.748,6.748,0,0,0-1,.2,7.774,7.774,0,0,0-1.046.4,6.74,6.74,0,0,0-1.711,1.164,6.773,6.773,0,0,0-1.31,1.666,6.741,6.741,0,0,0-.714,1.9,6.8,6.8,0,0,0-.127,2.02,6.8,6.8,0,0,0,.471,1.978,6.98,6.98,0,0,0,.5,1.012,7.482,7.482,0,0,0,.688.934,6.791,6.791,0,0,0,1.615,1.362,6.747,6.747,0,0,0,1.877.781,6.833,6.833,0,0,0,4.006-.209,7.482,7.482,0,0,0,1.035-.474,7.33,7.33,0,0,0,.937-.649,6.753,6.753,0,0,0,1.421-1.57,6.821,6.821,0,0,0,1.11-3.877,6.8,6.8,0,0,0-1.274-3.837,7.727,7.727,0,0,0-.73-.867.934.934,0,0,0-.643-.265.925.925,0,0,0-.643.265.916.916,0,0,0-.265.643A.948.948,0,0,0,252.408-45.553Z" transform="translate(-242.008 48.842)" fill="#fff"/>
        </g>
      </g>
      <g id="Group_4556" data-name="Group 4556" transform="translate(251.948 -38.901)">
        <g id="Group_4555" data-name="Group 4555" transform="translate(0 0)">
          <path id="Path_5582" data-name="Path 5582" d="M296.751,7.18,298.073,8.5l2.107,2.1.485.484a.91.91,0,0,0,1.282,0,.908.908,0,0,0,.264-.639.947.947,0,0,0-.264-.639l-1.321-1.319-2.107-2.1-.485-.484a.911.911,0,0,0-1.282,0,.909.909,0,0,0-.264.64.932.932,0,0,0,.264.639Z" transform="translate(-296.152 -5.29)" fill="#fff"/>
        </g>
      </g>
    </g>
    <rect id="Rectangle_4666" data-name="Rectangle 4666" width="20" height="20" transform="translate(-7358 9080)" fill="none"/>
  </g>
</svg>
