<svg xmlns="http://www.w3.org/2000/svg" xmlns:xlink="http://www.w3.org/1999/xlink" width="89.055" height="91.055" viewBox="0 0 89.055 91.055">
  <defs>
    <clipPath id="clip-path">
      <path id="Path_46888" data-name="Path 46888" d="M140.367-338.794a10.852,10.852,0,0,1-10.84-10.84,10.852,10.852,0,0,1,10.84-10.84,10.852,10.852,0,0,1,10.84,10.84A10.852,10.852,0,0,1,140.367-338.794Zm0-18.864a8.033,8.033,0,0,0-8.024,8.024,8.033,8.033,0,0,0,8.024,8.024,8.033,8.033,0,0,0,8.024-8.024A8.033,8.033,0,0,0,140.367-357.658Z" transform="translate(-129.527 360.474)" fill="#2b3db1"/>
    </clipPath>
    <clipPath id="clip-path-2">
      <path id="Path_46890" data-name="Path 46890" d="M23-444a23.227,23.227,0,0,1-3.724-.3,1.408,1.408,0,0,1-1.152-1.1L17.1-450.33l-1.725-.714-4.2,2.759a1.408,1.408,0,0,1-1.6-.034,23.061,23.061,0,0,1-5.267-5.267,1.408,1.408,0,0,1-.034-1.6l2.759-4.2-.715-1.725-4.922-1.019a1.408,1.408,0,0,1-1.1-1.152A23.239,23.239,0,0,1,0-467a23.241,23.241,0,0,1,.3-3.723,1.408,1.408,0,0,1,1.1-1.153L6.328-472.9l.714-1.725-2.759-4.2a1.408,1.408,0,0,1,.034-1.6,23.066,23.066,0,0,1,5.267-5.267,1.408,1.408,0,0,1,1.6-.034l4.2,2.759,1.725-.714,1.019-4.922a1.408,1.408,0,0,1,1.152-1.1A23.212,23.212,0,0,1,23-490a23.231,23.231,0,0,1,3.724.3,1.408,1.408,0,0,1,1.152,1.1l1.019,4.922,1.725.714,4.2-2.759a1.408,1.408,0,0,1,1.6.034,23.069,23.069,0,0,1,5.267,5.267,1.408,1.408,0,0,1,.034,1.6l-2.759,4.2.714,1.725,4.922,1.019a1.408,1.408,0,0,1,1.1,1.152A23.21,23.21,0,0,1,46-467a23.208,23.208,0,0,1-.3,3.723,1.408,1.408,0,0,1-1.1,1.152l-4.922,1.019-.714,1.725,2.759,4.2a1.408,1.408,0,0,1-.034,1.6,23.068,23.068,0,0,1-5.267,5.267,1.408,1.408,0,0,1-1.6.034l-4.2-2.759-1.725.714-1.019,4.922a1.409,1.409,0,0,1-1.152,1.1A23.152,23.152,0,0,1,23-444Zm-2.32-2.949a20.312,20.312,0,0,0,4.639,0l.969-4.68a1.408,1.408,0,0,1,.84-1.015l3.1-1.285a1.409,1.409,0,0,1,1.312.124l3.994,2.623a20.224,20.224,0,0,0,3.281-3.281l-2.623-3.994a1.407,1.407,0,0,1-.124-1.312l1.285-3.1a1.408,1.408,0,0,1,1.015-.84l4.68-.969a20.379,20.379,0,0,0,.133-2.32,20.381,20.381,0,0,0-.133-2.32l-4.68-.969a1.408,1.408,0,0,1-1.015-.84l-1.285-3.1a1.409,1.409,0,0,1,.124-1.312l2.623-3.994a20.233,20.233,0,0,0-3.281-3.28l-3.994,2.623a1.408,1.408,0,0,1-1.312.124l-3.1-1.285a1.408,1.408,0,0,1-.84-1.015l-.969-4.68a20.317,20.317,0,0,0-4.639,0l-.969,4.68a1.408,1.408,0,0,1-.84,1.015l-3.1,1.285a1.408,1.408,0,0,1-1.312-.124l-3.994-2.623a20.233,20.233,0,0,0-3.281,3.28l2.623,3.994a1.408,1.408,0,0,1,.124,1.312l-1.285,3.1a1.408,1.408,0,0,1-1.015.84l-4.68.969A20.377,20.377,0,0,0,2.816-467a20.4,20.4,0,0,0,.133,2.32l4.68.969a1.408,1.408,0,0,1,1.015.84l1.285,3.1a1.408,1.408,0,0,1-.124,1.312l-2.623,3.994a20.228,20.228,0,0,0,3.281,3.281l3.994-2.623a1.408,1.408,0,0,1,1.312-.124l3.1,1.285a1.408,1.408,0,0,1,.84,1.015Z" transform="translate(0 490)" fill="#2b3db1"/>
    </clipPath>
    <clipPath id="clip-path-3">
      <path id="Path_46888-2" data-name="Path 46888" d="M142.5-334.525A12.989,12.989,0,0,1,129.527-347.5,12.989,12.989,0,0,1,142.5-360.474,12.989,12.989,0,0,1,155.476-347.5,12.989,12.989,0,0,1,142.5-334.525Zm0-22.578a9.615,9.615,0,0,0-9.6,9.6,9.615,9.615,0,0,0,9.6,9.6,9.615,9.615,0,0,0,9.6-9.6A9.614,9.614,0,0,0,142.5-357.1Z" transform="translate(-129.527 360.474)" fill="#f96f21"/>
    </clipPath>
    <clipPath id="clip-path-4">
      <path id="Path_46890-2" data-name="Path 46890" d="M27.528-434.945a27.8,27.8,0,0,1-4.457-.361,1.685,1.685,0,0,1-1.379-1.322l-1.22-5.891-2.064-.855-5.027,3.3a1.685,1.685,0,0,1-1.909-.04,27.6,27.6,0,0,1-6.3-6.3,1.685,1.685,0,0,1-.04-1.909l3.3-5.027-.855-2.064-5.891-1.22a1.685,1.685,0,0,1-1.322-1.379A27.815,27.815,0,0,1,0-462.473a27.818,27.818,0,0,1,.361-4.457,1.685,1.685,0,0,1,1.322-1.38l5.891-1.22.855-2.064-3.3-5.027a1.685,1.685,0,0,1,.04-1.909,27.608,27.608,0,0,1,6.3-6.3,1.686,1.686,0,0,1,1.909-.04l5.027,3.3,2.064-.855,1.22-5.891a1.685,1.685,0,0,1,1.379-1.322A27.78,27.78,0,0,1,27.528-490a27.8,27.8,0,0,1,4.457.361,1.685,1.685,0,0,1,1.379,1.322l1.22,5.891,2.064.855,5.027-3.3a1.686,1.686,0,0,1,1.909.04,27.611,27.611,0,0,1,6.3,6.3,1.685,1.685,0,0,1,.04,1.909l-3.3,5.027.855,2.064,5.891,1.22a1.685,1.685,0,0,1,1.322,1.379,27.78,27.78,0,0,1,.361,4.457,27.777,27.777,0,0,1-.361,4.457,1.685,1.685,0,0,1-1.322,1.379l-5.891,1.22-.855,2.064,3.3,5.027a1.686,1.686,0,0,1-.04,1.909,27.609,27.609,0,0,1-6.3,6.3,1.685,1.685,0,0,1-1.909.04l-5.027-3.3-2.064.855-1.22,5.891a1.686,1.686,0,0,1-1.379,1.322A27.708,27.708,0,0,1,27.528-434.945Zm-2.776-3.53a24.312,24.312,0,0,0,5.552,0l1.16-5.6a1.685,1.685,0,0,1,1.005-1.215l3.713-1.538a1.686,1.686,0,0,1,1.57.148l4.78,3.14a24.205,24.205,0,0,0,3.926-3.926l-3.14-4.78a1.684,1.684,0,0,1-.148-1.57l1.538-3.713a1.685,1.685,0,0,1,1.215-1.005l5.6-1.16a24.393,24.393,0,0,0,.159-2.776,24.394,24.394,0,0,0-.159-2.776l-5.6-1.16a1.685,1.685,0,0,1-1.215-1.005l-1.538-3.713a1.686,1.686,0,0,1,.148-1.57l3.14-4.78a24.217,24.217,0,0,0-3.926-3.926l-4.78,3.14a1.686,1.686,0,0,1-1.57.148l-3.713-1.538a1.685,1.685,0,0,1-1.005-1.215l-1.16-5.6a24.321,24.321,0,0,0-5.553,0l-1.16,5.6a1.685,1.685,0,0,1-1.005,1.215l-3.713,1.538a1.685,1.685,0,0,1-1.57-.148l-4.78-3.14A24.216,24.216,0,0,0,8.6-477.478l3.14,4.78a1.685,1.685,0,0,1,.148,1.57l-1.538,3.713a1.685,1.685,0,0,1-1.215,1.005l-5.6,1.16a24.39,24.39,0,0,0-.16,2.776A24.412,24.412,0,0,0,3.53-459.7l5.6,1.16a1.685,1.685,0,0,1,1.215,1.005l1.538,3.713a1.686,1.686,0,0,1-.148,1.57l-3.14,4.78a24.21,24.21,0,0,0,3.927,3.926l4.78-3.14a1.685,1.685,0,0,1,1.57-.148l3.713,1.538a1.685,1.685,0,0,1,1.005,1.215Z" transform="translate(0 490)" fill="#f96f21"/>
    </clipPath>
  </defs>
  <g id="Group_21824" data-name="Group 21824" transform="translate(-760 -252.944)">
    <g id="Group_21822" data-name="Group 21822" transform="translate(760 788.001)">
      <g id="Group_21822-2" data-name="Group 21822" transform="translate(12.159 -477.841)" clip-path="url(#clip-path)">
        <path id="Path_46887" data-name="Path 46887" d="M124.527-365.474h22.619v22.619H124.527Z" transform="translate(-124.996 365.005)" fill="#2b3db1"/>
      </g>
      <g id="Group_21823" data-name="Group 21823" transform="translate(0 -490)" clip-path="url(#clip-path-2)">
        <path id="Path_46889" data-name="Path 46889" d="M-5-495H41.937v46.937H-5Z" transform="translate(4.531 494.531)" fill="#2b3db1"/>
      </g>
    </g>
    <g id="Group_21823-2" data-name="Group 21823" transform="translate(794 742.944)">
      <g id="Group_21822-3" data-name="Group 21822" transform="translate(14.553 -475.447)" clip-path="url(#clip-path-3)">
        <path id="Path_46887-2" data-name="Path 46887" d="M124.527-365.474H151.6V-338.4H124.527Z" transform="translate(-125.089 364.912)" fill="#f96f21"/>
      </g>
      <g id="Group_21823-3" data-name="Group 21823" transform="translate(0 -490)" clip-path="url(#clip-path-4)">
        <path id="Path_46889-2" data-name="Path 46889" d="M-5-495H51.178v56.178H-5Z" transform="translate(4.438 494.438)" fill="#f96f21"/>
      </g>
    </g>
  </g>
</svg>
