<svg xmlns="http://www.w3.org/2000/svg" width="19.918" height="21.854" viewBox="0 0 19.918 21.854">
  <g id="Group_26615" data-name="Group 26615" transform="translate(-291.75 -68.75)">
    <g id="Icon_feather-share-2" data-name="Icon feather-share-2" transform="translate(293 70)">
      <path id="Path_165764" data-name="Path 165764" d="M28.306,5.9A2.9,2.9,0,1,1,25.4,3,2.9,2.9,0,0,1,28.306,5.9Z" transform="translate(-10.888 -3)" fill="none" stroke="#fff" stroke-linecap="round" stroke-linejoin="round" stroke-width="2.5"/>
      <path id="Path_165765" data-name="Path 165765" d="M10.306,16.4a2.9,2.9,0,1,1-2.9-2.9A2.9,2.9,0,0,1,10.306,16.4Z" transform="translate(-4.5 -6.726)" fill="none" stroke="#fff" stroke-linecap="round" stroke-linejoin="round" stroke-width="2.5"/>
      <path id="Path_165766" data-name="Path 165766" d="M28.306,26.9A2.9,2.9,0,1,1,25.4,24,2.9,2.9,0,0,1,28.306,26.9Z" transform="translate(-10.888 -10.453)" fill="none" stroke="#fff" stroke-linecap="round" stroke-linejoin="round" stroke-width="2.5"/>
      <path id="Path_165767" data-name="Path 165767" d="M12.885,20.265l6.609,3.851" transform="translate(-7.476 -9.127)" fill="none" stroke="#fff" stroke-linecap="round" stroke-linejoin="round" stroke-width="2.5"/>
      <path id="Path_165768" data-name="Path 165768" d="M19.485,9.765l-6.6,3.851" transform="translate(-7.476 -5.401)" fill="none" stroke="#fff" stroke-linecap="round" stroke-linejoin="round" stroke-width="2.5"/>
    </g>
  </g>
</svg>
