<?xml version="1.0" encoding="utf-8"?>
<!-- Generator: Adobe Illustrator 24.1.1, SVG Export Plug-In . SVG Version: 6.00 Build 0)  -->
<svg version="1.1" id="Layer_1" xmlns="http://www.w3.org/2000/svg" xmlns:xlink="http://www.w3.org/1999/xlink" x="0px" y="0px"
	 viewBox="0 0 31.1 20.7" style="enable-background:new 0 0 31.1 20.7;" xml:space="preserve">
<style type="text/css">
	.st0{fill:#D5D5D5;}
	.st1{clip-path:url(#SVGID_2_);}
	.st2{clip-path:url(#SVGID_4_);}
	.st3{clip-path:url(#SVGID_6_);}
	.st4{clip-path:url(#SVGID_8_);}
	.st5{clip-path:url(#SVGID_10_);}
	.st6{clip-path:url(#SVGID_12_);}
	.st7{clip-path:url(#SVGID_14_);}
	.st8{clip-path:url(#SVGID_16_);}
</style>
<g id="Layer_2_1_">
	<g id="Layer_1-2">
		<g id="Group_13981">
			<g id="Gold">
				<g id="Group_13979">
					<g id="Group_9565">
						<path class="st0" d="M5.7,0.8C4.4,1.9,4.3,3.9,5.4,5.2l1.8,2l0.6-0.6c1.3-1.1,1.4-3.1,0.3-4.4l-1.8-2L5.7,0.8z"/>
						<g>
							<defs>
								<path id="SVGID_1_" d="M5.7,0.8C4.4,1.9,4.3,3.9,5.4,5.2l1.8,2l0.6-0.6c1.3-1.1,1.4-3.1,0.3-4.4l-1.8-2L5.7,0.8z"/>
							</defs>
							<clipPath id="SVGID_2_">
								<use xlink:href="#SVGID_1_"  style="overflow:visible;"/>
							</clipPath>
							<g class="st1">
								<g id="Group_9553">
									<path id="Path_13588" class="st0" d="M1.4-10.1l18.8,7.6l-8.1,20L-6.7,9.9L1.4-10.1z"/>
								</g>
							</g>
						</g>
						<path class="st0" d="M5.9,11.2l0.3-0.8C6.8,8.8,6,7,4.4,6.4L2,5.4L1.7,6.2c-0.6,1.6,0.2,3.4,1.8,4L5.9,11.2z"/>
						<g>
							<defs>
								<path id="SVGID_3_" d="M5.9,11.2l0.3-0.8C6.8,8.8,6,7,4.4,6.4L2,5.4L1.7,6.2c-0.6,1.6,0.2,3.4,1.8,4L5.9,11.2z"/>
							</defs>
							<clipPath id="SVGID_4_">
								<use xlink:href="#SVGID_3_"  style="overflow:visible;"/>
							</clipPath>
							<g class="st2">
								<g id="Group_9555">
									<path id="Path_13592" class="st0" d="M-2.3-4.7l19.7,8l-7.3,18l-19.7-8L-2.3-4.7z"/>
								</g>
							</g>
						</g>
						<path class="st0" d="M6.3,15.2l-0.1-0.8c-0.2-1.7-1.7-2.9-3.4-2.7L0.1,12l0.1,0.8c0.2,1.7,1.7,2.9,3.4,2.7L6.3,15.2z"/>
						<g>
							<defs>
								<path id="SVGID_5_" d="M6.3,15.2l-0.1-0.8c-0.2-1.7-1.7-2.9-3.4-2.7L0.1,12l0.1,0.8c0.2,1.7,1.7,2.9,3.4,2.7L6.3,15.2z"/>
							</defs>
							<clipPath id="SVGID_6_">
								<use xlink:href="#SVGID_5_"  style="overflow:visible;"/>
							</clipPath>
							<g class="st3">
								<g id="Group_9557">
									<path id="Path_13596" class="st0" d="M-3.5,0.4l20.8,8.4L9.9,26.9l-20.8-8.4L-3.5,0.4z"/>
								</g>
							</g>
						</g>
						<path class="st0" d="M4.3,16.9l-2.2,1.5l0.5,0.7c1,1.4,2.9,1.8,4.3,0.8c0,0,0,0,0,0l0,0l2.2-1.5l-0.5-0.7
							C7.7,16.3,5.7,15.9,4.3,16.9L4.3,16.9z"/>
						<g>
							<defs>
								<path id="SVGID_7_" d="M4.3,16.9l-2.2,1.5l0.5,0.7c1,1.4,2.9,1.8,4.3,0.8c0,0,0,0,0,0l0,0l2.2-1.5l-0.5-0.7
									C7.7,16.3,5.7,15.9,4.3,16.9L4.3,16.9z"/>
							</defs>
							<clipPath id="SVGID_8_">
								<use xlink:href="#SVGID_7_"  style="overflow:visible;"/>
							</clipPath>
							<g class="st4">
								<g id="Group_9559">
									<path id="Path_13600" class="st0" d="M-0.8,5l20.3,8.3L12,31.8l-20.3-8.2L-0.8,5z"/>
								</g>
							</g>
						</g>
					</g>
					<g id="Group_9566">
						<path class="st0" d="M25.4,0.8c1.3,1.1,1.4,3.1,0.3,4.4l-1.7,2l-0.6-0.6C22,5.5,21.9,3.5,23,2.2l1.7-2L25.4,0.8z"/>
						<g>
							<defs>
								<path id="SVGID_9_" d="M25.4,0.8c1.3,1.1,1.4,3.1,0.3,4.4l-1.7,2l-0.6-0.6C22,5.5,21.9,3.5,23,2.2l1.7-2L25.4,0.8z"/>
							</defs>
							<clipPath id="SVGID_10_">
								<use xlink:href="#SVGID_9_"  style="overflow:visible;"/>
							</clipPath>
							<g class="st5">
								<g id="Group_9553-2">
									<path id="Path_13588-2" class="st0" d="M29.7-10.1L10.9-2.5l8.1,20l18.8-7.6L29.7-10.1z"/>
								</g>
							</g>
						</g>
						<path class="st0" d="M25.2,11.2l-0.3-0.8c-0.6-1.6,0.2-3.4,1.8-4l2.5-0.9l0.3,0.8c0.6,1.6-0.2,3.4-1.8,4L25.2,11.2z"/>
						<g>
							<defs>
								<path id="SVGID_11_" d="M25.2,11.2l-0.3-0.8c-0.6-1.6,0.2-3.4,1.8-4l2.5-0.9l0.3,0.8c0.6,1.6-0.2,3.4-1.8,4L25.2,11.2z"/>
							</defs>
							<clipPath id="SVGID_12_">
								<use xlink:href="#SVGID_11_"  style="overflow:visible;"/>
							</clipPath>
							<g class="st6">
								<g id="Group_9555-2">
									<path id="Path_13592-2" class="st0" d="M33.4-4.7l-19.7,8l7.3,18l19.7-8L33.4-4.7z"/>
								</g>
							</g>
						</g>
						<path class="st0" d="M24.8,15.2l0.1-0.8c0.2-1.7,1.7-2.9,3.4-2.7c0,0,0,0,0,0L31,12l-0.1,0.8c-0.2,1.7-1.7,2.9-3.4,2.7
							c0,0,0,0,0,0L24.8,15.2z"/>
						<g>
							<defs>
								<path id="SVGID_13_" d="M24.8,15.2l0.1-0.8c0.2-1.7,1.7-2.9,3.4-2.7c0,0,0,0,0,0L31,12l-0.1,0.8c-0.2,1.7-1.7,2.9-3.4,2.7
									c0,0,0,0,0,0L24.8,15.2z"/>
							</defs>
							<clipPath id="SVGID_14_">
								<use xlink:href="#SVGID_13_"  style="overflow:visible;"/>
							</clipPath>
							<g class="st7">
								<g id="Group_9557-2">
									<path id="Path_13596-2" class="st0" d="M34.6,0.4L13.9,8.8l7.3,18.1l20.8-8.4L34.6,0.4z"/>
								</g>
							</g>
						</g>
						<path class="st0" d="M26.8,16.9l2.2,1.5l-0.5,0.7c-1,1.4-2.9,1.8-4.3,0.8c0,0,0,0,0,0l0,0L22,18.4l0.5-0.7
							C23.5,16.3,25.4,15.9,26.8,16.9z"/>
						<g>
							<defs>
								<path id="SVGID_15_" d="M26.8,16.9l2.2,1.5l-0.5,0.7c-1,1.4-2.9,1.8-4.3,0.8c0,0,0,0,0,0l0,0L22,18.4l0.5-0.7
									C23.5,16.3,25.4,15.9,26.8,16.9z"/>
							</defs>
							<clipPath id="SVGID_16_">
								<use xlink:href="#SVGID_15_"  style="overflow:visible;"/>
							</clipPath>
							<g class="st8">
								<g id="Group_9559-2">
									<path id="Path_13600-2" class="st0" d="M31.9,5l-20.3,8.3l7.6,18.6l20.3-8.2L31.9,5z"/>
								</g>
							</g>
						</g>
					</g>
				</g>
			</g>
		</g>
	</g>
</g>
</svg>
