<svg xmlns="http://www.w3.org/2000/svg" xmlns:xlink="http://www.w3.org/1999/xlink" width="260" height="260" viewBox="0 0 260 260">
  <defs>
    <linearGradient id="linear-gradient" x1="0.27" y1="0.991" x2="0.696" y2="0.279" gradientUnits="objectBoundingBox">
      <stop offset="0" stop-color="#edf2f7"/>
      <stop offset="1" stop-color="#6ea0c6"/>
    </linearGradient>
    <linearGradient id="linear-gradient-15" x1="0.5" x2="0.5" y2="1" gradientUnits="objectBoundingBox">
      <stop offset="0" stop-color="#edf2f7"/>
      <stop offset="1" stop-color="#d3e0ea"/>
    </linearGradient>
    <clipPath id="clip-path">
      <rect id="Rectangle_4579" data-name="Rectangle 4579" width="13" height="16" transform="translate(-0.213 0.197)" stroke="rgba(0,0,0,0)" stroke-linecap="round" stroke-width="1" fill="url(#linear-gradient)"/>
    </clipPath>
    <clipPath id="clip-path-2">
      <path id="Path_47017" data-name="Path 47017" d="M11.153-20.959,7.114-23.324A.874.874,0,0,1,6.8-24.529a.9.9,0,0,1,1.22-.308l4.039,2.365a.874.874,0,0,1,.313,1.206A.9.9,0,0,1,11.153-20.959Z" transform="translate(-6.676 24.96)" fill="url(#linear-gradient)"/>
    </clipPath>
    <clipPath id="clip-path-3">
      <path id="Path_47016" data-name="Path 47016" d="M1-23.229H13.787V-39H1Z" transform="translate(-1 39)" fill="url(#linear-gradient)"/>
    </clipPath>
    <clipPath id="clip-path-4">
      <path id="Path_47021" data-name="Path 47021" d="M22.954-33.55l-2.728-3.8a.874.874,0,0,1,.2-1.229.9.9,0,0,1,1.24.215l2.728,3.8a.874.874,0,0,1-.2,1.229A.9.9,0,0,1,22.954-33.55Z" transform="translate(-20.059 38.742)" fill="url(#linear-gradient)"/>
    </clipPath>
    <clipPath id="clip-path-6">
      <path id="Path_47025" data-name="Path 47025" d="M7.088-5.228,2.407-5.257a.874.874,0,0,1-.874-.888.9.9,0,0,1,.9-.877l4.681.029a.874.874,0,0,1,.874.888A.9.9,0,0,1,7.088-5.228Z" transform="translate(-1.533 7.021)" fill="url(#linear-gradient)"/>
    </clipPath>
    <clipPath id="clip-path-8">
      <rect id="Rectangle_4762" data-name="Rectangle 4762" width="16" height="13" transform="translate(19.223 82.122) rotate(-63.045)" stroke="rgba(0,0,0,0)" stroke-linecap="round" stroke-width="1" fill="url(#linear-gradient)"/>
    </clipPath>
    <clipPath id="clip-path-9">
      <path id="Path_86414" data-name="Path 86414" d="M28.183,80.189,25.655,76.25a.873.873,0,0,1,.255-1.209l.011-.008a.9.9,0,0,1,1.227.279l2.529,3.939a.875.875,0,0,1-.256,1.209l-.012.008A.9.9,0,0,1,28.183,80.189Z" stroke="rgba(0,0,0,0)" stroke-linecap="round" stroke-width="1" fill="url(#linear-gradient)"/>
    </clipPath>
    <clipPath id="clip-path-10">
      <rect id="Rectangle_4759" data-name="Rectangle 4759" width="15.771" height="12.787" transform="translate(19.413 82.22) rotate(-63.045)" stroke="rgba(0,0,0,0)" stroke-linecap="round" stroke-width="1" fill="url(#linear-gradient)"/>
    </clipPath>
    <clipPath id="clip-path-11">
      <path id="Path_86415" data-name="Path 86415" d="M33.981,77.882l-.71-4.624a.873.873,0,0,1,.723-1l.013,0a.9.9,0,0,1,1.008.753l.709,4.624a.875.875,0,0,1-.723,1l-.013,0A.9.9,0,0,1,33.981,77.882Z" stroke="rgba(0,0,0,0)" stroke-linecap="round" stroke-width="1" fill="url(#linear-gradient)"/>
    </clipPath>
    <clipPath id="clip-path-12">
      <rect id="Rectangle_4760" data-name="Rectangle 4760" width="15.771" height="12.787" transform="translate(19.413 82.219) rotate(-63.045)" stroke="rgba(0,0,0,0)" stroke-linecap="round" stroke-width="1" fill="url(#linear-gradient)"/>
    </clipPath>
    <clipPath id="clip-path-13">
      <path id="Path_86416" data-name="Path 86416" d="M24.724,84.531l-4.159-2.148a.874.874,0,0,1-.383-1.175l.006-.013a.9.9,0,0,1,1.2-.374l4.159,2.148a.874.874,0,0,1,.384,1.175l-.007.013A.9.9,0,0,1,24.724,84.531Z" stroke="rgba(0,0,0,0)" stroke-linecap="round" stroke-width="1" fill="url(#linear-gradient)"/>
    </clipPath>
  </defs>
  <g id="_9" data-name="9" transform="translate(-1000 -997)">
    <g id="Group_24629" data-name="Group 24629">
      <path id="Path_86821" data-name="Path 86821" d="M106,212A106,106,0,1,0,0,106,106,106,0,0,0,106,212Z" transform="translate(1012 1017)" fill="rgba(255,255,255,0.27)" stroke="rgba(255,255,255,0.58)" stroke-width="2" stroke-dasharray="2 7"/>
      <g id="_12" data-name="12" transform="translate(-389 -106)">
        <rect id="Rectangle_4793" data-name="Rectangle 4793" width="260" height="260" transform="translate(1389 1103)" fill="none"/>
        <g id="Group_22398" data-name="Group 22398" transform="translate(1 2)">
          <ellipse id="Ellipse_2760" data-name="Ellipse 2760" cx="105" cy="13" rx="105" ry="13" transform="translate(1412 1316)" opacity="0.3"/>
          <g id="Group_24603" data-name="Group 24603" transform="translate(-5 -2)">
            <g id="Group_24603-2" data-name="Group 24603" transform="translate(1403.5 1125)">
              <g id="Mask_Group_11735" data-name="Mask Group 11735">
                <g id="Group_24356" data-name="Group 24356">
                  <g id="Group_23663" data-name="Group 23663">
                    <g id="Group_23417" data-name="Group 23417">
                      <g id="Group_19887" data-name="Group 19887">
                        <g id="Group_19844" data-name="Group 19844">
                          <g id="Group_19842" data-name="Group 19842">
                            <g id="Group_19822" data-name="Group 19822">
                              <g id="Group_19819" data-name="Group 19819">
                                <g id="Group_19281" data-name="Group 19281">
                                  <g id="Group_19277" data-name="Group 19277">
                                    <g id="Group_19279" data-name="Group 19279">
                                      <g id="Group_19276" data-name="Group 19276">
                                        <g id="Group_19265" data-name="Group 19265">
                                          <g id="Group_19261" data-name="Group 19261">
                                            <g id="Group_19259" data-name="Group 19259">
                                              <path id="Path_50162" data-name="Path 50162" d="M173.528,176.492c1.707,7.975-.466,16.139.852,23.394a3.056,3.056,0,0,1-1.619.939,4.917,4.917,0,0,1-2.172-.47c-.36-1.5-.024-.286-.283-1.358a35.4,35.4,0,0,0-1.154-4.282c-.671-3.012-3.434-11.945-2.634-13.3C167.443,179.855,171.1,175.75,173.528,176.492Z" fill="#fd434a"/>
                                              <g id="Group_19258" data-name="Group 19258">
                                                <path id="Path_50190" data-name="Path 50190" d="M158.314,155.52c-3.349-.14-6.23-2.623-11.539-3.916-.8,3.785.557,10.09.557,10.09s3.481-2.732,9.523,2.265a3.114,3.114,0,0,0,.807,0c1.012-.377,2.825-1.409,5.374-2.265,6.154-2.068,7.654-1.812,7.654-1.812l-1.4-6.389S165.341,155.813,158.314,155.52Z" fill="#fd434a"/>
                                                <path id="Path_50164" data-name="Path 50164" d="M159.7,162.5c.04.754-1.008-1.417-.85-.743.121.516.867,2.6.941,2.986a43.284,43.284,0,0,0,1.833,5.74c1.672,4.421,4.039,7.636,4.7,11.307-.006,3,5.648,1.564,7.269,0,.56-.54.8.588,0-5.116s-2.445-16.136-3.2-17.7C170.387,158.976,159.6,160.741,159.7,162.5Z" fill="#fd434a"/>
                                                <path id="Path_50181" data-name="Path 50181" d="M160.047,159.542c.023,9.142-3.823,17.355-5.484,20.868-.965,2.043-5.458,4.217-7.147,2.829-.582-.48.1-5.739,0-8.86-.135-4.227-1.341-11.859-1.213-15.967.032-1.024.048-.054,0-.541a11.691,11.691,0,0,1,.423-3.633S160.043,157.767,160.047,159.542Z" fill="#fd434a"/>
                                                <path id="Path_50183" data-name="Path 50183" d="M147.772,175.267c-.893,1.789-1,7.983-1.113,9.783-.045,4.659-.195,5.678,0,9.233a30.9,30.9,0,0,1,0,5.136c-.124.96,2.763.933,3.5.668,1.56-6.607,2.632-8.423,3.686-13.173s1.739-9.25,1.338-12.687S150.189,174.32,147.772,175.267Z" fill="#fd434a"/>
                                              </g>
                                            </g>
                                          </g>
                                        </g>
                                      </g>
                                    </g>
                                  </g>
                                </g>
                              </g>
                            </g>
                          </g>
                        </g>
                        <path id="Path_52606" data-name="Path 52606" d="M169.179,154.158a61.89,61.89,0,0,1-12.287,1.29,38.726,38.726,0,0,1-10.736-1.706s0-.817,0-1.28c0-.6.054-1.248.067-1.372a41.068,41.068,0,0,0,10.669,2.057,33.6,33.6,0,0,0,11.931-1.231A14.4,14.4,0,0,0,169.179,154.158Z" fill="#1c1c1c"/>
                      </g>
                    </g>
                  </g>
                  <g id="Path_53456" data-name="Path 53456">
                    <path id="Path_86412" data-name="Path 86412" d="M158.345,156.1l4.417-.116-.312-2.96-4.281.088Z" fill="none"/>
                    <path id="Path_86413" data-name="Path 86413" d="M158.8,153.692l.106,1.8,3.2-.084-.187-1.78-3.12.065m3.653-.669.312,2.96-4.417.116-.176-2.988Z" fill="#ece2e3"/>
                  </g>
                  <rect id="Rectangle_5371" data-name="Rectangle 5371" width="1.384" height="3.756" rx="0.395" transform="translate(166.397 152.531) rotate(-7)" fill="#fd434a"/>
                  <rect id="Rectangle_5440" data-name="Rectangle 5440" width="3.756" height="1.384" rx="0.395" transform="translate(153.151 156.486) rotate(-83)" fill="#fd434a"/>
                  <rect id="Rectangle_5441" data-name="Rectangle 5441" width="3.756" height="1.384" rx="0.395" transform="translate(147.417 155.299) rotate(-83)" fill="#fd434a"/>
                </g>
                <g id="Group_24357" data-name="Group 24357">
                  <g id="Group_23674" data-name="Group 23674">
                    <path id="Path_52267" data-name="Path 52267" d="M170.346,200.293c.027.464.26,4.077.26,4.077v.016a.382.382,0,0,0,.379.384l10.467.073h0a.382.382,0,0,0,.381-.382v-.849a3.378,3.378,0,0,0-.2-.522c-.21-.415-.991-1.828-5.391-2.715a.446.446,0,0,0-.051-.007c-1.323-.094-1.522-.642-2.128-.661a2.9,2.9,0,0,1-1.743.486,3.692,3.692,0,0,1-1.811-.215S170.32,199.83,170.346,200.293Z" fill="#5095a4"/>
                    <path id="Path_52268" data-name="Path 52268" d="M170.606,204.332v.016a.422.422,0,0,0,.419.425l10.518.07h.006a.3.3,0,0,0,.292-.3c-.006-.472-.006-.664-.006-1.045a1.75,1.75,0,0,0-.576-.963c-.386-.384-.647-.577-.771-.577-.922,0-2.5,1.54-2.5,1.54l-7.378-.033Z" fill="#f0f0f0"/>
                    <path id="Path_52269" data-name="Path 52269" d="M170.478,204.456a.312.312,0,0,0,.306.312l10.754.155h0a.286.286,0,0,0,.291-.283l.015-1.06a2.681,2.681,0,0,0-.831.433,3.724,3.724,0,0,1-1.874.49l-7.54.024a1.315,1.315,0,0,1-.613-.486,4.5,4.5,0,0,1-.411-.655Z" fill="#a3a3a3"/>
                  </g>
                  <g id="Group_23675" data-name="Group 23675">
                    <path id="Path_52263" data-name="Path 52263" d="M141.439,205.036a.341.341,0,0,0-.046.165.353.353,0,0,0,.343.362l8.269.239h.02a.354.354,0,0,0,.343-.364l-.023-.749-.133-4.44s.282-.88-2.058-.915l-.051,0c-3.155.015-5.822,4.221-6.665,5.7" fill="#5095a4"/>
                    <path id="Path_52265" data-name="Path 52265" d="M142.1,203.721c-.282.06-.913.943-1.285,1.5a.269.269,0,0,0-.047.146.32.32,0,0,0,.33.309l8.953.216h.028a.315.315,0,0,0,.319-.318l-.068-1.078a4.916,4.916,0,0,0-.748,0c-.478.024-1.843.045-2.429.026a.36.36,0,0,1-.188-.059,5.033,5.033,0,0,0-4.865-.736" fill="#f0f0f0"/>
                    <path id="Path_52266" data-name="Path 52266" d="M141.2,205.163a2.586,2.586,0,0,1,1.952-.614,13.7,13.7,0,0,1,3.706.73.291.291,0,0,0,.092.015h2.6a.3.3,0,0,0,.281-.186.566.566,0,0,1,.279-.31c.3-.155.238-.108.238-.108l.054.88v.026a.3.3,0,0,1-.308.292L146.9,205.8l-5.474-.149a.3.3,0,0,1-.18-.065.3.3,0,0,1-.048-.423" fill="#a3a3a3"/>
                  </g>
                </g>
                <g id="Group_23821" data-name="Group 23821">
                  <g id="Group_23820" data-name="Group 23820">
                    <g id="Group_23819" data-name="Group 23819">
                      <g id="Group_23817" data-name="Group 23817">
                        <g id="Group_23813" data-name="Group 23813">
                          <g id="Group_23809" data-name="Group 23809">
                            <path id="Path_54079" data-name="Path 54079" d="M162.215,133.118c.024-.316.234-.557.471-.539a.516.516,0,0,1,.386.6c-.025.316-.235.557-.472.54a.517.517,0,0,1-.385-.6" fill="#fff"/>
                          </g>
                          <g id="Group_23810" data-name="Group 23810">
                            <path id="Path_54080" data-name="Path 54080" d="M160.291,138.732c.023-.316.234-.557.471-.539a.516.516,0,0,1,.386.6c-.025.316-.236.557-.472.539a.516.516,0,0,1-.385-.6" fill="#fff"/>
                          </g>
                          <g id="Group_23811" data-name="Group 23811">
                            <path id="Path_54081" data-name="Path 54081" d="M158.8,144.272c.024-.315.235-.557.472-.539a.517.517,0,0,1,.386.6c-.025.315-.236.557-.472.539a.518.518,0,0,1-.386-.6" fill="#fff"/>
                          </g>
                          <g id="Group_23812" data-name="Group 23812">
                            <path id="Path_54082" data-name="Path 54082" d="M157.372,149.624c.024-.316.235-.558.471-.539a.516.516,0,0,1,.386.6c-.025.316-.235.557-.472.539a.516.516,0,0,1-.385-.6" fill="#fff"/>
                          </g>
                        </g>
                        <g id="Group_23815" data-name="Group 23815">
                          <g id="Group_23814" data-name="Group 23814">
                            <path id="Path_53047" data-name="Path 53047" d="M170.379,120.146s.732,13.276,2.634,20.639c.462,1.79-1.814,4.624-1.332,5.7.668,1.5,4.323.638,4.453-1.038.282-3.625,1.968-13.991,1.443-18.234-.982-7.934-7.2-7.071-7.2-7.071" fill="#ece2e3"/>
                            <path id="Path_53059" data-name="Path 53059" d="M152.267,132.229c-4.9,13.6-10.167,10.8-6.691-1.6,1.494-5.348,4.427-13.6,8.91-14.483.384-.077,3.521-.18,3.874-.161C158.36,115.983,153,129.951,152.267,132.229Z" fill="#ece2e3"/>
                            <path id="Path_53139" data-name="Path 53139" d="M172.73,138.557c-1.427,5-3.8,11.509-4.66,17.484.014.715-.923.273-3.26.072a47.773,47.773,0,0,1-15.92-5.94c-.467-.279-1.5-.657-1.579-1.31.513-4.3,5.457-13.285,5.815-19.455-.065-.941,1.137-2.769,1.495-3.942a34.224,34.224,0,0,0,.911-5.627,3.785,3.785,0,0,0-.838-3.73c1.858-.573,6.893-.293,11.055.763.341.272-1.514.541-1.451,1.164a5.892,5.892,0,0,0,2.92,1.927c1.643.474,2.858.636,3.621-.009,1.03-.055.3-1.267,1-.879,4.165,2.4,3.4,3.29,3.816,5.7S174.751,131.441,172.73,138.557Z" fill="#fff"/>
                          </g>
                        </g>
                        <g id="Group_23816" data-name="Group 23816">
                          <path id="Path_54083" data-name="Path 54083" d="M160.724,116.035s15.027,7.013,10.675,1.739-12.019-3.846-12.019-3.846Z" fill="#171338"/>
                          <path id="Path_54084" data-name="Path 54084" d="M162.514,136.665c.094-.358.171-.686.229-.978.037-.184.067-.354.088-.51.013-.094.026-.194.037-.3.049-.418.093-.91.13-1.462.048-.686.087-1.465.119-2.306q.02-.5.036-1.023c.008-.273.016-.551.022-.833q.02-.728.034-1.482c.015-.891.027-1.8.036-2.716q0-.518.008-1.032c0-.28,0-.558,0-.836,0-.5,0-1,0-1.49,0-2.068-.011-3.953-.024-5.329-.284-.009-.542-.011-.767-.01h0l-.013,0c-.341-.049-2.2-2.142-3.566-1.325,0-.019-4.2.574-4.4.974-.175.282-.039.042.094.233a4.332,4.332,0,0,1,.456,1.918c0,1.715.343,2.988.075,4.4a20.579,20.579,0,0,1-2.891,7.079c-.131.3-2.093,8.287-2.265,8.737q-.144.384-.288.765c-.118.316-.236.631-.35.944-.389,1.051-.759,2.081-1.109,3.073q-.114.321-.225.637l-.255.731c-.09.26-.179.518-.265.771-.111.323-.22.64-.324.95-.429,1.266-1.8,2.244-2.121,3.235-.389,1.2-.692,2.169-.893,2.816-.181.585-.277.907-.277.907l.009.005,1.408.586,5.928,2.47,3.258,1.357s.032-.072.091-.208c.32-.74,1.455-3.378,2.788-6.63.169-.41.341-.832.515-1.26l.378-.934c.1-.252.2-.506.3-.761.178-.447.358-.9.535-1.351.422-1.073.839-2.153,1.233-3.205q.18-.476.351-.943c.1-.259.189-.515.279-.769.17-.467.331-.924.485-1.367C161.872,138.861,162.255,137.651,162.514,136.665Z" fill="#383453"/>
                          <path id="Path_54085" data-name="Path 54085" d="M169.288,154.451c.063-.326.126-.656.191-.99q.078-.4.156-.8c.093-.471.186-.948.282-1.426.234-1.181.883-4.06,1.123-5.214.071-.331,1.509-7.636,3.152-13a72.109,72.109,0,0,1,2.976-7.688c-.749-3.322-3.984-5.676-3.984-5.676l-1.4-.853s-.216,2.079-.532,4.836c-.053.466-.11.95-.168,1.449q-.048.4-.1.814c-.039.332-.079.667-.12,1-.107.881-.219,1.773-.333,2.646-.064.489-.129.972-.193,1.442-.038.275-.075.546-.113.812-.048.342-.1.675-.145,1-.135.9-.266,1.717-.392,2.386-.054.287-.107.547-.157.778-.04.18-.086.4-.137.641s-.1.507-.162.8-.126.632-.195.987c-.207,1.067-.451,2.351-.715,3.756-.086.465-.176.942-.266,1.43-.05.265-.1.533-.149.8-.061.327-.123.657-.184.991-.211,1.146-.427,2.322-.64,3.486-.088.48-.175.959-.262,1.432l-.145.806q-.093.5-.181.993-.132.732-.259,1.432c-.708,3.91-1.241,6.894-1.241,6.894l1.311.226,3.146.543S168.463,158.75,169.288,154.451Z" fill="#383453"/>
                          <path id="Path_54086" data-name="Path 54086" d="M173.549,120.928a3.065,3.065,0,0,0,.142-.922,3.5,3.5,0,0,0-1.306-1.577l0,.009a5.082,5.082,0,0,1,.374,2.574c-.265,1.037-2.431,9.974-2.431,9.974S172.9,123.624,173.549,120.928Z" fill="#171338"/>
                          <path id="Path_54087" data-name="Path 54087" d="M169.506,161.267l-4.534-.666.167-1.109,4.486.7Z" fill="#ece2e3"/>
                          <path id="Path_54088" data-name="Path 54088" d="M163.741,123.461c.009-.236.015-.424.022-.625a11.572,11.572,0,0,0-.4-4.2,1.693,1.693,0,0,1,.279-1.338c.954-1.333.6-1.831.6-1.831s-4.153-1.917-4.923-1.506-.841,1.524-.354,3.106,1.967,2.382,2.3,3.227,1.877,9.8,1.877,9.8A48.806,48.806,0,0,0,163.741,123.461Z" fill="#171338"/>
                          <path id="Path_54089" data-name="Path 54089" d="M170,119.769a16.527,16.527,0,0,1-.089-2.776l.021-.066c.085.048.166.1.244.147v0s-.55-.92.13-.418a23.563,23.563,0,0,1,2.08,1.773h0l0,.009a3,3,0,0,1,.5,2.8c-.248.966-2.559,9.749-2.559,9.749S170.311,120.688,170,119.769Z" fill="#171338"/>
                          <path id="Path_54090" data-name="Path 54090" d="M154.479,157.585,143.9,153.2l.673-2.2,10.523,5.169Z" fill="#ece2e3"/>
                        </g>
                      </g>
                      <path id="Path_53128" data-name="Path 53128" d="M147.468,145.236c-1.205,3.067-.986,5.351-3.861,3.367-1.8-.519.83-12.752,1.138-13.758a12.2,12.2,0,0,1,2.586-3.378c6.082-4.437,2.061,8.939,2.061,8.939S148.674,142.169,147.468,145.236Z" fill="#ece2e3"/>
                      <path id="Path_53308" data-name="Path 53308" d="M145.885,148.33s-2.009-.637-2.585-.333a5.536,5.536,0,0,0-1.487,3.52,14.3,14.3,0,0,0,.771,3.743c.19.49.19.49.566.728.748.471.578.176.7.487a1.312,1.312,0,0,0,.273.445.333.333,0,0,0,.566-.179c.066-.659.254-2.217.331-2.993.286-2.892.321-.061.8.238s.889-.032.828-.262a8.035,8.035,0,0,1-.059-2.353,4.664,4.664,0,0,0-.384-2.6" fill="#feb59b"/>
                    </g>
                    <path id="Path_54094" data-name="Path 54094" d="M151.847,123.852c-1.387-.106-3.116-1.791-3.116-1.791s.588-1.121.679-1.271a9.6,9.6,0,0,0,3.122,2A11.666,11.666,0,0,1,151.847,123.852Z" fill="#383453"/>
                  </g>
                </g>
                <g id="Group_24325" data-name="Group 24325">
                  <path id="Path_53256" data-name="Path 53256" d="M166.147,103.737" fill="none" stroke="#707070" stroke-width="0.198"/>
                  <g id="Group_24311" data-name="Group 24311">
                    <path id="Path_53079" data-name="Path 53079" d="M170,119.769c-.087.383-1.063.9-3.043.336-3.454-1.105-4.1-1.86-4.313-2.6-.105-.425.393-1.241,1.342-1.48a3.856,3.856,0,0,1,2.645.407C169.132,117.668,170.511,118.795,170,119.769Z" fill="#e69578"/>
                    <path id="Path_53080" data-name="Path 53080" d="M166.692,118.027s-2.382-1.04-2.174-1.824c.913-1.039,1.057-4.588,1.057-4.588l2.654.813Zm1.529.022-2.539-.4-.431-.717,2.978-4.5,2.635.871a15.889,15.889,0,0,0-2.059,4.521Z" fill="#e69578"/>
                  </g>
                </g>
              </g>
            </g>
            <g id="Group_24604" data-name="Group 24604" transform="matrix(0.602, 0.799, -0.799, 0.602, 1626.844, 1131.698)">
              <g id="Group_24310" data-name="Group 24310">
                <g id="Group_23917" data-name="Group 23917">
                  <g id="Group_23907" data-name="Group 23907">
                    <path id="Path_54363" data-name="Path 54363" d="M36.254,102.434c-.528-.7-.977-1.552-2.4-1.106s-1.842,3-.528,4.1,3.805,2.281,3.728,1.055-.277-3.346-.8-4.048" fill="#feb59b"/>
                  </g>
                  <path id="Path_54367" data-name="Path 54367" d="M35.261,104A12.552,12.552,0,0,0,51.4,111.4l-.027.01a12.551,12.551,0,0,0,7.392-16.138l-1.616-4.347c-2.415-6.5-9.3-8.886-15.795-6.471l.027-.01c-6.5,2.415-10.149,8.72-7.734,15.217Z" fill="#feb59b"/>
                  <g id="Group_23915" data-name="Group 23915">
                    <path id="Path_54383" data-name="Path 54383" d="M56.692,94.579c-.078-.875-.314-1.807,1.037-2.425s3.377.992,3.138,2.69-1.3,4.242-2.062,3.28-2.035-2.67-2.113-3.546" fill="#feb59b"/>
                  </g>
                </g>
                <path id="Path_54390" data-name="Path 54390" d="M47.345,100.738" fill="none" stroke="#707070" stroke-width="0.198"/>
              </g>
              <g id="Component_5_21" data-name="Component 5 21">
                <g id="Group_22740" data-name="Group 22740">
                  <path id="Path_52604" data-name="Path 52604" d="M35.063,92.465a8.361,8.361,0,0,1,.612,2.671,4.059,4.059,0,0,1-.248,2.378l-.38-.267a1.366,1.366,0,0,0-.5-.563l.6.471c.125.3-.1.77-.093,1.685a7.143,7.143,0,0,0,.317,1.888c.061.257.995,2.741.995,2.741A12.786,12.786,0,0,1,31.634,98.1a20.349,20.349,0,0,1-2.178-8.079l.613-.077S45.72,76.083,35.063,92.465Z" fill="#5b2c12"/>
                  <path id="Path_52600" data-name="Path 52600" d="M29.807,88.345c2.648,1.8,9.351,6.088,14.722,3.395s6.049-5.195,6.049-5.195a8.362,8.362,0,0,0,1.59,2.232A27,27,0,0,0,54.2,90.763l-.24-1.008c-.166-.339-.093-.385-.093-.385l.093.385a10.578,10.578,0,0,0,1.179,1.709c1.53,1.931.717.828,1.006,1.08s1.589,2.133,1.589,2.133-.486-4.491-1.092-7.339S56,83.477,54.755,82.011a2.5,2.5,0,0,0-2.747-.876s-4.479-3.833-9.377-3.363c-4.447.426-9.034,1.417-9.706,1.534a20.582,20.582,0,0,1,2.211.522s-2.867.82-4.633,1.473a5.66,5.66,0,0,1-3.046.339,9.038,9.038,0,0,0,2.434,1.572q.69.174,1.363.416l-4.208.207A6.208,6.208,0,0,0,29.807,88.345Z" fill="#5b2c12"/>
                  <path id="Path_52601" data-name="Path 52601" d="M29.807,88.345a31.55,31.55,0,0,0,4.972,2.835c2.763.559,4.631.3,4.416.135-.267-.2-3.1-1.589-3.1-1.589a17.87,17.87,0,0,0,4.017-.2A35.342,35.342,0,0,0,44.2,88.2s-1.065-.209-2.995-.673a7.4,7.4,0,0,1-2.854-1.239,14.2,14.2,0,0,0,5.738-1.477,7.3,7.3,0,0,1,4.26-1.133,17.419,17.419,0,0,0-3.008-.9,8.549,8.549,0,0,0-3.294-.354,9.219,9.219,0,0,1,3.268-1.376,3.328,3.328,0,0,1,1.536.208c-.244-.139-3.055-1.723-4.171-2.142a7.212,7.212,0,0,0-2.77-.27l3.688-.831-.64-.267c-.108.007-.217.014-.326.024-4.45.427-9.042,1.42-9.707,1.535a20.422,20.422,0,0,1,2.212.522s-2.867.82-4.632,1.472a5.656,5.656,0,0,1-3.046.34,9.063,9.063,0,0,0,2.434,1.572,13.982,13.982,0,0,1,1.363.416l-4.207.207A6.208,6.208,0,0,0,29.807,88.345Z" fill="#5b2c12"/>
                  <path id="Path_52602" data-name="Path 52602" d="M35.614,86.03a39.882,39.882,0,0,0,4.351-2.5s-7.505,2.82-10.415,2.109a4.968,4.968,0,0,1-2.492-1.657,6.268,6.268,0,0,0,2.748,4.367,31.708,31.708,0,0,0,4.972,2.835c2.763.559,4.632.3,4.416.135-.267-.2-3.1-1.589-3.1-1.589a17.862,17.862,0,0,0,4.016-.2A35.342,35.342,0,0,0,44.2,88.2s-.28-.055-.812-.171c-3.453,1.222-10.295-1.053-10.575-1.166S33.851,86.822,35.614,86.03Z" fill="#5b2c12"/>
                </g>
              </g>
            </g>
          </g>
          <rect id="Rectangle_4572" data-name="Rectangle 4572" width="117" height="154" rx="8" transform="translate(1451 1154)" fill="url(#linear-gradient-15)"/>
          <rect id="Rectangle_4573" data-name="Rectangle 4573" width="103" height="134" transform="translate(1458 1164)" fill="#fff"/>
          <rect id="Rectangle_4574" data-name="Rectangle 4574" width="103" height="11" transform="translate(1458 1164)" fill="#d9e7ef"/>
          <g id="Group_21896" data-name="Group 21896" transform="translate(1566.602 1180.787) rotate(120)">
            <g id="Group_21911" data-name="Group 21911" transform="translate(1 -40)" clip-path="url(#clip-path)">
              <g id="Group_21900" data-name="Group 21900" transform="translate(2.42 6.411)" clip-path="url(#clip-path-2)">
                <g id="Group_21899" data-name="Group 21899" transform="translate(-2.42 -5.984)" clip-path="url(#clip-path-3)">
                  <g id="Group_21897" data-name="Group 21897" transform="translate(-0.824 -0.668)" opacity="0">
                    <g id="Group_21896-2" data-name="Group 21896" transform="matrix(-0.052, 0.999, -0.999, -0.052, 14.436, 0.712)">
                      <path id="Path_47014" data-name="Path 47014" d="M.669,13.6,0,.825,15.749,0l.669,12.77Z" transform="translate(0)" stroke="rgba(0,0,0,0)" stroke-linecap="round" stroke-width="1" fill="url(#linear-gradient)"/>
                    </g>
                  </g>
                  <g id="Group_21898" data-name="Group 21898" transform="matrix(-0.052, 0.999, -0.999, -0.052, 13.612, 0.043)">
                    <path id="Path_47015" data-name="Path 47015" d="M.669,13.6,0,.825,15.749,0l.669,12.77Z" transform="translate(0)" stroke="rgba(0,0,0,0)" stroke-linecap="round" stroke-width="1" fill="url(#linear-gradient)"/>
                  </g>
                </g>
              </g>
              <g id="Group_21905" data-name="Group 21905" transform="translate(8.124 0.536)" clip-path="url(#clip-path-4)">
                <g id="Group_21904" data-name="Group 21904" transform="translate(-8.124 -0.11)" clip-path="url(#clip-path-3)">
                  <g id="Group_21902" data-name="Group 21902" transform="translate(-6.38 -5.173)" opacity="0">
                    <g id="Group_21901" data-name="Group 21901" transform="matrix(-0.454, 0.891, -0.891, -0.454, 25.546, 8.423)">
                      <path id="Path_47018" data-name="Path 47018" d="M5.805,18.553,0,7.16,14.052,0l5.805,11.394Z" transform="translate(0)" stroke="rgba(0,0,0,0)" stroke-linecap="round" stroke-width="1" fill="url(#linear-gradient)"/>
                    </g>
                  </g>
                  <g id="Group_21903" data-name="Group 21903" transform="matrix(-0.454, 0.891, -0.891, -0.454, 19.167, 3.251)">
                    <path id="Path_47019" data-name="Path 47019" d="M5.805,18.553,0,7.16,14.052,0l5.805,11.394Z" transform="translate(0)" stroke="rgba(0,0,0,0)" stroke-linecap="round" stroke-width="1" fill="url(#linear-gradient)"/>
                  </g>
                </g>
              </g>
              <g id="Group_21910" data-name="Group 21910" transform="translate(0.227 14.057)" clip-path="url(#clip-path-6)">
                <g id="Group_21909" data-name="Group 21909" transform="translate(-0.227 -13.631)" clip-path="url(#clip-path-3)">
                  <g id="Group_21907" data-name="Group 21907" transform="translate(-6.38 -5.173)" opacity="0">
                    <g id="Group_21906" data-name="Group 21906" transform="matrix(0.454, 0.891, -0.891, 0.454, 16.531, 0)">
                      <path id="Path_47022" data-name="Path 47022" d="M0,11.394,5.805,0,19.857,7.16,14.052,18.553Z" stroke="rgba(0,0,0,0)" stroke-linecap="round" stroke-width="1" fill="url(#linear-gradient)"/>
                    </g>
                  </g>
                  <g id="Group_21908" data-name="Group 21908" transform="matrix(0.454, 0.891, -0.891, 0.454, 10.152, -5.173)">
                    <path id="Path_47023" data-name="Path 47023" d="M0,11.394,5.805,0,19.857,7.16,14.052,18.553Z" stroke="rgba(0,0,0,0)" stroke-linecap="round" stroke-width="1" fill="url(#linear-gradient)"/>
                  </g>
                </g>
              </g>
            </g>
          </g>
          <g id="Group_24637" data-name="Group 24637" transform="translate(388 114)">
            <path id="Path_86830" data-name="Path 86830" d="M1465.671,1319.908s6.087-3.688,7.852-2.781.478,2.985-.854,3.948-8.243,1.743-8.243,1.743Z" transform="translate(-389 -106)" fill="#5095a4"/>
            <g id="Group_24609" data-name="Group 24609" transform="translate(-3 -1)">
              <path id="Path_53059-2" data-name="Path 53059" d="M152.267,132.229c-4.9,13.6-10.167,10.8-6.691-1.6,1.494-5.348,4.427-13.6,8.91-14.483.384-.077,3.521-.18,3.874-.161,0,0-1.9,4.945-3.7,9.726C153.619,128.466,152.563,131.306,152.267,132.229Z" transform="translate(905.651 1041.355) rotate(3)" fill="#ece2e3"/>
              <path id="Path_54094-2" data-name="Path 54094" d="M151.847,123.852c-1.387-.106-3.116-1.791-3.116-1.791s.588-1.121.679-1.271a9.6,9.6,0,0,0,3.122,2A11.666,11.666,0,0,1,151.847,123.852Z" transform="translate(905.651 1041.355) rotate(3)" fill="#383453"/>
            </g>
            <path id="Path_86814" data-name="Path 86814" d="M-1408.887,2857.678s11.184-3.99,16.633-4.56,8,5.41,7.615,6.469-7.2,8.306-15.023,10.41-24.4,5.378-24.4,5.378l-2.275-1.137s-4.45-13.789-2.939-14.651,14.073,1.415,15.435,0S-1408.887,2857.678-1408.887,2857.678Z" transform="translate(2480 -1657)" fill="#fd434a"/>
            <g id="Group_24606" data-name="Group 24606" transform="translate(895.5 1046)">
              <g id="Mask_Group_11735-2" data-name="Mask Group 11735">
                <g id="Group_23821-2" data-name="Group 23821">
                  <g id="Group_23820-2" data-name="Group 23820" transform="translate(-21.839 40.459) rotate(-13)">
                    <g id="Group_23819-2" data-name="Group 23819">
                      <g id="Group_23817-2" data-name="Group 23817">
                        <g id="Group_23813-2" data-name="Group 23813">
                          <g id="Group_23809-2" data-name="Group 23809">
                            <path id="Path_54079-2" data-name="Path 54079" d="M162.215,133.118c.024-.316.234-.557.471-.539a.516.516,0,0,1,.386.6c-.025.316-.235.557-.472.54a.517.517,0,0,1-.385-.6" fill="#fff"/>
                          </g>
                          <g id="Group_23810-2" data-name="Group 23810">
                            <path id="Path_54080-2" data-name="Path 54080" d="M160.291,138.732c.023-.316.234-.557.471-.539a.516.516,0,0,1,.386.6c-.025.316-.236.557-.472.539a.516.516,0,0,1-.385-.6" fill="#fff"/>
                          </g>
                          <g id="Group_23811-2" data-name="Group 23811">
                            <path id="Path_54081-2" data-name="Path 54081" d="M158.8,144.272c.024-.315.235-.557.472-.539a.517.517,0,0,1,.386.6c-.025.315-.236.557-.472.539a.518.518,0,0,1-.386-.6" fill="#fff"/>
                          </g>
                          <g id="Group_23812-2" data-name="Group 23812">
                            <path id="Path_54082-2" data-name="Path 54082" d="M157.372,149.624c.024-.316.235-.558.471-.539a.516.516,0,0,1,.386.6c-.025.316-.235.557-.472.539a.516.516,0,0,1-.385-.6" fill="#fff"/>
                          </g>
                        </g>
                        <g id="Group_23815-2" data-name="Group 23815">
                          <g id="Group_23814-2" data-name="Group 23814">
                            <path id="Path_53047-2" data-name="Path 53047" d="M170.379,120.146s-1.58,13.2.322,20.566c.462,1.79.5,4.7.98,5.777.668,1.5,4.323.638,4.453-1.038.282-3.625,1.968-13.991,1.443-18.234-.982-7.934-7.2-7.071-7.2-7.071" transform="translate(-25.224 46.522) rotate(-14)" fill="#ece2e3"/>
                            <path id="Path_53139-2" data-name="Path 53139" d="M172.73,138.557c-1.427,5-3.8,11.509-4.66,17.484.014.715-.923.273-3.26.072a47.773,47.773,0,0,1-15.92-5.94c-.467-.279-1.5-.657-1.579-1.31.513-4.3,5.457-13.285,5.815-19.455-.065-.941,1.137-2.769,1.495-3.942a34.224,34.224,0,0,0,.911-5.627,3.785,3.785,0,0,0-.838-3.73c1.858-.573,6.893-.293,11.055.763.341.272-1.514.541-1.451,1.164a5.892,5.892,0,0,0,2.92,1.927c1.643.474,2.858.636,3.621-.009,1.03-.055.3-1.267,1-.879,4.165,2.4,3.4,3.29,3.816,5.7S174.751,131.441,172.73,138.557Z" fill="#fff"/>
                          </g>
                          <path id="Path_52606-2" data-name="Path 52606" d="M169.179,154.158a61.89,61.89,0,0,1-12.287,1.29,38.726,38.726,0,0,1-10.736-1.706s0-.817,0-1.28c0-.6.054-1.248.067-1.372a41.068,41.068,0,0,0,10.669,2.057,33.6,33.6,0,0,0,11.931-1.231A14.4,14.4,0,0,0,169.179,154.158Z" transform="translate(37.725 -30.761) rotate(13)" fill="#1c1c1c"/>
                          <g id="Path_53456-2" data-name="Path 53456" transform="translate(37.725 -30.761) rotate(13)">
                            <path id="Path_86412-2" data-name="Path 86412" d="M158.345,156.1l4.417-.116-.312-2.96-4.281.088Z" fill="none"/>
                            <path id="Path_86413-2" data-name="Path 86413" d="M158.8,153.692l.106,1.8,3.2-.084-.187-1.78-3.12.065m3.653-.669.312,2.96-4.417.116-.176-2.988Z" fill="#ece2e3"/>
                          </g>
                        </g>
                        <g id="Group_23816-2" data-name="Group 23816">
                          <path id="Path_54083-2" data-name="Path 54083" d="M160.724,116.035s15.027,7.013,10.675,1.739-12.019-3.846-12.019-3.846Z" fill="#171338"/>
                          <path id="Path_54084-2" data-name="Path 54084" d="M162.514,136.665c.094-.358.171-.686.229-.978.037-.184.067-.354.088-.51.013-.094.026-.194.037-.3.049-.418.093-.91.13-1.462.048-.686.087-1.465.119-2.306q.02-.5.036-1.023c.008-.273.016-.551.022-.833q.02-.728.034-1.482c.015-.891.027-1.8.036-2.716q0-.518.008-1.032c0-.28,0-.558,0-.836,0-.5,0-1,0-1.49,0-2.068-.011-3.953-.024-5.329-.284-.009-.542-.011-.767-.01h0l-.013,0c-.341-.049-2.2-2.142-3.566-1.325,0-.019-4.2.574-4.4.974-.175.282-.039.042.094.233a4.332,4.332,0,0,1,.456,1.918c0,1.715-3.441,8.309-3.484,8.406-.131.3-1.425,11.363-1.6,11.813q-.144.384-.288.765c-.118.316-.236.631-.35.944-.389,1.051-.759,2.081-1.109,3.073q-.114.321-.225.637l-.255.731c-.09.26-.179.518-.265.771-.111.323-.22.64-.324.95-.429,1.266-1.8,2.244-2.121,3.235-.389,1.2-.692,2.169-.893,2.816-.181.585-.277.907-.277.907l.009.005,1.408.586,5.928,2.47,3.258,1.357s.032-.072.091-.208c.32-.74,1.455-3.378,2.788-6.63.169-.41.341-.832.515-1.26l.378-.934c.1-.252.2-.506.3-.761.178-.447.358-.9.535-1.351.422-1.073.839-2.153,1.233-3.205q.18-.476.351-.943c.1-.259.189-.515.279-.769.17-.467.331-.924.485-1.367C161.872,138.861,162.255,137.651,162.514,136.665Z" fill="#383453"/>
                          <path id="Path_54085-2" data-name="Path 54085" d="M169.288,154.451c.063-.326.126-.656.191-.99q.078-.4.156-.8c.093-.471.186-.948.282-1.426.234-1.181.883-4.06,1.123-5.214.071-.331,1.509-7.636,3.152-13a72.109,72.109,0,0,1,2.976-7.688c-.749-3.322-3.984-5.676-3.984-5.676l-1.4-.853s-.216,2.079-.532,4.836c-.053.466-.11.95-.168,1.449q-.048.4-.1.814c-.039.332-.079.667-.12,1-.107.881-.219,1.773-.333,2.646-.064.489-.129.972-.193,1.442-.038.275-.075.546-.113.812-.048.342-.1.675-.145,1-.135.9-.266,1.717-.392,2.386-.054.287-.107.547-.157.778-.04.18-.086.4-.137.641s-.1.507-.162.8-.126.632-.195.987c-.207,1.067-.451,2.351-.715,3.756-.086.465-.176.942-.266,1.43-.05.265-.1.533-.149.8-.061.327-.123.657-.184.991-.211,1.146-.427,2.322-.64,3.486-.088.48-.175.959-.262,1.432l-.145.806q-.093.5-.181.993-.132.732-.259,1.432c-.708,3.91-1.241,6.894-1.241,6.894l1.311.226,3.146.543S168.463,158.75,169.288,154.451Z" fill="#383453"/>
                          <path id="Path_54086-2" data-name="Path 54086" d="M173.549,120.928a3.065,3.065,0,0,0,.142-.922,3.5,3.5,0,0,0-1.306-1.577l0,.009a5.082,5.082,0,0,1,.374,2.574c-.265,1.037-2.431,9.974-2.431,9.974S172.9,123.624,173.549,120.928Z" fill="#171338"/>
                          <path id="Path_54087-2" data-name="Path 54087" d="M169.506,161.267l-4.534-.666.167-1.109,4.486.7Z" fill="#ece2e3"/>
                          <path id="Path_54088-2" data-name="Path 54088" d="M163.741,123.461c.009-.236.015-.424.022-.625a11.572,11.572,0,0,0-.4-4.2,1.693,1.693,0,0,1,.279-1.338c.954-1.333.6-1.831.6-1.831s-4.153-1.917-4.923-1.506-.841,1.524-.354,3.106,1.967,2.382,2.3,3.227,1.877,9.8,1.877,9.8A48.806,48.806,0,0,0,163.741,123.461Z" fill="#171338"/>
                          <path id="Path_54089-2" data-name="Path 54089" d="M170,119.769a16.527,16.527,0,0,1-.089-2.776l.021-.066c.085.048.166.1.244.147v0s-.55-.92.13-.418a23.563,23.563,0,0,1,2.08,1.773h0l0,.009a3,3,0,0,1,.5,2.8c-.248.966-2.559,9.749-2.559,9.749S170.311,120.688,170,119.769Z" fill="#171338"/>
                          <path id="Path_54090-2" data-name="Path 54090" d="M154.479,157.585,143.9,153.2l.673-2.2,10.523,5.169Z" fill="#ece2e3"/>
                        </g>
                      </g>
                    </g>
                  </g>
                </g>
                <g id="Group_24325-2" data-name="Group 24325" transform="translate(-26.473 53.648) rotate(-17)">
                  <path id="Path_53256-2" data-name="Path 53256" d="M166.147,103.737" fill="none" stroke="#707070" stroke-width="0.198"/>
                  <g id="Group_24311-2" data-name="Group 24311">
                    <path id="Path_53079-2" data-name="Path 53079" d="M170,119.769c-.087.383-1.063.9-3.043.336-3.454-1.105-4.1-1.86-4.313-2.6-.105-.425.393-1.241,1.342-1.48a3.856,3.856,0,0,1,2.645.407C169.132,117.668,170.511,118.795,170,119.769Z" fill="#e69578"/>
                    <path id="Path_53080-2" data-name="Path 53080" d="M166.692,118.027s-2.382-1.04-2.174-1.824c.913-1.039,1.057-4.588,1.057-4.588l2.654.813Zm1.529.022-2.539-.4-.431-.717,2.978-4.5,2.635.871a15.889,15.889,0,0,0-2.059,4.521Z" fill="#e69578"/>
                  </g>
                </g>
              </g>
            </g>
            <g id="Group_24607" data-name="Group 24607" transform="matrix(0.966, -0.259, 0.259, 0.966, 870.324, 1092.552)">
              <g id="Group_24310-2" data-name="Group 24310">
                <g id="Group_23917-2" data-name="Group 23917">
                  <g id="Group_23907-2" data-name="Group 23907">
                    <path id="Path_54363-2" data-name="Path 54363" d="M161.557,99.363c0-.878.161-1.826-1.238-2.329s-3.281,1.272-2.9,2.943,1.65,4.119,2.33,3.1,1.8-2.832,1.809-3.711" fill="#feb59b"/>
                  </g>
                  <path id="Path_54367-2" data-name="Path 54367" d="M159.816,100.012a12.552,12.552,0,0,0,8.373,15.651l-.027-.008a12.552,12.552,0,0,0,15.651-8.374l1.344-4.438c2.01-6.635-2.024-12.7-8.658-14.711l.027.008c-6.634-2.009-13.356.8-15.366,7.434Z" fill="#feb59b"/>
                  <g id="Group_23915-2" data-name="Group 23915">
                    <path id="Path_54383-2" data-name="Path 54383" d="M182.581,105.479c.467-.744.843-1.629,2.294-1.3s2.087,2.834.87,4.04-3.6,2.592-3.627,1.364,0-3.357.464-4.1" fill="#feb59b"/>
                  </g>
                </g>
                <path id="Path_54390-2" data-name="Path 54390" d="M171.412,104.725" fill="none" stroke="#707070" stroke-width="0.198"/>
              </g>
              <g id="Group_19547" data-name="Group 19547">
                <g id="Layer_2" data-name="Layer 2">
                  <g id="Group_18981" data-name="Group 18981">
                    <path id="Path_50321" data-name="Path 50321" d="M180.2,87.564a11.832,11.832,0,0,0,8.5,14.406l1.188-.364c4.656-9.115-3.718-16.344-9.69-14.042Z" fill="#4e2e1f"/>
                    <path id="Path_51197" data-name="Path 51197" d="M182.888,91.589A2.523,2.523,0,0,0,184.34,90.5a3,3,0,0,0-5.059-3.172,2.528,2.528,0,0,0-.39,1.323A13.558,13.558,0,0,1,182.888,91.589Z" fill="#a7db56"/>
                    <path id="Path_51198" data-name="Path 51198" d="M161.326,95.329c1.706-5.888,7.172-8.8,13.028-8.046l-2.6-3.449s-9.811-.1-10.9,10.42a6.7,6.7,0,0,0,.107,2.4Z" fill="#682e2e"/>
                    <path id="Path_51199" data-name="Path 51199" d="M184.77,104.228a1.858,1.858,0,0,1,.956.615h0c2.164-1.217,3.116-8.665,2.936-9.636a11.926,11.926,0,0,0-3.237-5.877s-10.346-5.3-14.234-4.445c-.7.153-2.39.7-2.753,1.564l-.019,0c-.827,1.2.139,6.034,8,9.805.256.113.512.225.786.342a8.2,8.2,0,0,1-.774-3.981,8.26,8.26,0,0,0,3.262,4.615,6.3,6.3,0,0,1,1.835,1.944c.321.684.017,4.711,1.012,5.624.047.053.15.123.248.212A1.684,1.684,0,0,1,184.77,104.228Z" fill="#4e2e1f"/>
                    <path id="Path_51200" data-name="Path 51200" d="M161.326,95.329c1.931-6.623,8.594-9.489,15.233-7.574h0c6.634,1.934,10.735,7.949,8.8,14.572l-.549,1.893a1.569,1.569,0,0,1,.61.313c.133-.331.253-.686.373-1.042a13.631,13.631,0,0,0-7.685-17.328,7.555,7.555,0,0,0-.9-.312,12.1,12.1,0,0,0-11.734,2.678l-.5.474a14.262,14.262,0,0,0-3.09,4.682c-.2.5-.387,1.017-.554,1.543l-.085.3c-.08.285-.14.575-.22.86Z" fill="#532523"/>
                    <path id="Path_51201" data-name="Path 51201" d="M189.889,101.606c1.945-4.47-1.668-9.735-6.481-11l-2.255-.589a11.128,11.128,0,0,1,4.209,12.307l-.549,1.893h0a1.918,1.918,0,0,1,1.275,1.235h0c.027.049.035.092.063.141h0c.008.043.036.092.044.135l-.005.019a.428.428,0,0,0,.044.135l0,.019.025.13a.019.019,0,0,0,.014.024h0l.025.13c-.005.019-.005.019.008.043a.278.278,0,0,1,.007.125c-.006.019-.006.019.008.043.008.043,0,.081.012.1a.07.07,0,0,0,0,.063c-.011.038,0,.062-.008.1a.075.075,0,0,0,0,.062c-.01.038,0,.062-.007.1a.073.073,0,0,0,0,.063c-.011.038,0,.062-.008.1l-.169.607a.121.121,0,0,1-.04.071.074.074,0,0,1-.035.051c-.011.038-.035.052-.046.09a.071.071,0,0,1-.035.052c-.01.038-.035.051-.045.089-.005.019-.03.033-.035.052-.03.033-.035.052-.065.084,0,.019-.029.033-.035.052a.481.481,0,0,1-.113.112,1.649,1.649,0,0,0-.167.157.067.067,0,0,1-.029.033c-.054.046-.114.112-.168.158h0a1.192,1.192,0,0,1-.186.153c-.024.013-.029.032-.048.027-.054.046-.132.106-.186.153h0c-.054.046-.133.106-.186.152l-.049.028c-.132.106-.278.188-.4.275l-.049.028c-.146.082-.272.169-.418.251l-.025.014a2.222,2.222,0,0,1-.4.194l-.025.014a2.57,2.57,0,0,1-.368.143.02.02,0,0,0-.024.013h0a2.172,2.172,0,0,1-.327.073l-.02-.006c-.043.009-.1-.007-.143,0a15.341,15.341,0,0,1-4.484,4.314,10.366,10.366,0,0,0,7.609,3.946C184.888,111.954,189.889,101.606,189.889,101.606Z" fill="#4e2e1f"/>
                    <path id="Path_51202" data-name="Path 51202" d="M190.142,100.919c-.7-.134-1.751.473-2.346.327-.462-.108-.918-.235-1.375-.363-.153,1.062-.393,2.509-.654,4.033a2.7,2.7,0,0,1-.076,3.354c-.172.177-.364.349-.555.521-.393,2.509-.634,4.693-.335,5.308a3.551,3.551,0,0,0,3.53,1.968C186.288,113.327,187.775,106.827,190.142,100.919Z" fill="#4e2e1f"/>
                    <g id="Group_18811" data-name="Group 18811">
                      <path id="Path_50912" data-name="Path 50912" d="M163.1,87.741c1.524-2.89,8.221-4.928,11.2-4.137a20.127,20.127,0,0,1,9.713,6.4,11.134,11.134,0,0,1,1.506,9.73c-.308,1.1-.713,1.745-1.9,1.354-3.641-1.2-7.651-4.9-7.87-5.656a9.531,9.531,0,0,0,.261,2.59c-3.77-1.4-6.775-3.631-7.5-6.186a4.613,4.613,0,0,1-.154-.841c-.961,1.164-3.1,1.344-5,3.085A9.8,9.8,0,0,0,160.641,98C160.27,94.706,161.639,90.464,163.1,87.741Z" fill="#4e2e1f"/>
                      <path id="Path_50913" data-name="Path 50913" d="M166.345,91.451c-.849,2.893,4.827,5.686,4.827,5.686s-2.506-5.263-2.039-5.542S167.194,88.557,166.345,91.451Z" fill="#4e2e1f"/>
                    </g>
                  </g>
                </g>
              </g>
            </g>
            <path id="Path_86813" data-name="Path 86813" d="M-1403.7,2869.568s-36.734-16.723-40.661-17.324-5.027,13.152-2.072,15.523,9.15,5.675,12.592,5.846,22.567.7,27.955,2.338S-1403.7,2869.568-1403.7,2869.568Z" transform="translate(2480 -1657)" fill="#fd434a"/>
            <g id="Group_24608" data-name="Group 24608" transform="matrix(0.996, -0.087, 0.087, 0.996, -104.327, 94.25)">
              <path id="Path_53128-2" data-name="Path 53128" d="M4.486,4.615C3.281,1.171,3.5-1.393.625.835c-1.8.583.83,14.319,1.138,15.449a13.657,13.657,0,0,0,2.586,3.793C10.431,25.059,6.41,10.039,6.41,10.039S5.692,8.059,4.486,4.615Z" transform="translate(1036.877 1203.478) rotate(-132)" fill="#ece2e3"/>
              <path id="Path_53308-2" data-name="Path 53308" d="M4.078,8.69s-2.009.637-2.585.333A5.536,5.536,0,0,1,.006,5.5,14.3,14.3,0,0,1,.777,1.76c.19-.49.19-.49.566-.728.748-.471.578-.176.7-.487A1.312,1.312,0,0,1,2.32.1a.333.333,0,0,1,.566.179c.066.659.254,2.217.331,2.993.286,2.892.321.061.8-.238s.889.032.828.262a8.035,8.035,0,0,0-.059,2.353,4.664,4.664,0,0,1-.384,2.6" transform="translate(1031.961 1209.486) rotate(-132)" fill="#feb59b"/>
            </g>
            <g id="Group_24610" data-name="Group 24610" transform="matrix(0.978, -0.208, 0.208, 0.978, 1071.286, 1182.394)">
              <path id="Path_53128-3" data-name="Path 53128" d="M4.486,16.474C3.281,19.918,3.5,22.483.625,20.255c-1.8-.583.83-14.319,1.138-15.449A13.657,13.657,0,0,1,4.349,1.013C10.431-3.97,6.41,11.051,6.41,11.051S5.692,13.03,4.486,16.474Z" transform="translate(0 5.732) rotate(-48)" fill="#ece2e3"/>
              <path id="Path_53308-3" data-name="Path 53308" d="M4.078.415S2.069-.222,1.493.082A5.536,5.536,0,0,0,.006,3.6,14.3,14.3,0,0,0,.777,7.345c.19.49.19.49.566.728.748.471.578.176.7.487a1.312,1.312,0,0,0,.273.445.333.333,0,0,0,.566-.179c.066-.659.254-2.217.331-2.993.286-2.892.321-.061.8.238s.889-.032.828-.262a8.035,8.035,0,0,1-.059-2.353,4.664,4.664,0,0,0-.384-2.6" transform="translate(13.822 19.76) rotate(-48)" fill="#feb59b"/>
            </g>
            <path id="Path_86816" data-name="Path 86816" d="M1432.2,1325.269c-2.84-3.295-3.031-4.759,0-4.664s7.762,2.172,9.822,1.948,3.35,1.264,2.182,2.717S1435.039,1328.563,1432.2,1325.269Z" transform="translate(-389 -106)" fill="#5095a4"/>
            <path id="Path_86817" data-name="Path 86817" d="M-1436.076,2871.6a29.771,29.771,0,0,0,2.764,4.635c1.2,1.419,3.941,1.623,3.941,1.623a31.155,31.155,0,0,1-3.736.321,4.14,4.14,0,0,1-1.959-.321c-1.106-.721-3.829-4.412-3.678-5.549S-1436.076,2871.6-1436.076,2871.6Z" transform="translate(2480 -1657)" fill="#f0f0f0"/>
            <path id="Path_86820" data-name="Path 86820" d="M-1431.7,2872.225a19.376,19.376,0,0,1-1.963,2.939c-1.073,1.267-5.086,2.017-5.086,2.017a27.8,27.8,0,0,0,3.336.286,3.7,3.7,0,0,0,1.749-.286,6.374,6.374,0,0,0,1.1-1.076c.9-1,2.29-3.1,2.187-3.879C-1430.514,2871.21-1431.7,2872.225-1431.7,2872.225Z" transform="translate(2516.098 -1660.288)" fill="#f0f0f0"/>
            <path id="Path_86818" data-name="Path 86818" d="M-1436.8,2872.31a30.3,30.3,0,0,0,2.659,4.152c1.2,1.419,6.5,1.718,6.5,1.718s-3.538-.037-5.47,0a4.14,4.14,0,0,1-1.959-.321c-1.106-.721-2.727-3.74-2.576-4.877S-1436.8,2872.31-1436.8,2872.31Z" transform="translate(2478 -1657)" fill="#a3a3a3"/>
            <path id="Path_86819" data-name="Path 86819" d="M-1429.469,2872.3a27.064,27.064,0,0,1-2.375,3.708c-1.073,1.267-5.807,1.534-5.807,1.534s3.159-.033,4.885,0a3.7,3.7,0,0,0,1.749-.286c.988-.644,2.436-3.34,2.3-4.355S-1429.469,2872.3-1429.469,2872.3Z" transform="translate(2515.238 -1660.362)" fill="#a3a3a3"/>
          </g>
        </g>
      </g>
      <path id="Path_86811" data-name="Path 86811" d="M172.393,124.314s-2.054,2.534-3.81,3.094l1.321,17.919S183.572,156.288,172.393,124.314Z" transform="translate(1010.5 1019)" fill="#eae0e1"/>
      <path id="Path_86812" data-name="Path 86812" d="M169.863,119.936s-3.779-3.215-5.069-1.925-1.289,3.868-1.289,5.157c0,.6,3.868,5.157,5.158,5.157a3.1,3.1,0,0,0,1.512-.481,3.83,3.83,0,0,0,1.467-1.61l.524-1.047a18.86,18.86,0,0,0,.288-4.166,5.857,5.857,0,0,0-2.5-4.3Z" transform="translate(1010.5 1019)" fill="#fcb399"/>
      <g id="Group_22371" data-name="Group 22371" transform="translate(1021.5 1054)">
        <g id="Group_22715" data-name="Group 22715">
          <g id="Group_22714" data-name="Group 22714" clip-path="url(#clip-path-8)">
            <g id="Group_21911-2" data-name="Group 21911">
              <g id="Group_22705" data-name="Group 22705">
                <g id="Group_22704" data-name="Group 22704" clip-path="url(#clip-path-9)">
                  <g id="Group_21900-2" data-name="Group 21900">
                    <g id="Group_22703" data-name="Group 22703">
                      <g id="Group_22702" data-name="Group 22702" clip-path="url(#clip-path-10)">
                        <g id="Group_21899-2" data-name="Group 21899">
                          <g id="Group_21897-2" data-name="Group 21897" opacity="0">
                            <g id="Group_21896-3" data-name="Group 21896">
                              <path id="Path_47014-2" data-name="Path 47014" d="M26.551,68.163l11.409,5.8L30.813,88.024l-11.4-5.794Z" stroke="rgba(0,0,0,0)" stroke-linecap="round" stroke-width="1" fill="url(#linear-gradient)"/>
                            </g>
                          </g>
                          <g id="Group_21898-2" data-name="Group 21898">
                            <path id="Path_47015-2" data-name="Path 47015" d="M26.551,68.162l11.409,5.8L30.814,88.024l-11.4-5.8Z" stroke="rgba(0,0,0,0)" stroke-linecap="round" stroke-width="1" fill="url(#linear-gradient)"/>
                          </g>
                        </g>
                      </g>
                    </g>
                  </g>
                </g>
              </g>
              <g id="Group_22709" data-name="Group 22709">
                <g id="Group_22708" data-name="Group 22708" clip-path="url(#clip-path-11)">
                  <g id="Group_21905-2" data-name="Group 21905">
                    <g id="Group_22707" data-name="Group 22707">
                      <g id="Group_22706" data-name="Group 22706" clip-path="url(#clip-path-12)">
                        <g id="Group_21904-2" data-name="Group 21904">
                          <g id="Group_21902-2" data-name="Group 21902" opacity="0">
                            <g id="Group_21901-2" data-name="Group 21901">
                              <path id="Path_47018-2" data-name="Path 47018" d="M26.562,68.161l11.4,5.8L30.811,88.014l-11.4-5.8Z" stroke="rgba(0,0,0,0)" stroke-linecap="round" stroke-width="1" fill="url(#linear-gradient)"/>
                            </g>
                          </g>
                          <g id="Group_21903-2" data-name="Group 21903">
                            <path id="Path_47019-2" data-name="Path 47019" d="M26.563,68.162l11.4,5.8L30.811,88.016l-11.4-5.8Z" stroke="rgba(0,0,0,0)" stroke-linecap="round" stroke-width="1" fill="url(#linear-gradient)"/>
                          </g>
                        </g>
                      </g>
                    </g>
                  </g>
                </g>
              </g>
              <g id="Group_22713" data-name="Group 22713">
                <g id="Group_22712" data-name="Group 22712" clip-path="url(#clip-path-13)">
                  <g id="Group_21910-2" data-name="Group 21910">
                    <g id="Group_22711" data-name="Group 22711">
                      <g id="Group_22710" data-name="Group 22710" clip-path="url(#clip-path-12)">
                        <g id="Group_21909-2" data-name="Group 21909">
                          <g id="Group_21907-2" data-name="Group 21907" opacity="0">
                            <g id="Group_21906-2" data-name="Group 21906">
                              <path id="Path_47022-2" data-name="Path 47022" d="M26.561,68.161l11.4,5.8L30.811,88.014l-11.4-5.8Z" stroke="rgba(0,0,0,0)" stroke-linecap="round" stroke-width="1" fill="url(#linear-gradient)"/>
                            </g>
                          </g>
                          <g id="Group_21908-2" data-name="Group 21908">
                            <path id="Path_47023-2" data-name="Path 47023" d="M26.562,68.161l11.4,5.8L30.812,88.015l-11.4-5.8Z" stroke="rgba(0,0,0,0)" stroke-linecap="round" stroke-width="1" fill="url(#linear-gradient)"/>
                          </g>
                        </g>
                      </g>
                    </g>
                  </g>
                </g>
              </g>
            </g>
          </g>
        </g>
      </g>
    </g>
  </g>
</svg>
