<svg xmlns="http://www.w3.org/2000/svg" width="59" height="57" viewBox="0 0 59 57">
  <g id="Group_13875" data-name="Group 13875" transform="translate(-756 -596)">
    <path id="Path_5042" data-name="Path 5042" d="M345.746,76H325.654C310.112,76,307.7,78.823,307.7,97.017v8.828c0,21.394,2.412,24.154,20.633,24.154h14.734c18.221,0,20.633-2.761,20.633-24.154V97.017C363.7,78.823,361.288,76,345.746,76Z" transform="translate(449.8 521.5)" fill="#f56523" stroke="#fff" stroke-width="3"/>
    <g id="Group_7675" data-name="Group 7675" transform="translate(769 608.001)">
      <path id="Path_4978" data-name="Path 4978" d="M32.595-69.338a2.242,2.242,0,0,0,.5-2.222,2.112,2.112,0,0,0-1.679-1.465l-7.793-1.229a2.087,2.087,0,0,1-1.568-1.229l-3.478-7.375a2.091,2.091,0,0,0-1.875-1.2,2.091,2.091,0,0,0-1.875,1.2L11.35-75.483a2.087,2.087,0,0,1-1.568,1.229L1.989-73.025A2.112,2.112,0,0,0,.309-71.56a2.242,2.242,0,0,0,.5,2.222L6.445-63.61a2.221,2.221,0,0,1,.6,1.93L5.761-53.593A2.219,2.219,0,0,0,6.6-51.47a2.016,2.016,0,0,0,2.2.163l6.968-3.81a2,2,0,0,1,1.934,0l6.968,3.81a2.016,2.016,0,0,0,2.2-.163,2.219,2.219,0,0,0,.834-2.123L26.358-61.68a2.221,2.221,0,0,1,.6-1.93Z" transform="translate(-0.202 84.062)" fill="#fff"/>
      <g id="Group_13872" data-name="Group 13872">
        <path id="Union_50" data-name="Union 50" d="M1747.4-23476a1,1,0,0,1-1-1v-3.4H1743a1,1,0,0,1-1-1v-.2a1,1,0,0,1,1-1h3.4v-3.4a1,1,0,0,1,1-1h.2a1,1,0,0,1,1,1v3.4h3.4a1,1,0,0,1,1,1v.2a1,1,0,0,1-1,1h-3.4v3.4a1,1,0,0,1-1,1Z" transform="translate(-1731 23499)" fill="#f86509"/>
      </g>
    </g>
  </g>
</svg>
