<svg xmlns="http://www.w3.org/2000/svg" width="48" height="48" viewBox="0 0 48 48"><path d="M340.311,76H323.089C309.767,76,307.7,78.51,307.7,94.682v7.847c0,19.017,2.067,21.471,17.686,21.471h12.629c15.618,0,17.686-2.454,17.686-21.471V94.682C355.7,78.51,353.633,76,340.311,76Z" transform="translate(-307.7 -76)" fill="#f2f2f2"/><g transform="translate(11.116 6.311)"><path d="M3.176,37.527C-.758,34.51-.8,22.226,1.6,17.635c6.951-13.071,23.957-4.984,23.563,6.3C24.86,33.155,9.3,42.2,3.176,37.527Z" transform="translate(0.027 -6.137)" fill="#f998ba"/><path d="M20.846,15.886c-1.355.219-2.055,1.355-1.88,2.011.262.918.962-.831,2.1-1.443C21.458,16.28,21.2,15.8,20.846,15.886Z" transform="translate(-10.648 -8.935)" fill="#fff7e1"/><path d="M30.481,19.664c-3.016,3.06-.437,3.8.7.393A.428.428,0,0,0,30.481,19.664Z" transform="translate(-16.349 -11.008)" fill="#fff7e1"/><path d="M41.745,22.356c-2.361,2.142-.962,3.76.175,1.618C43.013,22.05,42.007,22.138,41.745,22.356Z" transform="translate(-22.76 -12.52)" fill="#fff7e1"/><path d="M32.22,33.764c-2.142,1.924-1.53,5.2.044,1.836a6.8,6.8,0,0,0,.612-1.443A.4.4,0,0,0,32.22,33.764Z" transform="translate(-17.345 -18.943)" fill="#fff7e1"/><path d="M45.3,34.43c-.044.262.393.787,1.355-.612C48.269,31.37,45.515,32.288,45.3,34.43Z" transform="translate(-25.481 -18.21)" fill="#fff7e1"/><path d="M48.331,43.358c-1.049,1.224-1.574,1.53-1.749,2.1-.087.262.219.874,1.443-.481C49.686,43.184,48.549,43.1,48.331,43.358Z" transform="translate(-26.198 -24.341)" fill="#fff7e1"/><path d="M7.159,26.912c-1.792,2.623-.831,4.109-.35,3.454.306-.393.306-.481.962-3.191A.34.34,0,0,0,7.159,26.912Z" transform="translate(-3.431 -15.065)" fill="#fff7e1"/><path d="M17.05,27.827c-1.224,2.448-.437,3.191-.087,2.623a20.825,20.825,0,0,0,.831-2.317C17.968,27.7,17.268,27.39,17.05,27.827Z" transform="translate(-9.213 -15.542)" fill="#fff7e1"/><path d="M20.649,38.318A5.146,5.146,0,0,0,19.6,40.592a.367.367,0,0,0,.612.262c.393-.306.612-.918,1.137-2.142C21.524,38.231,20.912,37.837,20.649,38.318Z" transform="translate(-11.02 -21.443)" fill="#fff7e1"/><path d="M6.668,42.087c-1.4,2.448-.219,5.946.656.262C7.368,42,6.887,41.738,6.668,42.087Z" transform="translate(-3.378 -23.595)" fill="#fff7e1"/><path d="M13.154,48.277c-1.18,1.7-.262,3.41.175,2.667.262-.437,0-.306.568-2.361C14.029,48.146,13.417,47.927,13.154,48.277Z" transform="translate(-7.066 -27.073)" fill="#fff7e1"/><path d="M5.6,58.248c-.131.962-.612,2.361-.262,3.322.087.219.35.262.437.044.568-.831.437-2.273.525-3.279C6.388,57.942,5.645,57.811,5.6,58.248Z" transform="translate(-2.923 -32.63)" fill="#fff7e1"/><path d="M34.715,44.958c-2.448,2.23-1.268,4.678.568.437A.363.363,0,0,0,34.715,44.958Z" transform="translate(-18.747 -25.242)" fill="#fff7e1"/><path d="M21.052,52.92A6.667,6.667,0,0,0,19.7,55.5c-.044.262.437,1.486,2.1-2.142A.431.431,0,0,0,21.052,52.92Z" transform="translate(-11.073 -29.662)" fill="#fff7e1"/><path d="M13.1,63.543c-2.011,2.492-1.268,3.016-.743,2.71.481-.306.393-.7,1.4-2.23C14.059,63.675,13.4,63.194,13.1,63.543Z" transform="translate(-6.616 -35.695)" fill="#fff7e1"/><path d="M25.34,63.918c-2.842,1.836-1.443,2.142-1.18,2.011a16.08,16.08,0,0,0,1.661-1.355C26.214,64.268,25.733,63.656,25.34,63.918Z" transform="translate(-13.262 -35.938)" fill="#fff7e1"/><path d="M37.588,56.093c-1.924,1.18-1.7,2.842-.874,2.317a12.867,12.867,0,0,0,1.4-1.618C38.419,56.4,38.069,55.787,37.588,56.093Z" transform="translate(-20.308 -31.524)" fill="#fff7e1"/><path d="M40.372,9.4q4.2-.918,4.2-1.574Q44.5,7.1,39.322,6.775q3.672-4,3.148-4.721-.656-.852-6.82,2.623C35.3,2.71,34.688-.044,34.076,0c-.219,0-.656.437-1.049,4.2-1.4-1.312-2.71-1.924-3.1-1.574-.306.262-.087,1.18.525,2.273a14.035,14.035,0,0,1,10.361,7.563c1.661.306,3.585.568,3.76.087C44.787,11.89,41.858,10.229,40.372,9.4Z" transform="translate(-16.753 0.001)" fill="#1c7377"/></g></svg>