<svg width="30" height="29" fill="none" xmlns="http://www.w3.org/2000/svg">
    <path fill-rule="evenodd" clip-rule="evenodd" d="M15.955 28.09C23.712 28.09 30 21.802 30 14.045S23.712 0 15.955 0 1.91 6.288 1.91 14.045 8.198 28.09 15.955 28.09zM12.949 11.89l3.137-3.138a.843.843 0 0 1 1.195-.005.854.854 0 0 1 .232.776l-.538 2.593h3.2a1.702 1.702 0 0 1 1.563 2.368l-1.846 4.31a1.14 1.14 0 0 1-1.042.685h-5.097c-.623 0-1.133-.51-1.133-1.133v-5.658c0-.3.12-.589.329-.798zm-1.461 6.456c0 .623-.51 1.133-1.133 1.133s-1.133-.51-1.133-1.133v-4.53c0-.624.51-1.133 1.133-1.133s1.133.51 1.133 1.132v4.531z" fill="#fff"/>
    <path d="m1 26.5 2.5-6 6 6c-2.167.333-6.7 1-7.5 1-.8 0-1-.667-1-1z" fill="#fff" stroke="#fff" stroke-width=".3"/>
</svg>
