<svg xmlns="http://www.w3.org/2000/svg" width="74" height="60" viewBox="0 0 74 60"><g transform="translate(-2060 -653)"><g transform="translate(1782.642 98)"><g transform="translate(302.023 555.689)"><path d="M1181.786,542.559Z" transform="translate(-1153.406 -520.87)" fill="#efedea" fill-rule="evenodd"/><path d="M1200.784,562.121l.075.015-.075-.015Z" transform="translate(-1166.282 -534.337)" fill="#0f1212" fill-rule="evenodd"/><path d="M1127.607,560.221l.082-.028-.082.028Z" transform="translate(-1116.685 -533.01)" fill="#0f1212" fill-rule="evenodd"/><path d="M1152.056,540.9c-.912-.491-2.815-1.184-3.013-2.837a19.384,19.384,0,0,1-.121-2.061c-.006-.9.016-1.822.087-2.787-1.031,2.245-2.736,3.679-5.211,3.618-1.734-.042-3.261-1.726-4.253-3.96.131,1.177.2,2.3.229,3.417,0,.051-.009.411-.021.794-.048,1.65-1.607,2.835-2.991,3.395,3.545,7.215,11.468,7.372,15.294.421Z" transform="translate(-1121.605 -514.377)" fill="#fbb787" fill-rule="evenodd"/><path d="M1148.57,506.38a6.408,6.408,0,0,0,6.088-3.618,11.174,11.174,0,0,0,.97-2.586c-.012-.493.152-1.276.221-2.332a9.982,9.982,0,0,1,.334-2.114v-.012c-.023.03-.045.06-.07.091a38.9,38.9,0,0,0-1.108-6.441c-.655-.543-1.463-1.654-8.355-1.449-.8-.231-3,1.435-3.023,1.477a6.715,6.715,0,0,0-.78,2.3,37.4,37.4,0,0,0-.556,4.116,3.052,3.052,0,0,1-.253-.264c.009.089.017.177.026.267a10.514,10.514,0,0,1,.268,1.952c.032.573.092,1.065.137,1.475a12.687,12.687,0,0,0,1.133,3.178c1.158,2.234,2.942,3.918,4.968,3.961Z" transform="translate(-1126.466 -483.081)" fill="#fbb787" fill-rule="evenodd"/><path d="M1138.9,485.342l.075.081a3.1,3.1,0,0,0,.253.264,37.4,37.4,0,0,1,.556-4.116,6.715,6.715,0,0,1,.78-2.3c.459-.726,11.189,1.3,11.222,1.326.292.869.865,3.352,1.264,5.087.025-.031.048-.061.07-.091l0-.005c.227-.753.56-1.223,1.011-1.193a.565.565,0,0,1,.13.026,36.423,36.423,0,0,0,.019-4.888c.045-4.885-5.414-6.8-9.333-6.557-6.884.43-8.162,5.137-7.11,11.427.627,0,.9.453,1.058.938Z" transform="translate(-1123.399 -472.956)" fill="#371750" fill-rule="evenodd"/><path d="M1183.368,494.457a.118.118,0,0,1-.017.023.031.031,0,0,0,.017-.023Z" transform="translate(-1154.467 -487.529)" fill="#70432c" fill-rule="evenodd"/><path d="M1181.558,496.56l.077.035c0-.01-.032-.022-.077-.035Z" transform="translate(-1153.251 -488.954)" fill="#70432c" fill-rule="evenodd"/><path d="M1143.734,504.377a.131.131,0,0,1-.028,0,.032.032,0,0,0,.028,0Z" transform="translate(-1127.597 -494.249)" fill="#70432c" fill-rule="evenodd"/><path d="M1138.213,509.557q-.047-.184-.1-.348c-.218-.657-.529-1.061-.947-1.038a.585.585,0,0,0-.292.1c-.588.388-.813,1.841-.343,3.213.542,1.58.872,3.009,1.668,2.965.554-.03.523-.534.419-1.467-.046-.41-.106-.9-.138-1.474a10.546,10.546,0,0,0-.267-1.952Zm-.642,1.973c.118.5.349.567.332.975-.067,1.592-.476.291-.726-.189a4.993,4.993,0,0,1-.329-2.24c.061-.452.243-1.341.6-1.322s.86,1.23.376,1.794a1.08,1.08,0,0,0-.254.982Z" transform="translate(-1122.562 -497.24)" fill="#fdb883" fill-rule="evenodd"/><path d="M1138.609,509.979c-.359-.018-.54.87-.6,1.322a5,5,0,0,0,.329,2.24c.25.48.66,1.782.726.189.017-.409-.214-.479-.332-.975a1.08,1.08,0,0,1,.254-.982c.483-.564-.032-1.776-.376-1.794Z" transform="translate(-1123.722 -498.474)" fill="#fbb787" fill-rule="evenodd"/><path d="M1184.77,509.646c0,.005,0,.012,0,.017a9.99,9.99,0,0,0-.333,2.114c-.069,1.055-.233,1.839-.221,2.332.009.382.124.59.472.613.8.052,1.14-1.374,1.7-2.948.527-1.486.234-3.076-.47-3.294a.571.571,0,0,0-.13-.026c-.451-.03-.784.44-1.011,1.193Zm.957,2.951c-.255.478-.678,1.775-.728.182-.013-.409.219-.477.342-.972a1.079,1.079,0,0,0-.244-.985c-.478-.568.051-1.776.395-1.79s.531.875.587,1.328a4.987,4.987,0,0,1-.352,2.237Z" transform="translate(-1155.049 -497.434)" fill="#fdb883" fill-rule="evenodd"/><path d="M1186.956,510.254c-.344.014-.872,1.221-.395,1.79a1.079,1.079,0,0,1,.244.985c-.123.495-.355.563-.342.972.051,1.593.473.3.728-.182a4.986,4.986,0,0,0,.352-2.237c-.056-.453-.228-1.343-.587-1.328Z" transform="translate(-1156.513 -498.663)" fill="#fbb787" fill-rule="evenodd"/><path d="M1155.919,539.219c-4.061.684-8.279-3.192-9.015-6.24l0,.005v0h0v0h0v0h0v0h0v0h0v0h0v0h0v0h0l.023.056v0h0v0h0l0,.006v0h0v.012h0v0h0v0h0v0h0v0h0v0h0v0h0v0l.019.045v0l0,0h0l0,.008v0h0v0h0v0l0,.01h0v0h0v0h0v0h0v0h0v0h0v0h0v0l.017.039v0h0v0h0l0,.006h0v0h0v0h0v0h0v.008h0v0h0v0h0v0h0v0h0l.022.051v0h0v0l0,0v0h0v0l0,0h0l.008.018h0l0,0v0h0v0h0v0h0v0h0v0h0l.018.039v0h0l.005.011h0v0h0v0h0v0h0v0h0v0h0v0h0v0h0v0h0l.024.052h0v0h0l0,.008v0h0v0h0v0h0v0h0v0h0v0h0v0h0v0h0v0h0v0h0v0h0v0h0l.021.045h0v0h0l0,.006h0v0h0v0h0l.007.014h0v0h0v0h0v0h0v0l.021.042h0v0l.007.013h0v0h0v0h0v0h.007l.019.037h0l.007.014h0v0h.018l.018.035h0l.008.015h.02l.019.035h0l.005.01h0v0h.005v0h0v0h0v0h0v0h.009l.02.037h0l0,.008h.005v0h0v0h0v0h0v0h.005l.025.046h0v0l.005.009h0v0h0v0h0l0,0h0l0,.009h0v0h.007l.018.032h0l.006.011h.005l.009.016h0v0h.006l.019.032h0l.008.014h.01l0,0h.01v0h0l.017.029h0l.01.017h.019l.024.04h0l.005.008h0l0,0h0l.01.016h.01l.019.03h0l.008.013h.011v0h.012v0h0l.017.025h0l.01.015.019.028h.006l.018.027h0l.008.012h.007l.009.014h.01l.017.025h0l.013.018h.005v0h0v0h.01l.02.028h0l.012.018h.011v0h.012l.018.025h0l.013.018h.024l.017.023h0l.015.02h.025l.016.021h0l.011.014h.006l0,0h0l0,0h0l0,0h0l0,0h0l0,0h.006v0h0l.017.022h0l.011.014h0l.02.026h.009l.012.015h0l.016.021h.022l.02.025h0l.014.017h.006l.006.007h0l.006.008h.009l.012.014h0l.015.017h.025l.019.022h0l.013.016h0v0h0l.017.02h0l0,0h0l.012.014h0l.017.019h.011l0,0h0l0,0h0l0,0h.008l.012.013h0l.021.022h.005l0,0h0v0h0l0,0h0l0,0h.009l.011.011h0l.014.015h.014l0,0h.006v0h.008l.013.013h.005l.01.01h.019v0h.015l.012.012h0l.018.017h.008l.008.007h0l.006.005h.01l.011.01h0l.01.009h.013l0,0h0l.005.005h0l0,0h.011l.014.013.018.016h.005l.024.021h.006l.007.006h.005l.009.007h.021l0,0h0l0,0h0l0,0h.009l.01.008h0l.008.006h.014l.026.022h0l.006.005h0l.015.012h.017l.019.015h.005l.007.005h0l.02.015h.021l.006,0h.008l.007.005h0l.017.012h.026l0,0h.012l0,0h0l.017.012h.037l.01.007h0l.014.009h.012l0,0h0l.021.014h.006l.008.005h0l.013.009h.011l.028.017h.006l0,0h0l.016.01h.02l.014.008h.009l.007,0h0l.019.011h.019l.014.008h.008l0,0h0l.02.01h.04l0,0h0l.024.012h.02l.015.007h.009l.029.013h.042l.026.011h.018l.016.007h.008l.031.013h.023l.007,0h.01l.022.008h.022l.019.007h.008l.017.005h.02l.026.009h.008l.029.009h.021l.015,0h0l.036.01h.014l.016,0h.006l.042.01h.015l.01,0h0l.034.007h.017l.016,0h.005l.071.012h0l.047.007h.024l.072.008h0l.073.005h0l.073,0c2.25.061,3.8-1.373,4.737-3.618-.065.965-.084,1.887-.079,2.787,0,.2.008,1.119.11,2.061a2.4,2.4,0,0,0,.4,1.084Z" transform="translate(-1128.479 -514.349)" fill="#f79f7f" fill-rule="evenodd"/><path d="M1142.058,507.7c.3-.078.429-.111.783-.216a8.2,8.2,0,0,1,5.463.293,2.136,2.136,0,0,0,1.563,0,8.2,8.2,0,0,1,5.463-.293c.246.073.48.136.7.195a1.815,1.815,0,0,1-.055,1.234l-.612.021a4.729,4.729,0,0,1-.746,1.291c-.594.787-3.076.707-3.844.528s-1.445-1.923-1.445-1.923a2.334,2.334,0,0,0-.484,0s-.678,1.745-1.445,1.923-3.25.258-3.843-.528a4.767,4.767,0,0,1-.747-1.286.7.7,0,0,0-.823-.425c-.037-.74-.005-.241.073-.813Zm7.834.577c.047-.588,5.037-1.478,5.062-.086.016.9-.106,1.767-.811,2.166a5.121,5.121,0,0,1-2.16.338,1.856,1.856,0,0,1-2.091-2.418Zm-1.613,0c-.109-.683-5.037-1.445-5.062-.086-.017.9.106,1.767.811,2.166a5.12,5.12,0,0,0,2.16.338,1.852,1.852,0,0,0,2.091-2.418Z" transform="translate(-1126.42 -496.529)" fill="#000001" fill-rule="evenodd"/><path d="M1143.6,525.025c.032.073,1.572,3.282,2.363,2.144s2.711-2.128,3.131-1.945a4.589,4.589,0,0,0,2.361,0c.42-.182,2.34.808,3.131,1.945s2.159-1.877,2.191-1.95a8.866,8.866,0,0,1-1.052,4.006c-1.594,1.688-3.109,2.789-4.825,2.834-.213.005-.422,0-.626-.01q-.307.016-.627.01a7.044,7.044,0,0,1-4.8-2.922,12.581,12.581,0,0,1-1.249-4.112Zm3.661,2.468.6.636c.8.852.625,1.427,2.221,1.541l.2,0,.2,0c1.6-.113,1.422-.689,2.22-1.541l.6-.636a5.088,5.088,0,0,0-6.027,0Z" transform="translate(-1127.528 -508.872)" fill="#371750" fill-rule="evenodd"/><g transform="translate(0 22.393)"><path d="M247.193,635.684s-1.277-21.82-2.463-28.76c-.734-4.294-6.258-4.3-13.737-7.105l-.342,1.283c-.591,1.694-2.107,4.464-5.706,4.464-4.061,0-5.61-3.527-6.09-5.055l-.185-.692c-7.479,2.81-13,2.811-13.737,7.105-1.186,6.94-2.713,28.781-2.713,28.781h7.425s1.129-9.615,1.159-9.654c0,0,.485,2.229,0,9.654h14.072l14.291-.021a83.175,83.175,0,0,1-.308-9.634c.03.039,1.024,9.634,1.024,9.634Z" transform="translate(-202.22 -598.83)" fill="#7cccec"/><g transform="translate(14.948)"><path d="M258.424,618.634l1.093,24.2-2.424,2.68-2.424-2.68,1.068-24.2Z" transform="translate(-249.432 -610.436)" fill="#ffde00"/><path d="M259.646,610.254l-.883,1.691h-2.686l-.857-1.691,2.213-1.809Z" transform="translate(-249.771 -604.151)" fill="#ffde00"/><path d="M244.017,597.237,241,598.74l4.836,5.769,2.828-2.977-3.51-3.244Z" transform="translate(-240.999 -597.237)" fill="#3087aa"/><path d="M265.648,597.241,261,601.534l2.828,2.979,4.834-5.772Z" transform="translate(-253.337 -597.24)" fill="#3087aa"/></g></g></g><g transform="translate(281.357 555)"><path d="M4217.561,3787.564s.732,13.083.456,15.068-1.682,7.2-1.7,7.2a46.125,46.125,0,0,1-5.954.162s1.693-5.819,1.943-7.362-1.619-11.082-.789-14.37S4217.561,3787.564,4217.561,3787.564Z" transform="translate(-4180.358 -3750.023)" fill="#fbb787"/><path d="M4210.876,3787.564s-.732,13.083-.456,15.068,1.718,7.362,1.718,7.362h5.94s-1.693-5.819-1.943-7.362,1.619-11.082.789-14.37S4210.876,3787.564,4210.876,3787.564Z" transform="translate(-4210.358 -3750.023)" fill="#fbb787"/><ellipse cx="8.596" cy="9.752" rx="8.596" ry="9.752" transform="translate(10.296)" fill="#371a4f"/><ellipse cx="6.415" cy="6.206" rx="6.415" ry="6.206" transform="translate(12.477 13.692)" fill="#371a4f"/><path d="M309.546,263.424a20.858,20.858,0,0,0-8.746-.02v2.41h8.746Z" transform="translate(-286.281 -237.664)" fill="#e0b1ca"/><path d="M194.164,263.924a16.641,16.641,0,0,1-6.823,3.337c-.2.837-.618,2.51-.618,2.51-1.265,5.06-2,10.09-3.586,15l-.584,1.833c-4.1.092-10.444-.007-14.088.066H167.9c-1.584-4.911-3.668-16.9-3.668-16.9-.209-.837-.408-1.673-.608-2.51a16.5,16.5,0,0,1-6.823-3.337c1.713-7.839,12.69-10.658,13.019-10.748h.01a23.868,23.868,0,0,0,5.658-3.676,23.265,23.265,0,0,0,5.658,3.676h.01C181.463,253.265,192.44,256.084,194.164,263.924Z" transform="translate(-156.625 -226.671)" fill="#fedc1a"/><path d="M311.118,212.374c.04.13.07.259.11.4a6.051,6.051,0,0,1-8.228-.06l.09-.329a20.565,20.565,0,0,0,.657-4.532,21.177,21.177,0,0,0-.04-2.251,9.685,9.685,0,0,0,6.764.4,20.54,20.54,0,0,0,.3,4.811C310.869,211.328,310.989,211.856,311.118,212.374Z" transform="translate(-288.261 -185.898)" fill="#f9b68b"/><path d="M317.262,210.71a14.157,14.157,0,0,1-7.023-2.958,21.185,21.185,0,0,0-.04-2.251,9.684,9.684,0,0,0,6.764.4A20.469,20.469,0,0,0,317.262,210.71Z" transform="translate(-294.744 -185.759)" fill="#f59f82"/><path d="M289.017,267.42a5.377,5.377,0,0,1-8.736-.02L278,269.482c.867,2.45,4.732,4.492,4.732,4.492l1.9-3.955,1.883,3.965s3.875-2.022,4.751-4.463Z" transform="translate(-265.752 -241.736)" fill="#ffeef7"/><path d="M295.372,67.362c0,5.249-2.749,10.419-6.136,10.419s-6.136-5.17-6.136-10.419V67a12.245,12.245,0,0,0,6.266-6.8,10.232,10.232,0,0,0,6,6.754C295.372,67.093,295.372,67.232,295.372,67.362Z" transform="translate(-270.344 -54.203)" fill="#f9b68b"/><path d="M333.307,186.184a3.485,3.485,0,0,0,2.162-.04.321.321,0,0,1,.418.369,1.694,1.694,0,0,1-.628.956,1.565,1.565,0,0,1-1.624.12,1.76,1.76,0,0,1-.747-1A.335.335,0,0,1,333.307,186.184Z" transform="translate(-315.162 -168.208)" fill="#f4e4eb"/><path d="M396.637,142.21a.569.569,0,0,1,.727-.369.906.906,0,0,1,.558.677,2.318,2.318,0,0,1-.02.906,3.412,3.412,0,0,1-.6,1.584,1.481,1.481,0,0,1-1.5.588A23.014,23.014,0,0,0,396.637,142.21Z" transform="translate(-371.818 -128.178)" fill="#fbb787"/><path d="M273.246,142.21a.569.569,0,0,0-.727-.369.906.906,0,0,0-.558.677,2.318,2.318,0,0,0,.02.906,3.411,3.411,0,0,0,.6,1.584,1.481,1.481,0,0,0,1.5.588A23.041,23.041,0,0,1,273.246,142.21Z" transform="translate(-260.281 -128.178)" fill="#fbb787"/></g></g><rect width="74" height="60" transform="translate(2060 653)" fill="none"/></g></svg>