<svg xmlns="http://www.w3.org/2000/svg" xmlns:xlink="http://www.w3.org/1999/xlink" viewBox="0 0 74.36 52.21"><defs><style>.cls-1{isolation:isolate;}.cls-2{fill:#efae44;}.cls-12,.cls-3,.cls-9{opacity:0.5;}.cls-3,.cls-8{mix-blend-mode:screen;}.cls-12,.cls-14,.cls-4,.cls-8{fill:#f9f9f9;}.cls-5{fill:url(#linear-gradient);}.cls-6{fill:#704609;}.cls-7,.cls-9{fill:#cc913b;}.cls-8{opacity:0.4;}.cls-10{fill:#92ad6e;mix-blend-mode:multiply;}.cls-11{fill:#aa6e1f;}.cls-13{fill:#9bad6e;}.cls-14{opacity:0.8;}</style><linearGradient id="linear-gradient" x1="-3268.34" y1="-345.83" x2="-3202.31" y2="-345.83" gradientTransform="translate(3188.34 -743.5) rotate(-19.9)" gradientUnits="userSpaceOnUse"><stop offset="0" stop-color="#efae44"/><stop offset="0.12" stop-color="#d1a247"/><stop offset="0.31" stop-color="#ab944b"/><stop offset="0.49" stop-color="#8d894d"/><stop offset="0.66" stop-color="#78814f"/><stop offset="0.84" stop-color="#6b7c51"/><stop offset="1" stop-color="#677a51"/></linearGradient></defs><g class="cls-1"><g id="Layer_2" data-name="Layer 2"><g id="Layer_1-2" data-name="Layer 1"><path class="cls-2" d="M39.68,35.57C56.41,28,54.63,12.93,54.49,8.2c-.36-1.36.09-2.52-1.41-3.09a8.78,8.78,0,0,0-1-.29A23.65,23.65,0,0,0,43.53,3,26.45,26.45,0,0,0,32.66,5.5c-6,2.6-11.21,6.64-13.95,12.71A36.58,36.58,0,0,0,16,27.05c-.3,1.82-.51,3.66-.77,5.48a6.42,6.42,0,0,1-3.14,4.6C9.34,39,6.43,40.39,4,42.73a11.2,11.2,0,0,0-2.43,3.4C.85,47.74.59,49.55,0,51.22,9.51,37.94,22.41,43.41,39.68,35.57Z"/><path class="cls-2" d="M51.65,33c-2.39-1.43-2.85,1.31-4.31,3.85s-3.48,5.88-9,3.12S31.17,41.51,29,45s-5.36,4.74-12.57,3.71A27.62,27.62,0,0,0,1.28,51.21l-.21.1a19.55,19.55,0,0,1,10.86-.24,32.92,32.92,0,0,0,10.86,1c3.74-.38,7.32-1.94,10.69-3.48,3.8-1.74,7.54-3.6,11.28-5.45,3-1.49,6.45-2.64,9-4.87a10.21,10.21,0,0,0,3-6C55.47,34.48,53.27,34,51.65,33Z"/><g class="cls-3"><path class="cls-4" d="M13.77,50.19a.52.52,0,0,1-.07.15.35.35,0,0,1-.4.28h-.13a.57.57,0,0,1-.28-.11.55.55,0,0,1-.2-.17v0a.51.51,0,0,1-.11-.57.54.54,0,0,1,.47-.27.57.57,0,0,1,.55.05A.62.62,0,0,1,13.77,50.19Z"/><path class="cls-4" d="M18.32,50.9c.05.3-.05.73-.42.76a.61.61,0,0,1-.5-.23.91.91,0,0,1-.33-.67.43.43,0,0,1,.5-.35.45.45,0,0,1,.23-.07C18.12,50.35,18.26,50.62,18.32,50.9Z"/><path class="cls-4" d="M22.6,50.23a.13.13,0,0,1,0,.06l0,0v0a.35.35,0,0,1-.63,0l-.06-.18a.3.3,0,0,1,.11-.37.32.32,0,0,1,.19-.19.35.35,0,0,1,.44.21h0l0,.07a.08.08,0,0,1,0,0A.29.29,0,0,1,22.6,50.23Z"/><path class="cls-4" d="M31.72,47.43a1.28,1.28,0,0,1-.64.82,3.06,3.06,0,0,1-1.26.5.67.67,0,0,1-.78-.59.31.31,0,0,1,0-.45,2.3,2.3,0,0,1,.47-.35,1.87,1.87,0,0,1,.66-.3,2.56,2.56,0,0,1,.93-.21C31.42,46.86,31.77,47,31.72,47.43Z"/><path class="cls-4" d="M35.49,42.12a1.11,1.11,0,0,1-.2.55,2.24,2.24,0,0,1-1.43.93.78.78,0,0,1-1-.87,1.48,1.48,0,0,1,.52-.94,1.33,1.33,0,0,1,1.44-.65.67.67,0,0,1,.51.24A.75.75,0,0,1,35.49,42.12Z"/><path class="cls-4" d="M39,42.09a.62.62,0,0,1-.08.53.65.65,0,0,1-.51.23.35.35,0,0,1-.35-.23.45.45,0,0,1,.06-.47.75.75,0,0,1,.07-.12l.07-.06,0,0a.28.28,0,0,1,.23-.13A.34.34,0,0,1,39,42.09Z"/><path class="cls-4" d="M43.48,43.39a2.4,2.4,0,0,1-1.54.07.65.65,0,0,1-.23-1,1.77,1.77,0,0,1,.67-.49c.91-.58,2.29-1.44,3.1-.46S44,43.25,43.48,43.39Z"/><path class="cls-4" d="M48.25,38.27a1.79,1.79,0,0,1,0,.24,1,1,0,0,1-.79.84.36.36,0,0,1-.46-.3,1.33,1.33,0,0,1,.09-.44.93.93,0,0,1,.46-.68.41.41,0,0,1,.39,0A.32.32,0,0,1,48.25,38.27Z"/><path class="cls-4" d="M52,38l0,.07a.35.35,0,0,1,0,.14,1.09,1.09,0,0,1-.13.17.57.57,0,0,1-.63-.29.34.34,0,0,1,.2-.44c-.05,0,0,0,0,0l.15-.08C51.83,37.37,52.08,37.72,52,38Z"/><path class="cls-4" d="M51.16,34.83a1.58,1.58,0,0,1-.61,1,.7.7,0,0,1-1-.07,1,1,0,0,1,.09-1.07h0v-.08a.79.79,0,0,1,.91-.74.9.9,0,0,1,.39.23.34.34,0,0,1,.15.2A.77.77,0,0,1,51.16,34.83Z"/></g><path class="cls-5" d="M54.73,8.85a3.69,3.69,0,0,1-.24-.65c.14,4.73,1.92,19.78-14.81,27.37C22.41,43.41,9.51,37.94,0,51.22c0,0-.12.45.53.29l.06,0h0l.47-.16.21-.1A27.62,27.62,0,0,1,16.4,48.72c7.21,1,10.38-.21,12.57-3.71s3.82-7.79,9.36-5,7.55-.58,9-3.12,1.92-5.28,4.31-3.85c1.62,1,3.82,1.46,5.09-.71.09-.42.16-.85.22-1.27a58.64,58.64,0,0,0,.12-11.7A26.52,26.52,0,0,0,54.73,8.85Z"/><path class="cls-6" d="M54.73,8.85a3.69,3.69,0,0,1-.24-.65c.14,4.73,1.92,19.78-14.81,27.37C22.41,43.41,9.51,37.94,0,51.22c0,0-.12.45.53.29l.06,0h0l.47-.16.21-.1A27.62,27.62,0,0,1,16.4,48.72c7.21,1,10.38-.21,12.57-3.71s3.82-7.79,9.36-5,7.55-.58,9-3.12,1.92-5.28,4.31-3.85c1.62,1,3.82,1.46,5.09-.71.09-.42.16-.85.22-1.27a58.64,58.64,0,0,0,.12-11.7A26.52,26.52,0,0,0,54.73,8.85Z"/><path class="cls-7" d="M53.08,5.11a8.78,8.78,0,0,0-1-.29A23.65,23.65,0,0,0,43.53,3a18,18,0,0,0-2.2.08,14,14,0,0,1,5,.93c6.6,2.52,7,11.54,5.13,17.31-2.4,7.54-10.14,11.93-17,14.76a36.4,36.4,0,0,1-10.42,2.71c-6.51.61-9.57.66-14.39,3s-4.83.41-.42-1.74c3.26-1.59,4.53-2.85,5.28-5.52a7.28,7.28,0,0,1-2.49,2.58C9.34,39,6.43,40.39,4,42.73a11.2,11.2,0,0,0-2.43,3.4C.85,47.74.59,49.55,0,51.22c9.5-13.28,22.4-7.81,39.67-15.65C56.41,28,54.63,12.93,54.49,8.2,54.13,6.84,54.58,5.68,53.08,5.11Z"/><path class="cls-8" d="M45.75,7.53c-.66-1.58-2.5-2.44-4.07-2.76-4.17-.85-8.82,1-12.18,3.35a31.81,31.81,0,0,0-8.81,9.7C18.63,21.3,16.87,25.5,17,29.61a.1.1,0,0,0,.2,0A29.91,29.91,0,0,1,27.79,11.16a19.58,19.58,0,0,1,10.1-4.62,8.17,8.17,0,0,1,5,.71c1.83,1,1.28,2.81.91,4.48a.76.76,0,0,0,1.37.63A4.65,4.65,0,0,0,45.75,7.53Z"/><path class="cls-9" d="M49.16,37.63c-2,3.1-6,6.6-9,5.3s-6.29-.74-7.41,2S26.05,52,18.36,50.53A26.47,26.47,0,0,0,8,50.47a26.1,26.1,0,0,1,3.94.6,32.92,32.92,0,0,0,10.86,1c3.74-.38,7.32-1.94,10.69-3.48,3.8-1.74,7.54-3.6,11.28-5.45,2.76-1.37,5.9-2.46,8.37-4.36C54.91,35.7,50.74,35.15,49.16,37.63Z"/><path class="cls-10" d="M54.73,8.85a3.69,3.69,0,0,1-.24-.65c.14,4.73,1.92,19.78-14.81,27.37C22.41,43.41,9.51,37.94,0,51.22a.24.24,0,0,0,.23.32A2.17,2.17,0,0,0,.94,51c2.65-2.93,9.09-7.42,19-7.28a43.29,43.29,0,0,0,10.65-1.31c1.62-2.54,3.53-4.46,7.57-2.54,5.66-2.47,10.86-6.18,14-11.3a6.53,6.53,0,0,1,5.25-3.32c0-2-.13-4-.23-5.93A26.52,26.52,0,0,0,54.73,8.85Z"/><path class="cls-11" d="M0,51.22l.44-.62c.15-.2.32-.46.54-.75l.79-1c.32-.34.65-.73,1.05-1.13s.83-.83,1.34-1.24A20.13,20.13,0,0,1,7.78,44a26.19,26.19,0,0,1,4.82-2,52.61,52.61,0,0,1,5.62-1.32l6.06-1.06c2-.37,4.13-.8,6.18-1.33a55.86,55.86,0,0,0,6-1.88l1.44-.56,1.42-.61.17-.07.17-.08L40,35l.69-.34.68-.33L42,34l.64-.36a5.63,5.63,0,0,0,.62-.37l1.21-.78a27.16,27.16,0,0,0,2.19-1.71A22.06,22.06,0,0,0,50.13,27a25.72,25.72,0,0,0,2.19-3.71c.25-.59.51-1.14.69-1.67l.28-.75c.07-.24.15-.48.21-.7.15-.44.25-.84.34-1.19,0-.18.08-.34.12-.49s.06-.28.09-.4c.11-.49.16-.75.16-.75l-.12.75c0,.13,0,.26-.06.42s-.06.31-.1.49c-.07.35-.15.76-.28,1.21-.06.23-.12.47-.19.71s-.16.51-.24.78c-.16.54-.4,1.1-.63,1.71a22.18,22.18,0,0,1-2.1,3.85,23.06,23.06,0,0,1-3.43,3.9c-.67.64-1.43,1.21-2.2,1.81l-1.22.82c-.2.14-.42.27-.64.4l-.65.37a38.94,38.94,0,0,1-5.61,2.62,59.09,59.09,0,0,1-6.09,1.93c-2.07.53-4.17.94-6.24,1.31s-4.1.66-6.06,1-3.84.7-5.59,1.18A25.88,25.88,0,0,0,8,44.42a22,22,0,0,0-3.64,2.31c-.51.39-.95.8-1.37,1.18s-.76.75-1.09,1.08l-.82.92c-.24.27-.42.52-.58.71Z"/><path class="cls-11" d="M54.33,33.84h-.17a3.74,3.74,0,0,1-.52,0,5.41,5.41,0,0,1-1.85-.63c-.19-.09-.38-.21-.58-.29a1.92,1.92,0,0,0-.67-.15,1.22,1.22,0,0,0-.69.19,2.14,2.14,0,0,0-.55.57,9.84,9.84,0,0,0-.85,1.62c-.28.6-.56,1.23-.92,1.87a16.48,16.48,0,0,1-1.2,1.94,6.47,6.47,0,0,1-1.8,1.73,4.81,4.81,0,0,1-2.59.69,8.35,8.35,0,0,1-2.69-.57l-.64-.28-.32-.14L38,40.22l-.31-.15L37.36,40l-.62-.22a4.76,4.76,0,0,0-2.56-.12A4.49,4.49,0,0,0,32,41.06a14.69,14.69,0,0,0-1.6,2.3c-.5.81-1,1.66-1.53,2.46a8.59,8.59,0,0,1-2.11,2.1,7.74,7.74,0,0,1-2.7,1.15,13.38,13.38,0,0,1-2.79.34A31,31,0,0,1,16.08,49a19.83,19.83,0,0,0-2.37-.21c-.38,0-.76,0-1.13,0s-.73,0-1.09,0A29.16,29.16,0,0,0,4.68,50c-.8.24-1.43.44-1.85.6l-.65.24.63-.28c.41-.18,1-.43,1.82-.71A29.3,29.3,0,0,1,7.55,49a26.67,26.67,0,0,1,3.91-.63q.54,0,1.11-.06c.38,0,.76,0,1.16,0a22.29,22.29,0,0,1,2.42.15,31.84,31.84,0,0,0,5.13.32,13.19,13.19,0,0,0,2.64-.35,7.6,7.6,0,0,0,2.44-1.07,7.84,7.84,0,0,0,1.9-1.91c.54-.76,1-1.61,1.49-2.43a15.7,15.7,0,0,1,1.7-2.41A5.35,5.35,0,0,1,34,38.87a4.67,4.67,0,0,1,1.53-.13A7,7,0,0,1,37,39c.23.08.46.15.68.25l.33.14.31.15.32.15.3.14.6.27A8.06,8.06,0,0,0,42,40.7a4.2,4.2,0,0,0,2.27-.55,6,6,0,0,0,1.68-1.54,17.45,17.45,0,0,0,1.23-1.85c.73-1.21,1.19-2.46,1.93-3.44a2.33,2.33,0,0,1,.65-.6,1.45,1.45,0,0,1,.82-.2,2.94,2.94,0,0,1,1.32.53,5.79,5.79,0,0,0,1.79.72,3.07,3.07,0,0,0,.51.06Z"/><g class="cls-3"><path class="cls-12" d="M5.61,44a.43.43,0,0,1-.12.22,1.71,1.71,0,0,1-.11.14.34.34,0,0,1-.48,0,.37.37,0,0,1-.12-.24.33.33,0,0,1,.16-.39.33.33,0,0,1,.22-.29.35.35,0,0,1,.44.2s0,0,0,0A.31.31,0,0,1,5.61,44Z"/><path class="cls-12" d="M14.14,39a1.42,1.42,0,0,1-1.41,1.1.35.35,0,0,1-.35-.48.38.38,0,0,1,.07-.22,1.85,1.85,0,0,1,1.33-.8A.34.34,0,0,1,14.14,39Z"/><path class="cls-12" d="M20.85,39.33c-.6.54-1.78,1-2.46.37a.37.37,0,0,1,0-.49,1.79,1.79,0,0,1,1.43-.57,1,1,0,0,1,1.09.15A.34.34,0,0,1,20.85,39.33Z"/><path class="cls-12" d="M18.63,32.57a.35.35,0,0,1-.67.07.49.49,0,0,1,0-.47.4.4,0,0,1,.49-.07A.32.32,0,0,1,18.63,32.57Z"/><path class="cls-12" d="M22.07,36a.57.57,0,0,1-.47.17.34.34,0,0,1-.36,0l0,0a.63.63,0,0,1-.3-.67,1,1,0,0,1,.49-.81h0A1.29,1.29,0,0,1,22,33.9a.35.35,0,0,1,.47.08A1.57,1.57,0,0,1,22.07,36Z"/><path class="cls-12" d="M28.78,21.18l0,.06a.35.35,0,0,1-.65.23l0-.06A.34.34,0,0,1,28.78,21.18Z"/><path class="cls-12" d="M23.51,26.5c-1.05,0-1.53-1-1.51-1.93a3,3,0,0,1,1.23-2.63C25.7,20.75,25.89,26.54,23.51,26.5Z"/><path class="cls-12" d="M27.08,27.85l-.16.08a1,1,0,0,1-1.53-.76c0-.85.67-1.31,1.29-1.8a.34.34,0,0,1,.52.16C27.43,26.17,27.78,27.37,27.08,27.85Z"/><path class="cls-12" d="M32,37.05a.31.31,0,0,1-.19.43.37.37,0,0,1-.34,0,.35.35,0,0,1-.16-.45l.05-.09a.36.36,0,0,1,.46-.16A.35.35,0,0,1,32,37.05Z"/><path class="cls-12" d="M23.87,14.44A1.19,1.19,0,0,1,24,14a.36.36,0,0,1,0-.43,4.46,4.46,0,0,1,.66-.83c.25-.23.72-.47,1-.08.51.8-.53,1.65-1.14,2C24.21,14.82,23.86,14.72,23.87,14.44Z"/><path class="cls-12" d="M32.47,30.12a2.76,2.76,0,0,1-.45.71.34.34,0,0,1-.6-.28.44.44,0,0,1,0-.15.3.3,0,0,1,.06-.3l.36-.34a.36.36,0,0,1,.49-.05A.35.35,0,0,1,32.47,30.12Z"/><path class="cls-12" d="M29.66,16.93a1.05,1.05,0,0,1,.41-1.31.92.92,0,0,1,.42-.34.33.33,0,0,1,.43.21,0,0,0,0,1,0,0l0,0a.36.36,0,0,1,0,.14,1.56,1.56,0,0,1-.78,1.4A.36.36,0,0,1,29.66,16.93Z"/><path class="cls-12" d="M32.52,21.56A1.08,1.08,0,0,1,32.6,21c.12-.26.43-.7.77-.51s.27.45.23.72a2.1,2.1,0,0,1-.14.6.33.33,0,0,1-.26.19.3.3,0,0,1-.24.05A.61.61,0,0,1,32.52,21.56Z"/><path class="cls-12" d="M38.09,33.88a.82.82,0,0,1-.85.21L37.11,34a.35.35,0,0,1,0-.48.91.91,0,0,1,.55-.39.59.59,0,0,1,.55.26A.35.35,0,0,1,38.09,33.88Z"/><path class="cls-12" d="M39.94,28.46c-.08.29-.31.64-.64.65a.33.33,0,0,1-.31.11c-.86-.13-.91-1.13-.62-1.78a1.17,1.17,0,0,1,.61-.68.67.67,0,0,1,.8.47A2,2,0,0,1,39.94,28.46Z"/><path class="cls-12" d="M36.34,14c-.23.13-.64,0-.54-.34a1.72,1.72,0,0,1,.24-.49.22.22,0,0,1,0-.1,2.66,2.66,0,0,1,1.53-1.5.34.34,0,0,1,.44.2C38.33,12.91,37.2,13.46,36.34,14Z"/><path class="cls-12" d="M45,27.87a1,1,0,0,1-.51.39.34.34,0,0,1-.22,0,.36.36,0,0,1-.18-.64.82.82,0,0,1,.47-.6.35.35,0,0,1,.44.21A.67.67,0,0,1,45,27.87Z"/><path class="cls-12" d="M42.67,18.39a.5.5,0,0,1,0,.13.59.59,0,0,1-.05.22,1.06,1.06,0,0,1-.31.36.34.34,0,0,1-.52-.17,1,1,0,0,1-.11-.61.79.79,0,0,1,.4-.48.36.36,0,0,1,.42,0A.58.58,0,0,1,42.67,18.39Z"/><path class="cls-12" d="M49.82,23c-.1.4-.65,1-1.08.62a.69.69,0,0,1-.18-.68.3.3,0,0,1-.07-.38c.21-.44.45-.86.65-1.29a.35.35,0,0,1,.64,0A3.17,3.17,0,0,1,49.82,23Z"/><path class="cls-12" d="M45.05,7.87a.34.34,0,0,1-.38-.54,2.23,2.23,0,0,1,1.2-.9,3,3,0,0,1,1.07-.38.34.34,0,0,1,.37.31C47.38,7.69,46,7.65,45.05,7.87Z"/><path class="cls-12" d="M52.11,17.12a.34.34,0,0,1-.5.46l-.09-.08c-.34,0-.41-.3-.42-.56a.77.77,0,0,1,0-.15.34.34,0,0,1,.62-.22h0a.4.4,0,0,1,.18.16.38.38,0,0,1,.13.24V17A.41.41,0,0,0,52.11,17.12Z"/></g><path class="cls-2" d="M72.75.26c-1.16-.42-2.18.17-3.22.63a9.21,9.21,0,0,0-1.46.45H68a.18.18,0,0,0-.15.11.39.39,0,0,0-.06.57c.48.63,1,1.22,1.49,1.86a6.73,6.73,0,0,1,.94,2.6A9.23,9.23,0,0,1,69.61,12c-.17.41.46.64.73.27,2-2.72,4.09-6.18,4-9.37A2.61,2.61,0,0,0,72.75.26Z"/><path class="cls-2" d="M67.94.13a3.68,3.68,0,0,0-3.57,1c-1.1,1.11-.82,2.19-.73,3.43.13,1.69.73,3.28.91,5C65.07,14.3,64,19,63.14,23.77c-.09.52.72.65,1,.23C68.36,18.49,73,12.12,71.76,5.62,71.4,3.76,70.16.79,67.94.13Z"/><path class="cls-2" d="M60.38.76a3.56,3.56,0,0,0-2.44,1.8,2.45,2.45,0,0,0-.37.74,2.1,2.1,0,0,0-.15,1.46,9.33,9.33,0,0,0,.32,1.76,66.28,66.28,0,0,0,2.41,6.38,30,30,0,0,1,2,14.23c-.06.53.7.72,1,.29,2-3.07,2.69-6.69,3.26-10.19a25,25,0,0,0-.3-11C65.41,4.06,63.42.14,60.38.76Z"/><path class="cls-2" d="M58.32,5.2C57.18,2.93,55.53.44,52.69.45a3.14,3.14,0,0,0-2.82,1.34,2.84,2.84,0,0,0,.35,2.47A29.54,29.54,0,0,0,52.1,7.09a28.79,28.79,0,0,1,2.76,5.76A29.79,29.79,0,0,1,56.5,25.31,25.13,25.13,0,0,1,56,28.87c-.27,1.28-.66,2.95.16,4.12a2,2,0,0,0,2.38.54c2.63-.84,4.06-4.11,4.47-6.6A30.92,30.92,0,0,0,62.58,17a30.72,30.72,0,0,0-1.95-7.25C60,8.19,59.08,6.72,58.32,5.2Z"/><path class="cls-13" d="M57.35,3.57s.23.31.59.89.86,1.43,1.39,2.48c.27.52.55,1.09.83,1.7s.56,1.27.82,2,.53,1.4.77,2.13.46,1.49.66,2.25.36,1.53.51,2.29c.08.38.14.75.2,1.13l.15,1.11.12,1.08.06,1c0,.67,0,1.31,0,1.9s0,1.12-.08,1.6-.09.89-.13,1.23c-.1.68-.17,1.06-.17,1.06s0-.39.07-1.07c0-.34,0-.76,0-1.23v-.75c0-.14,0-.27,0-.41s0-.29,0-.43c0-.58-.07-1.21-.12-1.88,0-.33-.07-.67-.11-1s-.09-.7-.14-1.06-.11-.72-.17-1.09-.15-.74-.22-1.11c-.15-.75-.32-1.51-.52-2.26s-.41-1.5-.64-2.22-.46-1.45-.71-2.13-.5-1.34-.75-2-.5-1.2-.74-1.74c-.47-1.06-.89-1.94-1.21-2.55S57.35,3.57,57.35,3.57Z"/><path class="cls-13" d="M63.73,2.1a6.76,6.76,0,0,1,.53.73c.15.24.34.54.53.89.09.18.2.36.3.56l.3.64c.11.23.2.46.31.71s.2.5.29.77c.17.54.38,1.11.51,1.71.07.3.16.61.22.92s.11.63.17,1c0,.16,0,.32.08.48L67,11l.09,1c0,.65,0,1.32,0,2s-.08,1.28-.12,1.9-.18,1.2-.27,1.76a6.83,6.83,0,0,1-.16.81c-.07.25-.13.5-.19.74a10.89,10.89,0,0,1-.36,1.3c-.13.37-.25.7-.34,1-.19.54-.31.85-.31.85s.08-.32.21-.88c.07-.27.15-.61.25-1s.16-.82.26-1.3c0-.24.09-.49.13-.75a6.68,6.68,0,0,0,.13-.8c.06-.56.12-1.14.19-1.74s0-1.24.07-1.87,0-1.28-.06-1.93l-.09-1,0-.48c0-.16,0-.32-.08-.47,0-.32-.09-.63-.14-.94s-.13-.6-.19-.9c-.12-.6-.29-1.16-.43-1.69-.08-.27-.18-.53-.25-.78s-.16-.49-.26-.71-.17-.45-.25-.65l-.25-.58c-.15-.37-.32-.67-.44-.93s-.24-.45-.32-.58A1.13,1.13,0,0,0,63.73,2.1Z"/><path class="cls-13" d="M69.53.89a8.42,8.42,0,0,1,.93,1.18c.12.19.26.39.38.62s.27.46.39.71.24.53.35.8.21.57.31.85.16.59.22.88,0,.29.07.44l0,.22c0,.07,0,.14,0,.21a7.88,7.88,0,0,1,0,.82c0,.26,0,.51,0,.74s-.07.43-.1.61a4.12,4.12,0,0,1-.14.45l-.13.39a4,4,0,0,1,0-.41c0-.13,0-.28,0-.46a6,6,0,0,1,0-.6c0-.11,0-.22,0-.34l0-.36a7.58,7.58,0,0,0-.1-.78c0-.27-.12-.54-.17-.82s-.15-.55-.23-.83-.17-.56-.27-.83-.19-.53-.31-.78-.2-.5-.31-.73-.21-.45-.29-.65c-.2-.4-.36-.73-.48-1Z"/><path class="cls-7" d="M72.29,3.64c-.15-1.48-1.38-3-2-3.08l-.72.33-.18,0A3.64,3.64,0,0,0,67.94.13l-.09,0C69,1,71,4.77,70.41,8.33s-2.36,4.54-2.58,1.21c-.2-3-1.5-8-2.88-8.87a4.55,4.55,0,0,0-.58.49,2.86,2.86,0,0,0-.61.88A4.31,4.31,0,0,0,61.85.81c1.84,1,5.55,11.38,3.09,14.82-2.31,3.25-2.7-9.26-7-13.07a2.45,2.45,0,0,0-.37.74,2.79,2.79,0,0,0-.12.34A7.69,7.69,0,0,0,55,1.08c2.63,2.24,8,12.84,6.62,19-1,4.48-2.32-2.51-5.18-9.53-1.47-3.64-4-8.78-6.11-9.32a1.91,1.91,0,0,0-.47.58,2.84,2.84,0,0,0,.35,2.47A29.54,29.54,0,0,0,52.1,7.09a28.79,28.79,0,0,1,2.76,5.76A29.79,29.79,0,0,1,56.5,25.31,25.13,25.13,0,0,1,56,28.87c-.27,1.28-.66,2.95.16,4.12a2,2,0,0,0,2.38.54c2.4-.77,3.8-3.56,4.34-5.94a.49.49,0,0,0,.18-.17,17.41,17.41,0,0,0,2.14-4.84c2.87-3.84,5.68-8,6.49-12.37C73.2,7.9,74.41,5.3,74.36,2.85A3.31,3.31,0,0,0,74,1.41C74.17,3.34,72.44,5,72.29,3.64Z"/><g class="cls-3"><path class="cls-14" d="M58.79,30.23a1,1,0,0,1-1,.32c-.42-.15-.54-.68-.55-1.06a1.54,1.54,0,0,1,.57-1.34.83.83,0,0,1,1.09,0,.91.91,0,0,1,.18.37A1.47,1.47,0,0,1,58.79,30.23Z"/><path class="cls-14" d="M56.09,4.68a.35.35,0,0,1,.24.65A.35.35,0,0,1,56.09,4.68Z"/><path class="cls-14" d="M53.81,3A.55.55,0,0,1,54,2.84a.37.37,0,0,1,.25,0h0a.31.31,0,0,1,.2.2l.07.2a.35.35,0,0,1,0,.31.4.4,0,0,1-.29.21A.31.31,0,0,1,54,3.64a.6.6,0,0,1-.12-.11.27.27,0,0,1-.06-.12A.36.36,0,0,1,53.81,3Z"/><path class="cls-14" d="M57.35,14.35a.34.34,0,0,1-.23-.64A.34.34,0,0,1,57.35,14.35Z"/><path class="cls-14" d="M54.35,7.84a.34.34,0,0,1,.54-.37,1.2,1.2,0,0,1,.35.46,1.44,1.44,0,0,1,0,.46.35.35,0,0,1-.62.23,1.63,1.63,0,0,1-.32-.47A.38.38,0,0,1,54.35,7.84Z"/><path class="cls-14" d="M57.8,19.88a1.54,1.54,0,0,1-.15-.35c-.23-.28-.38-.73,0-1a.54.54,0,0,1,.68.06.45.45,0,0,1,.36.32.82.82,0,0,1,.12.2,1,1,0,0,1-.06.65.34.34,0,0,1-.43.17h0A.35.35,0,0,1,57.8,19.88Z"/><path class="cls-14" d="M60.24,17.51a.34.34,0,0,1,.33-.6.49.49,0,0,1,.28.3C61,17.6,60.44,17.82,60.24,17.51Z"/><path class="cls-14" d="M60.06,13.39a.35.35,0,0,1-.48,0,1,1,0,0,1-.42-.57.34.34,0,0,1-.12-.22c0-.42,0-.74.44-.92a.35.35,0,0,1,.34.06A1.19,1.19,0,0,1,60.06,13.39Z"/><path class="cls-14" d="M60.08,5.94a.34.34,0,0,1,.53-.11,1,1,0,0,1,.2.2.34.34,0,0,1,.24.14,2.33,2.33,0,0,1,.43,1.67.35.35,0,0,1-.49.25,2.48,2.48,0,0,1-.53-.45h0A1.62,1.62,0,0,1,60.08,5.94Z"/><path class="cls-14" d="M62.4,13.2a.34.34,0,0,1,.23.64A.34.34,0,0,1,62.4,13.2Z"/><path class="cls-14" d="M65.66,18.2A2.14,2.14,0,0,1,65,19.44a.36.36,0,0,1-.42,0,1.72,1.72,0,0,1-.45-1.92,1.84,1.84,0,0,1,.17-.66.74.74,0,0,1,1.21-.14A1.57,1.57,0,0,1,65.66,18.2Z"/><path class="cls-14" d="M63.77,8.85a.34.34,0,0,1,.23.64A.34.34,0,0,1,63.77,8.85Z"/><path class="cls-14" d="M66.08,13a.57.57,0,0,1,0,.18,1.21,1.21,0,0,1-.08.34,1.24,1.24,0,0,1-.18.34.34.34,0,0,1-.54,0,1.33,1.33,0,0,1-.2-.37.29.29,0,0,1-.08-.21,1.21,1.21,0,0,1,.26-.88.33.33,0,0,1,.28-.12.35.35,0,0,1,.27.14,1.4,1.4,0,0,1,.1.16A1.19,1.19,0,0,1,66.08,13Z"/><path class="cls-14" d="M62.39,2.28a.39.39,0,0,1,0,.24.78.78,0,0,1-.07.25.35.35,0,0,1-.46.17.36.36,0,0,1-.19-.37c0,.05,0-.08,0-.07a.13.13,0,0,0,0-.06.2.2,0,0,0,0-.07l-.07-.14a.34.34,0,0,1,.21-.44.31.31,0,0,1,.28,0,.42.42,0,0,1,.18.11s0,0,0,0l0,.05h0Z"/><path class="cls-14" d="M68.68,14.59a.38.38,0,0,1-.31,0,.34.34,0,0,1-.15-.66.42.42,0,0,1,.54.14A.36.36,0,0,1,68.68,14.59Z"/><path class="cls-14" d="M69.31,3.62a.34.34,0,0,1,.23.64A.34.34,0,0,1,69.31,3.62Z"/><path class="cls-14" d="M66.43,2.71a.34.34,0,0,1,.52.16l.06.2a.87.87,0,0,1,.08,1.06.35.35,0,0,1-.53.12A.93.93,0,0,1,66.43,2.71Z"/><path class="cls-14" d="M68.48,8.5a.34.34,0,0,1-.23-.64A.34.34,0,0,1,68.48,8.5Z"/><path class="cls-14" d="M70.86,8.36a.36.36,0,0,1-.55,0,1,1,0,0,1-.21-.41A.4.4,0,0,1,70,7.67a1.13,1.13,0,0,1,.08-.48.68.68,0,0,1,.53-.33A.38.38,0,0,1,71,7,1,1,0,0,1,70.86,8.36Z"/><path class="cls-14" d="M73.05,4.92a.35.35,0,0,1-.59,0,1,1,0,0,1-.26-.48A1.25,1.25,0,0,1,72.33,4a.34.34,0,0,1,.59,0,1,1,0,0,1,.1.21l.07.09A.75.75,0,0,1,73.05,4.92Z"/><path class="cls-14" d="M72.74,1.93a.35.35,0,0,1-.55,0,.62.62,0,0,1-.27-.38c0-.16,0-.37.12-.46l.06,0a.34.34,0,0,1,.64,0h0a.33.33,0,0,1,0,.14h0l0,0a1.3,1.3,0,0,1,.08.17A.55.55,0,0,1,72.74,1.93Z"/></g></g></g></g></svg>