<svg xmlns="http://www.w3.org/2000/svg" width="24" height="24" viewBox="0 0 24 24">
  <g id="up_grey_arrow" transform="translate(1144 4337)">
    <rect id="Rectangle_4213" data-name="Rectangle 4213" width="24" height="24" transform="translate(-1144 -4337)" fill="rgba(255,255,255,0)"/>
    <path id="Path_16637" data-name="Path 16637" d="M3.562,7.433l4.145,3.9a1.2,1.2,0,0,1,0,1.569,1,1,0,0,1-1.411.1c-.018-.016-.035-.032-.053-.049L3.04,10.2.318,7.433a1,1,0,0,1-.05-1.414C.285,6,.3,5.985.318,5.97L3.857,2.377,6.242.293a1.061,1.061,0,0,1,1.464,0A1.159,1.159,0,0,1,7.6,1.83L4.454,4.691,2.737,6.57Z" transform="matrix(-0.035, 0.999, -0.999, -0.035, -1125.158, -4329.204)" fill="#464646"/>
  </g>
</svg>
