<svg xmlns="http://www.w3.org/2000/svg" width="48" height="48" viewBox="0 0 48 48"><path d="M340.311,76H323.089C309.767,76,307.7,78.51,307.7,94.682v7.847c0,19.017,2.067,21.471,17.686,21.471h12.629c15.618,0,17.686-2.454,17.686-21.471V94.682C355.7,78.51,353.633,76,340.311,76Z" transform="translate(-307.7 -76)" fill="#f2f2f2"/><g transform="translate(8.102 10.156)"><path d="M31.821,13.648c-2.066,10.513-9.258,14.986-17.81,13.887C5.25,26.437-1.838,18.381.412,16.42c.654-.837,7.715-1.491,16.084-7.035C27.82,1.879,27.14-.161,28.6.127,30.357.336,32.946,7.894,31.821,13.648Z" transform="translate(0.009 -0.098)" fill="#f35048"/><path d="M32.129,13C28.912,30.7,11.678,29.735,4.329,21.078A13.614,13.614,0,0,1,1.687,16.4a3.307,3.307,0,0,1,1.2-.523c5.989,9.6,15.43,11.4,21.053,8.186,4.681-2.668,5.806-8.029,6.434-10.984C32.312,3.974,27.736-.263,29.854.13,30.743.234,33.254,6.694,32.129,13Z" transform="translate(-1.24 -0.101)" fill="#fff7e1"/><path d="M41.291,56.454c-.157.1.183,1.569.68,1.6C43.226,58.128,41.579,56.245,41.291,56.454Z" transform="translate(-30.461 -41.701)" fill="#49443a"/><path d="M56.4,83.553c-.811-.366-.34,1.308.392,1.491C57.524,85.2,57.733,84.154,56.4,83.553Z" transform="translate(-41.333 -61.686)" fill="#49443a"/><path d="M64.048,44.308c-2.066-2.406-.915,1.6.078,1.1C64.65,45.171,64.441,44.727,64.048,44.308Z" transform="translate(-46.445 -32.17)" fill="#49443a"/><path d="M61.273,61.448c-.34-.471-.942-.942-1.125-.811-.1.078.262,1.831.628,1.935C61.064,62.677,61.953,62.39,61.273,61.448Z" transform="translate(-44.402 -44.786)" fill="#49443a"/><path d="M93.643,67.616c.183-.654-1.125-1.334-1.36-1.125-.262.235.183,1.543.758,1.569A.627.627,0,0,0,93.643,67.616Z" transform="translate(-68.089 -49.097)" fill="#49443a"/><path d="M80.982,57.2c-1.6-2.406-.654,2.511.34,1.2C81.557,58.062,81.113,57.408,80.982,57.2Z" transform="translate(-59.168 -41.766)" fill="#49443a"/><path d="M99.1,45.079c.026-.471-1.255-1.386-1.491-1.229-.366.235.288,1.935,1.046,1.778A.658.658,0,0,0,99.1,45.079Z" transform="translate(-71.998 -32.392)" fill="#49443a"/><path d="M101.8,22.936c-2.223-2.171-.785,1.177-.288,1.255C101.823,24.244,102.713,23.8,101.8,22.936Z" transform="translate(-74.282 -16.421)" fill="#49443a"/><path d="M31.832,13.64c-2.066,10.513-9.258,14.986-17.81,13.887C5.26,26.428-1.932,18.295.474,16.359c4.681,10.7,26.075,17,29.788-3.557C31.753,4.538,27.856-.038,28.615.092,30.681.38,32.825,8.618,31.832,13.64Z" transform="translate(-0.001 -0.09)" fill="#2c858d"/><path d="M26.529,64.444c-.628-.6-.785,1.125-.157,1.517C26.973,66.38,27.549,65.464,26.529,64.444Z" transform="translate(-19.177 -47.52)" fill="#49443a"/><path d="M84.2,32.953c-.811-.366-.34,1.308.392,1.491C85.324,34.6,85.533,33.528,84.2,32.953Z" transform="translate(-61.862 -24.319)" fill="#49443a"/><path d="M39.343,76.216c.183-.654-1.125-1.334-1.36-1.125-.262.235.183,1.543.758,1.569A.627.627,0,0,0,39.343,76.216Z" transform="translate(-27.99 -55.447)" fill="#49443a"/><path d="M74.5,81.979c.026-.471-1.255-1.386-1.491-1.229-.366.235.288,1.935,1.046,1.778A.593.593,0,0,0,74.5,81.979Z" transform="translate(-53.832 -59.641)" fill="#49443a"/></g></svg>