<svg xmlns="http://www.w3.org/2000/svg" width="50" height="50" viewBox="0 0 50 50">
    <g transform="translate(-1332 -708)">
        <circle cx="25" cy="25" r="25" fill="#34b764" transform="translate(1332 708)"/>
        <g fill="#fff">
            <path d="M13.869 27.14l.413.246a9.777 9.777 0 1 0-3.347-3.315l.253.415-.974 3.634zM7 31.333l1.744-6.509a12.054 12.054 0 1 1 4.8 4.756z" transform="translate(1345 721) translate(-7 -7)"/>
            <path fill-rule="evenodd" d="M20.146 17.44a1.786 1.786 0 0 0-1.521-.344c-.4.162-.648.781-.9 1.1a.381.381 0 0 1-.49.106 6.9 6.9 0 0 1-3.441-2.948.422.422 0 0 1 .052-.576 2.346 2.346 0 0 0 .626-1.015 2.221 2.221 0 0 0-.281-1.2 2.839 2.839 0 0 0-.885-1.337 1.217 1.217 0 0 0-1.32.2 2.682 2.682 0 0 0-.929 2.122 3.005 3.005 0 0 0 .084.673 5.578 5.578 0 0 0 .646 1.49 11.787 11.787 0 0 0 .675 1.026 10.421 10.421 0 0 0 2.925 2.715 8.832 8.832 0 0 0 1.825.868 4.047 4.047 0 0 0 2.122.335 2.57 2.57 0 0 0 1.926-1.431 1.248 1.248 0 0 0 .09-.732c-.114-.51-.797-.809-1.204-1.052z" transform="translate(1345 721) translate(-3.982 -3.985)"/>
        </g>
    </g>
</svg>
