<svg xmlns="http://www.w3.org/2000/svg" width="77.804" height="120.09" viewBox="0 0 77.804 120.09">
  <g id="You_can_do_it_1" data-name="You can do it_1" transform="translate(-31.598 -8.303)">
    <g id="Group_169" data-name="Group 169">
      <g id="Group_158" data-name="Group 158" transform="translate(-284.541 -366)">
        <g id="Buddy_Big" transform="translate(213.051 354.239)">
          <g id="Group_130" data-name="Group 130" transform="translate(103.088 20.064)">
            <g id="Body_New_4_">
              <g id="Group_127" data-name="Group 127">
                <path id="Path_358" data-name="Path 358" d="M163.764,27.581a52.07,52.07,0,0,0-34.816-6.973C111.769,23,106.6,31.7,104.593,36.844c-2.418,6.133-2.163,15.3,2.545,22.981,3.41,5.523,19.571,25.781,20.64,27.842.585,1.12.916,5.344.916,5.344v15.906a12.42,12.42,0,1,0,24.839,0V92.911a6.672,6.672,0,0,0-.025-.713c-.051-2.087-.076-7.61.713-9.391,1.12-2.545,9.595-7.813,12.521-10.205,2.952-2.392,14.15-11.758,14.15-20.894S170.177,31.6,163.764,27.581Z" transform="translate(-103.088 -20.064)" fill="#f99e1b"/>
                <path id="Path_359" data-name="Path 359" d="M172.226,46.152a46.882,46.882,0,0,0-31.074-6.159c-15.321,2.112-19.953,9.8-21.76,14.328-2.138,5.421-1.934,13.514,2.29,20.284,3.029,4.886,18.4,22.752,19.367,24.585.534.993.84,4.708.84,4.708v14.023c0,6.057,4.021,10.969,10.155,10.969a10.814,10.814,0,0,0,10.842-10.969V103.8a4.906,4.906,0,0,0-.025-.611c-.025-1.858-.076-6.719.636-8.3,1.018-2.24,8.806-6.9,11.427-9.009S187.573,75.5,187.573,67.454,177.953,49.69,172.226,46.152Z" transform="translate(-114.248 -34.563)" fill="#ffc000"/>
              </g>
            </g>
            <g id="Face_4_" transform="translate(29.252 61.521)">
              <g id="Shape_4_4_">
                <g id="Group_128" data-name="Group 128">
                  <path id="Path_360" data-name="Path 360" d="M232.986,264.012c-2.9-1.578-5.421,1.425-5.421,1.425s-2.316-4.657-6.159-3.436c-4.861,1.552-3.385,7.737-2.214,9.467a15.33,15.33,0,0,0,5.268,4.428,4.528,4.528,0,0,0,2.163.636,4.44,4.44,0,0,0,2.163-.331,14.834,14.834,0,0,0,4.454-3.614C234.436,271.189,237.21,266.328,232.986,264.012Z" transform="translate(-218.028 -261.797)" fill="#ffe400" fill-rule="evenodd"/>
                </g>
              </g>
            </g>
            <g id="Shape_29_4_" transform="translate(4.521 3.343)">
              <g id="Group_129" data-name="Group 129">
                <path id="Path_361" data-name="Path 361" d="M138.706,33.2a2.774,2.774,0,1,0,2.774,2.774A2.781,2.781,0,0,0,138.706,33.2ZM125.6,40.81c-2.621,2.418-7.151,7.839-3.181,9.213,2.8.967,4.657-3.334,7.33-5.8,2.29-2.112,6.8-4.148,5.4-6.846C133.387,34.04,128.322,38.29,125.6,40.81Z" transform="translate(-120.853 -33.2)" fill="#fff" fill-rule="evenodd"/>
              </g>
            </g>
          </g>
          <g id="Group_131" data-name="Group 131" transform="translate(115.256 42.876)">
            <circle id="Ellipse_6" data-name="Ellipse 6" cx="11.274" cy="11.274" r="11.274" transform="translate(0 0)" fill="#040404"/>
            <circle id="Ellipse_7" data-name="Ellipse 7" cx="10.129" cy="10.129" r="10.129" transform="translate(2.138 1.985)" fill="#fff"/>
            <circle id="Ellipse_8" data-name="Ellipse 8" cx="8.017" cy="8.017" r="8.017" transform="translate(6.49 3.996)" fill="#040404"/>
            <circle id="Ellipse_9" data-name="Ellipse 9" cx="2.367" cy="2.367" r="2.367" transform="translate(17.79 9.391)" fill="#fff"/>
          </g>
          <g id="Group_132" data-name="Group 132" transform="translate(144.702 42.876)">
            <circle id="Ellipse_10" data-name="Ellipse 10" cx="11.274" cy="11.274" r="11.274" transform="translate(0 0)" fill="#040404"/>
            <circle id="Ellipse_11" data-name="Ellipse 11" cx="10.129" cy="10.129" r="10.129" transform="translate(0.153 1.985)" fill="#fff"/>
            <circle id="Ellipse_12" data-name="Ellipse 12" cx="8.017" cy="8.017" r="8.017" transform="translate(0.025 3.996)" fill="#040404"/>
            <circle id="Ellipse_13" data-name="Ellipse 13" cx="2.367" cy="2.367" r="2.367" transform="translate(0.051 9.391)" fill="#fff"/>
          </g>
          <g id="Group_134" data-name="Group 134" transform="translate(128.694 98.306)">
            <path id="Path_364" data-name="Path 364" d="M228.539,338.087V327.5a39.336,39.336,0,0,1-24.839.153v10.434a12.42,12.42,0,1,0,24.839,0Z" transform="translate(-203.7 -327.5)" fill="#0156fc"/>
            <path id="Path_365" data-name="Path 365" d="M203.825,358.9h0l-.025,2.6a12.55,12.55,0,0,0,1.2,5.344c11.122,2.927,18.731,1.5,22.192.458a12.312,12.312,0,0,0,1.425-5.8V359.18C212.987,363.023,203.825,358.9,203.825,358.9Z" transform="translate(-203.775 -350.909)" fill="#002ab4"/>
          </g>
          <g id="Group_139" data-name="Group 139" transform="translate(146.458 122.215)">
            <path id="Path_376" data-name="Path 376" d="M291.066,426.486c6.337,1.731,7.024,8.551,6.871,10.816a2.082,2.082,0,0,1-2.163,2.061l-19.164.076s-2.825.255-2.927-2.24c-.1-2.469-.407-10.842.84-12.5.662-.865,4.352-.076,4.657-1.018a2.832,2.832,0,0,1,3-2.138c2.52.229,1.985,4.021,2.494,4.276C285.747,426.359,287.351,425.468,291.066,426.486Z" transform="translate(-273.557 -421.51)" fill="#eee"/>
            <path id="Path_377" data-name="Path 377" d="M281.339,436.933h6.9a9.539,9.539,0,0,1,2.774-10.511c-3.716-1.018-5.319-.153-6.388-.687-.509-.255.025-4.047-2.494-4.276a2.855,2.855,0,0,0-3,2.138c-.305.942-4,.127-4.657,1.018-.789,1.043-.967,4.657-.967,7.839C275.434,432.352,279.761,432.556,281.339,436.933Z" transform="translate(-273.5 -421.446)" fill="#fe0000"/>
            <path id="Path_378" data-name="Path 378" d="M279.721,434.817,279.492,431c-.891.509-3.843-.025-4.428.764a7,7,0,0,0-.763,3.079h5.421Z" transform="translate(-274.096 -428.569)" fill="#b80000"/>
            <path id="Path_379" data-name="Path 379" d="M295.321,435.615s-2.57-.331-2.621-5.115a1.454,1.454,0,0,1-.891.331C291.681,432.332,291.783,435.844,295.321,435.615Z" transform="translate(-287.126 -428.196)" fill="#950000"/>
          </g>
          <g id="Group_140" data-name="Group 140" transform="translate(111.879 122.215)">
            <path id="Path_380" data-name="Path 380" d="M144.518,426.486c-6.337,1.731-7.024,8.551-6.872,10.816a2.082,2.082,0,0,0,2.163,2.061l19.164.076s2.825.255,2.927-2.24c.1-2.469.407-10.842-.84-12.5-.662-.865-4.352-.076-4.657-1.018a2.832,2.832,0,0,0-3-2.138c-2.52.229-1.985,4.021-2.494,4.276C149.837,426.359,148.259,425.468,144.518,426.486Z" transform="translate(-137.629 -421.51)" fill="#eee"/>
            <path id="Path_381" data-name="Path 381" d="M174.371,436.933h-6.9a9.539,9.539,0,0,0-2.774-10.511c3.716-1.018,5.319-.153,6.388-.687.509-.255-.025-4.047,2.494-4.276a2.855,2.855,0,0,1,3,2.138c.305.942,4,.127,4.657,1.018.789,1.043.967,4.657.967,7.839C180.275,432.352,175.974,432.556,174.371,436.933Z" transform="translate(-157.81 -421.446)" fill="#fe0000"/>
            <path id="Path_382" data-name="Path 382" d="M211.4,434.817l.229-3.817c.891.509,3.843-.025,4.428.764a7,7,0,0,1,.763,3.079H211.4Z" transform="translate(-192.625 -428.569)" fill="#b80000"/>
            <path id="Path_383" data-name="Path 383" d="M201.4,435.615s2.57-.331,2.621-5.115a1.455,1.455,0,0,0,.891.331C205.039,432.332,204.938,435.844,201.4,435.615Z" transform="translate(-185.17 -428.196)" fill="#950000"/>
          </g>
        </g>
      </g>
      <path id="Path_362" data-name="Path 362" d="M225.338,202.059c-.5-.211-1.494,1.018-4.944,1.018-3.6,0-4.958-1.33-5.433-.889s2.193,2.824,5.447,2.824C223.495,205.012,226.316,202.471,225.338,202.059Z" transform="translate(-150.597 -146.135)" fill="#4a0000"/>
    </g>
    <g id="Group_150" data-name="Group 150" transform="matrix(0.998, -0.07, 0.07, 0.998, -415.261, -325.56)">
      <g id="Rectangle_10" data-name="Rectangle 10" transform="translate(440.391 429.251)" fill="#fff" stroke="#aa6618" stroke-linecap="round" stroke-linejoin="round" stroke-width="2">
        <rect width="27.606" height="16.062" stroke="none"/>
        <rect x="1" y="1" width="25.606" height="14.062" fill="none"/>
      </g>
      <text id="You_can_do_it_" data-name="You can 
do it!" transform="translate(454.216 436.924)" fill="#ff2e2e" font-size="5" font-family="BalooThambi-Regular, Baloo Thambi"><tspan x="-9.282" y="0">You can </tspan><tspan x="-5.88" y="4">do it!</tspan></text>
    </g>
    <g id="Group_152" data-name="Group 152" transform="translate(75.818 72.867) rotate(-28)">
      <path id="Path_409" data-name="Path 409" d="M527.829,979.441h0c4.432,6.226.362,8.594-1.842,9.27s-8.624-1.524-6.974-6.566c1.012-2.546,7.252-.35,7.252-.35s-1.4-4.583,1.564-2.354" transform="translate(-518.745 -978.829)" fill="#f1b92b" stroke="#f1b92b" stroke-linecap="round" stroke-linejoin="round" stroke-width="1"/>
      <path id="Path_541" data-name="Path 541" d="M0,1.109c-.034.195.314.6.371.974S1,2.57.642,1.727C.8,1.705.216,1.9.366.371.546-.567.112.5,0,1.109Z" transform="matrix(0.799, -0.602, 0.602, 0.799, 6.504, 2.404)" fill="#f08323"/>
    </g>
    <g id="Group_156" data-name="Group 156" transform="translate(56.196 88.065) rotate(-166)">
      <path id="Path_409-2" data-name="Path 409" d="M9.084,9.389h0C13.515,3.163,9.446.8,7.242.119S-1.382,1.643.268,6.685c1.012,2.546,7.252.35,7.252.35s-1.4,4.583,1.564,2.354" fill="#f1b92b" stroke="#f1b92b" stroke-linecap="round" stroke-linejoin="round" stroke-width="1"/>
      <path id="Path_541-2" data-name="Path 541" d="M0,1.257c-.034-.195.314-.6.371-.974S1-.2.642.639C.8.662.216.465.366,2,.546,2.934.112,1.87,0,1.257Z" transform="matrix(0.799, 0.602, -0.602, 0.799, 7.928, 5.706)" fill="#f08323"/>
    </g>
  </g>
</svg>
