<svg xmlns="http://www.w3.org/2000/svg" width="200" height="120" viewBox="0 0 200 120"><g transform="translate(-93 -772)"><g transform="translate(92.757 772)"><rect width="200" height="120" transform="translate(0.243)" fill="none"/></g><g transform="translate(-17.768 520.044)"><g transform="translate(126 255)"><text transform="translate(81 67.198)" fill="#93da27" font-size="41" font-family="BalooThambi-Regular, Baloo Thambi" letter-spacing="0.012em"><tspan x="-80.75" y="0">Surprise</tspan></text><text transform="translate(82.337 101.561)" fill="#46494b" font-size="31" font-family="BalooThambi-Regular, Baloo Thambi" letter-spacing="0.012em"><tspan x="-28.009" y="0">Gift</tspan></text><text transform="translate(82.211 33)" fill="#46494b" font-size="31" font-family="BalooThambi-Regular, Baloo Thambi" letter-spacing="0.012em"><tspan x="-33.232" y="0">Your</tspan></text></g><g transform="translate(127.707 251.957)"><path d="M23.768,33.86a4.15,4.15,0,0,0-5.054-3.128,3.991,3.991,0,0,0-2.888,5.294,4.15,4.15,0,0,0,5.054,3.128h0C23.286,38.432,24.249,36.266,23.768,33.86ZM17.27,4.5,6.2,7.628l9.385,21.177L20.4,27.6Z" transform="translate(-6.2 -4.5)" fill="#fcda39"/></g><path d="M.541,12.755a1.608,1.608,0,0,1,2.407,0,1.608,1.608,0,0,1,0,2.407,1.608,1.608,0,0,1-2.407,0A1.608,1.608,0,0,1,.541,12.755Zm3.369-2.166L12.333,0l4.332,4.332-11.311,7.7Z" transform="matrix(0.883, -0.469, 0.469, 0.883, 288.681, 308.25)" fill="#fedc1a"/><g transform="translate(241.908 332.914)"><path d="M20.647,17.782A2.754,2.754,0,0,0,17.6,20.34a2.679,2.679,0,0,0,2.436,3.045h0a2.6,2.6,0,0,0,2.923-2.558A2.472,2.472,0,0,0,20.647,17.782Zm1.827-1.949,3.9-15.1L17.967,0l1.218,15.59Z" transform="translate(-17.592)" fill="#7ec5ff"/></g><g transform="translate(268.141 260.184)"><path d="M34.552,6.739a5.995,5.995,0,0,1,2.166,11.792,6.057,6.057,0,0,1-6.979-4.813A6.336,6.336,0,0,1,34.552,6.739Z" transform="translate(-21.557 -6.672)" fill="#81c6ff"/><path d="M29.887,14.222a3.122,3.122,0,0,1,3.369,2.166,3.122,3.122,0,0,1-2.166,3.369,3.122,3.122,0,0,1-3.369-2.166A2.84,2.84,0,0,1,29.887,14.222Z" transform="translate(-24.352 3.894)" fill="#81c6ff"/><path d="M26.3,20.044a1.227,1.227,0,1,1,1.444.963A1.06,1.06,0,0,1,26.3,20.044Z" transform="translate(-26.3 10.105)" fill="#81c6ff"/></g><g transform="translate(110.768 273.142)"><path d="M.011,19.872A5,5,0,0,1,5.064,15.3a5,5,0,0,1,4.572,5.054,5,5,0,0,1-5.054,4.572A4.825,4.825,0,0,1,.011,19.872Z" transform="translate(0.008 -15.3)" fill="#84c7fc"/><path d="M5.222,22.266A2.374,2.374,0,0,1,7.628,20.1a2.374,2.374,0,0,1,2.166,2.407,2.82,2.82,0,0,1-2.647,2.166A2.154,2.154,0,0,1,5.222,22.266Z" transform="translate(7.311 -8.549)" fill="#84c7fc"/></g></g></g></svg>