<svg id="rewards_menu_higher" xmlns="http://www.w3.org/2000/svg" xmlns:xlink="http://www.w3.org/1999/xlink" width="30" height="30" viewBox="0 0 30 30">
  <defs>
    <clipPath id="clip-path">
      <path id="Path_5035" data-name="Path 5035" d="M21.615-4.788V-2.1a.87.87,0,0,1-.867.867H9.217A.87.87,0,0,1,8.35-2.1V-4.788a.87.87,0,0,1,.867-.867H20.748A.87.87,0,0,1,21.615-4.788Z" transform="translate(-8.35 5.655)" fill="#fb6500"/>
    </clipPath>
  </defs>
  <rect id="bound" width="30" height="30" fill="none"/>
  <g id="Group_11504" data-name="Group 11504" transform="translate(1.444 30.697)">
    <g id="Group_4181" data-name="Group 4181" transform="translate(6.923 -8.37)" clip-path="url(#clip-path)">
      <path id="Path_5034" data-name="Path 5034" d="M3.35-10.655H25.285V2.437H3.35Z" transform="translate(-7.685 6.32)" fill="#fb6500"/>
    </g>
    <path id="Subtraction_62" data-name="Subtraction 62" d="M18.333,17.341H8.779a6.164,6.164,0,0,1,1.524-3,.486.486,0,0,0,.152-.438.742.742,0,0,0-.406-.517A8.946,8.946,0,0,1,7.058,10.8H6.125A6.217,6.217,0,0,1,0,4.513V2.392a.863.863,0,0,1,.847-.877H4.8V.438A.427.427,0,0,1,5.219,0H21.892a.427.427,0,0,1,.424.438V1.516h3.947a.864.864,0,0,1,.848.877v2.12A6.217,6.217,0,0,1,20.986,10.8h-.932a8.839,8.839,0,0,1-2.982,2.585.765.765,0,0,0-.416.517.519.519,0,0,0,.153.447,6.1,6.1,0,0,1,1.523,2.987ZM22.316,3.269v.49A12.208,12.208,0,0,1,21.13,9.043a4.366,4.366,0,0,0,3.033-1.375,4.56,4.56,0,0,0,1.254-3.156V3.269Zm-20.622,0V4.513A4.557,4.557,0,0,0,2.949,7.668,4.378,4.378,0,0,0,5.99,9.043,12.212,12.212,0,0,1,4.8,3.759v-.49Zm11.77.188a.289.289,0,0,0-.259.167l-.482,1.021a.289.289,0,0,1-.217.17l-1.078.17a.294.294,0,0,0-.232.2.311.311,0,0,0,.068.308l.78.793a.306.306,0,0,1,.083.267l-.177,1.119a.307.307,0,0,0,.115.294.281.281,0,0,0,.3.023l.964-.527a.277.277,0,0,1,.267,0l.965.527a.28.28,0,0,0,.3-.023.307.307,0,0,0,.116-.294L14.8,6.555a.309.309,0,0,1,.083-.267l.78-.793a.314.314,0,0,0,.069-.308.292.292,0,0,0-.232-.2l-1.079-.17a.289.289,0,0,1-.217-.17l-.482-1.021A.29.29,0,0,0,13.465,3.457Z" transform="translate(0 -27.445)" fill="#fb6500"/>
  </g>
</svg>
