<svg xmlns="http://www.w3.org/2000/svg" width="65" height="65" viewBox="0 0 65 65">
  <g id="accuracy" transform="translate(15042 -1790)">
    <rect id="Rectangle_4860" data-name="Rectangle 4860" width="65" height="65" transform="translate(-15042 1790)" fill="none"/>
    <g id="Group_18076" data-name="Group 18076" transform="translate(-15357.903 1502.781)">
      <ellipse id="Ellipse_2828" data-name="Ellipse 2828" cx="29.337" cy="28.696" rx="29.337" ry="28.696" transform="translate(319.016 291.019)" fill="#eaf5c2"/>
      <ellipse id="Ellipse_2829" data-name="Ellipse 2829" cx="27.811" cy="26.812" rx="27.811" ry="26.812" transform="translate(316.756 296.349) rotate(-6.774)" fill="#2e9116"/>
      <ellipse id="Ellipse_2830" data-name="Ellipse 2830" cx="26.362" cy="26.258" rx="26.362" ry="26.258" transform="matrix(1, 0.017, -0.017, 1, 320.929, 293.622)" fill="#24c020"/>
      <path id="Path_27316" data-name="Path 27316" d="M5103.506,2455.162c-1.141,4.866-5.916,8.536-9.711,11.439a35.83,35.83,0,0,1-6.7,4.2,34.938,34.938,0,0,0,8.795-3.816,20.1,20.1,0,0,0,7.524-8.1c.593-1.238,1-2.788.216-3.914C5103.593,2455.036,5103.548,2455.1,5103.506,2455.162Z" transform="translate(-4733.965 -2127.394)" fill="#eaf5c2"/>
      <g id="Path_27760" data-name="Path 27760" transform="translate(330.64 303.566)" fill="none">
        <path d="M17.009-.515c9.394,0,17.009,8.2,17.009,17.593A17.009,17.009,0,0,1,0,17.078C0,7.684,7.615-.515,17.009-.515Z" stroke="none"/>
        <path d="M 17.00905799865723 2.484865188598633 C 13.32778739929199 2.484865188598633 9.827047348022461 4.028135299682617 7.151727676391602 6.830375671386719 C 5.851327896118164 8.192476272583008 4.82813835144043 9.76646614074707 4.110578536987305 11.50861549377441 C 3.373647689819336 13.29779624938965 2.999998092651367 15.1716251373291 2.999998092651367 17.07805633544922 C 2.999998092651367 20.82000732421875 4.457197189331055 24.33798599243164 7.103158950805664 26.98394584655762 C 9.749118804931641 29.62990570068359 13.26710891723633 31.08710670471191 17.00905799865723 31.08710670471191 C 20.75100708007812 31.08710670471191 24.26899719238281 29.62990570068359 26.91495895385742 26.98394584655762 C 29.56091690063477 24.33798599243164 31.01811790466309 20.82000732421875 31.01811790466309 17.07805633544922 C 31.01811790466309 15.1716251373291 30.64446830749512 13.29779624938965 29.90753746032715 11.50861549377441 C 29.18997764587402 9.76646614074707 28.16678810119629 8.192476272583008 26.86638832092285 6.830375671386719 C 24.19106674194336 4.028135299682617 20.69032669067383 2.484865188598633 17.00905799865723 2.484865188598633 M 17.00905799865723 -0.5151329040527344 C 26.40289688110352 -0.5151329040527344 34.01811981201172 7.684215545654297 34.01811981201172 17.07805633544922 C 34.01811981201172 26.47189712524414 26.40289688110352 34.08710479736328 17.00905799865723 34.08710479736328 C 7.615217208862305 34.08710479736328 -3.814697265625e-06 26.47189712524414 -3.814697265625e-06 17.07805633544922 C -3.814697265625e-06 7.684215545654297 7.615217208862305 -0.5151329040527344 17.00905799865723 -0.5151329040527344 Z" stroke="none" fill="#ffe633"/>
      </g>
      <g id="Ellipse_2886" data-name="Ellipse 2886" transform="translate(344.247 317.243)" fill="none" stroke="#ffe633" stroke-width="3">
        <circle cx="3.402" cy="3.402" r="3.402" stroke="none"/>
        <circle cx="3.402" cy="3.402" r="1.902" fill="none"/>
      </g>
    </g>
  </g>
</svg>
