<svg xmlns="http://www.w3.org/2000/svg" xmlns:xlink="http://www.w3.org/1999/xlink" width="65" height="65" viewBox="0 0 65 65">
  <defs>
    <radialGradient id="radial-gradient" cx="0.5" cy="0.5" r="0.603" gradientTransform="translate(0.138) scale(0.724 1)" gradientUnits="objectBoundingBox">
      <stop offset="0" stop-color="#ace095"/>
      <stop offset="0.378" stop-color="#a9dc92"/>
      <stop offset="0.703" stop-color="#a1d28b"/>
      <stop offset="1" stop-color="#94c180"/>
    </radialGradient>
    <clipPath id="clip-path">
      <path id="Path_27355" data-name="Path 27355" d="M0,.5A44.747,44.747,0,0,1,7.035,0c6.693.036,20.96,10.353,28.976,9.413a38.285,38.285,0,0,0,4.685-.73s-3.846,5.367-8,8.126-25.366,9-25.959,12.648Z" transform="translate(0 0)" fill="url(#radial-gradient)"/>
    </clipPath>
    <clipPath id="clip-path-2">
      <path id="Path_27345" data-name="Path 27345" d="M.947,53.985c.124-1.243-2.192-25.414,0-39.17S2.79,1.1,3.072.3s7.36.155,7.273,1.541S9.6,23.393,9.518,25.513,7.061,50.578,7.389,51.8s-1.3,2.983-1.3,2.983Z" transform="translate(0 0)" fill="#fd2928"/>
    </clipPath>
  </defs>
  <g id="attempt" transform="translate(15313 -1790)">
    <rect id="Rectangle_4858" data-name="Rectangle 4858" width="65" height="65" transform="translate(-15313 1790)" fill="none"/>
    <g id="Group_18078" data-name="Group 18078" transform="translate(-15517.348 1317.013)">
      <path id="Path_27346" data-name="Path 27346" d="M0,.5A44.747,44.747,0,0,1,7.035,0c6.693.036,20.96,10.353,28.976,9.413a38.285,38.285,0,0,0,4.685-.73s-3.846,5.367-8,8.126-25.366,9-25.959,12.648Z" transform="translate(228.686 475.178) rotate(19)" fill="#ab37fc"/>
      <g id="Mask_Group_113" data-name="Mask Group 113" transform="translate(228.686 475.177) rotate(19)" clip-path="url(#clip-path)">
        <g id="Group_17124" data-name="Group 17124" transform="translate(-6.508 7.111)">
          <path id="Path_27347" data-name="Path 27347" d="M0,7.086A4.743,4.743,0,0,1,2.945,5.619,15.116,15.116,0,0,0,6.222,4.9,4.928,4.928,0,0,0,9.016,1.6,3.406,3.406,0,0,1,9.6,0a5.149,5.149,0,0,1,1.051,2.147,2.755,2.755,0,0,1-.521,2.276A3.652,3.652,0,0,1,8.308,5.442a49.429,49.429,0,0,1-6.166.847,3.323,3.323,0,0,0-1.555.544Z" transform="translate(26.983 0.7)" fill="#df87fd"/>
          <path id="Path_27348" data-name="Path 27348" d="M0,0A11.263,11.263,0,0,0,6.221,7.542a12.308,12.308,0,0,0,9.834.075c1.6-.681,3.11-1.7,4.842-1.856a11.039,11.039,0,0,1,2.835.266,22.111,22.111,0,0,0,7.033.307,10.032,10.032,0,0,0,6.164-3.149C35.574,6.1,33.3,8.97,30.117,9.432a17.328,17.328,0,0,1-2.9.023c-1.561-.038-3.13.107-4.68-.08-.809-.1-1.608-.286-2.422-.336-2.638-.164-5.145,1.11-7.768,1.432a11.018,11.018,0,0,1-8.121-2.3A11.018,11.018,0,0,1,.191.752Z" transform="translate(0.112 3.666)" fill="#df87fd"/>
          <path id="Path_27349" data-name="Path 27349" d="M32.369,8.45a14.985,14.985,0,0,1-7.4,1.172c-1.175-.1-2.34-.308-3.517-.374-4.792-.268-9.707,1.86-14.3.451A9.978,9.978,0,0,1,.35,0c-.7,1.149-.224,2.71.286,4A17.589,17.589,0,0,0,3.861,9.812,9.038,9.038,0,0,0,10,12.591c3.111.118,6.055-1.378,9.149-1.721a38.684,38.684,0,0,1,6.674.245,12.175,12.175,0,0,0,6.524-1.006c2.588-1.382,4.081-4.14,5.429-6.745A11.13,11.13,0,0,1,32.369,8.45Z" transform="translate(0 2.832)" fill="#8a25fb"/>
          <path id="Path_27350" data-name="Path 27350" d="M0,0A13.448,13.448,0,0,1,6.78,2.292c1.422.967,2.84,2.27,4.558,2.188,1.554-.074,2.8-1.274,4.233-1.87a9.671,9.671,0,0,1,5.188-.286,24.271,24.271,0,0,0,5.219.577A5.461,5.461,0,0,0,30.438.528a2.862,2.862,0,0,1-.488,2.455A4.809,4.809,0,0,1,26.3,4.55c-2.352.133-4.721-.473-7.055-.155-3.445.47-6.391,2.891-9.838,3.35a3.908,3.908,0,0,1-1.7-.078A5.041,5.041,0,0,1,5.349,5.481L3.025,2.122C2.329,1.115,1.356-.017.149.187Z" transform="translate(3.843 0.088)" fill="#df87fd"/>
          <path id="Path_27351" data-name="Path 27351" d="M0,0C2.669.76,4.091,4.6,6.349,6.636a5.7,5.7,0,0,0,4.67,1.526c1.8-.274,3.432-1.464,5.15-2.22a16.606,16.606,0,0,1,8.414-1.017,8.212,8.212,0,0,0,4.15-.217A4.185,4.185,0,0,0,31.089.65a5.5,5.5,0,0,1-5.76,3.855c-2.3-.091-4.6-.976-6.864-.485-1.749.379-3.333,1.547-4.977,2.422S9.978,7.9,8.317,7.085C6.829,6.351,5.773,4.63,4.685,3.1S2.259.064.671.031Z" transform="translate(3.338 0)" fill="#8a25fb"/>
          <path id="Path_27352" data-name="Path 27352" d="M0,6.647a13.032,13.032,0,0,1,2.965-.622c1.157-.1,2.325-.054,3.481-.172A6.144,6.144,0,0,0,9.686,4.7,3.156,3.156,0,0,0,10.91,1.637,4.462,4.462,0,0,0,10.013,0a2.947,2.947,0,0,1,.3,2.846,4.1,4.1,0,0,1-2.737,2.11A19.7,19.7,0,0,1,4.041,5.4,6.892,6.892,0,0,0,.662,6.424Z" transform="translate(27.153 1.179)" fill="#8a25fb"/>
          <path id="Path_27353" data-name="Path 27353" d="M0,.054a6.283,6.283,0,0,1,6.027,2.8,19.735,19.735,0,0,0,1.086,1.8,11.31,11.31,0,0,0,3.12,2.206A4.41,4.41,0,0,1,5.1,5.195c-.766-1.183-.991-2.786-2.157-3.577C2.021.992.755.877,0,.054Z" transform="translate(0.665 2.336)" fill="#c8e8b2"/>
          <path id="Path_27354" data-name="Path 27354" d="M0,0C1.828.818,3.82,1.8,4.571,3.657c.229.567.323,1.179.527,1.755a2.315,2.315,0,0,0,1.109,1.4A2.887,2.887,0,0,0,7.3,7q1.632.06,3.265-.025A4.759,4.759,0,0,1,5.929,4.732,19.049,19.049,0,0,0,4.393,1.71C3.4.56,1.748.3.241.1Z" transform="translate(0.318 2.433)" fill="#6ba17b"/>
        </g>
      </g>
      <path id="Path_27340" data-name="Path 27340" d="M.95,53.436c.126-1.092-2.2-22.337,0-34.427S3.135.971,3.42.26,10.8.4,10.717,1.614s-1.085,24.934-1.17,26.8S7.083,50.442,7.413,51.52s-1.3,2.622-1.3,2.622Z" transform="translate(222.677 475.206) rotate(-3)" fill="#fd2928"/>
      <path id="Path_27341" data-name="Path 27341" d="M0,52.839s1.725-5.674,1.621-8.078-.482-17.576.506-24.4S3.614,8.929,3.82,6.041A50.919,50.919,0,0,0,3.82,0" transform="translate(225.949 475.673) rotate(-3)" fill="none" stroke="#eb1c1c" stroke-width="2"/>
      <g id="Mask_Group_112" data-name="Mask Group 112" transform="matrix(0.999, -0.035, 0.035, 0.999, 223.287, 474.452)" clip-path="url(#clip-path-2)">
        <path id="Path_27342" data-name="Path 27342" d="M0,0S18.624.762,19.534,1.615s-.046,5.072-2.121,5.824S.553,4.613.553,4.613Z" transform="translate(-1.98 2.288)" fill="#fd9192"/>
        <path id="Path_27343" data-name="Path 27343" d="M0,3.9S7.477-.385,12.348.028a14.2,14.2,0,0,1,8.2,3.873l-3.16,6.649L0,8.477Z" transform="translate(-3.321 20.086)" fill="#fd9192"/>
        <path id="Path_27344" data-name="Path 27344" d="M0,0,15.562,1.106,13.574,4.713,0,3.207Z" transform="translate(-3.321 42.382)" fill="#fd9192"/>
      </g>
      <ellipse id="Ellipse_2836" data-name="Ellipse 2836" cx="0.754" cy="0.894" rx="0.754" ry="0.894" transform="translate(226.805 511.846) rotate(-2.307)" fill="#ffe6e6"/>
      <ellipse id="Ellipse_2837" data-name="Ellipse 2837" cx="0.754" cy="0.894" rx="0.754" ry="0.894" transform="translate(231.7 492.266) rotate(-2.307)" fill="#ffe6e6"/>
      <path id="Path_27356" data-name="Path 27356" d="M4712.4,2787.328a27.6,27.6,0,0,0-26.945-3.984c-2.715,1.087-5.354,2.721-6.83,5.246a2.01,2.01,0,0,0-.359,1.438,1.894,1.894,0,0,0,1.207,1.151,10.984,10.984,0,0,0,4.268.607,184.162,184.162,0,0,0,25.658-1.658c1.32-.178,3.038-.886,2.787-2.195Z" transform="translate(-4466.16 -2255.846)" fill="#fcda39"/>
      <path id="Path_27357" data-name="Path 27357" d="M4683.737,2816.924a10.97,10.97,0,0,1-4.268-.607,1.9,1.9,0,0,1-1.207-1.151,2.011,2.011,0,0,1,.359-1.438,9.727,9.727,0,0,1,1.694-2.12c.7.431,1.363.961,2.061,1.384,2.722,1.652,6.085,1.706,9.268,1.712l12.5.024a15.818,15.818,0,0,0,4.7-.464,5.739,5.739,0,0,0,3.084-2.162c.158.12.315.239.471.363l-.215.605c.251,1.309-1.467,2.016-2.787,2.195A184.087,184.087,0,0,1,4683.737,2816.924Z" transform="translate(-4466.16 -2280.985)" fill="#b99f27"/>
      <path id="Path_27358" data-name="Path 27358" d="M4748.17,2781.258c1.861-.431,4.892-.083,6.488,0l-.757,1.631c-1,1.586-.882,1.822-1.882,3.407a14.343,14.343,0,0,1-2.74,3.486,4.848,4.848,0,0,1-4.12,1.2c.263-1.6,1.1-4.587,1.1-4.587s1.171-3.073,1.31-3.505S4748.17,2781.258,4748.17,2781.258Z" transform="translate(-4521.998 -2255.456)" fill="#b99f27"/>
    </g>
  </g>
</svg>
