<svg xmlns="http://www.w3.org/2000/svg" viewBox="0 0 414 153.25"><defs><style>.cls-1{fill:#fff;}</style></defs><g id="Layer_2" data-name="Layer 2"><g id="Layer_1-2" data-name="Layer 1"><path class="cls-1" d="M0,0V147.52c4.64,2.48,8.65,5.61,14.86,5.71,9.67.16,17.16-8.69,25-8.69h1.38c10.92.16,15.17,8.53,25.39,8.7,9.67.16,17.16-8.7,25-8.7h1.1c10.92.16,15.17,8.53,25.38,8.7,9.67.16,17.16-8.7,25-8.7h1.24c10.92.16,15.17,8.53,25.39,8.7,9.67.16,17.16-8.7,25-8.7H196c10.92.16,15.16,8.53,25.38,8.7,9.28.16,16.56-8,24.1-8.64v-.06h2.35c10.92.16,15.17,8.53,25.38,8.7,9.68.16,17.17-8.7,25-8.7h1.09c10.92.16,15.17,8.53,25.39,8.7,9.67.16,17.16-8.7,25-8.7H351c10.92.16,15.16,8.53,25.38,8.7,9.67.16,17.16-8.7,25-8.7h1.09c4.76.07,8.25,1.7,11.52,3.53V0Z"/></g></g></svg>