<svg xmlns="http://www.w3.org/2000/svg" viewBox="0 0 414 896.52"><defs><style>.cls-1{fill:#38a8df;}.cls-2{fill:#53b3e3;}</style></defs><g id="Layer_2" data-name="Layer 2"><g id="Layer_1-2" data-name="Layer 1"><path class="cls-1" d="M0,896.48l414-.09V.55C410.73-1.28,4.64,2.47,0,0Z"/><path class="cls-2" d="M0,896.52l414-.09V299c-3.27-1.83-6.76-3.46-11.52-3.53h-1.09c-7.88,0-15.37,8.87-25,8.71-10.22-.17-14.46-8.54-25.38-8.7h-1.24c-7.87,0-15.36,8.87-25,8.71-10.22-.17-14.47-8.54-25.39-8.7h-1.09c-7.87,0-15.36,8.87-25,8.71-10.21-.17-14.46-8.54-25.38-8.7h-2.35v.06c-7.54.65-14.82,8.79-24.1,8.64-10.22-.17-14.46-8.54-25.38-8.7h-1.1c-7.87,0-15.36,8.87-25,8.71-10.22-.17-14.47-8.54-25.39-8.7h-1.24c-7.87,0-15.36,8.87-25,8.71-10.21-.17-14.46-8.54-25.38-8.7H91.7c-7.87,0-15.36,8.87-25,8.71-10.22-.17-14.47-8.54-25.39-8.7-.23,0-.47,0-.71,0l-.67,0c-7.88,0-15.37,8.86-25,8.7C8.65,304,4.64,300.91,0,298.43Z"/></g></g></svg>