<svg xmlns="http://www.w3.org/2000/svg" viewBox="0 0 68.08 58.61"><defs><style>.cls-1{fill:#221f1f;opacity:0.2;}.cls-2,.cls-4{fill:#fff;}.cls-3{fill:#d8edee;}.cls-4{opacity:0.9;}</style></defs><g id="Layer_2" data-name="Layer 2"><g id="Layer_1-2" data-name="Layer 1"><path class="cls-1" d="M11.37,56.21c0-1.33,11.44-2.4,24.06-2.4s21.63,1.07,21.63,2.4-9,2.4-21.63,2.4S11.37,57.53,11.37,56.21Z"/><path class="cls-2" d="M34,54.12A32.72,32.72,0,0,1,8.4,1.07H59.68A32.72,32.72,0,0,1,34,54.12ZM60.71,0H7.37A33.92,33.92,0,0,0,0,21.15C0,40,15.24,55.87,34,55.87s34-15.92,34-34.72A33.86,33.86,0,0,0,60.71,0Z"/><path class="cls-3" d="M8.4,1.07a32.72,32.72,0,1,0,51.28,0Z"/><path class="cls-4" d="M7.28,14.25c.42-.61,2.25-1.76,2.75.42.46,2-3.07,7.22-2.44,15.72.91,12.29,6.65,17.13,6.65,17.13S5.1,39.63,4.16,29.38C3.44,21.59,5.53,16.77,7.28,14.25Z"/></g></g></svg>