<svg xmlns="http://www.w3.org/2000/svg" xmlns:xlink="http://www.w3.org/1999/xlink" width="65" height="65" viewBox="0 0 65 65">
  <defs>
    <clipPath id="clip-path">
      <path id="Path_100760" data-name="Path 100760" d="M8.443,36.754h5.309c1.175,0,1.9-1.871,1.9-2.955,0,0,.108-9.625,1.216-14.275S29.27,10.931,29.27,0c0-8.857-6.028-15.766-15.517-15.766A22.792,22.792,0,0,0-3.938-7.2a1.612,1.612,0,0,0,0,2.35L.31-.694A1.511,1.511,0,0,0,2.3-.6C4.105-1.778,6.487-5.86,12-5.86c4.519,0,8.172,3.194,8.172,6.448,0,6.326-12.263,13.025-13.445,19.267s0,15.183,0,15.183A1.716,1.716,0,0,0,8.443,36.754Z" transform="translate(4.447 15.77)" fill="#fed58a"/>
    </clipPath>
  </defs>
  <g id="questionsdone" transform="translate(15189 -1792)">
    <rect id="Rectangle_4859" data-name="Rectangle 4859" width="65" height="65" transform="translate(-15189 1792)" fill="none"/>
    <g id="Group_18077" data-name="Group 18077" transform="translate(263.326 -812.699)">
      <path id="Path_100745" data-name="Path 100745" d="M8.443,36.754h5.309c1.175,0,1.9-1.871,1.9-2.955,0,0,.108-9.625,1.216-14.275S29.27,10.931,29.27,0c0-8.857-6.028-15.766-15.517-15.766A22.792,22.792,0,0,0-3.938-7.2a1.612,1.612,0,0,0,0,2.35L.31-.694A1.511,1.511,0,0,0,2.3-.6C4.105-1.778,6.487-5.86,12-5.86c4.519,0,8.172,3.194,8.172,6.448,0,6.326-12.263,13.025-13.445,19.267s0,15.183,0,15.183A1.716,1.716,0,0,0,8.443,36.754Z" transform="translate(-15430.587 2622.285)" fill="#f8651f"/>
      <path id="Path_100753" data-name="Path 100753" d="M-15434.828,2617.1s6.193-8.882,14.734-7.613,12.457,8.072,11.584,11.856-4.176,7.9-7.809,11.793-5.594,12.193-5.209,17.52-1.713,6.309-1.713,6.309" transform="translate(2.491 1.899)" fill="none" stroke="#d85415" stroke-width="2"/>
      <path id="Path_100754" data-name="Path 100754" d="M193.632,209.34a30.543,30.543,0,0,1,29.621-5.607c3.051,1.082,6.043,2.771,7.788,5.5a2.227,2.227,0,0,1,.462,1.574,2.1,2.1,0,0,1-1.284,1.327,12.175,12.175,0,0,1-4.694.862,204.1,204.1,0,0,1-28.449-.69c-1.467-.138-3.4-.845-3.181-2.3Z" transform="translate(-15632.197 2453.967)" fill="#fcda39"/>
      <path id="Path_100755" data-name="Path 100755" d="M225.525,211.04a12.175,12.175,0,0,0,4.694-.862,2.106,2.106,0,0,0,1.284-1.327,2.221,2.221,0,0,0-.464-1.574,10.664,10.664,0,0,0-1.968-2.268c-.752.507-1.464,1.122-2.218,1.622-2.935,1.948-6.651,2.158-10.171,2.306l-13.818.584a17.5,17.5,0,0,1-5.222-.3,6.363,6.363,0,0,1-3.508-2.253c-.168.14-.338.278-.5.422l.263.659c-.217,1.459,1.714,2.166,3.181,2.3A204.1,204.1,0,0,0,225.525,211.04Z" transform="translate(-15632.197 2455.92)" fill="#b99f27"/>
      <path id="Path_100756" data-name="Path 100756" d="M202.253,202.859l3.53,5.129a15.862,15.862,0,0,0,3.185,3.733,5.373,5.373,0,0,0,4.61,1.142c-.362-1.756,2.462-.805,2.871-.58a4,4,0,0,0,2.906.165c.255-.078.531.258.6,0,.047-.167.694.16.625,0-2.074-2.043-5.328-5.777-5.328-5.777s-2.091-3.52-3.675-4.146a5.5,5.5,0,0,0-3.478-.487l-5.287.487Z" transform="translate(-15626.444 2453.886)" fill="#b99f27"/>
      <g id="Mask_Group_115" data-name="Mask Group 115" transform="translate(-15435.033 2606.515)" clip-path="url(#clip-path)">
        <path id="Path_100757" data-name="Path 100757" d="M2.291,15.225S-1.919,4.236,1.075,1.087s13.2,1.542,13.2,1.542S13.7,13.864,10.7,17.013,2.291,15.225,2.291,15.225Z" transform="matrix(0.978, -0.208, 0.208, 0.978, 6.189, -2.279)" fill="#ffa933" opacity="0.613"/>
        <path id="Path_100758" data-name="Path 100758" d="M.111,12.594C-.7,7.9,3.155.014,3.155.014s7.155-.484,7.963,4.2S6.387,18.771,6.387,18.771.919,17.283.111,12.594Z" transform="matrix(0.309, 0.951, -0.951, 0.309, 32.886, 13.483)" fill="#ffa933" opacity="0.613"/>
        <path id="Path_100759" data-name="Path 100759" d="M.148,13.767c-1-3.581,3.383-10.412,3.383-10.412s7.6-5.764,8.6-2.183S7.524,17.679,7.524,17.679,1.147,17.348.148,13.767Z" transform="matrix(0.309, 0.951, -0.951, 0.309, 23.987, 31.427)" fill="#ffa933" opacity="0.613"/>
      </g>
    </g>
  </g>
</svg>
