<svg xmlns="http://www.w3.org/2000/svg" xmlns:xlink="http://www.w3.org/1999/xlink" width="65" height="65" viewBox="0 0 65 65">
  <defs>
    <clipPath id="clip-path">
      <path id="Subtraction_105" data-name="Subtraction 105" d="M15.818,8.206H0c0-.088,0-.183,0-.293a7.911,7.911,0,0,1,13.506-5.6,7.856,7.856,0,0,1,2.318,5.6c0,.1,0,.195,0,.292Z" transform="translate(0 8.849) rotate(-34)" fill="#fd2e44"/>
    </clipPath>
    <clipPath id="clip-path-2">
      <path id="Subtraction_105-2" data-name="Subtraction 105" d="M15.819,0H0C0,.088,0,.183,0,.293a7.857,7.857,0,0,0,2.318,5.6,7.909,7.909,0,0,0,11.188,0,7.858,7.858,0,0,0,2.318-5.6c0-.1,0-.195,0-.292Z" transform="translate(13.119 15.652) rotate(-146)" fill="#fd2e44"/>
    </clipPath>
  </defs>
  <g id="time_taken" transform="translate(15443 -1792)">
    <rect id="Rectangle_4857" data-name="Rectangle 4857" width="65" height="65" transform="translate(-15443 1792)" fill="none"/>
    <g id="Group_18079" data-name="Group 18079" transform="translate(-15519.396 1761.81)">
      <g id="Group_17119" data-name="Group 17119" transform="translate(78.976 34.013)">
        <ellipse id="Ellipse_2820" data-name="Ellipse 2820" cx="22.752" cy="23.783" rx="22.752" ry="23.783" transform="translate(7.662 6.995)" fill="#a2411f"/>
        <path id="Path_27306" data-name="Path 27306" d="M22.752,0C35.318,0,45.5,10.5,45.5,23.448S35.318,46.9,22.752,46.9,0,36.4,0,23.448,10.187,0,22.752,0Z" transform="translate(7.662 6.995)" fill="#feb278"/>
        <circle id="Ellipse_2822" data-name="Ellipse 2822" cx="21.506" cy="21.506" r="21.506" transform="translate(0 30.414) rotate(-45)" fill="#f9802f"/>
        <ellipse id="Ellipse_2823" data-name="Ellipse 2823" cx="10.776" cy="11.617" rx="10.776" ry="11.617" transform="translate(19.638 18.47)" fill="#fff"/>
        <ellipse id="Ellipse_2824" data-name="Ellipse 2824" cx="10.776" cy="11.083" rx="10.776" ry="11.083" transform="translate(19.638 19.538)" fill="#052b38"/>
        <path id="Path_27286" data-name="Path 27286" d="M4404.765,510.874c-.144.086-.288.174-.429.265a42.855,42.855,0,0,0-6.365,5.516,25.873,25.873,0,0,1-6.65,5.067,23.362,23.362,0,0,1-3.145,1.158,8.712,8.712,0,0,1-2.762.516,3,3,0,0,1-1.442-.38l-.937-.973h0a2.673,2.673,0,0,0,1.512.438c2.341.008,5.282-2.356,6.584-3.658a25.861,25.861,0,0,0,6.031-9.637c.672-1.9,1.135-3.882,1.92-5.727h0q.066-.155.135-.309l.043-.094c.033-.074.068-.147.1-.22l.048-.1q.063-.13.127-.259l.023-.045c.034-.068.07-.135.105-.2a22.889,22.889,0,0,0-6.438-4.893c-.09.088-.178.176-.267.266l-.037.038q-.282.293-.546.6c-.013.015-.026.03-.038.044-.175.207-.342.419-.505.637l-.039.053q-.24.325-.46.666l-.04.062c-.073.114-.145.229-.214.346l0,0c-.067.113-.132.228-.2.343-.014.024-.027.048-.04.072-.065.118-.128.236-.19.356l0,.006c-.059.116-.117.233-.172.351l-.039.082c-.056.121-.111.242-.164.365l0,.007c-.051.119-.1.24-.148.361-.011.03-.023.06-.034.09q-.073.186-.139.374a.009.009,0,0,1,0,.006c-.042.123-.084.248-.124.372l-.03.095c-.039.127-.078.255-.113.383-1.307,4.74-.141,10.227-2.469,14.482a7.734,7.734,0,0,1-4.022,3.711.692.692,0,0,0-.6-.291.9.9,0,0,0-.167.016l-.147-.34-.2-1.8a18.513,18.513,0,0,0-1.675-13.2,21.617,21.617,0,0,1-1.823-3.5c-.031-.092-.058-.184-.085-.277-.006-.023-.013-.047-.019-.07-.023-.087-.044-.173-.064-.261,0-.007,0-.013,0-.02-.021-.1-.04-.194-.057-.291,0-.018-.006-.035-.008-.053-.016-.093-.029-.186-.041-.28,0,0,0-.009,0-.014-.012-.1-.021-.207-.029-.311,0-.007,0-.014,0-.021-.008-.1-.012-.206-.015-.309v0q-.007-.324.015-.648h0c.017-.242.516-3.009.786-4.479a22.128,22.128,0,0,0-8.882,3.933l-.009.064c-.005.039-.011.078-.016.117-.008.07-.015.139-.021.209,0,.043-.008.086-.01.128,0,.061-.009.123-.012.184,0,.038,0,.076,0,.114s0,.1,0,.157,0,.078,0,.117,0,.107,0,.16c0,.037,0,.073,0,.11,0,.066.007.132.011.2,0,.023,0,.047,0,.07.007.087.016.173.026.259,0,.032.008.065.012.1.007.057.015.114.024.171.005.035.011.07.017.106.009.055.02.11.03.165.006.034.014.067.02.1.014.063.028.126.043.189l.017.072q.031.128.069.253c.007.024.015.048.023.072q.027.092.059.183.015.046.032.091.029.082.06.163c.012.03.023.06.036.09.023.058.048.115.074.173.01.024.02.048.031.071q.054.119.114.236c.008.014.016.028.022.042.034.064.068.127.1.189.015.026.031.051.046.077.031.051.061.1.092.151l.052.079c.034.05.068.1.1.15.016.023.031.045.048.068.052.07.1.14.161.207h0a13.219,13.219,0,0,0,2.265,2,24.236,24.236,0,0,1,5.96,6.226,14.905,14.905,0,0,1,1.722,5.355,9.688,9.688,0,0,0,.905,3.313.681.681,0,0,0-.164.088,10.164,10.164,0,0,0-3.742-2.466c-1.563-.662-3.213-1.048-4.813-1.6-2.6-.9-5.055-2.224-7.627-3.208a38.824,38.824,0,0,1-4.554-1.834,24.79,24.79,0,0,0-.855,6.479c0,.265,0,.528.013.79a17.173,17.173,0,0,0,5.855,2.242c4.223.627,8.435-1.234,12.7-1.217a4.84,4.84,0,0,1,2.974.857.4.4,0,0,0-.137.29.469.469,0,0,0,.312.4c-2.419,2.1-5.467,2.41-8.059,3.575a11.551,11.551,0,0,0-5.793,5.72,10.716,10.716,0,0,0-.929,4.433,22.9,22.9,0,0,0,4.971,3.817,8.893,8.893,0,0,1,2.806-6.645c1.2-1.051,2.67-1.69,3.906-2.695a9.991,9.991,0,0,0,3.475-8.031l.207.137c1.535,4.417.429,9.565,1.935,14.02a11.47,11.47,0,0,0,3.9,5.414,22.19,22.19,0,0,0,7.7-3.657c-1.272-.652-2.64-1.487-3.372-1.97a9.979,9.979,0,0,1-4.095-5.445,22.314,22.314,0,0,0-.837-2.971,9.362,9.362,0,0,0-1.94-2.546l-1.974-2.049a20.307,20.307,0,0,0,9.909,1.579c3.538-.212,7.024-.978,10.535-1.495.345-.051.694-.1,1.042-.122a24.961,24.961,0,0,0-.876-12.3Z" transform="translate(-4352.872 -487.955)" fill="#b80e21"/>
        <path id="Path_27287" data-name="Path 27287" d="M4404.765,529.021c-.144.086-.288.174-.429.265a42.856,42.856,0,0,0-6.365,5.516,25.877,25.877,0,0,1-6.65,5.067,23.346,23.346,0,0,1-3.145,1.158,8.711,8.711,0,0,1-2.762.516,3,3,0,0,1-1.442-.38l-.937-.973h0a2.673,2.673,0,0,0,1.512.438c2.341.008,5.282-2.356,6.584-3.658a25.859,25.859,0,0,0,6.031-9.637c.672-1.9,1.135-3.882,1.92-5.727h0q.066-.155.135-.309l.043-.095.037-.079c-.377-.359-.787-.689-1.176-1.026s-.872-.552-1.287-.856c-.383-.28-.667-.664-1.051-.944a12.245,12.245,0,0,0-2.532-1.21,7.155,7.155,0,0,1-.916-.435l-.114-.069c-.132.161-.261.324-.386.492l-.039.053q-.24.325-.46.666l-.04.062c-.073.114-.145.229-.214.345l0,0c-.067.113-.132.228-.2.343-.014.024-.027.048-.04.072-.065.117-.128.236-.19.356a.03.03,0,0,1,0,.006c-.059.116-.117.233-.172.351l-.039.082c-.056.121-.111.242-.164.365l0,.007c-.051.119-.1.24-.148.361-.011.03-.023.06-.034.089q-.073.186-.139.374a.009.009,0,0,1,0,.006c-.042.123-.084.248-.124.372l-.03.095c-.039.127-.078.255-.113.383-1.307,4.74-.141,10.227-2.469,14.482a7.734,7.734,0,0,1-4.022,3.711.693.693,0,0,0-.6-.291.908.908,0,0,0-.167.016l-.147-.34-.2-1.8a18.513,18.513,0,0,0-1.675-13.2,21.617,21.617,0,0,1-1.823-3.5c-.031-.092-.058-.184-.085-.277-.006-.023-.013-.047-.019-.07-.023-.087-.044-.173-.064-.261,0-.007,0-.013,0-.02-.021-.1-.04-.194-.057-.291,0-.018-.006-.035-.008-.053-.016-.093-.029-.186-.041-.28a.137.137,0,0,0,0-.014c-.012-.1-.021-.207-.029-.311,0-.007,0-.014,0-.021-.008-.1-.012-.206-.015-.309v0q-.007-.324.015-.648h0c.011-.161.236-1.437.464-2.707-.572.136-1.146.266-1.715.414a17.505,17.505,0,0,0-3.017,1.086c-.84.393-1.606.89-2.417,1.334a8.751,8.751,0,0,0-1.471.888c0,.023,0,.045,0,.068.007.086.016.173.026.259,0,.032.008.064.012.1.007.057.015.114.024.171.005.035.011.07.017.106.009.055.02.11.03.165.006.034.014.067.02.1.014.063.028.126.043.189l.017.072q.031.128.069.253c.007.024.015.048.023.072q.027.092.059.183.015.046.032.091.029.082.06.163c.012.03.023.06.036.09.023.058.048.115.074.173.01.024.02.048.031.071q.054.12.114.236c.008.014.016.028.022.042.034.064.068.127.1.189.015.026.031.051.046.077.031.051.061.1.092.151l.052.079c.034.05.068.1.1.15.016.023.031.045.048.068.052.07.1.14.161.207h0a13.22,13.22,0,0,0,2.265,2,24.236,24.236,0,0,1,5.96,6.226,14.906,14.906,0,0,1,1.722,5.355,9.687,9.687,0,0,0,.905,3.313.687.687,0,0,0-.164.088,10.164,10.164,0,0,0-3.742-2.466c-1.563-.662-3.213-1.048-4.813-1.6-2.6-.9-5.055-2.224-7.627-3.208a38.847,38.847,0,0,1-4.554-1.834,24.792,24.792,0,0,0-.855,6.479c0,.264,0,.528.013.79a17.172,17.172,0,0,0,5.855,2.241c4.223.627,8.435-1.234,12.7-1.217a4.839,4.839,0,0,1,2.974.857.4.4,0,0,0-.137.29.469.469,0,0,0,.312.4c-2.419,2.1-5.467,2.41-8.059,3.575a11.551,11.551,0,0,0-5.793,5.72,10.518,10.518,0,0,0-.719,2.259c.908.9,1.685,1.931,2.6,2.824a6.009,6.009,0,0,0,1.645,1.162c.218.1.44.2.665.281a8.527,8.527,0,0,1,2.652-4.921c1.2-1.051,2.67-1.69,3.906-2.694a9.991,9.991,0,0,0,3.475-8.031l.207.138c1.535,4.417.429,9.565,1.935,14.02a11.383,11.383,0,0,0,2.324,3.955c.72-.2,1.452-.365,2.168-.581.832-.25,1.61-.623,2.412-.951,1.113-.456,2.222-.91,3.3-1.43-.788-.452-1.507-.9-1.972-1.205a9.979,9.979,0,0,1-4.095-5.445,22.308,22.308,0,0,0-.837-2.971,9.361,9.361,0,0,0-1.94-2.546l-1.974-2.049a20.305,20.305,0,0,0,9.909,1.58c3.538-.212,7.024-.978,10.535-1.495.345-.051.694-.1,1.042-.122a24.962,24.962,0,0,0-.876-12.3Z" transform="translate(-4352.872 -506.102)" fill="#ff2e44"/>
        <path id="Path_27288" data-name="Path 27288" d="M4434.873,852.565l-2.107,3.288a2.281,2.281,0,0,0-.4.879.777.777,0,0,0,.376.825.972.972,0,0,0,.946-.23,14.921,14.921,0,0,0,1.078-1.056,2.067,2.067,0,0,1,1.322-.652c.306.049.3.49.212.787q-.275.925-.55,1.849a.65.65,0,0,0-.023.45c.1.214.385.255.616.222a1.9,1.9,0,0,0,1.5-2.266,4.478,4.478,0,0,0-1.218-1.724,10.079,10.079,0,0,1-1.538-2.23Z" transform="translate(-4418.305 -814.553)" fill="#fff"/>
        <path id="Path_27289" data-name="Path 27289" d="M4465.693,561.916a15.872,15.872,0,0,1-1.48-1.465,3,3,0,0,1-.954-1.97,1.922,1.922,0,0,1,1.242.418c.364.258.682.577,1.05.829a.589.589,0,0,0,.245.113c.256.034.454-.262.431-.519a1.594,1.594,0,0,0-.328-.693,4.85,4.85,0,0,1-.689-1.686.669.669,0,0,1,.072-.573.558.558,0,0,1,.709,0,2.307,2.307,0,0,1,.618.728l1.285,2.029a1.279,1.279,0,0,1,.2.414c.1.486-.36.889-.768,1.173l-1.223.848Z" transform="translate(-4446.456 -542.835)" fill="#fff"/>
        <path id="Path_27290" data-name="Path 27290" d="M4712.441,897.568a.949.949,0,1,1-.949-.949A.949.949,0,0,1,4712.441,897.568Z" transform="translate(-4671.741 -853.515)" fill="#fff"/>
        <ellipse id="Ellipse_2825" data-name="Ellipse 2825" cx="2.547" cy="1.208" rx="2.547" ry="1.208" transform="translate(41.23 41.271) rotate(-52.589)" fill="#fff"/>
        <path id="Path_27291" data-name="Path 27291" d="M4466.6,592.113c-.409.4-.815.8-1.224,1.191a25.9,25.9,0,0,1-6.65,5.067,23.279,23.279,0,0,1-3.146,1.158,8.7,8.7,0,0,1-2.762.516,3,3,0,0,1-1.441-.38q-.467-.487-.937-.973h0a2.671,2.671,0,0,0,1.512.438c2.341.008,5.282-2.356,6.584-3.657a25.807,25.807,0,0,0,5.829-9.087,16.225,16.225,0,0,0-7.322-6.242c-1.229,4.7-.122,10.1-2.421,14.3a7.737,7.737,0,0,1-4.023,3.711.688.688,0,0,0-.6-.291.891.891,0,0,0-.166.016l-.148-.34-.2-1.8a18.51,18.51,0,0,0-1.675-13.2,29.534,29.534,0,0,1-1.656-3.049,16.117,16.117,0,0,0-5.715,3.019c.222.173.446.343.668.515a24.23,24.23,0,0,1,5.961,6.226,14.934,14.934,0,0,1,1.722,5.355,9.675,9.675,0,0,0,.9,3.313.7.7,0,0,0-.164.088,10.155,10.155,0,0,0-3.74-2.466c-1.564-.662-3.215-1.048-4.815-1.6-2.062-.711-4.033-1.693-6.044-2.56a16.266,16.266,0,0,0-.027,7.138c3.856.209,7.707-1.342,11.6-1.326a4.837,4.837,0,0,1,2.974.857.4.4,0,0,0-.137.29.467.467,0,0,0,.311.4c-2.418,2.1-5.465,2.41-8.058,3.575a11.807,11.807,0,0,0-3.683,2.6,16.242,16.242,0,0,0,5.175,4.365c1.11-.85,2.379-1.451,3.468-2.337a9.988,9.988,0,0,0,3.476-8.031l.208.138c1.318,3.794.688,8.126,1.438,12.1a16.081,16.081,0,0,0,5.685-1.4,9.361,9.361,0,0,1-1.049-2.329,22.313,22.313,0,0,0-.837-2.971,9.34,9.34,0,0,0-1.939-2.546l-1.975-2.049a20.307,20.307,0,0,0,9.909,1.58c1.428-.086,2.847-.261,4.264-.474a16.262,16.262,0,0,0,.866-8.849Z" transform="translate(-4420.273 -564.604)" fill="#ff8a95"/>
        <path id="Path_27292" data-name="Path 27292" d="M4506.433,666.715a11.014,11.014,0,0,0,4.351-1.139c-.026-.062-.052-.125-.08-.186a9.369,9.369,0,0,0-1.939-2.546l-1.975-2.049a18.743,18.743,0,0,0,7.775,1.63,9.923,9.923,0,0,0,1.885-4.6,16.443,16.443,0,0,1-2.5,1.481,23.345,23.345,0,0,1-3.146,1.158,8.711,8.711,0,0,1-2.762.516,3,3,0,0,1-1.441-.38l-.937-.973h0a2.671,2.671,0,0,0,1.512.438c2.342.008,5.282-2.356,6.584-3.657a24.79,24.79,0,0,0,2.359-2.734,10.314,10.314,0,0,0-4.625-5.852c-.159,2.671-.406,5.292-1.649,7.562a7.733,7.733,0,0,1-4.022,3.711.692.692,0,0,0-.6-.291.9.9,0,0,0-.167.016l-.148-.34-.2-1.8a18.645,18.645,0,0,0-.411-10.3,10.95,10.95,0,0,0-3.887,1.306,18.689,18.689,0,0,1,1.881,2.5,14.932,14.932,0,0,1,1.721,5.355,9.677,9.677,0,0,0,.905,3.313.686.686,0,0,0-.164.088,10.159,10.159,0,0,0-3.741-2.466c-1.564-.662-3.214-1.048-4.814-1.6-.291-.1-.581-.207-.868-.317a9.856,9.856,0,0,0,.118,4.391,34.46,34.46,0,0,1,6.28-.822,4.837,4.837,0,0,1,2.974.857.4.4,0,0,0-.137.29.469.469,0,0,0,.312.4c-2.2,1.911-4.914,2.339-7.337,3.275a10.769,10.769,0,0,0,5.66,3.457,10.231,10.231,0,0,0,2.055-6.558l.207.137A23.515,23.515,0,0,1,4506.433,666.715Z" transform="translate(-4475.506 -625.541)" fill="#ff3047"/>
        <path id="Path_27293" data-name="Path 27293" d="M4679.028,650.461l-.042,1.078a14.014,14.014,0,0,1,4.625,5.852l.326-.287S4682.6,651.927,4679.028,650.461Z" transform="translate(-4642.992 -629.257)" fill="#b80e21"/>
        <path id="Path_27294" data-name="Path 27294" d="M4551.417,633.793l.342,1.12a11.353,11.353,0,0,0-3.886,1.306l-.639-.634S4549.85,633.782,4551.417,633.793Z" transform="translate(-4522.962 -614.072)" fill="#b80e21"/>
        <path id="Path_27301" data-name="Path 27301" d="M4477.261,955.437a.37.37,0,1,1-.37-.37A.37.37,0,0,1,4477.261,955.437Z" transform="translate(-4458.541 -906.763)" fill="#fff"/>
        <path id="Path_27302" data-name="Path 27302" d="M4493.253,966.749c-.117.263-.749.236-1.413-.06s-1.107-.748-.99-1.011.75-.236,1.413.06S4493.37,966.487,4493.253,966.749Z" transform="translate(-4471.578 -916.267)" fill="#fff"/>
        <path id="Path_27304" data-name="Path 27304" d="M4375.268,704.681a.365.365,0,1,1-.365-.365A.365.365,0,0,1,4375.268,704.681Z" transform="translate(-4365.629 -678.321)" fill="#fff"/>
        <path id="Path_27305" data-name="Path 27305" d="M4382.324,669.833c-.16.62-.431,1.085-.6,1.04s-.184-.583-.023-1.2.431-1.085.6-1.04S4382.485,669.214,4382.324,669.833Z" transform="translate(-4372.048 -645.807)" fill="#fff"/>
      </g>
      <path id="Path_27307" data-name="Path 27307" d="M16.627,1.507c9.065,0,16.36,6.55,16.057,15.529s-6.977,16.91-16.057,16.413S.594,26.616.519,16.564,7.563,1.507,16.627,1.507Z" transform="translate(92.844 46.471)" fill="#d1f3ff"/>
      <g id="Group_17120" data-name="Group 17120" transform="translate(82.74 31.649)">
        <path id="Subtraction_104" data-name="Subtraction 104" d="M15.818,8.206H0c0-.088,0-.183,0-.293a7.911,7.911,0,0,1,13.506-5.6,7.856,7.856,0,0,1,2.318,5.6c0,.1,0,.195,0,.292Z" transform="translate(0 8.849) rotate(-34)" fill="#fd2e44"/>
        <g id="Mask_Group_110" data-name="Mask Group 110" transform="translate(0 0)" clip-path="url(#clip-path)">
          <path id="Path_27308" data-name="Path 27308" d="M-18493.613-1579.861a20.644,20.644,0,0,1,5.453-3.278c4.031-1.866,5.043-3.381,6.23-5.04s4.078-2.023,4.078-2.023,2.527.837,2.348,2.7-.906,2.674-4.16,3.841-5.1.91-6.6,3.157-2.168,2.864-3.277,3.433a23.38,23.38,0,0,1-4.621,1.05Z" transform="translate(18494.42 1590.289)" fill="#feb278"/>
        </g>
      </g>
      <g id="Group_17121" data-name="Group 17121" transform="translate(119.669 31.649)">
        <path id="Subtraction_104-2" data-name="Subtraction 104" d="M15.819,0H0C0,.088,0,.183,0,.293a7.857,7.857,0,0,0,2.318,5.6,7.909,7.909,0,0,0,11.188,0,7.858,7.858,0,0,0,2.318-5.6c0-.1,0-.195,0-.292Z" transform="translate(13.119 15.652) rotate(-146)" fill="#fd2e44"/>
        <g id="Mask_Group_110-2" data-name="Mask Group 110" transform="translate(0 0)" clip-path="url(#clip-path-2)">
          <path id="Path_27308-2" data-name="Path 27308" d="M-18476.043-1579.861a20.648,20.648,0,0,0-5.451-3.278c-4.035-1.866-5.047-3.381-6.232-5.04s-4.082-2.023-4.082-2.023-2.525.837-2.346,2.7.91,2.674,4.16,3.841,5.1.91,6.6,3.157,2.166,2.864,3.275,3.433a23.38,23.38,0,0,0,4.621,1.05Z" transform="translate(18492.945 1590.29)" fill="#feb278"/>
        </g>
      </g>
      <line id="Line_358" data-name="Line 358" y2="9.379" transform="translate(109.178 54.422)" fill="none" stroke="#2db1a7" stroke-linecap="round" stroke-width="4"/>
      <line id="Line_359" data-name="Line 359" x1="7.62" y1="4.103" transform="translate(109.178 63.801)" fill="none" stroke="#2db1a7" stroke-linecap="round" stroke-width="4"/>
    </g>
  </g>
</svg>
