<svg id="home_menu_lower" xmlns="http://www.w3.org/2000/svg" width="30" height="30" viewBox="0 0 30 30">
  <rect id="bound" width="30" height="30" fill="none"/>
  <path id="Subtraction_63" data-name="Subtraction 63" d="M19.665,26h0L19.3,26l-.369,0H15.422v-4.2a2,2,0,0,0-2-2H12.6a2,2,0,0,0-2,2V26H6.819l-.357,0-.351,0a3.2,3.2,0,0,1-1.751-.349,2.194,2.194,0,0,1-.749-1.963A19.818,19.818,0,0,1,3.986,20.7c.411-2.4.836-4.88-.374-5.5A4.24,4.24,0,0,0,2.6,14.983C1.639,14.847.327,14.66.053,13.895c-.2-.552.173-1.346,1.1-2.361.53-.573,1.1-1.235,1.7-1.935C3.806,8.483,4.794,7.331,5.857,6.26,8.077,4.07,8.972,3.117,9.92,2.108l0,0c.205-.219.413-.439.636-.675A4.166,4.166,0,0,1,13.019,0a4.165,4.165,0,0,1,2.459,1.428c.256.271.491.521.727.772.894.953,1.818,1.937,3.941,4.06,1.164,1.147,2.292,2.47,3.286,3.637.5.59.978,1.147,1.417,1.636.929,1.015,1.3,1.809,1.1,2.36-.276.768-1.6.954-2.566,1.09a4.436,4.436,0,0,0-1.029.211c-1.21.622-.785,3.1-.374,5.5a19.811,19.811,0,0,1,.374,2.992C22.354,25.824,21.082,26,19.665,26Z" transform="translate(1.999 2)" fill="#fff"/>
</svg>
