<svg id="logout_menu_higher" xmlns="http://www.w3.org/2000/svg" width="26" height="26" viewBox="0 0 26 26">
  <g id="Group_3455" data-name="Group 3455">
    <g id="Group_3454" data-name="Group 3454" transform="translate(0 0)">
      <path id="Path_3575" data-name="Path 3575" d="M210.994,59.916a4.362,4.362,0,0,1,0,6.169l-8.638,8.638a4.362,4.362,0,0,1-6.169,0l-8.638-8.638a4.362,4.362,0,0,1,0-6.169l8.638-8.638a4.362,4.362,0,0,1,6.169,0Zm-6.056,4.141-4,4.073a1.742,1.742,0,0,1-2.468-2.459l.017-.017c.513-.5.344-.917-.38-.917h-3.2a1.745,1.745,0,0,1-1.742-1.749v.021a1.744,1.744,0,0,1,1.742-1.749h3.2c.722,0,.894-.411.38-.917l-.017-.016a1.742,1.742,0,0,1,2.468-2.459l3.994,4.018A1.548,1.548,0,0,1,204.938,64.057Z" transform="translate(-186.271 -50)" fill="#fff" fill-rule="evenodd"/>
    </g>
  </g>
</svg>
