<svg id="Group_18769" data-name="Group 18769" xmlns="http://www.w3.org/2000/svg" width="25.957" height="25.957" viewBox="0 0 25.957 25.957">
  <g id="Group_3481" data-name="Group 3481">
    <path id="Path_3607" data-name="Path 3607" d="M157.98,28.509H139.1a3.539,3.539,0,0,0-3.54,3.539V46.2a3.539,3.539,0,0,0,3.54,3.539h4.236l4.365,4.376a1.18,1.18,0,0,0,1.669.007l.007-.007,4.365-4.376h4.236a3.539,3.539,0,0,0,3.54-3.539V32.048A3.539,3.539,0,0,0,157.98,28.509Z" transform="translate(-135.563 -28.509)" fill="#fff"/>
  </g>
  <ellipse id="Ellipse_961" data-name="Ellipse 961" cx="1.725" cy="1.725" rx="1.725" ry="1.725" transform="translate(6.024 9.646)" fill="#1ba2f1"/>
  <ellipse id="Ellipse_962" data-name="Ellipse 962" cx="1.725" cy="1.725" rx="1.725" ry="1.725" transform="translate(11.312 9.646)" fill="#1ba2f1"/>
  <ellipse id="Ellipse_963" data-name="Ellipse 963" cx="1.725" cy="1.725" rx="1.725" ry="1.725" transform="translate(16.6 9.646)" fill="#1ba2f1"/>
</svg>
