<svg xmlns="http://www.w3.org/2000/svg" width="30" height="30" viewBox="0 0 30 30">
    <defs>
        <style>
            .cls-1{fill:none}.cls-2{fill:#fff}
        </style>
    </defs>
    <g id="Group_18525" transform="translate(4517 -3949)">
        <g id="Group_12084" transform="translate(-4552 3471)">
            <path id="bound" d="M0 0H30V30H0z" class="cls-1" transform="translate(35 478)"/>
            <g id="Group_11738" transform="translate(35.804 478.745)">
                <path id="Rectangle_3659" d="M0 0H26V26H0z" class="cls-1" transform="translate(1.196 1.255)"/>
                <g id="Group_12085" transform="translate(4.196 2.255)">
                    <circle id="Ellipse_646" cx="2.88" cy="2.88" r="2.88" class="cls-2" transform="translate(7.405 18.813)"/>
                    <path id="Path_2860" d="M-316.526 151.472h-12.366a4.162 4.162 0 0 1-3.385-2.478 4.518 4.518 0 0 1 .429-4.478 14.447 14.447 0 0 0 2-2.778 18.735 18.735 0 0 0 0-4.438 7.385 7.385 0 0 1 7.384-7.386 7.385 7.385 0 0 1 7.387 7.384 18.677 18.677 0 0 0 0 4.413 14.467 14.467 0 0 0 1.992 2.778 4.5 4.5 0 0 1 .437 4.478 4.163 4.163 0 0 1-3.385 2.478z" class="cls-2" transform="translate(332.68 -129.914)"/>
                </g>
            </g>
        </g>
    </g>
</svg>
