<svg xmlns="http://www.w3.org/2000/svg" width="30" height="30" viewBox="0 0 30 30">
    <path fill="none" d="M0 0H30V30H0z"/>
    <path fill="#fff" fill-rule="evenodd" d="M672 799.823v-17.647h15.882v17.647zm15.882 3.528A2.645 2.645 0 0 1 685.24 806h-10.6a2.647 2.647 0 0 1-2.64-2.649v-3.528h15.882zm-7.941.884a1.324 1.324 0 1 0-1.324-1.323 1.324 1.324 0 0 0 1.324 1.323zM672 782.176v-3.528a2.645 2.645 0 0 1 2.643-2.648h10.6a2.646 2.646 0 0 1 2.643 2.648v3.528zm5.735-2.21a.445.445 0 0 0 .439.445h3.533a.44.44 0 0 0 .439-.445v-.874a.445.445 0 0 0-.439-.445h-3.533a.44.44 0 0 0-.439.445zm4.929 15h-1.4a.883.883 0 0 0 0 1.765h3.529a.882.882 0 0 0 .882-.882v-3.53a.883.883 0 0 0-1.765 0v1.4l-6.693-6.693h1.4a.883.883 0 0 0 0-1.765h-3.529a.883.883 0 0 0-.882.882v3.529a.883.883 0 0 0 1.765 0v-1.4z" transform="translate(-665.43 -776)"/>
</svg>
