<svg id="save__menu_higher" xmlns="http://www.w3.org/2000/svg" width="30" height="30" viewBox="0 0 30 30">
  <rect id="bound" width="30" height="30" fill="none"/>
  <g id="Group_11502" data-name="Group 11502" transform="translate(-5530.525 2325.59)">
    <path id="Subtraction_61" data-name="Subtraction 61" d="M20.035,26a1.6,1.6,0,0,1-.766-.2l-5.489-3a1.579,1.579,0,0,0-1.523,0l-5.489,3a1.588,1.588,0,0,1-1.73-.129A1.759,1.759,0,0,1,4.38,24l1.012-6.372a1.747,1.747,0,0,0-.473-1.52L.48,11.6A1.755,1.755,0,0,1,.086,9.85,1.653,1.653,0,0,1,1.409,8.7l6.139-.968a1.64,1.64,0,0,0,1.236-.968L11.523.95a1.624,1.624,0,0,1,2.954,0l2.741,5.81a1.638,1.638,0,0,0,1.235.968l6.14.968A1.653,1.653,0,0,1,25.915,9.85,1.757,1.757,0,0,1,25.52,11.6l-4.44,4.513a1.748,1.748,0,0,0-.474,1.52L21.657,24A1.759,1.759,0,0,1,21,25.677,1.587,1.587,0,0,1,20.035,26ZM10.446,12.111a.813.813,0,0,0-.826.826.825.825,0,0,0,.238.595.789.789,0,0,0,.589.246H12.21v1.75a.836.836,0,0,0,1.42.588.811.811,0,0,0,.231-.588v-1.75h1.764a.788.788,0,0,0,.588-.246.822.822,0,0,0,.238-.595.815.815,0,0,0-.826-.826H13.862V10.347a.826.826,0,1,0-1.651,0v1.764Z" transform="translate(5532.494 -2323.621)" fill="#fff" stroke="rgba(0,0,0,0)" stroke-miterlimit="10" stroke-width="1"/>
  </g>
</svg>
