<svg id="setting_menu" xmlns="http://www.w3.org/2000/svg" xmlns:xlink="http://www.w3.org/1999/xlink" width="30" height="30" viewBox="0 0 30 30">
  <defs>
    <clipPath id="clip-path">
      <path id="Path_16023" data-name="Path 16023" d="M27.581-89.438a5.281,5.281,0,0,0,5.281-5.281A5.281,5.281,0,0,0,27.581-100,5.281,5.281,0,0,0,22.3-94.719,5.281,5.281,0,0,0,27.581-89.438Z" transform="translate(-22.3 100)" fill="#fff"/>
    </clipPath>
    <clipPath id="clip-path-2">
      <path id="Path_16025" data-name="Path 16025" d="M21.1-42.056A11.656,11.656,0,0,0,11.052-47.8,11.656,11.656,0,0,0,1-42.056a3.905,3.905,0,0,0,3.359,5.89H17.744A3.905,3.905,0,0,0,21.1-42.056Z" transform="translate(-0.454 47.8)" fill="#fff"/>
    </clipPath>
  </defs>
  <rect id="bound" width="30" height="30" fill="none"/>
  <g id="Group_12062" data-name="Group 12062" transform="translate(3.496 102.832)">
    <g id="Group_12062-2" data-name="Group 12062" transform="translate(5.771 -100)" clip-path="url(#clip-path)">
      <path id="Path_16022" data-name="Path 16022" d="M17.3-105h13v13h-13Z" transform="translate(-18.517 103.783)" fill="#fff"/>
    </g>
    <g id="Group_12063" data-name="Group 12063" transform="translate(0.454 -87.296)" clip-path="url(#clip-path-2)">
      <path id="Path_16024" data-name="Path 16024" d="M-4.546-52.8H19.083v14.067H-4.546Z" transform="translate(3.329 51.583)" fill="#fff"/>
    </g>
  </g>
</svg>
