<svg xmlns="http://www.w3.org/2000/svg" width="30" height="30" viewBox="0 0 30 30">
  <g id="Group_11740" data-name="Group 11740" transform="translate(-81 -467)">
    <rect id="bound" width="30" height="30" transform="translate(81 467)" fill="none"/>
    <g id="Group_11738" data-name="Group 11738" transform="translate(81.804 467.745)">
      <rect id="Rectangle_3659" data-name="Rectangle 3659" width="26" height="26" transform="translate(1.196 1.255)" fill="none"/>
      <g id="Group_11739" data-name="Group 11739" transform="translate(1.004 2.748)">
        <g id="Group_11738-2" data-name="Group 11738" transform="translate(1.764 11.333)">
          <path id="Path_15831" data-name="Path 15831" d="M28.627,76.391h4.391a.629.629,0,0,0,.627-.627V72.627A.629.629,0,0,0,33.019,72H28.627a.629.629,0,0,0-.627.627v3.137A.629.629,0,0,0,28.627,76.391Z" transform="translate(-23.326 -69.212)" fill="#fff"/>
          <path id="Path_15832" data-name="Path 15832" d="M34.049,63.532a2.947,2.947,0,0,1-.882-.132v9.834a.885.885,0,0,1-.882.882H30.4V67.178a.885.885,0,0,0-.882-.882h-3.41a.885.885,0,0,0-.882.882v6.938H14.646a.885.885,0,0,1-.882-.882V63.4a3.872,3.872,0,0,1-.882.132A2.947,2.947,0,0,1,12,63.4v9.834a2.654,2.654,0,0,0,2.646,2.646H32.285a2.654,2.654,0,0,0,2.646-2.646V63.4A2.947,2.947,0,0,1,34.049,63.532Z" transform="translate(-12 -63.4)" fill="#fff"/>
        </g>
        <path id="Path_15833" data-name="Path 15833" d="M28.342,13.588A2.3,2.3,0,0,0,26.137,12H8.322a2.345,2.345,0,0,0-2.2,1.588L4,19.938a2.646,2.646,0,1,0,5.292,0,2.646,2.646,0,1,0,5.292,0,2.646,2.646,0,1,0,5.292,0,2.646,2.646,0,1,0,5.292,0,2.646,2.646,0,1,0,5.292,0Z" transform="translate(-4 -12)" fill="#fff"/>
      </g>
    </g>
  </g>
</svg>
