<svg xmlns="http://www.w3.org/2000/svg" width="75.53" height="50.796" viewBox="0 0 75.53 50.796">
  <g id="bhasha_icon" transform="translate(5945.816 -7181.349)">
    <path id="Path_20464" data-name="Path 20464" d="M355.745,195.48q-.009,5.989-.043,11.975h-7.839c2.929-2.637,2.4-6.708.985-9.964a5.092,5.092,0,0,0-2.212-2.265Q351.192,195.361,355.745,195.48Zm-10.77,28.97c5.751-2.76,5.775-8.519,2.924-12.793h7.791c-.018,4.1-.04,8.2-.043,12.3,0,2.709,4.271,2.709,4.274,0,.007-9.465.082-18.931.1-28.4,1.933.037,3.871.078,5.8.086,2.755.01,2.731-4.724-.024-4.733-11.026-.043-22.017-.128-33.043-.172-2.755-.011-2.752,4.192,0,4.2,1.519.007,3.034.043,4.55.07a10.249,10.249,0,0,0-3.353,4.376c-1.066,2.5,3.07,3.577,4.121,1.117a3.673,3.673,0,0,1,4.07-2.493,4.643,4.643,0,0,1,3.013,1.594c2.449,4.5-2.257,6.681-6.093,6.743-2.752.044-2.755,4.245,0,4.2.036,0,.075,0,.114,0a2.369,2.369,0,0,0,.5.106c5.162.53,8.529,8.321,2.664,10.323a6.536,6.536,0,0,1-8.973-5.822c-.171-2.691-4.445-2.708-4.274,0A10.942,10.942,0,0,0,344.975,224.45Z" transform="translate(-6274.905 6991.603)" fill="#eb5f2d"/>
    <path id="Path_20465" data-name="Path 20465" d="M893.247,411.56c-.162,2.716-4.748,2.533-6.669,2.418-1.867-.109-3.493-1.719-4.658-3a6.027,6.027,0,0,1-1.008-7.009c.954-1.828,2.878-3.078,4.58-4.141,2.527-1.577,5.66,1.28,7.323,2.761a2.082,2.082,0,0,0,1.164.54q-.009,3.493-.027,6.982A2,2,0,0,0,893.247,411.56ZM878.17,392.914c5.276-.008,10.549-.1,15.822-.189,0,1.814-.006,3.625-.006,5.439-1.879-1.5-4.081-2.848-6.434-2.848-3.349,0-5.9,1.853-8.26,4.045a9.976,9.976,0,0,0-1.808,12.506,12.278,12.278,0,0,0,9.093,6.221,13.067,13.067,0,0,0,7.317-1.209c-.018,2.094-.024,4.186-.052,6.28-.036,2.652,4.144,2.649,4.181,0,.088-6.333.118-12.666.133-19a2.029,2.029,0,0,0,.48-.668c1.675-3.718,8.776-2.192,10.432.721,2.29,4.027.02,11.156-4.185,13.057-2.449,1.106-.324,4.649,2.107,3.55,6.855-3.1,8.752-13.3,5.3-19.357-2.3-4.049-9.616-5.391-14.126-3.142q0-2.833.009-5.666c5.126-.09,10.252-.173,15.378-.18a2.056,2.056,0,0,0,0-4.111c-11.8.018-23.589.417-35.384.437A2.056,2.056,0,0,0,878.17,392.914Z" transform="translate(-6785.862 6806.999)" fill="#559843"/>
    <path id="Path_20466" data-name="Path 20466" d="M355.745,195.48q-.009,5.989-.043,11.975h-7.839c2.929-2.637,2.4-6.708.985-9.964a5.092,5.092,0,0,0-2.212-2.265Q351.192,195.361,355.745,195.48Zm-10.77,28.97c5.751-2.76,5.775-8.519,2.924-12.793h7.791c-.018,4.1-.04,8.2-.043,12.3,0,2.709,4.271,2.709,4.274,0,.007-9.465.082-18.931.1-28.4,1.933.037,3.871.078,5.8.086,2.755.01,2.731-4.724-.024-4.733-11.026-.043-22.017-.128-33.043-.172-2.755-.011-2.752,4.192,0,4.2,1.519.007,3.034.043,4.55.07a10.249,10.249,0,0,0-3.353,4.376c-1.066,2.5,3.07,3.577,4.121,1.117a3.673,3.673,0,0,1,4.07-2.493,4.643,4.643,0,0,1,3.013,1.594c2.449,4.5-2.257,6.681-6.093,6.743-2.752.044-2.755,4.245,0,4.2.036,0,.075,0,.114,0a2.369,2.369,0,0,0,.5.106c5.162.53,8.529,8.321,2.664,10.323a6.536,6.536,0,0,1-8.973-5.822c-.171-2.691-4.445-2.708-4.274,0A10.942,10.942,0,0,0,344.975,224.45Z" transform="translate(-6274.905 6990.603)" fill="#f9a339"/>
    <path id="Path_20467" data-name="Path 20467" d="M893.247,411.56c-.162,2.716-4.748,2.533-6.669,2.418-1.867-.109-3.493-1.719-4.658-3a6.027,6.027,0,0,1-1.008-7.009c.954-1.828,2.878-3.078,4.58-4.141,2.527-1.577,5.66,1.28,7.323,2.761a2.082,2.082,0,0,0,1.164.54q-.009,3.493-.027,6.982A2,2,0,0,0,893.247,411.56ZM878.17,392.914c5.276-.008,10.549-.1,15.822-.189,0,1.814-.006,3.625-.006,5.439-1.879-1.5-4.081-2.848-6.434-2.848-3.349,0-5.9,1.853-8.26,4.045a9.976,9.976,0,0,0-1.808,12.506,12.278,12.278,0,0,0,9.093,6.221,13.067,13.067,0,0,0,7.317-1.209c-.018,2.094-.024,4.186-.052,6.28-.036,2.652,4.144,2.649,4.181,0,.088-6.333.118-12.666.133-19a2.029,2.029,0,0,0,.48-.668c1.675-3.718,8.776-2.192,10.432.721,2.29,4.027.02,11.156-4.185,13.057-2.449,1.106-.324,4.649,2.107,3.55,6.855-3.1,8.752-13.3,5.3-19.357-2.3-4.049-9.616-5.391-14.126-3.142q0-2.833.009-5.666c5.126-.09,10.252-.173,15.378-.18a2.056,2.056,0,0,0,0-4.111c-11.8.018-23.589.417-35.384.437A2.056,2.056,0,0,0,878.17,392.914Z" transform="translate(-6785.862 6805.999)" fill="#afd253"/>
  </g>
</svg>
