<svg xmlns="http://www.w3.org/2000/svg" width="62.479" height="55.721" viewBox="0 0 62.479 55.721">
  <g id="ganith" transform="translate(911.372 22684.328)">
    <g id="Group_16938" data-name="Group 16938">
      <g id="Group_14922" data-name="Group 14922" transform="translate(-873.321 -22684.328)">
        <g id="Group_14918" data-name="Group 14918" transform="translate(0 0.813)">
          <path id="Path_19759" data-name="Path 19759" d="M1425.89,403.4a5.86,5.86,0,1,1,5.86-5.86,5.86,5.86,0,0,1-5.86,5.86Zm0-8.3a2.449,2.449,0,1,0,0-.008Z" transform="translate(-1413.673 -380.87)" fill="#bf1414"/>
          <rect id="Rectangle_4409" data-name="Rectangle 4409" width="24.428" height="3.415" transform="translate(0 31.89)" fill="#bf1414"/>
          <path id="Path_19760" data-name="Path 19760" d="M1355.58,693.719l3.3.886,3.126-11.632h-3.536Z" transform="translate(-1354.647 -647.669)" fill="#bf1414"/>
          <path id="Path_19761" data-name="Path 19761" d="M1406.93,508.868a5.859,5.859,0,0,1-3.039-1.85l-3.059,11.383h3.536Z" transform="translate(-1396.089 -486.511)" fill="#bf1414"/>
          <path id="Path_19762" data-name="Path 19762" d="M1509.11,507.016a5.859,5.859,0,0,1-3.039,1.85l2.562,9.533h3.536Z" transform="translate(-1492.486 -486.509)" fill="#bf1414"/>
          <path id="Path_19763" data-name="Path 19763" d="M1550.57,694.6l3.3-.886-2.888-10.746h-3.536Z" transform="translate(-1530.378 -647.669)" fill="#bf1414"/>
          <rect id="Rectangle_4410" data-name="Rectangle 4410" width="2.049" height="5.91" transform="translate(20.855 46.759) rotate(-15.043)" fill="#bf1414"/>
          <rect id="Rectangle_4411" data-name="Rectangle 4411" width="5.91" height="2.049" transform="translate(0.06 51.935) rotate(-74.991)" fill="#bf1414"/>
          <path id="Path_19764" data-name="Path 19764" d="M1477.43,366.465V364h-2.481v2.462a5.766,5.766,0,0,1,2.481,0Z" transform="translate(-1463.979 -355.524)" fill="#bf1414"/>
          <rect id="Rectangle_4412" data-name="Rectangle 4412" width="5.188" height="8.479" transform="translate(9.62)" fill="#bf1414"/>
        </g>
        <g id="Group_14921" data-name="Group 14921">
          <path id="Path_19759-2" data-name="Path 19759" d="M1425.89,403.4a5.86,5.86,0,1,1,5.86-5.86,5.86,5.86,0,0,1-5.86,5.86Zm0-8.3a2.449,2.449,0,1,0,0-.008Z" transform="translate(-1413.673 -380.87)" fill="#e83c3b"/>
          <rect id="Rectangle_4409-2" data-name="Rectangle 4409" width="24.428" height="3.415" transform="translate(0 31.89)" fill="#e83c3b"/>
          <path id="Path_19760-2" data-name="Path 19760" d="M1355.58,693.719l3.3.886,3.126-11.632h-3.536Z" transform="translate(-1354.647 -647.669)" fill="#e83c3b"/>
          <path id="Path_19761-2" data-name="Path 19761" d="M1406.93,508.868a5.859,5.859,0,0,1-3.039-1.85l-3.059,11.383h3.536Z" transform="translate(-1396.089 -486.511)" fill="#e83c3b"/>
          <path id="Path_19762-2" data-name="Path 19762" d="M1509.11,507.016a5.859,5.859,0,0,1-3.039,1.85l2.562,9.533h3.536Z" transform="translate(-1492.486 -486.509)" fill="#e83c3b"/>
          <path id="Path_19763-2" data-name="Path 19763" d="M1550.57,694.6l3.3-.886-2.888-10.746h-3.536Z" transform="translate(-1530.378 -647.669)" fill="#e83c3b"/>
          <rect id="Rectangle_4410-2" data-name="Rectangle 4410" width="2.049" height="5.91" transform="translate(20.855 46.759) rotate(-15.043)" fill="#e83c3b"/>
          <rect id="Rectangle_4411-2" data-name="Rectangle 4411" width="5.91" height="2.049" transform="translate(0.06 51.935) rotate(-74.991)" fill="#e83c3b"/>
          <path id="Path_19764-2" data-name="Path 19764" d="M1477.43,366.465V364h-2.481v2.462a5.766,5.766,0,0,1,2.481,0Z" transform="translate(-1463.979 -355.524)" fill="#e83c3b"/>
          <rect id="Rectangle_4412-2" data-name="Rectangle 4412" width="5.188" height="8.479" transform="translate(9.62)" fill="#e83c3b"/>
        </g>
      </g>
      <g id="Group_14923" data-name="Group 14923" transform="translate(-911.374 -22662.701)">
        <g id="Group_14919" data-name="Group 14919" transform="translate(0 1.008)">
          <path id="Path_19765" data-name="Path 19765" d="M2140.94,408.174a5.23,5.23,0,0,0,.055-.715,21.917,21.917,0,1,0-43.834,0,5.27,5.27,0,0,0,.054.715h-5.293v10.452h54.31V408.174Zm-33.327-.715a11.465,11.465,0,1,1,22.93,0,5.192,5.192,0,0,0,.055.715h-23.04a5.189,5.189,0,0,0,.052-.715Z" transform="translate(-2091.92 -385.542)" fill="#1389c3"/>
          <path id="Path_19766" data-name="Path 19766" d="M2188.85,441.277a18.566,18.566,0,0,0-2.516,5.688Zm7.753-6.674a18.743,18.743,0,0,0-5.662,4.054Z" transform="translate(-2178.117 -430.332)" fill="#1389c3"/>
          <path id="Path_19767" data-name="Path 19767" d="M2320.67,722.572Z" transform="translate(-2300.753 -689.533)" fill="#1389c3"/>
          <path id="Path_19768" data-name="Path 19768" d="M2279.07,722.572Z" transform="translate(-2262.78 -689.533)" fill="#1389c3"/>
          <path id="Path_19769" data-name="Path 19769" d="M2237.48,722.572Z" transform="translate(-2224.809 -689.533)" fill="#1389c3"/>
          <path id="Path_19770" data-name="Path 19770" d="M2195.89,722.572Z" transform="translate(-2186.837 -689.533)" fill="#1389c3"/>
          <path id="Path_19771" data-name="Path 19771" d="M2154.29,722.572Z" transform="translate(-2148.865 -689.533)" fill="#1389c3"/>
          <path id="Path_19772" data-name="Path 19772" d="M2487.04,722.572Z" transform="translate(-2452.641 -689.533)" fill="#1389c3"/>
          <path id="Path_19773" data-name="Path 19773" d="M2445.45,722.572Z" transform="translate(-2414.669 -689.533)" fill="#1389c3"/>
          <path id="Path_19774" data-name="Path 19774" d="M2403.85,722.572Z" transform="translate(-2376.697 -689.533)" fill="#1389c3"/>
          <path id="Path_19775" data-name="Path 19775" d="M2362.26,722.572Z" transform="translate(-2338.725 -689.533)" fill="#1389c3"/>
          <path id="Path_19776" data-name="Path 19776" d="M2653.41,722.572Z" transform="translate(-2604.529 -689.533)" fill="#1389c3"/>
          <path id="Path_19777" data-name="Path 19777" d="M2611.82,722.572Z" transform="translate(-2566.556 -689.533)" fill="#1389c3"/>
          <path id="Path_19778" data-name="Path 19778" d="M2570.22,722.572Z" transform="translate(-2528.584 -689.533)" fill="#1389c3"/>
          <path id="Path_19779" data-name="Path 19779" d="M2528.63,722.572Z" transform="translate(-2490.613 -689.533)" fill="#1389c3"/>
        </g>
        <g id="Group_14920" data-name="Group 14920">
          <path id="Path_19765-2" data-name="Path 19765" d="M2140.94,408.174a5.23,5.23,0,0,0,.055-.715,21.917,21.917,0,1,0-43.834,0,5.27,5.27,0,0,0,.054.715h-5.293v10.452h54.31V408.174Zm-33.327-.715a11.465,11.465,0,1,1,22.93,0,5.192,5.192,0,0,0,.055.715h-23.04a5.189,5.189,0,0,0,.052-.715Z" transform="translate(-2091.92 -385.542)" fill="#1ba5e8"/>
          <path id="Path_19766-2" data-name="Path 19766" d="M2188.85,441.277a18.566,18.566,0,0,0-2.516,5.688Zm7.753-6.674a18.743,18.743,0,0,0-5.662,4.054Z" transform="translate(-2178.117 -430.332)" fill="#1ba5e8"/>
          <path id="Path_19767-2" data-name="Path 19767" d="M2320.67,722.572Z" transform="translate(-2300.753 -689.533)" fill="#1ba5e8"/>
          <path id="Path_19768-2" data-name="Path 19768" d="M2279.07,722.572Z" transform="translate(-2262.78 -689.533)" fill="#1ba5e8"/>
          <path id="Path_19769-2" data-name="Path 19769" d="M2237.48,722.572Z" transform="translate(-2224.809 -689.533)" fill="#1ba5e8"/>
          <path id="Path_19770-2" data-name="Path 19770" d="M2195.89,722.572Z" transform="translate(-2186.837 -689.533)" fill="#1ba5e8"/>
          <path id="Path_19771-2" data-name="Path 19771" d="M2154.29,722.572Z" transform="translate(-2148.865 -689.533)" fill="#1ba5e8"/>
          <path id="Path_19772-2" data-name="Path 19772" d="M2487.04,722.572Z" transform="translate(-2452.641 -689.533)" fill="#1ba5e8"/>
          <path id="Path_19773-2" data-name="Path 19773" d="M2445.45,722.572Z" transform="translate(-2414.669 -689.533)" fill="#1ba5e8"/>
          <path id="Path_19774-2" data-name="Path 19774" d="M2403.85,722.572Z" transform="translate(-2376.697 -689.533)" fill="#1ba5e8"/>
          <path id="Path_19775-2" data-name="Path 19775" d="M2362.26,722.572Z" transform="translate(-2338.725 -689.533)" fill="#1ba5e8"/>
          <path id="Path_19776-2" data-name="Path 19776" d="M2653.41,722.572Z" transform="translate(-2604.529 -689.533)" fill="#1ba5e8"/>
          <path id="Path_19777-2" data-name="Path 19777" d="M2611.82,722.572Z" transform="translate(-2566.556 -689.533)" fill="#1ba5e8"/>
          <path id="Path_19778-2" data-name="Path 19778" d="M2570.22,722.572Z" transform="translate(-2528.584 -689.533)" fill="#1ba5e8"/>
          <path id="Path_19779-2" data-name="Path 19779" d="M2528.63,722.572Z" transform="translate(-2490.613 -689.533)" fill="#1ba5e8"/>
        </g>
      </g>
    </g>
  </g>
</svg>
