<svg xmlns="http://www.w3.org/2000/svg" width="68.46" height="47.607" viewBox="0 0 68.46 47.607">
  <g id="gujarati" transform="translate(777.436 22677.916)">
    <g id="Group_16937" data-name="Group 16937">
      <g id="Group_16380" data-name="Group 16380" transform="translate(-1223 -23515)">
        <path id="Path_20503" data-name="Path 20503" d="M16.272-20.88c0-4.512-3.312-7.536-8.16-7.536a12.77,12.77,0,0,0-4.7.864l1.2,3.168a9.373,9.373,0,0,1,3.456-.672c2.784,0,4.56,1.536,4.56,4.176,0,2.832-1.968,4.656-6.24,4.656H2.064v2.784a11.714,11.714,0,0,0,3.072.432v.432c0,5.424,4.128,9.888,10.512,9.888,6.576,0,10.464-4.56,10.464-10.56v-.528H35.04V0h3.5V-28.176h-3.5v11.184H26.112v-6.1H22.656v9.648c0,4.56-2.544,7.536-6.96,7.536-4.944,0-7.008-3.312-7.008-6.624v-.528C13.344-13.584,16.272-16.512,16.272-20.88Z" transform="translate(444 867)" fill="#c51919" stroke="#c51919" stroke-linecap="round" stroke-width="1"/>
        <path id="Path_20504" data-name="Path 20504" d="M8.88-14.928,2.3-13.68v3.216a106.419,106.419,0,0,0,10.512-2.5c4.224,1.728,7.008,3.312,7.008,5.76,0,2.3-2.064,4.176-6.624,4.176a15.353,15.353,0,0,1-8.16-2.5L3.312-2.64A18.252,18.252,0,0,0,13.1.192c7.68,0,10.368-3.984,10.368-7.344,0-3.216-2.544-5.328-5.424-6.624v-.192l6.48-1.248v-3.12a93.69,93.69,0,0,0-10.416,2.448c-3.5-1.344-6.768-3.264-6.768-5.76,0-2.016,2.016-3.552,6.432-3.552a13.214,13.214,0,0,1,6.24,1.728l1.728-2.88a15.365,15.365,0,0,0-8.16-2.064c-6.144,0-9.792,2.928-9.792,6.672,0,3.024,2.4,5.28,5.088,6.624Z" transform="translate(489 884)" fill="#6c1d9f" stroke="#6c1d9f" stroke-linecap="round" stroke-width="1"/>
      </g>
      <path id="Path_20488" data-name="Path 20488" d="M16.272-20.88c0-4.512-3.312-7.536-8.16-7.536a12.77,12.77,0,0,0-4.7.864l1.2,3.168a9.373,9.373,0,0,1,3.456-.672c2.784,0,4.56,1.536,4.56,4.176,0,2.832-1.968,4.656-6.24,4.656H2.064v2.784a11.714,11.714,0,0,0,3.072.432v.432c0,5.424,4.128,9.888,10.512,9.888,6.576,0,10.464-4.56,10.464-10.56v-.528H35.04V0h3.5V-28.176h-3.5v11.184H26.112v-6.1H22.656v9.648c0,4.56-2.544,7.536-6.96,7.536-4.944,0-7.008-3.312-7.008-6.624v-.528C13.344-13.584,16.272-16.512,16.272-20.88Z" transform="translate(-779 -22649)" fill="#e83c3b" stroke="#e83c3b" stroke-linecap="round" stroke-width="1"/>
      <path id="Path_20487" data-name="Path 20487" d="M8.88-14.928,2.3-13.68v3.216a106.419,106.419,0,0,0,10.512-2.5c4.224,1.728,7.008,3.312,7.008,5.76,0,2.3-2.064,4.176-6.624,4.176a15.353,15.353,0,0,1-8.16-2.5L3.312-2.64A18.252,18.252,0,0,0,13.1.192c7.68,0,10.368-3.984,10.368-7.344,0-3.216-2.544-5.328-5.424-6.624v-.192l6.48-1.248v-3.12a93.69,93.69,0,0,0-10.416,2.448c-3.5-1.344-6.768-3.264-6.768-5.76,0-2.016,2.016-3.552,6.432-3.552a13.214,13.214,0,0,1,6.24,1.728l1.728-2.88a15.365,15.365,0,0,0-8.16-2.064c-6.144,0-9.792,2.928-9.792,6.672,0,3.024,2.4,5.28,5.088,6.624Z" transform="translate(-734 -22632)" fill="#8e42bf" stroke="#8e42bf" stroke-linecap="round" stroke-width="1"/>
    </g>
  </g>
</svg>
