<svg xmlns="http://www.w3.org/2000/svg" width="67.04" height="47.467" viewBox="0 0 67.04 47.467">
  <g id="kannada" transform="translate(643.225 22669.998)">
    <g id="Group_16936" data-name="Group 16936">
      <g id="Group_16382" data-name="Group 16382" transform="translate(-1085 -23283)">
        <path id="Path_20492" data-name="Path 20492" d="M11.616-11.616a5.7,5.7,0,0,1-1.584-.242A9.608,9.608,0,0,1,8.4-12.5,7.356,7.356,0,0,0,9.764-9.64,9.63,9.63,0,0,0,12.32-7.348a13.679,13.679,0,0,0,3.542,1.54,15.721,15.721,0,0,0,4.334.572,14.942,14.942,0,0,0,5.3-.858A10.643,10.643,0,0,0,29.26-8.426a9.436,9.436,0,0,0,2.244-3.5,12.6,12.6,0,0,0,.748-4.4q0-4.268-2.6-4.268a1.807,1.807,0,0,0-1.364.55,2.039,2.039,0,0,0-.528,1.474,2.144,2.144,0,0,0,.638,1.65,2.152,2.152,0,0,0,1.518.594h.528q.088.352.176.924a6.746,6.746,0,0,1,.088,1.012,3.923,3.923,0,0,1-.792,2.53,3.19,3.19,0,0,1-2.64.99H19.36a7.356,7.356,0,0,1-.484-1.122,4.67,4.67,0,0,1-.22-1.518,3.053,3.053,0,0,1,.682-2.222,2.468,2.468,0,0,1,1.826-.682h1.364A3.367,3.367,0,0,1,21.8-17.82a6.457,6.457,0,0,1-.242-1.716,6.048,6.048,0,0,1,.572-2.618,6.294,6.294,0,0,1,1.628-2.112,7.656,7.656,0,0,1,2.552-1.408,10.4,10.4,0,0,1,3.344-.506,10.345,10.345,0,0,1,4.246.814,8.623,8.623,0,0,1,3.036,2.2,9.08,9.08,0,0,1,1.8,3.234,12.72,12.72,0,0,1,.594,3.916,17.7,17.7,0,0,1-1.144,6.292,15.065,15.065,0,0,1-3.5,5.39A17.4,17.4,0,0,1,28.776-.55,22.635,22.635,0,0,1,20.328.88,23.747,23.747,0,0,1,12.65-.308,18.2,18.2,0,0,1,6.622-3.652,15.188,15.188,0,0,1,2.684-8.8a15.305,15.305,0,0,1-1.408-6.6q0-5.412,2.42-8.1a8.386,8.386,0,0,1,6.556-2.684,9.721,9.721,0,0,1,3.652.638,7.794,7.794,0,0,1,2.64,1.694,6.882,6.882,0,0,1,1.584,2.442,7.91,7.91,0,0,1,.528,2.838A7.453,7.453,0,0,1,18.15-15.8a6.415,6.415,0,0,1-1.43,2.2,6.636,6.636,0,0,1-2.22,1.456,7.583,7.583,0,0,1-2.884.528Zm-1.5-4.752a2.038,2.038,0,0,0,1.54-.594,2.157,2.157,0,0,0,.572-1.562,2.236,2.236,0,0,0-.572-1.584,2,2,0,0,0-1.54-.616,2,2,0,0,0-1.54.616A2.236,2.236,0,0,0,8-18.524a2.157,2.157,0,0,0,.572,1.562,2.038,2.038,0,0,0,1.544.594Z" transform="translate(441 640)" fill="#c5a505" stroke="#fff" stroke-width="1"/>
        <path id="Path_20491" data-name="Path 20491" d="M14.916-7.524a6.78,6.78,0,0,1,.352-2,7.3,7.3,0,0,1,1.188-2.222H12.672a6.629,6.629,0,0,1-.484-1.188,5.142,5.142,0,0,1-.22-1.54,2.822,2.822,0,0,1,.682-2.134,2.443,2.443,0,0,1,1.738-.638h8.184V-19.8h-9.68a6.629,6.629,0,0,1-.484-1.188,5.142,5.142,0,0,1-.22-1.54,2.882,2.882,0,0,1,.66-2.134,2.365,2.365,0,0,1,1.716-.638H31.5a1.987,1.987,0,0,0,1.452-.638,2.149,2.149,0,0,0,.44-1.386,4.739,4.739,0,0,0-.44-1.98,5.393,5.393,0,0,1,1.368-.8,4.835,4.835,0,0,1,1.892-.352A3.99,3.99,0,0,1,39.16-29.3a4.6,4.6,0,0,1,1.14,3.384,5.918,5.918,0,0,1-.55,2.6,5.508,5.508,0,0,1-1.5,1.914,6.8,6.8,0,0,1-2.266,1.188,9.581,9.581,0,0,1-2.9.418H29.612v2.552h9.68a6.471,6.471,0,0,1,.484,1.21A5.361,5.361,0,0,1,40-14.476a2.735,2.735,0,0,1-.682,2.134,2.55,2.55,0,0,1-1.738.594H35.6a8.27,8.27,0,0,1,1.188,2.156,6.12,6.12,0,0,1,.4,2.068,7.176,7.176,0,0,1-.814,3.366A8.316,8.316,0,0,1,34.1-1.452,10.77,10.77,0,0,1,30.6.33a15.255,15.255,0,0,1-4.554.638A15.255,15.255,0,0,1,21.494.33,10.77,10.77,0,0,1,18-1.452a8.316,8.316,0,0,1-2.27-2.706A7.176,7.176,0,0,1,14.916-7.524Zm11.132-4.312a4.151,4.151,0,0,0-3.036,1.078,3.58,3.58,0,0,0-1.1,2.662,3.464,3.464,0,0,0,1.078,2.53,4.136,4.136,0,0,0,3.058,1.078,4.136,4.136,0,0,0,3.058-1.078A3.464,3.464,0,0,0,30.184-8.1a3.854,3.854,0,0,0-.858-2.508A3.582,3.582,0,0,0,26.8-11.84Z" transform="translate(468 659)" fill="#c51919" stroke="#fff" stroke-width="1"/>
      </g>
      <path id="Path_20493" data-name="Path 20493" d="M70.486,686.026a7.268,7.268,0,0,0-2.467-1.582,9.307,9.307,0,0,0-3.463-.6,7.909,7.909,0,0,0-6.2,2.524c-1.517,1.684-2.288,4.3-2.288,7.76a14.9,14.9,0,0,0,1.363,6.39,14.559,14.559,0,0,0,3.807,4.976,17.608,17.608,0,0,0,5.86,3.25,23.532,23.532,0,0,0,7.517,1.164,22.078,22.078,0,0,0,8.278-1.4,16.779,16.779,0,0,0,5.736-3.675,14.641,14.641,0,0,0,3.382-5.208,17.17,17.17,0,0,0,1.112-6.114,12.246,12.246,0,0,0-.571-3.767,8.523,8.523,0,0,0-1.7-3.056A8.18,8.18,0,0,0,88,684.617a9.543,9.543,0,0,0-4.037-.773,9.719,9.719,0,0,0-3.2.481,7.145,7.145,0,0,0-2.385,1.317,5.753,5.753,0,0,0-1.5,1.943,5.57,5.57,0,0,0-.523,2.4,5.912,5.912,0,0,0,.223,1.584,2.9,2.9,0,0,0,.624,1.214l.719.828H75.458a1.98,1.98,0,0,0-1.48.543,2.523,2.523,0,0,0-.529,1.814,4.343,4.343,0,0,0,.2,1.414,6.768,6.768,0,0,0,.315.773H81.57a2.756,2.756,0,0,0,2.276-.833,3.414,3.414,0,0,0,.657-2.167,6.3,6.3,0,0,0-.082-.952c-.029-.186-.057-.354-.086-.5H84.21a2.776,2.776,0,0,1-1.863-.732,2.645,2.645,0,0,1-.791-2.04,2.473,2.473,0,0,1,.656-1.782,2.323,2.323,0,0,1,1.753-.714h0c1.395,0,3.08.828,3.08,4.768a13.038,13.038,0,0,1-.777,4.57,10,10,0,0,1-2.363,3.686,11.073,11.073,0,0,1-3.947,2.446,15.475,15.475,0,0,1-5.479.888,16.756,16.756,0,0,1-4.457-.591,14.071,14.071,0,0,1-3.67-1.6,10.085,10.085,0,0,1-2.689-2.412,7.883,7.883,0,0,1-1.456-3.052l-.242-1.038.952.477a9.191,9.191,0,0,0,1.549.609,5.226,5.226,0,0,0,1.449.222h0a7.5,7.5,0,0,0,2.694-.493,6.114,6.114,0,0,0,2.051-1.346,5.86,5.86,0,0,0,1.316-2.026,6.92,6.92,0,0,0,.473-2.586,7.4,7.4,0,0,0-.5-2.663,6.344,6.344,0,0,0-1.468-2.268ZM66.317,692.9a2.557,2.557,0,0,1-1.9.756h-.1a2.539,2.539,0,0,1-1.795-.744,2.945,2.945,0,0,1-.018-3.833,2.528,2.528,0,0,1,1.935-.781,2.459,2.459,0,0,1,1.879.769,2.738,2.738,0,0,1,.709,1.95,2.634,2.634,0,0,1-.71,1.883Z" transform="translate(-698.069 -23353.832)" fill="#ffd500"/>
      <path id="Path_20494" data-name="Path 20494" d="M120.8,714.1a4.985,4.985,0,0,0-.206-1.47,6.02,6.02,0,0,0-.316-.854H110.41v-3.552h3.971a10.1,10.1,0,0,0,2.754-.4,6.239,6.239,0,0,0,2.1-1.1,5.013,5.013,0,0,0,1.359-1.736,5.431,5.431,0,0,0,.5-2.377,4.163,4.163,0,0,0-1.015-3.062,3.464,3.464,0,0,0-2.556-.983,4.022,4.022,0,0,0-1.722.316,4.846,4.846,0,0,0-.944.5,5.184,5.184,0,0,1,.329,1.81,2.649,2.649,0,0,1-.543,1.691,2.509,2.509,0,0,1-1.848.834H95.858a1.893,1.893,0,0,0-1.373.5,2.384,2.384,0,0,0-.5,1.72,4.854,4.854,0,0,0,.2,1.445,6.27,6.27,0,0,0,.316.832h9.87v3.554H95.683a1.947,1.947,0,0,0-1.4.507A2.317,2.317,0,0,0,93.76,714a4.849,4.849,0,0,0,.2,1.445,6.153,6.153,0,0,0,.316.833h4.5l-.634.809a6.761,6.761,0,0,0-1.106,2.069,6.3,6.3,0,0,0-.328,1.852,6.713,6.713,0,0,0,.758,3.127,7.757,7.757,0,0,0,2.133,2.542,10.224,10.224,0,0,0,3.33,1.7,16.056,16.056,0,0,0,8.82,0,10.243,10.243,0,0,0,3.339-1.7,7.762,7.762,0,0,0,2.136-2.542A6.69,6.69,0,0,0,117.98,721a5.585,5.585,0,0,0-.367-1.894,7.794,7.794,0,0,0-1.117-2.029l-.616-.8h2.993a2.045,2.045,0,0,0,1.417-.477A2.227,2.227,0,0,0,120.8,714.1Zm-10.052,9.216a4.692,4.692,0,0,1-3.434,1.215q-.138.009-.276.009a4.633,4.633,0,0,1-3.088-1.218,3.974,3.974,0,0,1-1.24-2.9,4.086,4.086,0,0,1,1.253-3.02,4.659,4.659,0,0,1,3.4-1.217h.733a4.113,4.113,0,0,1,2.911,1.4,4.375,4.375,0,0,1,.98,2.846,3.968,3.968,0,0,1-1.242,2.889Z" transform="translate(-698.069 -23353.832)" fill="#ef1f1f"/>
    </g>
  </g>
</svg>
