<svg xmlns="http://www.w3.org/2000/svg" width="78.789" height="55" viewBox="0 0 78.789 55">
  <g id="marati" transform="translate(513.787 22684.002)">
    <path id="Path_20461" data-name="Path 20461" d="M356.879,195.682q-.01,6.244-.045,12.485h-8.173c3.054-2.749,2.5-6.993,1.027-10.388a5.309,5.309,0,0,0-2.306-2.361Q352.133,195.557,356.879,195.682Zm-11.229,30.2c6-2.878,6.021-8.882,3.049-13.337h8.123q-.029,6.412-.045,12.828c0,2.824,4.452,2.825,4.456,0,.007-9.868.086-19.737.1-29.6,2.015.039,4.036.082,6.051.09,2.872.011,2.848-4.926-.025-4.935-11.5-.045-22.954-.134-34.449-.179-2.872-.011-2.87,4.37,0,4.38,1.583.008,3.163.045,4.743.073a10.685,10.685,0,0,0-3.5,4.562c-1.111,2.6,3.2,3.729,4.3,1.165a3.83,3.83,0,0,1,4.243-2.6c1.129.179,2.685.823,3.141,1.662,2.553,4.694-2.353,6.965-6.352,7.03-2.869.046-2.873,4.426,0,4.38h.119a2.471,2.471,0,0,0,.519.111c5.382.553,8.892,8.675,2.778,10.762a6.812,6.812,0,0,1-9.355-6.069c-.178-2.806-4.634-2.823-4.456,0a11.408,11.408,0,0,0,16.561,9.684Z" transform="translate(-842.872 -22873.746)" fill="#1389c3"/>
    <path id="Path_20463" data-name="Path 20463" d="M893.978,412.547c-.169,2.832-4.95,2.641-6.953,2.521-1.946-.114-3.642-1.792-4.856-3.128a6.283,6.283,0,0,1-1.051-7.307c1-1.906,3-3.209,4.775-4.318,2.635-1.644,5.9,1.334,7.634,2.879a2.17,2.17,0,0,0,1.214.563q-.01,3.641-.029,7.279a2.087,2.087,0,0,0-.734,1.511ZM878.26,393.108c5.5-.009,11-.1,16.5-.2,0,1.891-.006,3.78-.007,5.67-1.959-1.56-4.255-2.969-6.708-2.969-3.492,0-6.155,1.932-8.611,4.217a10.4,10.4,0,0,0-1.884,13.039,12.8,12.8,0,0,0,9.48,6.486,13.624,13.624,0,0,0,7.628-1.261c-.019,2.183-.025,4.364-.054,6.547-.038,2.764,4.321,2.762,4.359,0,.091-6.6.123-13.2.139-19.8a2.114,2.114,0,0,0,.5-.7c1.746-3.876,9.149-2.285,10.876.751,2.387,4.2.021,11.631-4.363,13.612-2.553,1.154-.338,4.847,2.2,3.7,7.147-3.229,9.125-13.861,5.527-20.181-2.4-4.221-10.025-5.62-14.728-3.276q0-2.953.01-5.907c5.344-.093,10.688-.181,16.032-.188a2.143,2.143,0,0,0,0-4.286c-12.3.019-24.593.435-36.89.456a2.145,2.145,0,0,0-.007,4.29Z" transform="translate(-1352.297 -23055.711)" fill="#eb5f2d"/>
    <path id="Path_20472" data-name="Path 20472" d="M356.879,195.682q-.01,6.244-.045,12.485h-8.173c3.054-2.749,2.5-6.993,1.027-10.388a5.309,5.309,0,0,0-2.306-2.361Q352.133,195.557,356.879,195.682Zm-11.229,30.2c6-2.878,6.021-8.882,3.049-13.337h8.123q-.029,6.412-.045,12.828c0,2.824,4.452,2.825,4.456,0,.007-9.868.086-19.737.1-29.6,2.015.039,4.036.082,6.051.09,2.872.011,2.848-4.926-.025-4.935-11.5-.045-22.954-.134-34.449-.179-2.872-.011-2.87,4.37,0,4.38,1.583.008,3.163.045,4.743.073a10.685,10.685,0,0,0-3.5,4.562c-1.111,2.6,3.2,3.729,4.3,1.165a3.83,3.83,0,0,1,4.243-2.6c1.129.179,2.685.823,3.141,1.662,2.553,4.694-2.353,6.965-6.352,7.03-2.869.046-2.873,4.426,0,4.38h.119a2.471,2.471,0,0,0,.519.111c5.382.553,8.892,8.675,2.778,10.762a6.812,6.812,0,0,1-9.355-6.069c-.178-2.806-4.634-2.823-4.456,0a11.408,11.408,0,0,0,16.561,9.684Z" transform="translate(-842.872 -22874.746)" fill="#1ba5e8"/>
    <path id="Path_20473" data-name="Path 20473" d="M893.978,412.547c-.169,2.832-4.95,2.641-6.953,2.521-1.946-.114-3.642-1.792-4.856-3.128a6.283,6.283,0,0,1-1.051-7.307c1-1.906,3-3.209,4.775-4.318,2.635-1.644,5.9,1.334,7.634,2.879a2.17,2.17,0,0,0,1.214.563q-.01,3.641-.029,7.279a2.087,2.087,0,0,0-.734,1.511ZM878.26,393.108c5.5-.009,11-.1,16.5-.2,0,1.891-.006,3.78-.007,5.67-1.959-1.56-4.255-2.969-6.708-2.969-3.492,0-6.155,1.932-8.611,4.217a10.4,10.4,0,0,0-1.884,13.039,12.8,12.8,0,0,0,9.48,6.486,13.624,13.624,0,0,0,7.628-1.261c-.019,2.183-.025,4.364-.054,6.547-.038,2.764,4.321,2.762,4.359,0,.091-6.6.123-13.2.139-19.8a2.114,2.114,0,0,0,.5-.7c1.746-3.876,9.149-2.285,10.876.751,2.387,4.2.021,11.631-4.363,13.612-2.553,1.154-.338,4.847,2.2,3.7,7.147-3.229,9.125-13.861,5.527-20.181-2.4-4.221-10.025-5.62-14.728-3.276q0-2.953.01-5.907c5.344-.093,10.688-.181,16.032-.188a2.143,2.143,0,0,0,0-4.286c-12.3.019-24.593.435-36.89.456a2.145,2.145,0,0,0-.007,4.29Z" transform="translate(-1352.297 -23056.711)" fill="#f9a037"/>
  </g>
</svg>
