<svg xmlns="http://www.w3.org/2000/svg" width="69.215" height="49.965" viewBox="0 0 69.215 49.965">
  <g id="punjabi" transform="translate(377.85 22677.465)">
    <g id="Group_16379" data-name="Group 16379" transform="translate(-450 -23518)">
      <path id="Path_20501" data-name="Path 20501" d="M27.9-23.175V0H24.57V-14.49q-1.575,1.08-3.217,2.317T17.82-9.495a10.619,10.619,0,0,1-1.462,4.8,2.9,2.9,0,0,1-2.273,1.46,2.388,2.388,0,0,1-1.463-.45,2.281,2.281,0,0,1-.832-1.3l2.88-7.335q-.045-2.115-.2-4.005t-.427-3.78a25.993,25.993,0,0,0-3.1,2.52q-1.53,1.44-2.97,2.7a14.757,14.757,0,0,1-1.38,5.732Q5.535-7.245,4.05-7.245A2.388,2.388,0,0,1,2.588-7.7,2.281,2.281,0,0,1,1.755-9l2.61-6.66a15.169,15.169,0,0,0-.113-1.665q-.113-.99-.247-2.048t-.293-2.07q-.158-1.012-.337-1.732H-1.35v-2.79H6.03a31.731,31.731,0,0,1,.878,3.6q.382,2.025.607,3.915,1.575-1.35,3.442-2.88a38.3,38.3,0,0,1,3.4-2.52l2.52.765q.18.945.36,2.228t.338,2.632q.157,1.35.27,2.632T18-13.365q1.665-1.3,3.4-2.52t3.173-2.25v-7.83h8.1v2.79Z" transform="translate(74 868)" fill="#6c1d9f" stroke="#6c1d9f" stroke-width="1"/>
      <path id="Path_20502" data-name="Path 20502" d="M-1.35-25.965H26.865v2.79H22.95a29.036,29.036,0,0,1-.877,6.278A22.453,22.453,0,0,1,19.98-11.43q.4.99.9,2.3T21.8-6.34q.427,1.485.743,3.105A30.03,30.03,0,0,1,22.995,0h-3.33A44,44,0,0,0,18.9-4.5q-.5-2.2-.99-3.915a14.418,14.418,0,0,1-1.462,1.35A11.123,11.123,0,0,1,14.58-5.85a10.392,10.392,0,0,1-2.3.855,11.1,11.1,0,0,1-2.7.315,10.754,10.754,0,0,1-2.925-.4A7.833,7.833,0,0,1,4.1-6.322,6.206,6.206,0,0,1,2.273-8.5a6.981,6.981,0,0,1-.7-3.24,6.748,6.748,0,0,1,.63-2.97,6.523,6.523,0,0,1,1.71-2.2,7.864,7.864,0,0,1,2.543-1.4,9.549,9.549,0,0,1,3.082-.5,9.938,9.938,0,0,1,4.95,1.238,11.5,11.5,0,0,1,3.69,3.263,25.021,25.021,0,0,0,.99-4.05,36.883,36.883,0,0,0,.5-4.815H-1.35ZM9.945-7.56a7.434,7.434,0,0,0,2.272-.34,8.168,8.168,0,0,0,1.935-.9A8.626,8.626,0,0,0,15.7-10.06a11.041,11.041,0,0,0,1.17-1.417,9.159,9.159,0,0,0-3.2-3.375,7.472,7.472,0,0,0-3.825-1.08,6.135,6.135,0,0,0-2.227.36,4.567,4.567,0,0,0-1.53.945A3.727,3.727,0,0,0,5.2-13.3a4.2,4.2,0,0,0-.3,1.555,3.744,3.744,0,0,0,1.35,3.1,5.749,5.749,0,0,0,3.7,1.085Z" transform="translate(114 890)" fill="#559843" stroke="#559843" stroke-width="1"/>
    </g>
    <path id="Path_20483" data-name="Path 20483" d="M27.9-23.175V0H24.57V-14.49q-1.575,1.08-3.217,2.317T17.82-9.495a10.619,10.619,0,0,1-1.462,4.8,2.9,2.9,0,0,1-2.273,1.46,2.388,2.388,0,0,1-1.463-.45,2.281,2.281,0,0,1-.832-1.3l2.88-7.335q-.045-2.115-.2-4.005t-.427-3.78a25.993,25.993,0,0,0-3.1,2.52q-1.53,1.44-2.97,2.7a14.757,14.757,0,0,1-1.38,5.732Q5.535-7.245,4.05-7.245A2.388,2.388,0,0,1,2.588-7.7,2.281,2.281,0,0,1,1.755-9l2.61-6.66a15.169,15.169,0,0,0-.113-1.665q-.113-.99-.247-2.048t-.293-2.07q-.158-1.012-.337-1.732H-1.35v-2.79H6.03a31.731,31.731,0,0,1,.878,3.6q.382,2.025.607,3.915,1.575-1.35,3.442-2.88a38.3,38.3,0,0,1,3.4-2.52l2.52.765q.18.945.36,2.228t.338,2.632q.157,1.35.27,2.632T18-13.365q1.665-1.3,3.4-2.52t3.173-2.25v-7.83h8.1v2.79Z" transform="translate(-376 -22651)" fill="#8e42bf" stroke="#8e42bf" stroke-width="1"/>
    <path id="Path_20484" data-name="Path 20484" d="M-1.35-25.965H26.865v2.79H22.95a29.036,29.036,0,0,1-.877,6.278A22.453,22.453,0,0,1,19.98-11.43q.4.99.9,2.3T21.8-6.34q.427,1.485.743,3.105A30.03,30.03,0,0,1,22.995,0h-3.33A44,44,0,0,0,18.9-4.5q-.5-2.2-.99-3.915a14.418,14.418,0,0,1-1.462,1.35A11.123,11.123,0,0,1,14.58-5.85a10.392,10.392,0,0,1-2.3.855,11.1,11.1,0,0,1-2.7.315,10.754,10.754,0,0,1-2.925-.4A7.833,7.833,0,0,1,4.1-6.322,6.206,6.206,0,0,1,2.273-8.5a6.981,6.981,0,0,1-.7-3.24,6.748,6.748,0,0,1,.63-2.97,6.523,6.523,0,0,1,1.71-2.2,7.864,7.864,0,0,1,2.543-1.4,9.549,9.549,0,0,1,3.082-.5,9.938,9.938,0,0,1,4.95,1.238,11.5,11.5,0,0,1,3.69,3.263,25.021,25.021,0,0,0,.99-4.05,36.883,36.883,0,0,0,.5-4.815H-1.35ZM9.945-7.56a7.434,7.434,0,0,0,2.272-.34,8.168,8.168,0,0,0,1.935-.9A8.626,8.626,0,0,0,15.7-10.06a11.041,11.041,0,0,0,1.17-1.417,9.159,9.159,0,0,0-3.2-3.375,7.472,7.472,0,0,0-3.825-1.08,6.135,6.135,0,0,0-2.227.36,4.567,4.567,0,0,0-1.53.945A3.727,3.727,0,0,0,5.2-13.3a4.2,4.2,0,0,0-.3,1.555,3.744,3.744,0,0,0,1.35,3.1,5.749,5.749,0,0,0,3.7,1.085Z" transform="translate(-336 -22629)" fill="#afd253" stroke="#afd253" stroke-width="1"/>
  </g>
</svg>
