<svg xmlns="http://www.w3.org/2000/svg" width="71.385" height="50.885" viewBox="0 0 71.385 50.885">
  <g id="Tamil" transform="translate(111.075 22678.377)">
    <g id="Group_16392" data-name="Group 16392" transform="translate(-110.572 -22677.871)">
      <path id="Path_20505" data-name="Path 20505" d="M23.25-18.907a4.7,4.7,0,0,1,1.316,1.7,5.19,5.19,0,0,1,.486,2.241,4.666,4.666,0,0,1-.439,2,5.046,5.046,0,0,1-1.221,1.636,5.84,5.84,0,0,1-1.85,1.1,6.525,6.525,0,0,1-2.324.4,6.868,6.868,0,0,1-2.49-.439,6.171,6.171,0,0,1-1.968-1.2,5.352,5.352,0,0,1-1.293-1.8,5.5,5.5,0,0,1-.462-2.253,5.953,5.953,0,0,1,.545-2.561,5.92,5.92,0,0,1,1.53-2A7.214,7.214,0,0,1,17.428-21.4a9.08,9.08,0,0,1,3-.474A14.365,14.365,0,0,1,26.144-20.8a12.332,12.332,0,0,1,4.233,2.929A12.61,12.61,0,0,1,33-13.535a15.321,15.321,0,0,1,.9,5.277h3.249V-21.871H40.16V5.284H37.148V-5.246h-3.6a11.414,11.414,0,0,1-2.2,4.553,14.54,14.54,0,0,1-3.723,3.3,17.314,17.314,0,0,1-4.684,2,19.646,19.646,0,0,1-5.075.676,28.209,28.209,0,0,1-3.38-.213A26.069,26.069,0,0,1,11,4.406,20.046,20.046,0,0,1,7.728,3.244,11.519,11.519,0,0,1,5,1.525a8.106,8.106,0,0,1-1.874-2.3,6.053,6.053,0,0,1-.7-2.929A4.42,4.42,0,0,1,2.819-5.59,4.15,4.15,0,0,1,3.91-7.025a4.984,4.984,0,0,1,1.648-.913,6.415,6.415,0,0,1,2.063-.32H30.887A12.54,12.54,0,0,0,30.2-12.61a10.621,10.621,0,0,0-1.779-3.166,8.921,8.921,0,0,0-2.455-2.075,9.5,9.5,0,0,0-2.716-1.056ZM5.44-3.7A3.434,3.434,0,0,0,6.448-1.333,8.553,8.553,0,0,0,9.163.552a17.945,17.945,0,0,0,3.961,1.257,23.548,23.548,0,0,0,4.743.462,15.514,15.514,0,0,0,4.138-.545A14.6,14.6,0,0,0,25.634.2,11.964,11.964,0,0,0,28.5-2.175a9.627,9.627,0,0,0,1.838-3.071H7.622a2.645,2.645,0,0,0-1.613.427A1.33,1.33,0,0,0,5.44-3.7ZM19.124-18.859A2.983,2.983,0,0,0,18-18.634a3.162,3.162,0,0,0-1,.64,3.411,3.411,0,0,0-.711.96,2.614,2.614,0,0,0-.273,1.186A2.8,2.8,0,0,0,16.29-14.6a2.969,2.969,0,0,0,.723.949,3.4,3.4,0,0,0,1,.6,3.035,3.035,0,0,0,1.115.213,2.867,2.867,0,0,0,1.127-.225,2.825,2.825,0,0,0,.937-.64,3.018,3.018,0,0,0,.628-.96,3.076,3.076,0,0,0,.225-1.186,2.953,2.953,0,0,0-.225-1.138,3.125,3.125,0,0,0-.617-.96,3,3,0,0,0-.925-.664,2.686,2.686,0,0,0-1.154-.248Z" transform="translate(-2.428 22.975)" fill="#c5a505" stroke="#c5a505" stroke-width="1"/>
      <path id="Path_20475" data-name="Path 20475" d="M23.25-18.907a4.7,4.7,0,0,1,1.316,1.7,5.19,5.19,0,0,1,.486,2.241,4.666,4.666,0,0,1-.439,2,5.046,5.046,0,0,1-1.221,1.636,5.84,5.84,0,0,1-1.85,1.1,6.525,6.525,0,0,1-2.324.4,6.868,6.868,0,0,1-2.49-.439,6.171,6.171,0,0,1-1.968-1.2,5.352,5.352,0,0,1-1.293-1.8,5.5,5.5,0,0,1-.462-2.253,5.953,5.953,0,0,1,.545-2.561,5.92,5.92,0,0,1,1.53-2A7.214,7.214,0,0,1,17.428-21.4a9.08,9.08,0,0,1,3-.474A14.365,14.365,0,0,1,26.144-20.8a12.332,12.332,0,0,1,4.233,2.929A12.61,12.61,0,0,1,33-13.535a15.321,15.321,0,0,1,.9,5.277h3.249V-21.871H40.16V5.284H37.148V-5.246h-3.6a11.414,11.414,0,0,1-2.2,4.553,14.54,14.54,0,0,1-3.723,3.3,17.314,17.314,0,0,1-4.684,2,19.646,19.646,0,0,1-5.075.676,28.209,28.209,0,0,1-3.38-.213A26.069,26.069,0,0,1,11,4.406,20.046,20.046,0,0,1,7.728,3.244,11.519,11.519,0,0,1,5,1.525a8.106,8.106,0,0,1-1.874-2.3,6.053,6.053,0,0,1-.7-2.929A4.42,4.42,0,0,1,2.819-5.59,4.15,4.15,0,0,1,3.91-7.025a4.984,4.984,0,0,1,1.648-.913,6.415,6.415,0,0,1,2.063-.32H30.887A12.54,12.54,0,0,0,30.2-12.61a10.621,10.621,0,0,0-1.779-3.166,8.921,8.921,0,0,0-2.455-2.075,9.5,9.5,0,0,0-2.716-1.056ZM5.44-3.7A3.434,3.434,0,0,0,6.448-1.333,8.553,8.553,0,0,0,9.163.552a17.945,17.945,0,0,0,3.961,1.257,23.548,23.548,0,0,0,4.743.462,15.514,15.514,0,0,0,4.138-.545A14.6,14.6,0,0,0,25.634.2,11.964,11.964,0,0,0,28.5-2.175a9.627,9.627,0,0,0,1.838-3.071H7.622a2.645,2.645,0,0,0-1.613.427A1.33,1.33,0,0,0,5.44-3.7ZM19.124-18.859A2.983,2.983,0,0,0,18-18.634a3.162,3.162,0,0,0-1,.64,3.411,3.411,0,0,0-.711.96,2.614,2.614,0,0,0-.273,1.186A2.8,2.8,0,0,0,16.29-14.6a2.969,2.969,0,0,0,.723.949,3.4,3.4,0,0,0,1,.6,3.035,3.035,0,0,0,1.115.213,2.867,2.867,0,0,0,1.127-.225,2.825,2.825,0,0,0,.937-.64,3.018,3.018,0,0,0,.628-.96,3.076,3.076,0,0,0,.225-1.186,2.953,2.953,0,0,0-.225-1.138,3.125,3.125,0,0,0-.617-.96,3,3,0,0,0-.925-.664,2.686,2.686,0,0,0-1.154-.248Z" transform="translate(-2.428 21.871)" fill="#ffd500" stroke="#ffd500" stroke-width="1"/>
    </g>
    <path id="Path_20506" data-name="Path 20506" d="M22.189-.581a4.674,4.674,0,0,0,3.438,1.4A4.4,4.4,0,0,0,27.448.425,5.18,5.18,0,0,0,29-.645a5.23,5.23,0,0,0,1.07-1.541,4.369,4.369,0,0,0,.395-1.834,4.366,4.366,0,0,0-.42-1.884A5.4,5.4,0,0,0,28.938-7.47a5.4,5.4,0,0,0-1.553-1.07,4.2,4.2,0,0,0-1.757-.395H22.393V-5.65a9.584,9.584,0,0,1-.777,3.871A9.58,9.58,0,0,1,19.5,1.3a9.687,9.687,0,0,1-3.1,2.028,9.8,9.8,0,0,1-3.756.726,13.512,13.512,0,0,1-3.716-.521A9.383,9.383,0,0,1,5.649,1.876,8.461,8.461,0,0,1,3.319-1.04a9.538,9.538,0,0,1-.891-4.3,6.576,6.576,0,0,1,.56-2.725A6.865,6.865,0,0,1,4.5-10.233a6.862,6.862,0,0,1,2.228-1.426A7.133,7.133,0,0,1,9.4-12.168v-9.7H30.466v3.234H22.393v6.468h3.234a7.568,7.568,0,0,1,3.183.675,8.5,8.5,0,0,1,2.572,1.8,8.121,8.121,0,0,1,1.706,2.6A7.982,7.982,0,0,1,33.7-4.019a7.4,7.4,0,0,1-.713,3.26,8.392,8.392,0,0,1-1.872,2.547,8.767,8.767,0,0,1-2.6,1.668,7.472,7.472,0,0,1-2.89.6,7.32,7.32,0,0,1-5.679-2.445ZM19.108-18.637H12.64v6.468h6.468ZM12.64.819A6.354,6.354,0,0,0,15.314.272a6.452,6.452,0,0,0,2.037-1.439,6.346,6.346,0,0,0,1.3-2.063,6.583,6.583,0,0,0,.458-2.419V-8.934H9.889a4.845,4.845,0,0,0-1.566.255,4.347,4.347,0,0,0-1.35.739,3.7,3.7,0,0,0-.955,1.159A3.248,3.248,0,0,0,5.661-5.24a5.675,5.675,0,0,0,.624,2.75A5.718,5.718,0,0,0,7.9-.607,6.7,6.7,0,0,0,10.144.475a9.359,9.359,0,0,0,2.5.344Z" transform="translate(-73.89 -22632.053)" fill="#c51919" stroke="#c51919" stroke-width="1"/>
    <path id="Path_20474" data-name="Path 20474" d="M22.189-.581a4.674,4.674,0,0,0,3.438,1.4A4.4,4.4,0,0,0,27.448.425,5.18,5.18,0,0,0,29-.645a5.23,5.23,0,0,0,1.07-1.541,4.369,4.369,0,0,0,.395-1.834,4.366,4.366,0,0,0-.42-1.884A5.4,5.4,0,0,0,28.938-7.47a5.4,5.4,0,0,0-1.553-1.07,4.2,4.2,0,0,0-1.757-.395H22.393V-5.65a9.584,9.584,0,0,1-.777,3.871A9.58,9.58,0,0,1,19.5,1.3a9.687,9.687,0,0,1-3.1,2.028,9.8,9.8,0,0,1-3.756.726,13.512,13.512,0,0,1-3.716-.521A9.383,9.383,0,0,1,5.649,1.876,8.461,8.461,0,0,1,3.319-1.04a9.538,9.538,0,0,1-.891-4.3,6.576,6.576,0,0,1,.56-2.725A6.865,6.865,0,0,1,4.5-10.233a6.862,6.862,0,0,1,2.228-1.426A7.133,7.133,0,0,1,9.4-12.168v-9.7H30.466v3.234H22.393v6.468h3.234a7.568,7.568,0,0,1,3.183.675,8.5,8.5,0,0,1,2.572,1.8,8.121,8.121,0,0,1,1.706,2.6A7.982,7.982,0,0,1,33.7-4.019a7.4,7.4,0,0,1-.713,3.26,8.392,8.392,0,0,1-1.872,2.547,8.767,8.767,0,0,1-2.6,1.668,7.472,7.472,0,0,1-2.89.6,7.32,7.32,0,0,1-5.679-2.445ZM19.108-18.637H12.64v6.468h6.468ZM12.64.819A6.354,6.354,0,0,0,15.314.272a6.452,6.452,0,0,0,2.037-1.439,6.346,6.346,0,0,0,1.3-2.063,6.583,6.583,0,0,0,.458-2.419V-8.934H9.889a4.845,4.845,0,0,0-1.566.255,4.347,4.347,0,0,0-1.35.739,3.7,3.7,0,0,0-.955,1.159A3.248,3.248,0,0,0,5.661-5.24a5.675,5.675,0,0,0,.624,2.75A5.718,5.718,0,0,0,7.9-.607,6.7,6.7,0,0,0,10.144.475a9.359,9.359,0,0,0,2.5.344Z" transform="translate(-73.89 -22633.238)" fill="#ef1f1f" stroke="#ef1f1f" stroke-width="1"/>
  </g>
</svg>
