<svg xmlns="http://www.w3.org/2000/svg" width="63.011" height="42.414" viewBox="0 0 63.011 42.414">
  <g id="telugu" transform="translate(-37.392 22674.279)">
    <path id="Path_20499" data-name="Path 20499" d="M23.1-13.44H18.27v2.646h9.618V-13.44c-2.478-.084-3.948-1.554-3.948-3.906a3.2,3.2,0,0,1,.961-2.46,3.2,3.2,0,0,1,2.483-.9c2.436,0,4.242,2.184,4.242,5.8C31.626-8.19,26.5-2.6,18.438-2.6,11.088-2.6,5.88-7.518,5.25-13.566l.168-.042c.21.546,1.3,2.6,4.536,2.6a5.863,5.863,0,0,0,4.354-1.773,5.863,5.863,0,0,0,1.652-4.4,6.072,6.072,0,0,0-1.788-4.583,6.072,6.072,0,0,0-4.6-1.755c-4.074,0-7.434,3.486-7.434,8.736C2.142-6.51,8.61.378,18.438.378c9.954,0,16.338-6.972,16.338-15.288,0-5.292-3.192-8.61-7.434-8.61-3.864,0-6.258,2.478-6.258,5.838A4.685,4.685,0,0,0,23.1-13.65ZM9.534-20.748a3.408,3.408,0,0,1,2.536,1.04,3.408,3.408,0,0,1,.95,2.572,3.427,3.427,0,0,1-.982,2.642,3.427,3.427,0,0,1-2.63,1.012,3.446,3.446,0,0,1-2.659-.927,3.446,3.446,0,0,1-1.079-2.6,3.944,3.944,0,0,1,3.864-3.738Z" transform="translate(36 -22649)" fill="#bf1414" stroke="#bf1414" stroke-width="1.5"/>
    <path id="Path_20497" data-name="Path 20497" d="M1.932-1.806A17.773,17.773,0,0,0,10.92.378c6.048,0,9.282-2.856,9.282-6.594,0-8.694-14.658-4.368-14.658-10.29,0-1.974,1.89-3.738,5.712-3.738a11.87,11.87,0,0,1,6.384,1.722l1.428-2.562a11.876,11.876,0,0,0-4.242-1.68L22.344-30.2,20.16-32.424,14.2-26.418a23.238,23.238,0,0,0-2.94,3.234h-.168A27.589,27.589,0,0,0,8.316-26.25l-2.9-2.856L3.234-26.88l4.326,4.2c-3.4,1.008-5.292,3.486-5.292,6.174,0,9.282,14.616,4.662,14.616,10.332,0,2.016-1.848,3.654-5.964,3.654A16.54,16.54,0,0,1,3.276-4.536Z" transform="translate(77 -22633)" fill="#1389c3" stroke="#1389c3" stroke-width="1.5"/>
    <path id="Path_20500" data-name="Path 20500" d="M23.1-13.44H18.27v2.646h9.618V-13.44c-2.478-.084-3.948-1.554-3.948-3.906a3.2,3.2,0,0,1,.961-2.46,3.2,3.2,0,0,1,2.483-.9c2.436,0,4.242,2.184,4.242,5.8C31.626-8.19,26.5-2.6,18.438-2.6,11.088-2.6,5.88-7.518,5.25-13.566l.168-.042c.21.546,1.3,2.6,4.536,2.6a5.863,5.863,0,0,0,4.354-1.773,5.863,5.863,0,0,0,1.652-4.4,6.072,6.072,0,0,0-1.788-4.583,6.072,6.072,0,0,0-4.6-1.755c-4.074,0-7.434,3.486-7.434,8.736C2.142-6.51,8.61.378,18.438.378c9.954,0,16.338-6.972,16.338-15.288,0-5.292-3.192-8.61-7.434-8.61-3.864,0-6.258,2.478-6.258,5.838A4.685,4.685,0,0,0,23.1-13.65ZM9.534-20.748a3.408,3.408,0,0,1,2.536,1.04,3.408,3.408,0,0,1,.95,2.572,3.427,3.427,0,0,1-.982,2.642,3.427,3.427,0,0,1-2.63,1.012,3.446,3.446,0,0,1-2.659-.927,3.446,3.446,0,0,1-1.079-2.6,3.944,3.944,0,0,1,3.864-3.738Z" transform="translate(36 -22650)" fill="#e83c3b" stroke="#e83c3b" stroke-width="1.5"/>
    <path id="Path_20498" data-name="Path 20498" d="M1.932-1.806A17.773,17.773,0,0,0,10.92.378c6.048,0,9.282-2.856,9.282-6.594,0-8.694-14.658-4.368-14.658-10.29,0-1.974,1.89-3.738,5.712-3.738a11.87,11.87,0,0,1,6.384,1.722l1.428-2.562a11.876,11.876,0,0,0-4.242-1.68L22.344-30.2,20.16-32.424,14.2-26.418a23.238,23.238,0,0,0-2.94,3.234h-.168A27.589,27.589,0,0,0,8.316-26.25l-2.9-2.856L3.234-26.88l4.326,4.2c-3.4,1.008-5.292,3.486-5.292,6.174,0,9.282,14.616,4.662,14.616,10.332,0,2.016-1.848,3.654-5.964,3.654A16.54,16.54,0,0,1,3.276-4.536Z" transform="translate(77 -22634)" fill="#1ba5e8" stroke="#1ba5e8" stroke-width="1.5"/>
  </g>
</svg>
