<svg xmlns="http://www.w3.org/2000/svg" width="55.362" height="54.367" viewBox="0 0 55.362 54.367">
  <g id="urdu" transform="translate(-211.812 22692.867)">
    <path id="Path_20479" data-name="Path 20479" d="M7.392-34.368V-.48L5.328,1.2H3.312V-34.368Z" transform="translate(209 -22657)" fill="#eb5f2d" stroke="#eb5f2d" stroke-width="1"/>
    <path id="Path_20480" data-name="Path 20480" d="M38.976-35.088v3.744L26.928-24.192a22.868,22.868,0,0,1,8.688,4.32Q42.672-14.3,42.672-4.56a4.4,4.4,0,0,1-1.1,3.024A4,4,0,0,1,38.4,0H10.848A7.189,7.189,0,0,1,5.856-1.968,7.662,7.662,0,0,1,3.312-7.92v-8.832L5.9-18.864H7.392V-7.92A4.288,4.288,0,0,0,8.88-4.608,4.43,4.43,0,0,0,12-3.408H36.768q1.824,0,1.824-1.632a16.042,16.042,0,0,0-.816-4.728,15.03,15.03,0,0,0-2.064-4.344q-3.84-5.616-12.288-6.72-.288,0-.288-.336V-25.92Z" transform="translate(224 -22639)" fill="#559843" stroke="#559843" stroke-width="1"/>
    <path id="Path_20477" data-name="Path 20477" d="M7.392-34.368V-.48L5.328,1.2H3.312V-34.368Z" transform="translate(209 -22658)" fill="#f9a238" stroke="#f9a238" stroke-width="1"/>
    <path id="Path_20478" data-name="Path 20478" d="M38.976-35.088v3.744L26.928-24.192a22.868,22.868,0,0,1,8.688,4.32Q42.672-14.3,42.672-4.56a4.4,4.4,0,0,1-1.1,3.024A4,4,0,0,1,38.4,0H10.848A7.189,7.189,0,0,1,5.856-1.968,7.662,7.662,0,0,1,3.312-7.92v-8.832L5.9-18.864H7.392V-7.92A4.288,4.288,0,0,0,8.88-4.608,4.43,4.43,0,0,0,12-3.408H36.768q1.824,0,1.824-1.632a16.042,16.042,0,0,0-.816-4.728,15.03,15.03,0,0,0-2.064-4.344q-3.84-5.616-12.288-6.72-.288,0-.288-.336V-25.92Z" transform="translate(223 -22640)" fill="#afd253" stroke="#afd253" stroke-width="1"/>
  </g>
</svg>
